%TF.GenerationSoftware,KiCad,Pcbnew,8.0.3*%
%TF.CreationDate,2024-06-29T21:42:31+02:00*%
%TF.ProjectId,DMH_Adapter_Mult_PANEL,444d485f-4164-4617-9074-65725f4d756c,1*%
%TF.SameCoordinates,Original*%
%TF.FileFunction,Drillmap*%
%TF.FilePolarity,Positive*%
%FSLAX45Y45*%
G04 Gerber Fmt 4.5, Leading zero omitted, Abs format (unit mm)*
G04 Created by KiCad (PCBNEW 8.0.3) date 2024-06-29 21:42:31*
%MOMM*%
%LPD*%
G01*
G04 APERTURE LIST*
%ADD10C,0.050000*%
%ADD11C,0.200000*%
G04 APERTURE END LIST*
D10*
X7800000Y-4850000D02*
X12800000Y-4850000D01*
X12800000Y-24850000D01*
X7800000Y-24850000D01*
X7800000Y-4850000D01*
X12440000Y-20100000D02*
G75*
G02*
X11460000Y-20100000I-490000J0D01*
G01*
X11460000Y-20100000D02*
G75*
G02*
X12440000Y-20100000I490000J0D01*
G01*
X9055000Y-18450000D02*
G75*
G02*
X8245000Y-18450000I-405000J0D01*
G01*
X8245000Y-18450000D02*
G75*
G02*
X9055000Y-18450000I405000J0D01*
G01*
X10610000Y-6900000D02*
G75*
G02*
X9990000Y-6900000I-310000J0D01*
G01*
X9990000Y-6900000D02*
G75*
G02*
X10610000Y-6900000I310000J0D01*
G01*
X8905000Y-23200000D02*
G75*
G02*
X8095000Y-23200000I-405000J0D01*
G01*
X8095000Y-23200000D02*
G75*
G02*
X8905000Y-23200000I405000J0D01*
G01*
X10105000Y-23200000D02*
G75*
G02*
X9295000Y-23200000I-405000J0D01*
G01*
X9295000Y-23200000D02*
G75*
G02*
X10105000Y-23200000I405000J0D01*
G01*
X10610000Y-11850000D02*
G75*
G02*
X9990000Y-11850000I-310000J0D01*
G01*
X9990000Y-11850000D02*
G75*
G02*
X10610000Y-11850000I310000J0D01*
G01*
X10610000Y-15150000D02*
G75*
G02*
X9990000Y-15150000I-310000J0D01*
G01*
X9990000Y-15150000D02*
G75*
G02*
X10610000Y-15150000I310000J0D01*
G01*
X10610000Y-18450000D02*
G75*
G02*
X9990000Y-18450000I-310000J0D01*
G01*
X9990000Y-18450000D02*
G75*
G02*
X10610000Y-18450000I310000J0D01*
G01*
X9055000Y-13500000D02*
G75*
G02*
X8245000Y-13500000I-405000J0D01*
G01*
X8245000Y-13500000D02*
G75*
G02*
X9055000Y-13500000I405000J0D01*
G01*
X12440000Y-13500000D02*
G75*
G02*
X11460000Y-13500000I-490000J0D01*
G01*
X11460000Y-13500000D02*
G75*
G02*
X12440000Y-13500000I490000J0D01*
G01*
X12505000Y-23200000D02*
G75*
G02*
X11695000Y-23200000I-405000J0D01*
G01*
X11695000Y-23200000D02*
G75*
G02*
X12505000Y-23200000I405000J0D01*
G01*
X12440000Y-6900000D02*
G75*
G02*
X11460000Y-6900000I-490000J0D01*
G01*
X11460000Y-6900000D02*
G75*
G02*
X12440000Y-6900000I490000J0D01*
G01*
X12440000Y-8550000D02*
G75*
G02*
X11460000Y-8550000I-490000J0D01*
G01*
X11460000Y-8550000D02*
G75*
G02*
X12440000Y-8550000I490000J0D01*
G01*
X12440000Y-10200000D02*
G75*
G02*
X11460000Y-10200000I-490000J0D01*
G01*
X11460000Y-10200000D02*
G75*
G02*
X12440000Y-10200000I490000J0D01*
G01*
X12440000Y-18450000D02*
G75*
G02*
X11460000Y-18450000I-490000J0D01*
G01*
X11460000Y-18450000D02*
G75*
G02*
X12440000Y-18450000I490000J0D01*
G01*
X10610000Y-13500000D02*
G75*
G02*
X9990000Y-13500000I-310000J0D01*
G01*
X9990000Y-13500000D02*
G75*
G02*
X10610000Y-13500000I310000J0D01*
G01*
X11305000Y-23200000D02*
G75*
G02*
X10495000Y-23200000I-405000J0D01*
G01*
X10495000Y-23200000D02*
G75*
G02*
X11305000Y-23200000I405000J0D01*
G01*
X12440000Y-16800000D02*
G75*
G02*
X11460000Y-16800000I-490000J0D01*
G01*
X11460000Y-16800000D02*
G75*
G02*
X12440000Y-16800000I490000J0D01*
G01*
X9055000Y-10200000D02*
G75*
G02*
X8245000Y-10200000I-405000J0D01*
G01*
X8245000Y-10200000D02*
G75*
G02*
X9055000Y-10200000I405000J0D01*
G01*
X9055000Y-20100000D02*
G75*
G02*
X8245000Y-20100000I-405000J0D01*
G01*
X8245000Y-20100000D02*
G75*
G02*
X9055000Y-20100000I405000J0D01*
G01*
X12440000Y-21750000D02*
G75*
G02*
X11460000Y-21750000I-490000J0D01*
G01*
X11460000Y-21750000D02*
G75*
G02*
X12440000Y-21750000I490000J0D01*
G01*
X9055000Y-6900000D02*
G75*
G02*
X8245000Y-6900000I-405000J0D01*
G01*
X8245000Y-6900000D02*
G75*
G02*
X9055000Y-6900000I405000J0D01*
G01*
X10610000Y-21750000D02*
G75*
G02*
X9990000Y-21750000I-310000J0D01*
G01*
X9990000Y-21750000D02*
G75*
G02*
X10610000Y-21750000I310000J0D01*
G01*
X10610000Y-20100000D02*
G75*
G02*
X9990000Y-20100000I-310000J0D01*
G01*
X9990000Y-20100000D02*
G75*
G02*
X10610000Y-20100000I310000J0D01*
G01*
X12440000Y-11850000D02*
G75*
G02*
X11460000Y-11850000I-490000J0D01*
G01*
X11460000Y-11850000D02*
G75*
G02*
X12440000Y-11850000I490000J0D01*
G01*
X12440000Y-15150000D02*
G75*
G02*
X11460000Y-15150000I-490000J0D01*
G01*
X11460000Y-15150000D02*
G75*
G02*
X12440000Y-15150000I490000J0D01*
G01*
X10610000Y-16800000D02*
G75*
G02*
X9990000Y-16800000I-310000J0D01*
G01*
X9990000Y-16800000D02*
G75*
G02*
X10610000Y-16800000I310000J0D01*
G01*
X9055000Y-16800000D02*
G75*
G02*
X8245000Y-16800000I-405000J0D01*
G01*
X8245000Y-16800000D02*
G75*
G02*
X9055000Y-16800000I405000J0D01*
G01*
X9055000Y-21750000D02*
G75*
G02*
X8245000Y-21750000I-405000J0D01*
G01*
X8245000Y-21750000D02*
G75*
G02*
X9055000Y-21750000I405000J0D01*
G01*
X10610000Y-8550000D02*
G75*
G02*
X9990000Y-8550000I-310000J0D01*
G01*
X9990000Y-8550000D02*
G75*
G02*
X10610000Y-8550000I310000J0D01*
G01*
X10610000Y-10200000D02*
G75*
G02*
X9990000Y-10200000I-310000J0D01*
G01*
X9990000Y-10200000D02*
G75*
G02*
X10610000Y-10200000I310000J0D01*
G01*
D11*
X8058277Y-25163984D02*
X8058277Y-24963984D01*
X8058277Y-24963984D02*
X8105896Y-24963984D01*
X8105896Y-24963984D02*
X8134467Y-24973508D01*
X8134467Y-24973508D02*
X8153515Y-24992555D01*
X8153515Y-24992555D02*
X8163039Y-25011603D01*
X8163039Y-25011603D02*
X8172562Y-25049698D01*
X8172562Y-25049698D02*
X8172562Y-25078269D01*
X8172562Y-25078269D02*
X8163039Y-25116365D01*
X8163039Y-25116365D02*
X8153515Y-25135412D01*
X8153515Y-25135412D02*
X8134467Y-25154460D01*
X8134467Y-25154460D02*
X8105896Y-25163984D01*
X8105896Y-25163984D02*
X8058277Y-25163984D01*
X8258277Y-25163984D02*
X8258277Y-25030650D01*
X8258277Y-25068746D02*
X8267801Y-25049698D01*
X8267801Y-25049698D02*
X8277324Y-25040174D01*
X8277324Y-25040174D02*
X8296372Y-25030650D01*
X8296372Y-25030650D02*
X8315420Y-25030650D01*
X8382086Y-25163984D02*
X8382086Y-25030650D01*
X8382086Y-24963984D02*
X8372562Y-24973508D01*
X8372562Y-24973508D02*
X8382086Y-24983031D01*
X8382086Y-24983031D02*
X8391610Y-24973508D01*
X8391610Y-24973508D02*
X8382086Y-24963984D01*
X8382086Y-24963984D02*
X8382086Y-24983031D01*
X8505896Y-25163984D02*
X8486848Y-25154460D01*
X8486848Y-25154460D02*
X8477324Y-25135412D01*
X8477324Y-25135412D02*
X8477324Y-24963984D01*
X8610658Y-25163984D02*
X8591610Y-25154460D01*
X8591610Y-25154460D02*
X8582086Y-25135412D01*
X8582086Y-25135412D02*
X8582086Y-24963984D01*
X8839229Y-25163984D02*
X8839229Y-24963984D01*
X8839229Y-24963984D02*
X8905896Y-25106841D01*
X8905896Y-25106841D02*
X8972563Y-24963984D01*
X8972563Y-24963984D02*
X8972563Y-25163984D01*
X9153515Y-25163984D02*
X9153515Y-25059222D01*
X9153515Y-25059222D02*
X9143991Y-25040174D01*
X9143991Y-25040174D02*
X9124944Y-25030650D01*
X9124944Y-25030650D02*
X9086848Y-25030650D01*
X9086848Y-25030650D02*
X9067801Y-25040174D01*
X9153515Y-25154460D02*
X9134467Y-25163984D01*
X9134467Y-25163984D02*
X9086848Y-25163984D01*
X9086848Y-25163984D02*
X9067801Y-25154460D01*
X9067801Y-25154460D02*
X9058277Y-25135412D01*
X9058277Y-25135412D02*
X9058277Y-25116365D01*
X9058277Y-25116365D02*
X9067801Y-25097317D01*
X9067801Y-25097317D02*
X9086848Y-25087793D01*
X9086848Y-25087793D02*
X9134467Y-25087793D01*
X9134467Y-25087793D02*
X9153515Y-25078269D01*
X9248753Y-25030650D02*
X9248753Y-25230650D01*
X9248753Y-25040174D02*
X9267801Y-25030650D01*
X9267801Y-25030650D02*
X9305896Y-25030650D01*
X9305896Y-25030650D02*
X9324944Y-25040174D01*
X9324944Y-25040174D02*
X9334467Y-25049698D01*
X9334467Y-25049698D02*
X9343991Y-25068746D01*
X9343991Y-25068746D02*
X9343991Y-25125888D01*
X9343991Y-25125888D02*
X9334467Y-25144936D01*
X9334467Y-25144936D02*
X9324944Y-25154460D01*
X9324944Y-25154460D02*
X9305896Y-25163984D01*
X9305896Y-25163984D02*
X9267801Y-25163984D01*
X9267801Y-25163984D02*
X9248753Y-25154460D01*
X9429705Y-25144936D02*
X9439229Y-25154460D01*
X9439229Y-25154460D02*
X9429705Y-25163984D01*
X9429705Y-25163984D02*
X9420182Y-25154460D01*
X9420182Y-25154460D02*
X9429705Y-25144936D01*
X9429705Y-25144936D02*
X9429705Y-25163984D01*
X9429705Y-25040174D02*
X9439229Y-25049698D01*
X9439229Y-25049698D02*
X9429705Y-25059222D01*
X9429705Y-25059222D02*
X9420182Y-25049698D01*
X9420182Y-25049698D02*
X9429705Y-25040174D01*
X9429705Y-25040174D02*
X9429705Y-25059222D01*
M02*
