G04 #@! TF.GenerationSoftware,KiCad,Pcbnew,8.0.3*
G04 #@! TF.CreationDate,2024-06-29T00:18:08+02:00*
G04 #@! TF.ProjectId,DMH_Adapter_Mult_PANEL,444d485f-4164-4617-9074-65725f4d756c,1*
G04 #@! TF.SameCoordinates,Original*
G04 #@! TF.FileFunction,Copper,L2,Bot*
G04 #@! TF.FilePolarity,Positive*
%FSLAX46Y46*%
G04 Gerber Fmt 4.6, Leading zero omitted, Abs format (unit mm)*
G04 Created by KiCad (PCBNEW 8.0.3) date 2024-06-29 00:18:08*
%MOMM*%
%LPD*%
G01*
G04 APERTURE LIST*
G04 #@! TA.AperFunction,ComponentPad*
%ADD10C,0.500000*%
G04 #@! TD*
G04 #@! TA.AperFunction,ConnectorPad*
%ADD11C,12.000000*%
G04 #@! TD*
G04 #@! TA.AperFunction,ComponentPad*
%ADD12C,4.000000*%
G04 #@! TD*
G04 #@! TA.AperFunction,ConnectorPad*
%ADD13C,13.000000*%
G04 #@! TD*
G04 #@! TA.AperFunction,ComponentPad*
%ADD14C,2.600000*%
G04 #@! TD*
G04 #@! TA.AperFunction,ComponentPad*
%ADD15C,13.000000*%
G04 #@! TD*
G04 APERTURE END LIST*
D10*
X113800000Y-201000000D03*
X115460000Y-196970000D03*
X115470000Y-205040000D03*
X119500000Y-195300000D03*
D11*
X119500000Y-201000000D03*
D10*
X119500000Y-206700000D03*
X123530000Y-205040000D03*
X123540000Y-196970000D03*
X125200000Y-201000000D03*
D12*
X81500000Y-245000000D03*
D10*
X97300000Y-69000000D03*
X98960000Y-64970000D03*
X98970000Y-73040000D03*
X103000000Y-63300000D03*
D13*
X103000000Y-69000000D03*
D10*
X103000000Y-74700000D03*
X107030000Y-73040000D03*
X107040000Y-64970000D03*
X108700000Y-69000000D03*
X97300000Y-118500000D03*
X98960000Y-114470000D03*
X98970000Y-122540000D03*
X103000000Y-112800000D03*
D13*
X103000000Y-118500000D03*
D10*
X103000000Y-124200000D03*
X107030000Y-122540000D03*
X107040000Y-114470000D03*
X108700000Y-118500000D03*
D12*
X124500000Y-52000000D03*
D10*
X97300000Y-151500000D03*
X98960000Y-147470000D03*
X98970000Y-155540000D03*
X103000000Y-145800000D03*
D13*
X103000000Y-151500000D03*
D10*
X103000000Y-157200000D03*
X107030000Y-155540000D03*
X107040000Y-147470000D03*
X108700000Y-151500000D03*
X97300000Y-184500000D03*
X98960000Y-180470000D03*
X98970000Y-188540000D03*
X103000000Y-178800000D03*
D13*
X103000000Y-184500000D03*
D10*
X103000000Y-190200000D03*
X107030000Y-188540000D03*
X107040000Y-180470000D03*
X108700000Y-184500000D03*
X113800000Y-135000000D03*
X115460000Y-130970000D03*
X115470000Y-139040000D03*
X119500000Y-129300000D03*
D11*
X119500000Y-135000000D03*
D10*
X119500000Y-140700000D03*
X123530000Y-139040000D03*
X123540000Y-130970000D03*
X125200000Y-135000000D03*
X113800000Y-69000000D03*
X115460000Y-64970000D03*
X115470000Y-73040000D03*
X119500000Y-63300000D03*
D11*
X119500000Y-69000000D03*
D10*
X119500000Y-74700000D03*
X123530000Y-73040000D03*
X123540000Y-64970000D03*
X125200000Y-69000000D03*
X113800000Y-85500000D03*
X115460000Y-81470000D03*
X115470000Y-89540000D03*
X119500000Y-79800000D03*
D11*
X119500000Y-85500000D03*
D10*
X119500000Y-91200000D03*
X123530000Y-89540000D03*
X123540000Y-81470000D03*
X125200000Y-85500000D03*
X113800000Y-102000000D03*
X115460000Y-97970000D03*
X115470000Y-106040000D03*
X119500000Y-96300000D03*
D11*
X119500000Y-102000000D03*
D10*
X119500000Y-107700000D03*
X123530000Y-106040000D03*
X123540000Y-97970000D03*
X125200000Y-102000000D03*
X113800000Y-184500000D03*
X115460000Y-180470000D03*
X115470000Y-188540000D03*
X119500000Y-178800000D03*
D11*
X119500000Y-184500000D03*
D10*
X119500000Y-190200000D03*
X123530000Y-188540000D03*
X123540000Y-180470000D03*
X125200000Y-184500000D03*
X97300000Y-135000000D03*
X98960000Y-130970000D03*
X98970000Y-139040000D03*
X103000000Y-129300000D03*
D13*
X103000000Y-135000000D03*
D10*
X103000000Y-140700000D03*
X107030000Y-139040000D03*
X107040000Y-130970000D03*
X108700000Y-135000000D03*
D14*
X86500000Y-112100000D03*
D15*
X86500000Y-118500000D03*
D10*
X113800000Y-168000000D03*
X115460000Y-163970000D03*
X115470000Y-172040000D03*
X119500000Y-162300000D03*
D11*
X119500000Y-168000000D03*
D10*
X119500000Y-173700000D03*
X123530000Y-172040000D03*
X123540000Y-163970000D03*
X125200000Y-168000000D03*
X113800000Y-217500000D03*
X115460000Y-213470000D03*
X115470000Y-221540000D03*
X119500000Y-211800000D03*
D11*
X119500000Y-217500000D03*
D10*
X119500000Y-223200000D03*
X123530000Y-221540000D03*
X123540000Y-213470000D03*
X125200000Y-217500000D03*
X97300000Y-217500000D03*
X98960000Y-213470000D03*
X98970000Y-221540000D03*
X103000000Y-211800000D03*
D13*
X103000000Y-217500000D03*
D10*
X103000000Y-223200000D03*
X107030000Y-221540000D03*
X107040000Y-213470000D03*
X108700000Y-217500000D03*
X97300000Y-201000000D03*
X98960000Y-196970000D03*
X98970000Y-205040000D03*
X103000000Y-195300000D03*
D13*
X103000000Y-201000000D03*
D10*
X103000000Y-206700000D03*
X107030000Y-205040000D03*
X107040000Y-196970000D03*
X108700000Y-201000000D03*
X113800000Y-118500000D03*
X115460000Y-114470000D03*
X115470000Y-122540000D03*
X119500000Y-112800000D03*
D11*
X119500000Y-118500000D03*
D10*
X119500000Y-124200000D03*
X123530000Y-122540000D03*
X123540000Y-114470000D03*
X125200000Y-118500000D03*
X113800000Y-151500000D03*
X115460000Y-147470000D03*
X115470000Y-155540000D03*
X119500000Y-145800000D03*
D11*
X119500000Y-151500000D03*
D10*
X119500000Y-157200000D03*
X123530000Y-155540000D03*
X123540000Y-147470000D03*
X125200000Y-151500000D03*
X97300000Y-168000000D03*
X98960000Y-163970000D03*
X98970000Y-172040000D03*
X103000000Y-162300000D03*
D13*
X103000000Y-168000000D03*
D10*
X103000000Y-173700000D03*
X107030000Y-172040000D03*
X107040000Y-163970000D03*
X108700000Y-168000000D03*
D12*
X81500000Y-52000000D03*
D14*
X86500000Y-79100000D03*
D15*
X86500000Y-85500000D03*
D12*
X124500000Y-245000000D03*
D10*
X97300000Y-85500000D03*
X98960000Y-81470000D03*
X98970000Y-89540000D03*
X103000000Y-79800000D03*
D13*
X103000000Y-85500000D03*
D10*
X103000000Y-91200000D03*
X107030000Y-89540000D03*
X107040000Y-81470000D03*
X108700000Y-85500000D03*
X97300000Y-102000000D03*
X98960000Y-97970000D03*
X98970000Y-106040000D03*
X103000000Y-96300000D03*
D13*
X103000000Y-102000000D03*
D10*
X103000000Y-107700000D03*
X107030000Y-106040000D03*
X107040000Y-97970000D03*
X108700000Y-102000000D03*
D14*
X86500000Y-145100000D03*
D15*
X86500000Y-151500000D03*
G04 #@! TA.AperFunction,Conductor*
G36*
X127442539Y-49020185D02*
G01*
X127488294Y-49072989D01*
X127499500Y-49124500D01*
X127499500Y-247875500D01*
X127479815Y-247942539D01*
X127427011Y-247988294D01*
X127375500Y-247999500D01*
X78624500Y-247999500D01*
X78557461Y-247979815D01*
X78511706Y-247927011D01*
X78500500Y-247875500D01*
X78500500Y-232000000D01*
X80444639Y-232000000D01*
X80464071Y-232420316D01*
X80464071Y-232420322D01*
X80464072Y-232420324D01*
X80522203Y-232837044D01*
X80522204Y-232837050D01*
X80618536Y-233246631D01*
X80752256Y-233645597D01*
X80752257Y-233645601D01*
X80922199Y-234030480D01*
X80922204Y-234030490D01*
X80922208Y-234030499D01*
X80922212Y-234030507D01*
X80922213Y-234030508D01*
X81126949Y-234398081D01*
X81126952Y-234398085D01*
X81126954Y-234398089D01*
X81364743Y-234745218D01*
X81364745Y-234745220D01*
X81364752Y-234745230D01*
X81469694Y-234871606D01*
X81633548Y-235068927D01*
X81931073Y-235366452D01*
X81931084Y-235366461D01*
X82254769Y-235635247D01*
X82254775Y-235635251D01*
X82254782Y-235635257D01*
X82601911Y-235873046D01*
X82969501Y-236077792D01*
X82969518Y-236077799D01*
X82969519Y-236077800D01*
X83354398Y-236247742D01*
X83354402Y-236247743D01*
X83354404Y-236247743D01*
X83354414Y-236247748D01*
X83753366Y-236381463D01*
X84162955Y-236477797D01*
X84579684Y-236535929D01*
X85000000Y-236555361D01*
X85420316Y-236535929D01*
X85837045Y-236477797D01*
X86246634Y-236381463D01*
X86645586Y-236247748D01*
X86645597Y-236247742D01*
X86645601Y-236247742D01*
X86882482Y-236143147D01*
X87030499Y-236077792D01*
X87398089Y-235873046D01*
X87745218Y-235635257D01*
X88068927Y-235366452D01*
X88366452Y-235068927D01*
X88635257Y-234745218D01*
X88873046Y-234398089D01*
X89077792Y-234030499D01*
X89143147Y-233882482D01*
X89247742Y-233645601D01*
X89247743Y-233645597D01*
X89247748Y-233645586D01*
X89381463Y-233246634D01*
X89477797Y-232837045D01*
X89535929Y-232420316D01*
X89555361Y-232000000D01*
X92444639Y-232000000D01*
X92464071Y-232420316D01*
X92464071Y-232420322D01*
X92464072Y-232420324D01*
X92522203Y-232837044D01*
X92522204Y-232837050D01*
X92618536Y-233246631D01*
X92752256Y-233645597D01*
X92752257Y-233645601D01*
X92922199Y-234030480D01*
X92922204Y-234030490D01*
X92922208Y-234030499D01*
X92922212Y-234030507D01*
X92922213Y-234030508D01*
X93126949Y-234398081D01*
X93126952Y-234398085D01*
X93126954Y-234398089D01*
X93364743Y-234745218D01*
X93364745Y-234745220D01*
X93364752Y-234745230D01*
X93469694Y-234871606D01*
X93633548Y-235068927D01*
X93931073Y-235366452D01*
X93931084Y-235366461D01*
X94254769Y-235635247D01*
X94254775Y-235635251D01*
X94254782Y-235635257D01*
X94601911Y-235873046D01*
X94969501Y-236077792D01*
X94969518Y-236077799D01*
X94969519Y-236077800D01*
X95354398Y-236247742D01*
X95354402Y-236247743D01*
X95354404Y-236247743D01*
X95354414Y-236247748D01*
X95753366Y-236381463D01*
X96162955Y-236477797D01*
X96579684Y-236535929D01*
X97000000Y-236555361D01*
X97420316Y-236535929D01*
X97837045Y-236477797D01*
X98246634Y-236381463D01*
X98645586Y-236247748D01*
X98645597Y-236247742D01*
X98645601Y-236247742D01*
X98882482Y-236143147D01*
X99030499Y-236077792D01*
X99398089Y-235873046D01*
X99745218Y-235635257D01*
X100068927Y-235366452D01*
X100366452Y-235068927D01*
X100635257Y-234745218D01*
X100873046Y-234398089D01*
X101077792Y-234030499D01*
X101143147Y-233882482D01*
X101247742Y-233645601D01*
X101247743Y-233645597D01*
X101247748Y-233645586D01*
X101381463Y-233246634D01*
X101477797Y-232837045D01*
X101535929Y-232420316D01*
X101555361Y-232000000D01*
X104444639Y-232000000D01*
X104464071Y-232420316D01*
X104464071Y-232420322D01*
X104464072Y-232420324D01*
X104522203Y-232837044D01*
X104522204Y-232837050D01*
X104618536Y-233246631D01*
X104752256Y-233645597D01*
X104752257Y-233645601D01*
X104922199Y-234030480D01*
X104922204Y-234030490D01*
X104922208Y-234030499D01*
X104922212Y-234030507D01*
X104922213Y-234030508D01*
X105126949Y-234398081D01*
X105126952Y-234398085D01*
X105126954Y-234398089D01*
X105364743Y-234745218D01*
X105364745Y-234745220D01*
X105364752Y-234745230D01*
X105469694Y-234871606D01*
X105633548Y-235068927D01*
X105931073Y-235366452D01*
X105931084Y-235366461D01*
X106254769Y-235635247D01*
X106254775Y-235635251D01*
X106254782Y-235635257D01*
X106601911Y-235873046D01*
X106969501Y-236077792D01*
X106969518Y-236077799D01*
X106969519Y-236077800D01*
X107354398Y-236247742D01*
X107354402Y-236247743D01*
X107354404Y-236247743D01*
X107354414Y-236247748D01*
X107753366Y-236381463D01*
X108162955Y-236477797D01*
X108579684Y-236535929D01*
X109000000Y-236555361D01*
X109420316Y-236535929D01*
X109837045Y-236477797D01*
X110246634Y-236381463D01*
X110645586Y-236247748D01*
X110645597Y-236247742D01*
X110645601Y-236247742D01*
X110882482Y-236143147D01*
X111030499Y-236077792D01*
X111398089Y-235873046D01*
X111745218Y-235635257D01*
X112068927Y-235366452D01*
X112366452Y-235068927D01*
X112635257Y-234745218D01*
X112873046Y-234398089D01*
X113077792Y-234030499D01*
X113143147Y-233882482D01*
X113247742Y-233645601D01*
X113247743Y-233645597D01*
X113247748Y-233645586D01*
X113381463Y-233246634D01*
X113477797Y-232837045D01*
X113535929Y-232420316D01*
X113555361Y-232000000D01*
X116444639Y-232000000D01*
X116464071Y-232420316D01*
X116464071Y-232420322D01*
X116464072Y-232420324D01*
X116522203Y-232837044D01*
X116522204Y-232837050D01*
X116618536Y-233246631D01*
X116752256Y-233645597D01*
X116752257Y-233645601D01*
X116922199Y-234030480D01*
X116922204Y-234030490D01*
X116922208Y-234030499D01*
X116922212Y-234030507D01*
X116922213Y-234030508D01*
X117126949Y-234398081D01*
X117126952Y-234398085D01*
X117126954Y-234398089D01*
X117364743Y-234745218D01*
X117364745Y-234745220D01*
X117364752Y-234745230D01*
X117469694Y-234871606D01*
X117633548Y-235068927D01*
X117931073Y-235366452D01*
X117931084Y-235366461D01*
X118254769Y-235635247D01*
X118254775Y-235635251D01*
X118254782Y-235635257D01*
X118601911Y-235873046D01*
X118969501Y-236077792D01*
X118969518Y-236077799D01*
X118969519Y-236077800D01*
X119354398Y-236247742D01*
X119354402Y-236247743D01*
X119354404Y-236247743D01*
X119354414Y-236247748D01*
X119753366Y-236381463D01*
X120162955Y-236477797D01*
X120579684Y-236535929D01*
X121000000Y-236555361D01*
X121420316Y-236535929D01*
X121837045Y-236477797D01*
X122246634Y-236381463D01*
X122645586Y-236247748D01*
X122645597Y-236247742D01*
X122645601Y-236247742D01*
X122882482Y-236143147D01*
X123030499Y-236077792D01*
X123398089Y-235873046D01*
X123745218Y-235635257D01*
X124068927Y-235366452D01*
X124366452Y-235068927D01*
X124635257Y-234745218D01*
X124873046Y-234398089D01*
X125077792Y-234030499D01*
X125143147Y-233882482D01*
X125247742Y-233645601D01*
X125247743Y-233645597D01*
X125247748Y-233645586D01*
X125381463Y-233246634D01*
X125477797Y-232837045D01*
X125535929Y-232420316D01*
X125555361Y-232000000D01*
X125535929Y-231579684D01*
X125477797Y-231162955D01*
X125381463Y-230753366D01*
X125247748Y-230354414D01*
X125247743Y-230354402D01*
X125247742Y-230354398D01*
X125077800Y-229969519D01*
X125077799Y-229969518D01*
X125077792Y-229969501D01*
X124911998Y-229671844D01*
X124873050Y-229601918D01*
X124873049Y-229601917D01*
X124873046Y-229601911D01*
X124635257Y-229254782D01*
X124635251Y-229254775D01*
X124635247Y-229254769D01*
X124366461Y-228931084D01*
X124366452Y-228931073D01*
X124068927Y-228633548D01*
X123871908Y-228469945D01*
X123745230Y-228364752D01*
X123745220Y-228364745D01*
X123745218Y-228364743D01*
X123398089Y-228126954D01*
X123398085Y-228126952D01*
X123398081Y-228126949D01*
X123030508Y-227922213D01*
X123030507Y-227922212D01*
X123030499Y-227922208D01*
X123030490Y-227922204D01*
X123030480Y-227922199D01*
X122645601Y-227752257D01*
X122645597Y-227752256D01*
X122645588Y-227752253D01*
X122645586Y-227752252D01*
X122246634Y-227618537D01*
X122246633Y-227618536D01*
X122246631Y-227618536D01*
X121837050Y-227522204D01*
X121837047Y-227522203D01*
X121837045Y-227522203D01*
X121609493Y-227490460D01*
X121420324Y-227464072D01*
X121420322Y-227464071D01*
X121420316Y-227464071D01*
X121000000Y-227444639D01*
X120579684Y-227464071D01*
X120579677Y-227464071D01*
X120579675Y-227464072D01*
X120162955Y-227522203D01*
X120162949Y-227522204D01*
X119753368Y-227618536D01*
X119354402Y-227752256D01*
X119354398Y-227752257D01*
X118969519Y-227922199D01*
X118969491Y-227922213D01*
X118601918Y-228126949D01*
X118601912Y-228126953D01*
X118254779Y-228364745D01*
X118254769Y-228364752D01*
X117931084Y-228633538D01*
X117931064Y-228633556D01*
X117633556Y-228931064D01*
X117633538Y-228931084D01*
X117364752Y-229254769D01*
X117364745Y-229254779D01*
X117126953Y-229601912D01*
X117126949Y-229601918D01*
X116922213Y-229969491D01*
X116922199Y-229969519D01*
X116752257Y-230354398D01*
X116752256Y-230354402D01*
X116618536Y-230753368D01*
X116522204Y-231162949D01*
X116522203Y-231162955D01*
X116464071Y-231579684D01*
X116444639Y-232000000D01*
X113555361Y-232000000D01*
X113535929Y-231579684D01*
X113477797Y-231162955D01*
X113381463Y-230753366D01*
X113247748Y-230354414D01*
X113247743Y-230354402D01*
X113247742Y-230354398D01*
X113077800Y-229969519D01*
X113077799Y-229969518D01*
X113077792Y-229969501D01*
X112911998Y-229671844D01*
X112873050Y-229601918D01*
X112873049Y-229601917D01*
X112873046Y-229601911D01*
X112635257Y-229254782D01*
X112635251Y-229254775D01*
X112635247Y-229254769D01*
X112366461Y-228931084D01*
X112366452Y-228931073D01*
X112068927Y-228633548D01*
X111871908Y-228469945D01*
X111745230Y-228364752D01*
X111745220Y-228364745D01*
X111745218Y-228364743D01*
X111398089Y-228126954D01*
X111398085Y-228126952D01*
X111398081Y-228126949D01*
X111030508Y-227922213D01*
X111030507Y-227922212D01*
X111030499Y-227922208D01*
X111030490Y-227922204D01*
X111030480Y-227922199D01*
X110645601Y-227752257D01*
X110645597Y-227752256D01*
X110645588Y-227752253D01*
X110645586Y-227752252D01*
X110246634Y-227618537D01*
X110246633Y-227618536D01*
X110246631Y-227618536D01*
X109837050Y-227522204D01*
X109837047Y-227522203D01*
X109837045Y-227522203D01*
X109609493Y-227490460D01*
X109420324Y-227464072D01*
X109420322Y-227464071D01*
X109420316Y-227464071D01*
X109000000Y-227444639D01*
X108579684Y-227464071D01*
X108579677Y-227464071D01*
X108579675Y-227464072D01*
X108162955Y-227522203D01*
X108162949Y-227522204D01*
X107753368Y-227618536D01*
X107354402Y-227752256D01*
X107354398Y-227752257D01*
X106969519Y-227922199D01*
X106969491Y-227922213D01*
X106601918Y-228126949D01*
X106601912Y-228126953D01*
X106254779Y-228364745D01*
X106254769Y-228364752D01*
X105931084Y-228633538D01*
X105931064Y-228633556D01*
X105633556Y-228931064D01*
X105633538Y-228931084D01*
X105364752Y-229254769D01*
X105364745Y-229254779D01*
X105126953Y-229601912D01*
X105126949Y-229601918D01*
X104922213Y-229969491D01*
X104922199Y-229969519D01*
X104752257Y-230354398D01*
X104752256Y-230354402D01*
X104618536Y-230753368D01*
X104522204Y-231162949D01*
X104522203Y-231162955D01*
X104464071Y-231579684D01*
X104444639Y-232000000D01*
X101555361Y-232000000D01*
X101535929Y-231579684D01*
X101477797Y-231162955D01*
X101381463Y-230753366D01*
X101247748Y-230354414D01*
X101247743Y-230354402D01*
X101247742Y-230354398D01*
X101077800Y-229969519D01*
X101077799Y-229969518D01*
X101077792Y-229969501D01*
X100911998Y-229671844D01*
X100873050Y-229601918D01*
X100873049Y-229601917D01*
X100873046Y-229601911D01*
X100635257Y-229254782D01*
X100635251Y-229254775D01*
X100635247Y-229254769D01*
X100366461Y-228931084D01*
X100366452Y-228931073D01*
X100068927Y-228633548D01*
X99871908Y-228469945D01*
X99745230Y-228364752D01*
X99745220Y-228364745D01*
X99745218Y-228364743D01*
X99398089Y-228126954D01*
X99398085Y-228126952D01*
X99398081Y-228126949D01*
X99030508Y-227922213D01*
X99030507Y-227922212D01*
X99030499Y-227922208D01*
X99030490Y-227922204D01*
X99030480Y-227922199D01*
X98645601Y-227752257D01*
X98645597Y-227752256D01*
X98645588Y-227752253D01*
X98645586Y-227752252D01*
X98246634Y-227618537D01*
X98246633Y-227618536D01*
X98246631Y-227618536D01*
X97837050Y-227522204D01*
X97837047Y-227522203D01*
X97837045Y-227522203D01*
X97609493Y-227490460D01*
X97420324Y-227464072D01*
X97420322Y-227464071D01*
X97420316Y-227464071D01*
X97000000Y-227444639D01*
X96579684Y-227464071D01*
X96579677Y-227464071D01*
X96579675Y-227464072D01*
X96162955Y-227522203D01*
X96162949Y-227522204D01*
X95753368Y-227618536D01*
X95354402Y-227752256D01*
X95354398Y-227752257D01*
X94969519Y-227922199D01*
X94969491Y-227922213D01*
X94601918Y-228126949D01*
X94601912Y-228126953D01*
X94254779Y-228364745D01*
X94254769Y-228364752D01*
X93931084Y-228633538D01*
X93931064Y-228633556D01*
X93633556Y-228931064D01*
X93633538Y-228931084D01*
X93364752Y-229254769D01*
X93364745Y-229254779D01*
X93126953Y-229601912D01*
X93126949Y-229601918D01*
X92922213Y-229969491D01*
X92922199Y-229969519D01*
X92752257Y-230354398D01*
X92752256Y-230354402D01*
X92618536Y-230753368D01*
X92522204Y-231162949D01*
X92522203Y-231162955D01*
X92464071Y-231579684D01*
X92444639Y-232000000D01*
X89555361Y-232000000D01*
X89535929Y-231579684D01*
X89477797Y-231162955D01*
X89381463Y-230753366D01*
X89247748Y-230354414D01*
X89247743Y-230354402D01*
X89247742Y-230354398D01*
X89077800Y-229969519D01*
X89077799Y-229969518D01*
X89077792Y-229969501D01*
X88911998Y-229671844D01*
X88873050Y-229601918D01*
X88873049Y-229601917D01*
X88873046Y-229601911D01*
X88635257Y-229254782D01*
X88635251Y-229254775D01*
X88635247Y-229254769D01*
X88366461Y-228931084D01*
X88366452Y-228931073D01*
X88068927Y-228633548D01*
X87871908Y-228469945D01*
X87745230Y-228364752D01*
X87745220Y-228364745D01*
X87745218Y-228364743D01*
X87398089Y-228126954D01*
X87398085Y-228126952D01*
X87398081Y-228126949D01*
X87030508Y-227922213D01*
X87030507Y-227922212D01*
X87030499Y-227922208D01*
X87030490Y-227922204D01*
X87030480Y-227922199D01*
X86645601Y-227752257D01*
X86645597Y-227752256D01*
X86645588Y-227752253D01*
X86645586Y-227752252D01*
X86246634Y-227618537D01*
X86246633Y-227618536D01*
X86246631Y-227618536D01*
X85837050Y-227522204D01*
X85837047Y-227522203D01*
X85837045Y-227522203D01*
X85609493Y-227490460D01*
X85420324Y-227464072D01*
X85420322Y-227464071D01*
X85420316Y-227464071D01*
X85000000Y-227444639D01*
X84579684Y-227464071D01*
X84579677Y-227464071D01*
X84579675Y-227464072D01*
X84162955Y-227522203D01*
X84162949Y-227522204D01*
X83753368Y-227618536D01*
X83354402Y-227752256D01*
X83354398Y-227752257D01*
X82969519Y-227922199D01*
X82969491Y-227922213D01*
X82601918Y-228126949D01*
X82601912Y-228126953D01*
X82254779Y-228364745D01*
X82254769Y-228364752D01*
X81931084Y-228633538D01*
X81931064Y-228633556D01*
X81633556Y-228931064D01*
X81633538Y-228931084D01*
X81364752Y-229254769D01*
X81364745Y-229254779D01*
X81126953Y-229601912D01*
X81126949Y-229601918D01*
X80922213Y-229969491D01*
X80922199Y-229969519D01*
X80752257Y-230354398D01*
X80752256Y-230354402D01*
X80618536Y-230753368D01*
X80522204Y-231162949D01*
X80522203Y-231162955D01*
X80464071Y-231579684D01*
X80444639Y-232000000D01*
X78500500Y-232000000D01*
X78500500Y-217500000D01*
X81944639Y-217500000D01*
X81964071Y-217920316D01*
X81964071Y-217920322D01*
X81964072Y-217920324D01*
X81990460Y-218109493D01*
X82021584Y-218332611D01*
X82022203Y-218337044D01*
X82022204Y-218337050D01*
X82109461Y-218708048D01*
X82118537Y-218746634D01*
X82157215Y-218862035D01*
X82252256Y-219145597D01*
X82252257Y-219145601D01*
X82422199Y-219530480D01*
X82422204Y-219530490D01*
X82422208Y-219530499D01*
X82422212Y-219530507D01*
X82422213Y-219530508D01*
X82626949Y-219898081D01*
X82626952Y-219898085D01*
X82626954Y-219898089D01*
X82864743Y-220245218D01*
X82864745Y-220245220D01*
X82864752Y-220245230D01*
X82969694Y-220371606D01*
X83133548Y-220568927D01*
X83431073Y-220866452D01*
X83431084Y-220866461D01*
X83754769Y-221135247D01*
X83754775Y-221135251D01*
X83754782Y-221135257D01*
X84101911Y-221373046D01*
X84469501Y-221577792D01*
X84469518Y-221577799D01*
X84469519Y-221577800D01*
X84854398Y-221747742D01*
X84854402Y-221747743D01*
X84854404Y-221747743D01*
X84854414Y-221747748D01*
X85253366Y-221881463D01*
X85662955Y-221977797D01*
X86079684Y-222035929D01*
X86500000Y-222055361D01*
X86920316Y-222035929D01*
X87337045Y-221977797D01*
X87746634Y-221881463D01*
X88145586Y-221747748D01*
X88145597Y-221747742D01*
X88145601Y-221747742D01*
X88382482Y-221643147D01*
X88530499Y-221577792D01*
X88898089Y-221373046D01*
X89245218Y-221135257D01*
X89568927Y-220866452D01*
X89866452Y-220568927D01*
X90135257Y-220245218D01*
X90373046Y-219898089D01*
X90577792Y-219530499D01*
X90679239Y-219300744D01*
X90747742Y-219145601D01*
X90747743Y-219145597D01*
X90747748Y-219145586D01*
X90881463Y-218746634D01*
X90977797Y-218337045D01*
X91035929Y-217920316D01*
X91055361Y-217500000D01*
X91055361Y-217499999D01*
X99394559Y-217499999D01*
X99394559Y-217500000D01*
X99414310Y-217876872D01*
X99473346Y-218249607D01*
X99473347Y-218249614D01*
X99571023Y-218614147D01*
X99706267Y-218966468D01*
X99877599Y-219302725D01*
X100083135Y-219619223D01*
X100169989Y-219726479D01*
X100320635Y-219912511D01*
X100587489Y-220179365D01*
X100587493Y-220179368D01*
X100880776Y-220416864D01*
X101197274Y-220622400D01*
X101197279Y-220622403D01*
X101533535Y-220793734D01*
X101885857Y-220928978D01*
X102250387Y-221026653D01*
X102623129Y-221085690D01*
X102979155Y-221104348D01*
X102999999Y-221105441D01*
X103000000Y-221105441D01*
X103000001Y-221105441D01*
X103019752Y-221104405D01*
X103376871Y-221085690D01*
X103749613Y-221026653D01*
X104114143Y-220928978D01*
X104466465Y-220793734D01*
X104802721Y-220622403D01*
X105119225Y-220416863D01*
X105412511Y-220179365D01*
X105679365Y-219912511D01*
X105916863Y-219619225D01*
X106122403Y-219302721D01*
X106293734Y-218966465D01*
X106428978Y-218614143D01*
X106526653Y-218249613D01*
X106585690Y-217876871D01*
X106605441Y-217500000D01*
X106605441Y-217499993D01*
X114094630Y-217499993D01*
X114094630Y-217500006D01*
X114114101Y-217958394D01*
X114172381Y-218413513D01*
X114269043Y-218862028D01*
X114403399Y-219300746D01*
X114403401Y-219300751D01*
X114574468Y-219726468D01*
X114574472Y-219726479D01*
X114781026Y-220136154D01*
X114781037Y-220136174D01*
X114848186Y-220245230D01*
X115021599Y-220526871D01*
X115294429Y-220895762D01*
X115294434Y-220895767D01*
X115294435Y-220895769D01*
X115505202Y-221135247D01*
X115597560Y-221240186D01*
X115928809Y-221557662D01*
X116285788Y-221845902D01*
X116665925Y-222102830D01*
X117066482Y-222326595D01*
X117066485Y-222326596D01*
X117066494Y-222326601D01*
X117484566Y-222515581D01*
X117484573Y-222515584D01*
X117917185Y-222668435D01*
X118361201Y-222784048D01*
X118813422Y-222861589D01*
X118954946Y-222873634D01*
X119270571Y-222900499D01*
X119270588Y-222900499D01*
X119270590Y-222900500D01*
X119270591Y-222900500D01*
X119729409Y-222900500D01*
X119729410Y-222900500D01*
X119729411Y-222900499D01*
X119729428Y-222900499D01*
X120001523Y-222877339D01*
X120186578Y-222861589D01*
X120638799Y-222784048D01*
X121082815Y-222668435D01*
X121515427Y-222515584D01*
X121933518Y-222326595D01*
X122334075Y-222102830D01*
X122714212Y-221845902D01*
X123071191Y-221557662D01*
X123402440Y-221240186D01*
X123705571Y-220895762D01*
X123978401Y-220526871D01*
X124218964Y-220136172D01*
X124425527Y-219726479D01*
X124596601Y-219300744D01*
X124730955Y-218862035D01*
X124827619Y-218413512D01*
X124885897Y-217958407D01*
X124887516Y-217920316D01*
X124905370Y-217500006D01*
X124905370Y-217499993D01*
X124885898Y-217041605D01*
X124885897Y-217041599D01*
X124885897Y-217041593D01*
X124827619Y-216586488D01*
X124730955Y-216137965D01*
X124596601Y-215699256D01*
X124425527Y-215273521D01*
X124425527Y-215273520D01*
X124218973Y-214863845D01*
X124218962Y-214863825D01*
X124192369Y-214820635D01*
X123978401Y-214473129D01*
X123705571Y-214104238D01*
X123402440Y-213759814D01*
X123071191Y-213442338D01*
X122714212Y-213154098D01*
X122334075Y-212897170D01*
X122311723Y-212884683D01*
X121933526Y-212673409D01*
X121933505Y-212673398D01*
X121515433Y-212484418D01*
X121082810Y-212331563D01*
X120638797Y-212215951D01*
X120186588Y-212138412D01*
X120186562Y-212138409D01*
X119729428Y-212099500D01*
X119729410Y-212099500D01*
X119270590Y-212099500D01*
X119270571Y-212099500D01*
X118813437Y-212138409D01*
X118813411Y-212138412D01*
X118361202Y-212215951D01*
X117917189Y-212331563D01*
X117484566Y-212484418D01*
X117066494Y-212673398D01*
X117066473Y-212673409D01*
X116665933Y-212897165D01*
X116665914Y-212897177D01*
X116285793Y-213154094D01*
X115928806Y-213442340D01*
X115597559Y-213759814D01*
X115294435Y-214104230D01*
X115294429Y-214104237D01*
X115294429Y-214104238D01*
X115272746Y-214133556D01*
X115021598Y-214473130D01*
X114781037Y-214863825D01*
X114781026Y-214863845D01*
X114574472Y-215273520D01*
X114574468Y-215273531D01*
X114403401Y-215699248D01*
X114403399Y-215699253D01*
X114269043Y-216137971D01*
X114172381Y-216586486D01*
X114114101Y-217041605D01*
X114094630Y-217499993D01*
X106605441Y-217499993D01*
X106585690Y-217123129D01*
X106526653Y-216750387D01*
X106428978Y-216385857D01*
X106293734Y-216033535D01*
X106122403Y-215697280D01*
X105916863Y-215380775D01*
X105679365Y-215087489D01*
X105412511Y-214820635D01*
X105119225Y-214583137D01*
X105119223Y-214583135D01*
X104802725Y-214377599D01*
X104466468Y-214206267D01*
X104114147Y-214071023D01*
X103749614Y-213973347D01*
X103749607Y-213973346D01*
X103376872Y-213914310D01*
X103000001Y-213894559D01*
X102999999Y-213894559D01*
X102623127Y-213914310D01*
X102250392Y-213973346D01*
X102250385Y-213973347D01*
X101885852Y-214071023D01*
X101533531Y-214206267D01*
X101197275Y-214377599D01*
X100880776Y-214583135D01*
X100587493Y-214820631D01*
X100587485Y-214820638D01*
X100320638Y-215087485D01*
X100320631Y-215087493D01*
X100083135Y-215380776D01*
X99877599Y-215697275D01*
X99706267Y-216033531D01*
X99571023Y-216385852D01*
X99473347Y-216750385D01*
X99473346Y-216750392D01*
X99414310Y-217123127D01*
X99394559Y-217499999D01*
X91055361Y-217499999D01*
X91035929Y-217079684D01*
X90977797Y-216662955D01*
X90881463Y-216253366D01*
X90747748Y-215854414D01*
X90747743Y-215854402D01*
X90747742Y-215854398D01*
X90577800Y-215469519D01*
X90577799Y-215469518D01*
X90577792Y-215469501D01*
X90411998Y-215171844D01*
X90373050Y-215101918D01*
X90373049Y-215101917D01*
X90373046Y-215101911D01*
X90135257Y-214754782D01*
X90135251Y-214754775D01*
X90135247Y-214754769D01*
X89866461Y-214431084D01*
X89866452Y-214431073D01*
X89568927Y-214133548D01*
X89557700Y-214124225D01*
X89245230Y-213864752D01*
X89245220Y-213864745D01*
X89245218Y-213864743D01*
X88898089Y-213626954D01*
X88898085Y-213626952D01*
X88898081Y-213626949D01*
X88530508Y-213422213D01*
X88530507Y-213422212D01*
X88530499Y-213422208D01*
X88530490Y-213422204D01*
X88530480Y-213422199D01*
X88145601Y-213252257D01*
X88145597Y-213252256D01*
X88145588Y-213252253D01*
X88145586Y-213252252D01*
X87746634Y-213118537D01*
X87746633Y-213118536D01*
X87746631Y-213118536D01*
X87337050Y-213022204D01*
X87337047Y-213022203D01*
X87337045Y-213022203D01*
X87109493Y-212990460D01*
X86920324Y-212964072D01*
X86920322Y-212964071D01*
X86920316Y-212964071D01*
X86500000Y-212944639D01*
X86079684Y-212964071D01*
X86079677Y-212964071D01*
X86079675Y-212964072D01*
X85662955Y-213022203D01*
X85662949Y-213022204D01*
X85253368Y-213118536D01*
X84854402Y-213252256D01*
X84854398Y-213252257D01*
X84469519Y-213422199D01*
X84469491Y-213422213D01*
X84101918Y-213626949D01*
X84101912Y-213626953D01*
X83754779Y-213864745D01*
X83754769Y-213864752D01*
X83431084Y-214133538D01*
X83431064Y-214133556D01*
X83133556Y-214431064D01*
X83133538Y-214431084D01*
X82864752Y-214754769D01*
X82864745Y-214754779D01*
X82626953Y-215101912D01*
X82626949Y-215101918D01*
X82422213Y-215469491D01*
X82422199Y-215469519D01*
X82252257Y-215854398D01*
X82252256Y-215854402D01*
X82118536Y-216253368D01*
X82022204Y-216662949D01*
X82022203Y-216662955D01*
X81969385Y-217041593D01*
X81964071Y-217079684D01*
X81944639Y-217500000D01*
X78500500Y-217500000D01*
X78500500Y-201000000D01*
X81944639Y-201000000D01*
X81964071Y-201420316D01*
X81964071Y-201420322D01*
X81964072Y-201420324D01*
X81990460Y-201609493D01*
X82021584Y-201832611D01*
X82022203Y-201837044D01*
X82022204Y-201837050D01*
X82109461Y-202208048D01*
X82118537Y-202246634D01*
X82157215Y-202362035D01*
X82252256Y-202645597D01*
X82252257Y-202645601D01*
X82422199Y-203030480D01*
X82422204Y-203030490D01*
X82422208Y-203030499D01*
X82422212Y-203030507D01*
X82422213Y-203030508D01*
X82626949Y-203398081D01*
X82626952Y-203398085D01*
X82626954Y-203398089D01*
X82864743Y-203745218D01*
X82864745Y-203745220D01*
X82864752Y-203745230D01*
X82969694Y-203871606D01*
X83133548Y-204068927D01*
X83431073Y-204366452D01*
X83431084Y-204366461D01*
X83754769Y-204635247D01*
X83754775Y-204635251D01*
X83754782Y-204635257D01*
X84101911Y-204873046D01*
X84469501Y-205077792D01*
X84469518Y-205077799D01*
X84469519Y-205077800D01*
X84854398Y-205247742D01*
X84854402Y-205247743D01*
X84854404Y-205247743D01*
X84854414Y-205247748D01*
X85253366Y-205381463D01*
X85662955Y-205477797D01*
X86079684Y-205535929D01*
X86500000Y-205555361D01*
X86920316Y-205535929D01*
X87337045Y-205477797D01*
X87746634Y-205381463D01*
X88145586Y-205247748D01*
X88145597Y-205247742D01*
X88145601Y-205247742D01*
X88382482Y-205143147D01*
X88530499Y-205077792D01*
X88898089Y-204873046D01*
X89245218Y-204635257D01*
X89568927Y-204366452D01*
X89866452Y-204068927D01*
X90135257Y-203745218D01*
X90373046Y-203398089D01*
X90577792Y-203030499D01*
X90679239Y-202800744D01*
X90747742Y-202645601D01*
X90747743Y-202645597D01*
X90747748Y-202645586D01*
X90881463Y-202246634D01*
X90977797Y-201837045D01*
X91035929Y-201420316D01*
X91055361Y-201000000D01*
X91055361Y-200999999D01*
X99394559Y-200999999D01*
X99394559Y-201000000D01*
X99414310Y-201376872D01*
X99473346Y-201749607D01*
X99473347Y-201749614D01*
X99571023Y-202114147D01*
X99706267Y-202466468D01*
X99877599Y-202802725D01*
X100083135Y-203119223D01*
X100169989Y-203226479D01*
X100320635Y-203412511D01*
X100587489Y-203679365D01*
X100587493Y-203679368D01*
X100880776Y-203916864D01*
X101197274Y-204122400D01*
X101197279Y-204122403D01*
X101533535Y-204293734D01*
X101885857Y-204428978D01*
X102250387Y-204526653D01*
X102623129Y-204585690D01*
X102979155Y-204604348D01*
X102999999Y-204605441D01*
X103000000Y-204605441D01*
X103000001Y-204605441D01*
X103019752Y-204604405D01*
X103376871Y-204585690D01*
X103749613Y-204526653D01*
X104114143Y-204428978D01*
X104466465Y-204293734D01*
X104802721Y-204122403D01*
X105119225Y-203916863D01*
X105412511Y-203679365D01*
X105679365Y-203412511D01*
X105916863Y-203119225D01*
X106122403Y-202802721D01*
X106293734Y-202466465D01*
X106428978Y-202114143D01*
X106526653Y-201749613D01*
X106585690Y-201376871D01*
X106605441Y-201000000D01*
X106605441Y-200999993D01*
X114094630Y-200999993D01*
X114094630Y-201000006D01*
X114114101Y-201458394D01*
X114172381Y-201913513D01*
X114269043Y-202362028D01*
X114403399Y-202800746D01*
X114403401Y-202800751D01*
X114574468Y-203226468D01*
X114574472Y-203226479D01*
X114781026Y-203636154D01*
X114781037Y-203636174D01*
X114848186Y-203745230D01*
X115021599Y-204026871D01*
X115294429Y-204395762D01*
X115294434Y-204395767D01*
X115294435Y-204395769D01*
X115505202Y-204635247D01*
X115597560Y-204740186D01*
X115928809Y-205057662D01*
X116285788Y-205345902D01*
X116665925Y-205602830D01*
X117066482Y-205826595D01*
X117066485Y-205826596D01*
X117066494Y-205826601D01*
X117484566Y-206015581D01*
X117484573Y-206015584D01*
X117917185Y-206168435D01*
X118361201Y-206284048D01*
X118813422Y-206361589D01*
X118954946Y-206373634D01*
X119270571Y-206400499D01*
X119270588Y-206400499D01*
X119270590Y-206400500D01*
X119270591Y-206400500D01*
X119729409Y-206400500D01*
X119729410Y-206400500D01*
X119729411Y-206400499D01*
X119729428Y-206400499D01*
X120001523Y-206377339D01*
X120186578Y-206361589D01*
X120638799Y-206284048D01*
X121082815Y-206168435D01*
X121515427Y-206015584D01*
X121933518Y-205826595D01*
X122334075Y-205602830D01*
X122714212Y-205345902D01*
X123071191Y-205057662D01*
X123402440Y-204740186D01*
X123705571Y-204395762D01*
X123978401Y-204026871D01*
X124218964Y-203636172D01*
X124425527Y-203226479D01*
X124596601Y-202800744D01*
X124730955Y-202362035D01*
X124827619Y-201913512D01*
X124885897Y-201458407D01*
X124887516Y-201420316D01*
X124905370Y-201000006D01*
X124905370Y-200999993D01*
X124885898Y-200541605D01*
X124885897Y-200541599D01*
X124885897Y-200541593D01*
X124827619Y-200086488D01*
X124730955Y-199637965D01*
X124596601Y-199199256D01*
X124425527Y-198773521D01*
X124425527Y-198773520D01*
X124218973Y-198363845D01*
X124218962Y-198363825D01*
X124192369Y-198320635D01*
X123978401Y-197973129D01*
X123705571Y-197604238D01*
X123402440Y-197259814D01*
X123071191Y-196942338D01*
X122714212Y-196654098D01*
X122334075Y-196397170D01*
X122311723Y-196384683D01*
X121933526Y-196173409D01*
X121933505Y-196173398D01*
X121515433Y-195984418D01*
X121082810Y-195831563D01*
X120638797Y-195715951D01*
X120186588Y-195638412D01*
X120186562Y-195638409D01*
X119729428Y-195599500D01*
X119729410Y-195599500D01*
X119270590Y-195599500D01*
X119270571Y-195599500D01*
X118813437Y-195638409D01*
X118813411Y-195638412D01*
X118361202Y-195715951D01*
X117917189Y-195831563D01*
X117484566Y-195984418D01*
X117066494Y-196173398D01*
X117066473Y-196173409D01*
X116665933Y-196397165D01*
X116665914Y-196397177D01*
X116285793Y-196654094D01*
X115928806Y-196942340D01*
X115597559Y-197259814D01*
X115294435Y-197604230D01*
X115294429Y-197604237D01*
X115294429Y-197604238D01*
X115272746Y-197633556D01*
X115021598Y-197973130D01*
X114781037Y-198363825D01*
X114781026Y-198363845D01*
X114574472Y-198773520D01*
X114574468Y-198773531D01*
X114403401Y-199199248D01*
X114403399Y-199199253D01*
X114269043Y-199637971D01*
X114172381Y-200086486D01*
X114114101Y-200541605D01*
X114094630Y-200999993D01*
X106605441Y-200999993D01*
X106585690Y-200623129D01*
X106526653Y-200250387D01*
X106428978Y-199885857D01*
X106293734Y-199533535D01*
X106122403Y-199197280D01*
X105916863Y-198880775D01*
X105679365Y-198587489D01*
X105412511Y-198320635D01*
X105119225Y-198083137D01*
X105119223Y-198083135D01*
X104802725Y-197877599D01*
X104466468Y-197706267D01*
X104114147Y-197571023D01*
X103749614Y-197473347D01*
X103749607Y-197473346D01*
X103376872Y-197414310D01*
X103000001Y-197394559D01*
X102999999Y-197394559D01*
X102623127Y-197414310D01*
X102250392Y-197473346D01*
X102250385Y-197473347D01*
X101885852Y-197571023D01*
X101533531Y-197706267D01*
X101197275Y-197877599D01*
X100880776Y-198083135D01*
X100587493Y-198320631D01*
X100587485Y-198320638D01*
X100320638Y-198587485D01*
X100320631Y-198587493D01*
X100083135Y-198880776D01*
X99877599Y-199197275D01*
X99706267Y-199533531D01*
X99571023Y-199885852D01*
X99473347Y-200250385D01*
X99473346Y-200250392D01*
X99414310Y-200623127D01*
X99394559Y-200999999D01*
X91055361Y-200999999D01*
X91035929Y-200579684D01*
X90977797Y-200162955D01*
X90881463Y-199753366D01*
X90747748Y-199354414D01*
X90747743Y-199354402D01*
X90747742Y-199354398D01*
X90577800Y-198969519D01*
X90577799Y-198969518D01*
X90577792Y-198969501D01*
X90411998Y-198671844D01*
X90373050Y-198601918D01*
X90373049Y-198601917D01*
X90373046Y-198601911D01*
X90135257Y-198254782D01*
X90135251Y-198254775D01*
X90135247Y-198254769D01*
X89866461Y-197931084D01*
X89866452Y-197931073D01*
X89568927Y-197633548D01*
X89557700Y-197624225D01*
X89245230Y-197364752D01*
X89245220Y-197364745D01*
X89245218Y-197364743D01*
X88898089Y-197126954D01*
X88898085Y-197126952D01*
X88898081Y-197126949D01*
X88530508Y-196922213D01*
X88530507Y-196922212D01*
X88530499Y-196922208D01*
X88530490Y-196922204D01*
X88530480Y-196922199D01*
X88145601Y-196752257D01*
X88145597Y-196752256D01*
X88145588Y-196752253D01*
X88145586Y-196752252D01*
X87746634Y-196618537D01*
X87746633Y-196618536D01*
X87746631Y-196618536D01*
X87337050Y-196522204D01*
X87337047Y-196522203D01*
X87337045Y-196522203D01*
X87109493Y-196490460D01*
X86920324Y-196464072D01*
X86920322Y-196464071D01*
X86920316Y-196464071D01*
X86500000Y-196444639D01*
X86079684Y-196464071D01*
X86079677Y-196464071D01*
X86079675Y-196464072D01*
X85662955Y-196522203D01*
X85662949Y-196522204D01*
X85253368Y-196618536D01*
X84854402Y-196752256D01*
X84854398Y-196752257D01*
X84469519Y-196922199D01*
X84469491Y-196922213D01*
X84101918Y-197126949D01*
X84101912Y-197126953D01*
X83754779Y-197364745D01*
X83754769Y-197364752D01*
X83431084Y-197633538D01*
X83431064Y-197633556D01*
X83133556Y-197931064D01*
X83133538Y-197931084D01*
X82864752Y-198254769D01*
X82864745Y-198254779D01*
X82626953Y-198601912D01*
X82626949Y-198601918D01*
X82422213Y-198969491D01*
X82422199Y-198969519D01*
X82252257Y-199354398D01*
X82252256Y-199354402D01*
X82118536Y-199753368D01*
X82022204Y-200162949D01*
X82022203Y-200162955D01*
X81969385Y-200541593D01*
X81964071Y-200579684D01*
X81944639Y-201000000D01*
X78500500Y-201000000D01*
X78500500Y-184500000D01*
X81944639Y-184500000D01*
X81964071Y-184920316D01*
X81964071Y-184920322D01*
X81964072Y-184920324D01*
X81990460Y-185109493D01*
X82021584Y-185332611D01*
X82022203Y-185337044D01*
X82022204Y-185337050D01*
X82109461Y-185708048D01*
X82118537Y-185746634D01*
X82157215Y-185862035D01*
X82252256Y-186145597D01*
X82252257Y-186145601D01*
X82422199Y-186530480D01*
X82422204Y-186530490D01*
X82422208Y-186530499D01*
X82422212Y-186530507D01*
X82422213Y-186530508D01*
X82626949Y-186898081D01*
X82626952Y-186898085D01*
X82626954Y-186898089D01*
X82864743Y-187245218D01*
X82864745Y-187245220D01*
X82864752Y-187245230D01*
X82969694Y-187371606D01*
X83133548Y-187568927D01*
X83431073Y-187866452D01*
X83431084Y-187866461D01*
X83754769Y-188135247D01*
X83754775Y-188135251D01*
X83754782Y-188135257D01*
X84101911Y-188373046D01*
X84469501Y-188577792D01*
X84469518Y-188577799D01*
X84469519Y-188577800D01*
X84854398Y-188747742D01*
X84854402Y-188747743D01*
X84854404Y-188747743D01*
X84854414Y-188747748D01*
X85253366Y-188881463D01*
X85662955Y-188977797D01*
X86079684Y-189035929D01*
X86500000Y-189055361D01*
X86920316Y-189035929D01*
X87337045Y-188977797D01*
X87746634Y-188881463D01*
X88145586Y-188747748D01*
X88145597Y-188747742D01*
X88145601Y-188747742D01*
X88382482Y-188643147D01*
X88530499Y-188577792D01*
X88898089Y-188373046D01*
X89245218Y-188135257D01*
X89568927Y-187866452D01*
X89866452Y-187568927D01*
X90135257Y-187245218D01*
X90373046Y-186898089D01*
X90577792Y-186530499D01*
X90679239Y-186300744D01*
X90747742Y-186145601D01*
X90747743Y-186145597D01*
X90747748Y-186145586D01*
X90881463Y-185746634D01*
X90977797Y-185337045D01*
X91035929Y-184920316D01*
X91055361Y-184500000D01*
X91055361Y-184499999D01*
X99394559Y-184499999D01*
X99394559Y-184500000D01*
X99414310Y-184876872D01*
X99473346Y-185249607D01*
X99473347Y-185249614D01*
X99571023Y-185614147D01*
X99706267Y-185966468D01*
X99877599Y-186302725D01*
X100083135Y-186619223D01*
X100169989Y-186726479D01*
X100320635Y-186912511D01*
X100587489Y-187179365D01*
X100587493Y-187179368D01*
X100880776Y-187416864D01*
X101197274Y-187622400D01*
X101197279Y-187622403D01*
X101533535Y-187793734D01*
X101885857Y-187928978D01*
X102250387Y-188026653D01*
X102623129Y-188085690D01*
X102979155Y-188104348D01*
X102999999Y-188105441D01*
X103000000Y-188105441D01*
X103000001Y-188105441D01*
X103019752Y-188104405D01*
X103376871Y-188085690D01*
X103749613Y-188026653D01*
X104114143Y-187928978D01*
X104466465Y-187793734D01*
X104802721Y-187622403D01*
X105119225Y-187416863D01*
X105412511Y-187179365D01*
X105679365Y-186912511D01*
X105916863Y-186619225D01*
X106122403Y-186302721D01*
X106293734Y-185966465D01*
X106428978Y-185614143D01*
X106526653Y-185249613D01*
X106585690Y-184876871D01*
X106605441Y-184500000D01*
X106605441Y-184499993D01*
X114094630Y-184499993D01*
X114094630Y-184500006D01*
X114114101Y-184958394D01*
X114172381Y-185413513D01*
X114269043Y-185862028D01*
X114403399Y-186300746D01*
X114403401Y-186300751D01*
X114574468Y-186726468D01*
X114574472Y-186726479D01*
X114781026Y-187136154D01*
X114781037Y-187136174D01*
X114848186Y-187245230D01*
X115021599Y-187526871D01*
X115294429Y-187895762D01*
X115294434Y-187895767D01*
X115294435Y-187895769D01*
X115505202Y-188135247D01*
X115597560Y-188240186D01*
X115928809Y-188557662D01*
X116285788Y-188845902D01*
X116665925Y-189102830D01*
X117066482Y-189326595D01*
X117066485Y-189326596D01*
X117066494Y-189326601D01*
X117484566Y-189515581D01*
X117484573Y-189515584D01*
X117917185Y-189668435D01*
X118361201Y-189784048D01*
X118813422Y-189861589D01*
X118954946Y-189873634D01*
X119270571Y-189900499D01*
X119270588Y-189900499D01*
X119270590Y-189900500D01*
X119270591Y-189900500D01*
X119729409Y-189900500D01*
X119729410Y-189900500D01*
X119729411Y-189900499D01*
X119729428Y-189900499D01*
X120001523Y-189877339D01*
X120186578Y-189861589D01*
X120638799Y-189784048D01*
X121082815Y-189668435D01*
X121515427Y-189515584D01*
X121933518Y-189326595D01*
X122334075Y-189102830D01*
X122714212Y-188845902D01*
X123071191Y-188557662D01*
X123402440Y-188240186D01*
X123705571Y-187895762D01*
X123978401Y-187526871D01*
X124218964Y-187136172D01*
X124425527Y-186726479D01*
X124596601Y-186300744D01*
X124730955Y-185862035D01*
X124827619Y-185413512D01*
X124885897Y-184958407D01*
X124887516Y-184920316D01*
X124905370Y-184500006D01*
X124905370Y-184499993D01*
X124885898Y-184041605D01*
X124885897Y-184041599D01*
X124885897Y-184041593D01*
X124827619Y-183586488D01*
X124730955Y-183137965D01*
X124596601Y-182699256D01*
X124425527Y-182273521D01*
X124425527Y-182273520D01*
X124218973Y-181863845D01*
X124218962Y-181863825D01*
X124192369Y-181820635D01*
X123978401Y-181473129D01*
X123705571Y-181104238D01*
X123402440Y-180759814D01*
X123071191Y-180442338D01*
X122714212Y-180154098D01*
X122334075Y-179897170D01*
X122311723Y-179884683D01*
X121933526Y-179673409D01*
X121933505Y-179673398D01*
X121515433Y-179484418D01*
X121082810Y-179331563D01*
X120638797Y-179215951D01*
X120186588Y-179138412D01*
X120186562Y-179138409D01*
X119729428Y-179099500D01*
X119729410Y-179099500D01*
X119270590Y-179099500D01*
X119270571Y-179099500D01*
X118813437Y-179138409D01*
X118813411Y-179138412D01*
X118361202Y-179215951D01*
X117917189Y-179331563D01*
X117484566Y-179484418D01*
X117066494Y-179673398D01*
X117066473Y-179673409D01*
X116665933Y-179897165D01*
X116665914Y-179897177D01*
X116285793Y-180154094D01*
X115928806Y-180442340D01*
X115597559Y-180759814D01*
X115294435Y-181104230D01*
X115294429Y-181104237D01*
X115294429Y-181104238D01*
X115272746Y-181133556D01*
X115021598Y-181473130D01*
X114781037Y-181863825D01*
X114781026Y-181863845D01*
X114574472Y-182273520D01*
X114574468Y-182273531D01*
X114403401Y-182699248D01*
X114403399Y-182699253D01*
X114269043Y-183137971D01*
X114172381Y-183586486D01*
X114114101Y-184041605D01*
X114094630Y-184499993D01*
X106605441Y-184499993D01*
X106585690Y-184123129D01*
X106526653Y-183750387D01*
X106428978Y-183385857D01*
X106293734Y-183033535D01*
X106122403Y-182697280D01*
X105916863Y-182380775D01*
X105679365Y-182087489D01*
X105412511Y-181820635D01*
X105119225Y-181583137D01*
X105119223Y-181583135D01*
X104802725Y-181377599D01*
X104466468Y-181206267D01*
X104114147Y-181071023D01*
X103749614Y-180973347D01*
X103749607Y-180973346D01*
X103376872Y-180914310D01*
X103000001Y-180894559D01*
X102999999Y-180894559D01*
X102623127Y-180914310D01*
X102250392Y-180973346D01*
X102250385Y-180973347D01*
X101885852Y-181071023D01*
X101533531Y-181206267D01*
X101197275Y-181377599D01*
X100880776Y-181583135D01*
X100587493Y-181820631D01*
X100587485Y-181820638D01*
X100320638Y-182087485D01*
X100320631Y-182087493D01*
X100083135Y-182380776D01*
X99877599Y-182697275D01*
X99706267Y-183033531D01*
X99571023Y-183385852D01*
X99473347Y-183750385D01*
X99473346Y-183750392D01*
X99414310Y-184123127D01*
X99394559Y-184499999D01*
X91055361Y-184499999D01*
X91035929Y-184079684D01*
X90977797Y-183662955D01*
X90881463Y-183253366D01*
X90747748Y-182854414D01*
X90747743Y-182854402D01*
X90747742Y-182854398D01*
X90577800Y-182469519D01*
X90577799Y-182469518D01*
X90577792Y-182469501D01*
X90411998Y-182171844D01*
X90373050Y-182101918D01*
X90373049Y-182101917D01*
X90373046Y-182101911D01*
X90135257Y-181754782D01*
X90135251Y-181754775D01*
X90135247Y-181754769D01*
X89866461Y-181431084D01*
X89866452Y-181431073D01*
X89568927Y-181133548D01*
X89557700Y-181124225D01*
X89245230Y-180864752D01*
X89245220Y-180864745D01*
X89245218Y-180864743D01*
X88898089Y-180626954D01*
X88898085Y-180626952D01*
X88898081Y-180626949D01*
X88530508Y-180422213D01*
X88530507Y-180422212D01*
X88530499Y-180422208D01*
X88530490Y-180422204D01*
X88530480Y-180422199D01*
X88145601Y-180252257D01*
X88145597Y-180252256D01*
X88145588Y-180252253D01*
X88145586Y-180252252D01*
X87746634Y-180118537D01*
X87746633Y-180118536D01*
X87746631Y-180118536D01*
X87337050Y-180022204D01*
X87337047Y-180022203D01*
X87337045Y-180022203D01*
X87109493Y-179990460D01*
X86920324Y-179964072D01*
X86920322Y-179964071D01*
X86920316Y-179964071D01*
X86500000Y-179944639D01*
X86079684Y-179964071D01*
X86079677Y-179964071D01*
X86079675Y-179964072D01*
X85662955Y-180022203D01*
X85662949Y-180022204D01*
X85253368Y-180118536D01*
X84854402Y-180252256D01*
X84854398Y-180252257D01*
X84469519Y-180422199D01*
X84469491Y-180422213D01*
X84101918Y-180626949D01*
X84101912Y-180626953D01*
X83754779Y-180864745D01*
X83754769Y-180864752D01*
X83431084Y-181133538D01*
X83431064Y-181133556D01*
X83133556Y-181431064D01*
X83133538Y-181431084D01*
X82864752Y-181754769D01*
X82864745Y-181754779D01*
X82626953Y-182101912D01*
X82626949Y-182101918D01*
X82422213Y-182469491D01*
X82422199Y-182469519D01*
X82252257Y-182854398D01*
X82252256Y-182854402D01*
X82118536Y-183253368D01*
X82022204Y-183662949D01*
X82022203Y-183662955D01*
X81969385Y-184041593D01*
X81964071Y-184079684D01*
X81944639Y-184500000D01*
X78500500Y-184500000D01*
X78500500Y-168000000D01*
X81944639Y-168000000D01*
X81964071Y-168420316D01*
X81964071Y-168420322D01*
X81964072Y-168420324D01*
X81990460Y-168609493D01*
X82021584Y-168832611D01*
X82022203Y-168837044D01*
X82022204Y-168837050D01*
X82109461Y-169208048D01*
X82118537Y-169246634D01*
X82157215Y-169362035D01*
X82252256Y-169645597D01*
X82252257Y-169645601D01*
X82422199Y-170030480D01*
X82422204Y-170030490D01*
X82422208Y-170030499D01*
X82422212Y-170030507D01*
X82422213Y-170030508D01*
X82626949Y-170398081D01*
X82626952Y-170398085D01*
X82626954Y-170398089D01*
X82864743Y-170745218D01*
X82864745Y-170745220D01*
X82864752Y-170745230D01*
X82969694Y-170871606D01*
X83133548Y-171068927D01*
X83431073Y-171366452D01*
X83431084Y-171366461D01*
X83754769Y-171635247D01*
X83754775Y-171635251D01*
X83754782Y-171635257D01*
X84101911Y-171873046D01*
X84469501Y-172077792D01*
X84469518Y-172077799D01*
X84469519Y-172077800D01*
X84854398Y-172247742D01*
X84854402Y-172247743D01*
X84854404Y-172247743D01*
X84854414Y-172247748D01*
X85253366Y-172381463D01*
X85662955Y-172477797D01*
X86079684Y-172535929D01*
X86500000Y-172555361D01*
X86920316Y-172535929D01*
X87337045Y-172477797D01*
X87746634Y-172381463D01*
X88145586Y-172247748D01*
X88145597Y-172247742D01*
X88145601Y-172247742D01*
X88382482Y-172143147D01*
X88530499Y-172077792D01*
X88898089Y-171873046D01*
X89245218Y-171635257D01*
X89568927Y-171366452D01*
X89866452Y-171068927D01*
X90135257Y-170745218D01*
X90373046Y-170398089D01*
X90577792Y-170030499D01*
X90679239Y-169800744D01*
X90747742Y-169645601D01*
X90747743Y-169645597D01*
X90747748Y-169645586D01*
X90881463Y-169246634D01*
X90977797Y-168837045D01*
X91035929Y-168420316D01*
X91055361Y-168000000D01*
X91055361Y-167999999D01*
X99394559Y-167999999D01*
X99394559Y-168000000D01*
X99414310Y-168376872D01*
X99473346Y-168749607D01*
X99473347Y-168749614D01*
X99571023Y-169114147D01*
X99706267Y-169466468D01*
X99877599Y-169802725D01*
X100083135Y-170119223D01*
X100169989Y-170226479D01*
X100320635Y-170412511D01*
X100587489Y-170679365D01*
X100587493Y-170679368D01*
X100880776Y-170916864D01*
X101197274Y-171122400D01*
X101197279Y-171122403D01*
X101533535Y-171293734D01*
X101885857Y-171428978D01*
X102250387Y-171526653D01*
X102623129Y-171585690D01*
X102979155Y-171604348D01*
X102999999Y-171605441D01*
X103000000Y-171605441D01*
X103000001Y-171605441D01*
X103019752Y-171604405D01*
X103376871Y-171585690D01*
X103749613Y-171526653D01*
X104114143Y-171428978D01*
X104466465Y-171293734D01*
X104802721Y-171122403D01*
X105119225Y-170916863D01*
X105412511Y-170679365D01*
X105679365Y-170412511D01*
X105916863Y-170119225D01*
X106122403Y-169802721D01*
X106293734Y-169466465D01*
X106428978Y-169114143D01*
X106526653Y-168749613D01*
X106585690Y-168376871D01*
X106605441Y-168000000D01*
X106605441Y-167999993D01*
X114094630Y-167999993D01*
X114094630Y-168000006D01*
X114114101Y-168458394D01*
X114172381Y-168913513D01*
X114269043Y-169362028D01*
X114403399Y-169800746D01*
X114403401Y-169800751D01*
X114574468Y-170226468D01*
X114574472Y-170226479D01*
X114781026Y-170636154D01*
X114781037Y-170636174D01*
X114848186Y-170745230D01*
X115021599Y-171026871D01*
X115294429Y-171395762D01*
X115294434Y-171395767D01*
X115294435Y-171395769D01*
X115505202Y-171635247D01*
X115597560Y-171740186D01*
X115928809Y-172057662D01*
X116285788Y-172345902D01*
X116665925Y-172602830D01*
X117066482Y-172826595D01*
X117066485Y-172826596D01*
X117066494Y-172826601D01*
X117484566Y-173015581D01*
X117484573Y-173015584D01*
X117917185Y-173168435D01*
X118361201Y-173284048D01*
X118813422Y-173361589D01*
X118954946Y-173373634D01*
X119270571Y-173400499D01*
X119270588Y-173400499D01*
X119270590Y-173400500D01*
X119270591Y-173400500D01*
X119729409Y-173400500D01*
X119729410Y-173400500D01*
X119729411Y-173400499D01*
X119729428Y-173400499D01*
X120001523Y-173377339D01*
X120186578Y-173361589D01*
X120638799Y-173284048D01*
X121082815Y-173168435D01*
X121515427Y-173015584D01*
X121933518Y-172826595D01*
X122334075Y-172602830D01*
X122714212Y-172345902D01*
X123071191Y-172057662D01*
X123402440Y-171740186D01*
X123705571Y-171395762D01*
X123978401Y-171026871D01*
X124218964Y-170636172D01*
X124425527Y-170226479D01*
X124596601Y-169800744D01*
X124730955Y-169362035D01*
X124827619Y-168913512D01*
X124885897Y-168458407D01*
X124887516Y-168420316D01*
X124905370Y-168000006D01*
X124905370Y-167999993D01*
X124885898Y-167541605D01*
X124885897Y-167541599D01*
X124885897Y-167541593D01*
X124827619Y-167086488D01*
X124730955Y-166637965D01*
X124596601Y-166199256D01*
X124425527Y-165773521D01*
X124425527Y-165773520D01*
X124218973Y-165363845D01*
X124218962Y-165363825D01*
X124192369Y-165320635D01*
X123978401Y-164973129D01*
X123705571Y-164604238D01*
X123402440Y-164259814D01*
X123071191Y-163942338D01*
X122714212Y-163654098D01*
X122334075Y-163397170D01*
X122311723Y-163384683D01*
X121933526Y-163173409D01*
X121933505Y-163173398D01*
X121515433Y-162984418D01*
X121082810Y-162831563D01*
X120638797Y-162715951D01*
X120186588Y-162638412D01*
X120186562Y-162638409D01*
X119729428Y-162599500D01*
X119729410Y-162599500D01*
X119270590Y-162599500D01*
X119270571Y-162599500D01*
X118813437Y-162638409D01*
X118813411Y-162638412D01*
X118361202Y-162715951D01*
X117917189Y-162831563D01*
X117484566Y-162984418D01*
X117066494Y-163173398D01*
X117066473Y-163173409D01*
X116665933Y-163397165D01*
X116665914Y-163397177D01*
X116285793Y-163654094D01*
X115928806Y-163942340D01*
X115597559Y-164259814D01*
X115294435Y-164604230D01*
X115294429Y-164604237D01*
X115294429Y-164604238D01*
X115272746Y-164633556D01*
X115021598Y-164973130D01*
X114781037Y-165363825D01*
X114781026Y-165363845D01*
X114574472Y-165773520D01*
X114574468Y-165773531D01*
X114403401Y-166199248D01*
X114403399Y-166199253D01*
X114269043Y-166637971D01*
X114172381Y-167086486D01*
X114114101Y-167541605D01*
X114094630Y-167999993D01*
X106605441Y-167999993D01*
X106585690Y-167623129D01*
X106526653Y-167250387D01*
X106428978Y-166885857D01*
X106293734Y-166533535D01*
X106122403Y-166197280D01*
X105916863Y-165880775D01*
X105679365Y-165587489D01*
X105412511Y-165320635D01*
X105119225Y-165083137D01*
X105119223Y-165083135D01*
X104802725Y-164877599D01*
X104466468Y-164706267D01*
X104114147Y-164571023D01*
X103749614Y-164473347D01*
X103749607Y-164473346D01*
X103376872Y-164414310D01*
X103000001Y-164394559D01*
X102999999Y-164394559D01*
X102623127Y-164414310D01*
X102250392Y-164473346D01*
X102250385Y-164473347D01*
X101885852Y-164571023D01*
X101533531Y-164706267D01*
X101197275Y-164877599D01*
X100880776Y-165083135D01*
X100587493Y-165320631D01*
X100587485Y-165320638D01*
X100320638Y-165587485D01*
X100320631Y-165587493D01*
X100083135Y-165880776D01*
X99877599Y-166197275D01*
X99706267Y-166533531D01*
X99571023Y-166885852D01*
X99473347Y-167250385D01*
X99473346Y-167250392D01*
X99414310Y-167623127D01*
X99394559Y-167999999D01*
X91055361Y-167999999D01*
X91035929Y-167579684D01*
X90977797Y-167162955D01*
X90881463Y-166753366D01*
X90747748Y-166354414D01*
X90747743Y-166354402D01*
X90747742Y-166354398D01*
X90577800Y-165969519D01*
X90577799Y-165969518D01*
X90577792Y-165969501D01*
X90411998Y-165671844D01*
X90373050Y-165601918D01*
X90373049Y-165601917D01*
X90373046Y-165601911D01*
X90135257Y-165254782D01*
X90135251Y-165254775D01*
X90135247Y-165254769D01*
X89866461Y-164931084D01*
X89866452Y-164931073D01*
X89568927Y-164633548D01*
X89557700Y-164624225D01*
X89245230Y-164364752D01*
X89245220Y-164364745D01*
X89245218Y-164364743D01*
X88898089Y-164126954D01*
X88898085Y-164126952D01*
X88898081Y-164126949D01*
X88530508Y-163922213D01*
X88530507Y-163922212D01*
X88530499Y-163922208D01*
X88530490Y-163922204D01*
X88530480Y-163922199D01*
X88145601Y-163752257D01*
X88145597Y-163752256D01*
X88145588Y-163752253D01*
X88145586Y-163752252D01*
X87746634Y-163618537D01*
X87746633Y-163618536D01*
X87746631Y-163618536D01*
X87337050Y-163522204D01*
X87337047Y-163522203D01*
X87337045Y-163522203D01*
X87109493Y-163490460D01*
X86920324Y-163464072D01*
X86920322Y-163464071D01*
X86920316Y-163464071D01*
X86500000Y-163444639D01*
X86079684Y-163464071D01*
X86079677Y-163464071D01*
X86079675Y-163464072D01*
X85662955Y-163522203D01*
X85662949Y-163522204D01*
X85253368Y-163618536D01*
X84854402Y-163752256D01*
X84854398Y-163752257D01*
X84469519Y-163922199D01*
X84469491Y-163922213D01*
X84101918Y-164126949D01*
X84101912Y-164126953D01*
X83754779Y-164364745D01*
X83754769Y-164364752D01*
X83431084Y-164633538D01*
X83431064Y-164633556D01*
X83133556Y-164931064D01*
X83133538Y-164931084D01*
X82864752Y-165254769D01*
X82864745Y-165254779D01*
X82626953Y-165601912D01*
X82626949Y-165601918D01*
X82422213Y-165969491D01*
X82422199Y-165969519D01*
X82252257Y-166354398D01*
X82252256Y-166354402D01*
X82118536Y-166753368D01*
X82022204Y-167162949D01*
X82022203Y-167162955D01*
X81969385Y-167541593D01*
X81964071Y-167579684D01*
X81944639Y-168000000D01*
X78500500Y-168000000D01*
X78500500Y-151499999D01*
X99394559Y-151499999D01*
X99394559Y-151500000D01*
X99414310Y-151876872D01*
X99473346Y-152249607D01*
X99473347Y-152249614D01*
X99571023Y-152614147D01*
X99706267Y-152966468D01*
X99877599Y-153302725D01*
X100083135Y-153619223D01*
X100169989Y-153726479D01*
X100320635Y-153912511D01*
X100587489Y-154179365D01*
X100587493Y-154179368D01*
X100880776Y-154416864D01*
X101197274Y-154622400D01*
X101197279Y-154622403D01*
X101533535Y-154793734D01*
X101885857Y-154928978D01*
X102250387Y-155026653D01*
X102623129Y-155085690D01*
X102979155Y-155104348D01*
X102999999Y-155105441D01*
X103000000Y-155105441D01*
X103000001Y-155105441D01*
X103019752Y-155104405D01*
X103376871Y-155085690D01*
X103749613Y-155026653D01*
X104114143Y-154928978D01*
X104466465Y-154793734D01*
X104802721Y-154622403D01*
X105119225Y-154416863D01*
X105412511Y-154179365D01*
X105679365Y-153912511D01*
X105916863Y-153619225D01*
X106122403Y-153302721D01*
X106293734Y-152966465D01*
X106428978Y-152614143D01*
X106526653Y-152249613D01*
X106585690Y-151876871D01*
X106605441Y-151500000D01*
X106605441Y-151499993D01*
X114094630Y-151499993D01*
X114094630Y-151500006D01*
X114114101Y-151958394D01*
X114172381Y-152413513D01*
X114269043Y-152862028D01*
X114403399Y-153300746D01*
X114403401Y-153300751D01*
X114574468Y-153726468D01*
X114574472Y-153726479D01*
X114781026Y-154136154D01*
X114781037Y-154136174D01*
X114901317Y-154331521D01*
X115021599Y-154526871D01*
X115294429Y-154895762D01*
X115294434Y-154895767D01*
X115294435Y-154895769D01*
X115597559Y-155240185D01*
X115597560Y-155240186D01*
X115928809Y-155557662D01*
X116285788Y-155845902D01*
X116665925Y-156102830D01*
X117066482Y-156326595D01*
X117066485Y-156326596D01*
X117066494Y-156326601D01*
X117484566Y-156515581D01*
X117484573Y-156515584D01*
X117917185Y-156668435D01*
X118361201Y-156784048D01*
X118813422Y-156861589D01*
X118954946Y-156873634D01*
X119270571Y-156900499D01*
X119270588Y-156900499D01*
X119270590Y-156900500D01*
X119270591Y-156900500D01*
X119729409Y-156900500D01*
X119729410Y-156900500D01*
X119729411Y-156900499D01*
X119729428Y-156900499D01*
X120001523Y-156877339D01*
X120186578Y-156861589D01*
X120638799Y-156784048D01*
X121082815Y-156668435D01*
X121515427Y-156515584D01*
X121933518Y-156326595D01*
X122334075Y-156102830D01*
X122714212Y-155845902D01*
X123071191Y-155557662D01*
X123402440Y-155240186D01*
X123705571Y-154895762D01*
X123978401Y-154526871D01*
X124218964Y-154136172D01*
X124425527Y-153726479D01*
X124596601Y-153300744D01*
X124730955Y-152862035D01*
X124827619Y-152413512D01*
X124885897Y-151958407D01*
X124905370Y-151500000D01*
X124885897Y-151041593D01*
X124827619Y-150586488D01*
X124730955Y-150137965D01*
X124596601Y-149699256D01*
X124425527Y-149273521D01*
X124425527Y-149273520D01*
X124218973Y-148863845D01*
X124218962Y-148863825D01*
X124192369Y-148820635D01*
X123978401Y-148473129D01*
X123705571Y-148104238D01*
X123402440Y-147759814D01*
X123071191Y-147442338D01*
X122714212Y-147154098D01*
X122334075Y-146897170D01*
X122311723Y-146884683D01*
X121933526Y-146673409D01*
X121933505Y-146673398D01*
X121515433Y-146484418D01*
X121082810Y-146331563D01*
X120638797Y-146215951D01*
X120186588Y-146138412D01*
X120186562Y-146138409D01*
X119729428Y-146099500D01*
X119729410Y-146099500D01*
X119270590Y-146099500D01*
X119270571Y-146099500D01*
X118813437Y-146138409D01*
X118813411Y-146138412D01*
X118361202Y-146215951D01*
X117917189Y-146331563D01*
X117484566Y-146484418D01*
X117066494Y-146673398D01*
X117066473Y-146673409D01*
X116665933Y-146897165D01*
X116665914Y-146897177D01*
X116285793Y-147154094D01*
X115928806Y-147442340D01*
X115597559Y-147759814D01*
X115294435Y-148104230D01*
X115021598Y-148473130D01*
X114781037Y-148863825D01*
X114781026Y-148863845D01*
X114574472Y-149273520D01*
X114574468Y-149273531D01*
X114403401Y-149699248D01*
X114403399Y-149699253D01*
X114269043Y-150137971D01*
X114172381Y-150586486D01*
X114114101Y-151041605D01*
X114094630Y-151499993D01*
X106605441Y-151499993D01*
X106585690Y-151123129D01*
X106526653Y-150750387D01*
X106428978Y-150385857D01*
X106293734Y-150033535D01*
X106122403Y-149697280D01*
X105916863Y-149380775D01*
X105679365Y-149087489D01*
X105412511Y-148820635D01*
X105119225Y-148583137D01*
X105119223Y-148583135D01*
X104802725Y-148377599D01*
X104466468Y-148206267D01*
X104114147Y-148071023D01*
X103749614Y-147973347D01*
X103749607Y-147973346D01*
X103376872Y-147914310D01*
X103000001Y-147894559D01*
X102999999Y-147894559D01*
X102623127Y-147914310D01*
X102250392Y-147973346D01*
X102250385Y-147973347D01*
X101885852Y-148071023D01*
X101533531Y-148206267D01*
X101197275Y-148377599D01*
X100880776Y-148583135D01*
X100587493Y-148820631D01*
X100587485Y-148820638D01*
X100320638Y-149087485D01*
X100320631Y-149087493D01*
X100083135Y-149380776D01*
X99877599Y-149697275D01*
X99706267Y-150033531D01*
X99571023Y-150385852D01*
X99473347Y-150750385D01*
X99473346Y-150750392D01*
X99414310Y-151123127D01*
X99394559Y-151499999D01*
X78500500Y-151499999D01*
X78500500Y-135000000D01*
X81944639Y-135000000D01*
X81964071Y-135420316D01*
X81964071Y-135420322D01*
X81964072Y-135420324D01*
X81990460Y-135609493D01*
X82021584Y-135832611D01*
X82022203Y-135837044D01*
X82022204Y-135837050D01*
X82109461Y-136208048D01*
X82118537Y-136246634D01*
X82157215Y-136362035D01*
X82252256Y-136645597D01*
X82252257Y-136645601D01*
X82422199Y-137030480D01*
X82422204Y-137030490D01*
X82422208Y-137030499D01*
X82422212Y-137030507D01*
X82422213Y-137030508D01*
X82626949Y-137398081D01*
X82626952Y-137398085D01*
X82626954Y-137398089D01*
X82864743Y-137745218D01*
X82864745Y-137745220D01*
X82864752Y-137745230D01*
X82969694Y-137871606D01*
X83133548Y-138068927D01*
X83431073Y-138366452D01*
X83431084Y-138366461D01*
X83754769Y-138635247D01*
X83754775Y-138635251D01*
X83754782Y-138635257D01*
X84101911Y-138873046D01*
X84469501Y-139077792D01*
X84469518Y-139077799D01*
X84469519Y-139077800D01*
X84854398Y-139247742D01*
X84854402Y-139247743D01*
X84854404Y-139247743D01*
X84854414Y-139247748D01*
X85253366Y-139381463D01*
X85662955Y-139477797D01*
X86079684Y-139535929D01*
X86500000Y-139555361D01*
X86920316Y-139535929D01*
X87337045Y-139477797D01*
X87746634Y-139381463D01*
X88145586Y-139247748D01*
X88145597Y-139247742D01*
X88145601Y-139247742D01*
X88382482Y-139143147D01*
X88530499Y-139077792D01*
X88898089Y-138873046D01*
X89245218Y-138635257D01*
X89568927Y-138366452D01*
X89866452Y-138068927D01*
X90135257Y-137745218D01*
X90373046Y-137398089D01*
X90577792Y-137030499D01*
X90679239Y-136800744D01*
X90747742Y-136645601D01*
X90747743Y-136645597D01*
X90747748Y-136645586D01*
X90881463Y-136246634D01*
X90977797Y-135837045D01*
X91035929Y-135420316D01*
X91055361Y-135000000D01*
X91055361Y-134999999D01*
X99394559Y-134999999D01*
X99394559Y-135000000D01*
X99414310Y-135376872D01*
X99473346Y-135749607D01*
X99473347Y-135749614D01*
X99571023Y-136114147D01*
X99706267Y-136466468D01*
X99877599Y-136802725D01*
X100083135Y-137119223D01*
X100169989Y-137226479D01*
X100320635Y-137412511D01*
X100587489Y-137679365D01*
X100587493Y-137679368D01*
X100880776Y-137916864D01*
X101197274Y-138122400D01*
X101197279Y-138122403D01*
X101533535Y-138293734D01*
X101885857Y-138428978D01*
X102250387Y-138526653D01*
X102623129Y-138585690D01*
X102979155Y-138604348D01*
X102999999Y-138605441D01*
X103000000Y-138605441D01*
X103000001Y-138605441D01*
X103019752Y-138604405D01*
X103376871Y-138585690D01*
X103749613Y-138526653D01*
X104114143Y-138428978D01*
X104466465Y-138293734D01*
X104802721Y-138122403D01*
X105119225Y-137916863D01*
X105412511Y-137679365D01*
X105679365Y-137412511D01*
X105916863Y-137119225D01*
X106122403Y-136802721D01*
X106293734Y-136466465D01*
X106428978Y-136114143D01*
X106526653Y-135749613D01*
X106585690Y-135376871D01*
X106605441Y-135000000D01*
X106605441Y-134999993D01*
X114094630Y-134999993D01*
X114094630Y-135000006D01*
X114114101Y-135458394D01*
X114172381Y-135913513D01*
X114269043Y-136362028D01*
X114403399Y-136800746D01*
X114403401Y-136800751D01*
X114574468Y-137226468D01*
X114574472Y-137226479D01*
X114781026Y-137636154D01*
X114781037Y-137636174D01*
X114848186Y-137745230D01*
X115021599Y-138026871D01*
X115294429Y-138395762D01*
X115294434Y-138395767D01*
X115294435Y-138395769D01*
X115505202Y-138635247D01*
X115597560Y-138740186D01*
X115928809Y-139057662D01*
X116285788Y-139345902D01*
X116665925Y-139602830D01*
X117066482Y-139826595D01*
X117066485Y-139826596D01*
X117066494Y-139826601D01*
X117484566Y-140015581D01*
X117484573Y-140015584D01*
X117917185Y-140168435D01*
X118361201Y-140284048D01*
X118813422Y-140361589D01*
X118954946Y-140373634D01*
X119270571Y-140400499D01*
X119270588Y-140400499D01*
X119270590Y-140400500D01*
X119270591Y-140400500D01*
X119729409Y-140400500D01*
X119729410Y-140400500D01*
X119729411Y-140400499D01*
X119729428Y-140400499D01*
X120001523Y-140377339D01*
X120186578Y-140361589D01*
X120638799Y-140284048D01*
X121082815Y-140168435D01*
X121515427Y-140015584D01*
X121933518Y-139826595D01*
X122334075Y-139602830D01*
X122714212Y-139345902D01*
X123071191Y-139057662D01*
X123402440Y-138740186D01*
X123705571Y-138395762D01*
X123978401Y-138026871D01*
X124218964Y-137636172D01*
X124425527Y-137226479D01*
X124596601Y-136800744D01*
X124730955Y-136362035D01*
X124827619Y-135913512D01*
X124885897Y-135458407D01*
X124887516Y-135420316D01*
X124905370Y-135000006D01*
X124905370Y-134999993D01*
X124885898Y-134541605D01*
X124885897Y-134541599D01*
X124885897Y-134541593D01*
X124827619Y-134086488D01*
X124730955Y-133637965D01*
X124596601Y-133199256D01*
X124425527Y-132773521D01*
X124425527Y-132773520D01*
X124218973Y-132363845D01*
X124218962Y-132363825D01*
X124192369Y-132320635D01*
X123978401Y-131973129D01*
X123705571Y-131604238D01*
X123402440Y-131259814D01*
X123071191Y-130942338D01*
X122714212Y-130654098D01*
X122334075Y-130397170D01*
X122311723Y-130384683D01*
X121933526Y-130173409D01*
X121933505Y-130173398D01*
X121515433Y-129984418D01*
X121082810Y-129831563D01*
X120638797Y-129715951D01*
X120186588Y-129638412D01*
X120186562Y-129638409D01*
X119729428Y-129599500D01*
X119729410Y-129599500D01*
X119270590Y-129599500D01*
X119270571Y-129599500D01*
X118813437Y-129638409D01*
X118813411Y-129638412D01*
X118361202Y-129715951D01*
X117917189Y-129831563D01*
X117484566Y-129984418D01*
X117066494Y-130173398D01*
X117066473Y-130173409D01*
X116665933Y-130397165D01*
X116665914Y-130397177D01*
X116285793Y-130654094D01*
X115928806Y-130942340D01*
X115597559Y-131259814D01*
X115294435Y-131604230D01*
X115294429Y-131604237D01*
X115294429Y-131604238D01*
X115272746Y-131633556D01*
X115021598Y-131973130D01*
X114781037Y-132363825D01*
X114781026Y-132363845D01*
X114574472Y-132773520D01*
X114574468Y-132773531D01*
X114403401Y-133199248D01*
X114403399Y-133199253D01*
X114269043Y-133637971D01*
X114172381Y-134086486D01*
X114114101Y-134541605D01*
X114094630Y-134999993D01*
X106605441Y-134999993D01*
X106585690Y-134623129D01*
X106526653Y-134250387D01*
X106428978Y-133885857D01*
X106293734Y-133533535D01*
X106122403Y-133197280D01*
X105916863Y-132880775D01*
X105679365Y-132587489D01*
X105412511Y-132320635D01*
X105119225Y-132083137D01*
X105119223Y-132083135D01*
X104802725Y-131877599D01*
X104466468Y-131706267D01*
X104114147Y-131571023D01*
X103749614Y-131473347D01*
X103749607Y-131473346D01*
X103376872Y-131414310D01*
X103000001Y-131394559D01*
X102999999Y-131394559D01*
X102623127Y-131414310D01*
X102250392Y-131473346D01*
X102250385Y-131473347D01*
X101885852Y-131571023D01*
X101533531Y-131706267D01*
X101197275Y-131877599D01*
X100880776Y-132083135D01*
X100587493Y-132320631D01*
X100587485Y-132320638D01*
X100320638Y-132587485D01*
X100320631Y-132587493D01*
X100083135Y-132880776D01*
X99877599Y-133197275D01*
X99706267Y-133533531D01*
X99571023Y-133885852D01*
X99473347Y-134250385D01*
X99473346Y-134250392D01*
X99414310Y-134623127D01*
X99394559Y-134999999D01*
X91055361Y-134999999D01*
X91035929Y-134579684D01*
X90977797Y-134162955D01*
X90881463Y-133753366D01*
X90747748Y-133354414D01*
X90747743Y-133354402D01*
X90747742Y-133354398D01*
X90577800Y-132969519D01*
X90577799Y-132969518D01*
X90577792Y-132969501D01*
X90411998Y-132671844D01*
X90373050Y-132601918D01*
X90373049Y-132601917D01*
X90373046Y-132601911D01*
X90135257Y-132254782D01*
X90135251Y-132254775D01*
X90135247Y-132254769D01*
X89866461Y-131931084D01*
X89866452Y-131931073D01*
X89568927Y-131633548D01*
X89557700Y-131624225D01*
X89245230Y-131364752D01*
X89245220Y-131364745D01*
X89245218Y-131364743D01*
X88898089Y-131126954D01*
X88898085Y-131126952D01*
X88898081Y-131126949D01*
X88530508Y-130922213D01*
X88530507Y-130922212D01*
X88530499Y-130922208D01*
X88530490Y-130922204D01*
X88530480Y-130922199D01*
X88145601Y-130752257D01*
X88145597Y-130752256D01*
X88145588Y-130752253D01*
X88145586Y-130752252D01*
X87746634Y-130618537D01*
X87746633Y-130618536D01*
X87746631Y-130618536D01*
X87337050Y-130522204D01*
X87337047Y-130522203D01*
X87337045Y-130522203D01*
X87109493Y-130490460D01*
X86920324Y-130464072D01*
X86920322Y-130464071D01*
X86920316Y-130464071D01*
X86500000Y-130444639D01*
X86079684Y-130464071D01*
X86079677Y-130464071D01*
X86079675Y-130464072D01*
X85662955Y-130522203D01*
X85662949Y-130522204D01*
X85253368Y-130618536D01*
X84854402Y-130752256D01*
X84854398Y-130752257D01*
X84469519Y-130922199D01*
X84469491Y-130922213D01*
X84101918Y-131126949D01*
X84101912Y-131126953D01*
X83754779Y-131364745D01*
X83754769Y-131364752D01*
X83431084Y-131633538D01*
X83431064Y-131633556D01*
X83133556Y-131931064D01*
X83133538Y-131931084D01*
X82864752Y-132254769D01*
X82864745Y-132254779D01*
X82626953Y-132601912D01*
X82626949Y-132601918D01*
X82422213Y-132969491D01*
X82422199Y-132969519D01*
X82252257Y-133354398D01*
X82252256Y-133354402D01*
X82118536Y-133753368D01*
X82022204Y-134162949D01*
X82022203Y-134162955D01*
X81969385Y-134541593D01*
X81964071Y-134579684D01*
X81944639Y-135000000D01*
X78500500Y-135000000D01*
X78500500Y-118499999D01*
X99394559Y-118499999D01*
X99394559Y-118500000D01*
X99414310Y-118876872D01*
X99473346Y-119249607D01*
X99473347Y-119249614D01*
X99571023Y-119614147D01*
X99706267Y-119966468D01*
X99877599Y-120302725D01*
X100083135Y-120619223D01*
X100169989Y-120726479D01*
X100320635Y-120912511D01*
X100587489Y-121179365D01*
X100587493Y-121179368D01*
X100880776Y-121416864D01*
X101197274Y-121622400D01*
X101197279Y-121622403D01*
X101533535Y-121793734D01*
X101885857Y-121928978D01*
X102250387Y-122026653D01*
X102623129Y-122085690D01*
X102979155Y-122104348D01*
X102999999Y-122105441D01*
X103000000Y-122105441D01*
X103000001Y-122105441D01*
X103019752Y-122104405D01*
X103376871Y-122085690D01*
X103749613Y-122026653D01*
X104114143Y-121928978D01*
X104466465Y-121793734D01*
X104802721Y-121622403D01*
X105119225Y-121416863D01*
X105412511Y-121179365D01*
X105679365Y-120912511D01*
X105916863Y-120619225D01*
X106122403Y-120302721D01*
X106293734Y-119966465D01*
X106428978Y-119614143D01*
X106526653Y-119249613D01*
X106585690Y-118876871D01*
X106605441Y-118500000D01*
X106605441Y-118499993D01*
X114094630Y-118499993D01*
X114094630Y-118500006D01*
X114114101Y-118958394D01*
X114172381Y-119413513D01*
X114269043Y-119862028D01*
X114403399Y-120300746D01*
X114403401Y-120300751D01*
X114574468Y-120726468D01*
X114574472Y-120726479D01*
X114781026Y-121136154D01*
X114781037Y-121136174D01*
X114901317Y-121331521D01*
X115021599Y-121526871D01*
X115294429Y-121895762D01*
X115294434Y-121895767D01*
X115294435Y-121895769D01*
X115597559Y-122240185D01*
X115597560Y-122240186D01*
X115928809Y-122557662D01*
X116285788Y-122845902D01*
X116665925Y-123102830D01*
X117066482Y-123326595D01*
X117066485Y-123326596D01*
X117066494Y-123326601D01*
X117484566Y-123515581D01*
X117484573Y-123515584D01*
X117917185Y-123668435D01*
X118361201Y-123784048D01*
X118813422Y-123861589D01*
X118954946Y-123873634D01*
X119270571Y-123900499D01*
X119270588Y-123900499D01*
X119270590Y-123900500D01*
X119270591Y-123900500D01*
X119729409Y-123900500D01*
X119729410Y-123900500D01*
X119729411Y-123900499D01*
X119729428Y-123900499D01*
X120001523Y-123877339D01*
X120186578Y-123861589D01*
X120638799Y-123784048D01*
X121082815Y-123668435D01*
X121515427Y-123515584D01*
X121933518Y-123326595D01*
X122334075Y-123102830D01*
X122714212Y-122845902D01*
X123071191Y-122557662D01*
X123402440Y-122240186D01*
X123705571Y-121895762D01*
X123978401Y-121526871D01*
X124218964Y-121136172D01*
X124425527Y-120726479D01*
X124596601Y-120300744D01*
X124730955Y-119862035D01*
X124827619Y-119413512D01*
X124885897Y-118958407D01*
X124905370Y-118500000D01*
X124885897Y-118041593D01*
X124827619Y-117586488D01*
X124730955Y-117137965D01*
X124596601Y-116699256D01*
X124425527Y-116273521D01*
X124425527Y-116273520D01*
X124218973Y-115863845D01*
X124218962Y-115863825D01*
X124192369Y-115820635D01*
X123978401Y-115473129D01*
X123705571Y-115104238D01*
X123402440Y-114759814D01*
X123071191Y-114442338D01*
X122714212Y-114154098D01*
X122334075Y-113897170D01*
X122311723Y-113884683D01*
X121933526Y-113673409D01*
X121933505Y-113673398D01*
X121515433Y-113484418D01*
X121082810Y-113331563D01*
X120638797Y-113215951D01*
X120186588Y-113138412D01*
X120186562Y-113138409D01*
X119729428Y-113099500D01*
X119729410Y-113099500D01*
X119270590Y-113099500D01*
X119270571Y-113099500D01*
X118813437Y-113138409D01*
X118813411Y-113138412D01*
X118361202Y-113215951D01*
X117917189Y-113331563D01*
X117484566Y-113484418D01*
X117066494Y-113673398D01*
X117066473Y-113673409D01*
X116665933Y-113897165D01*
X116665914Y-113897177D01*
X116285793Y-114154094D01*
X115928806Y-114442340D01*
X115597559Y-114759814D01*
X115294435Y-115104230D01*
X115021598Y-115473130D01*
X114781037Y-115863825D01*
X114781026Y-115863845D01*
X114574472Y-116273520D01*
X114574468Y-116273531D01*
X114403401Y-116699248D01*
X114403399Y-116699253D01*
X114269043Y-117137971D01*
X114172381Y-117586486D01*
X114114101Y-118041605D01*
X114094630Y-118499993D01*
X106605441Y-118499993D01*
X106585690Y-118123129D01*
X106526653Y-117750387D01*
X106428978Y-117385857D01*
X106293734Y-117033535D01*
X106122403Y-116697280D01*
X105916863Y-116380775D01*
X105679365Y-116087489D01*
X105412511Y-115820635D01*
X105119225Y-115583137D01*
X105119223Y-115583135D01*
X104802725Y-115377599D01*
X104466468Y-115206267D01*
X104114147Y-115071023D01*
X103749614Y-114973347D01*
X103749607Y-114973346D01*
X103376872Y-114914310D01*
X103000001Y-114894559D01*
X102999999Y-114894559D01*
X102623127Y-114914310D01*
X102250392Y-114973346D01*
X102250385Y-114973347D01*
X101885852Y-115071023D01*
X101533531Y-115206267D01*
X101197275Y-115377599D01*
X100880776Y-115583135D01*
X100587493Y-115820631D01*
X100587485Y-115820638D01*
X100320638Y-116087485D01*
X100320631Y-116087493D01*
X100083135Y-116380776D01*
X99877599Y-116697275D01*
X99706267Y-117033531D01*
X99571023Y-117385852D01*
X99473347Y-117750385D01*
X99473346Y-117750392D01*
X99414310Y-118123127D01*
X99394559Y-118499999D01*
X78500500Y-118499999D01*
X78500500Y-102000000D01*
X81944639Y-102000000D01*
X81964071Y-102420316D01*
X81964071Y-102420322D01*
X81964072Y-102420324D01*
X81990460Y-102609493D01*
X82021584Y-102832611D01*
X82022203Y-102837044D01*
X82022204Y-102837050D01*
X82109461Y-103208048D01*
X82118537Y-103246634D01*
X82157215Y-103362035D01*
X82252256Y-103645597D01*
X82252257Y-103645601D01*
X82422199Y-104030480D01*
X82422204Y-104030490D01*
X82422208Y-104030499D01*
X82422212Y-104030507D01*
X82422213Y-104030508D01*
X82626949Y-104398081D01*
X82626952Y-104398085D01*
X82626954Y-104398089D01*
X82864743Y-104745218D01*
X82864745Y-104745220D01*
X82864752Y-104745230D01*
X82969694Y-104871606D01*
X83133548Y-105068927D01*
X83431073Y-105366452D01*
X83431084Y-105366461D01*
X83754769Y-105635247D01*
X83754775Y-105635251D01*
X83754782Y-105635257D01*
X84101911Y-105873046D01*
X84469501Y-106077792D01*
X84469518Y-106077799D01*
X84469519Y-106077800D01*
X84854398Y-106247742D01*
X84854402Y-106247743D01*
X84854404Y-106247743D01*
X84854414Y-106247748D01*
X85253366Y-106381463D01*
X85662955Y-106477797D01*
X86079684Y-106535929D01*
X86500000Y-106555361D01*
X86920316Y-106535929D01*
X87337045Y-106477797D01*
X87746634Y-106381463D01*
X88145586Y-106247748D01*
X88145597Y-106247742D01*
X88145601Y-106247742D01*
X88382482Y-106143147D01*
X88530499Y-106077792D01*
X88898089Y-105873046D01*
X89245218Y-105635257D01*
X89568927Y-105366452D01*
X89866452Y-105068927D01*
X90135257Y-104745218D01*
X90373046Y-104398089D01*
X90577792Y-104030499D01*
X90679239Y-103800744D01*
X90747742Y-103645601D01*
X90747743Y-103645597D01*
X90747748Y-103645586D01*
X90881463Y-103246634D01*
X90977797Y-102837045D01*
X91035929Y-102420316D01*
X91055361Y-102000000D01*
X91055361Y-101999999D01*
X99394559Y-101999999D01*
X99394559Y-102000000D01*
X99414310Y-102376872D01*
X99473346Y-102749607D01*
X99473347Y-102749614D01*
X99571023Y-103114147D01*
X99706267Y-103466468D01*
X99877599Y-103802725D01*
X100083135Y-104119223D01*
X100169989Y-104226479D01*
X100320635Y-104412511D01*
X100587489Y-104679365D01*
X100587493Y-104679368D01*
X100880776Y-104916864D01*
X101197274Y-105122400D01*
X101197279Y-105122403D01*
X101533535Y-105293734D01*
X101885857Y-105428978D01*
X102250387Y-105526653D01*
X102623129Y-105585690D01*
X102979155Y-105604348D01*
X102999999Y-105605441D01*
X103000000Y-105605441D01*
X103000001Y-105605441D01*
X103019752Y-105604405D01*
X103376871Y-105585690D01*
X103749613Y-105526653D01*
X104114143Y-105428978D01*
X104466465Y-105293734D01*
X104802721Y-105122403D01*
X105119225Y-104916863D01*
X105412511Y-104679365D01*
X105679365Y-104412511D01*
X105916863Y-104119225D01*
X106122403Y-103802721D01*
X106293734Y-103466465D01*
X106428978Y-103114143D01*
X106526653Y-102749613D01*
X106585690Y-102376871D01*
X106605441Y-102000000D01*
X106605441Y-101999993D01*
X114094630Y-101999993D01*
X114094630Y-102000006D01*
X114114101Y-102458394D01*
X114172381Y-102913513D01*
X114269043Y-103362028D01*
X114403399Y-103800746D01*
X114403401Y-103800751D01*
X114574468Y-104226468D01*
X114574472Y-104226479D01*
X114781026Y-104636154D01*
X114781037Y-104636174D01*
X114848186Y-104745230D01*
X115021599Y-105026871D01*
X115294429Y-105395762D01*
X115294434Y-105395767D01*
X115294435Y-105395769D01*
X115505202Y-105635247D01*
X115597560Y-105740186D01*
X115928809Y-106057662D01*
X116285788Y-106345902D01*
X116665925Y-106602830D01*
X117066482Y-106826595D01*
X117066485Y-106826596D01*
X117066494Y-106826601D01*
X117484566Y-107015581D01*
X117484573Y-107015584D01*
X117917185Y-107168435D01*
X118361201Y-107284048D01*
X118813422Y-107361589D01*
X118954946Y-107373634D01*
X119270571Y-107400499D01*
X119270588Y-107400499D01*
X119270590Y-107400500D01*
X119270591Y-107400500D01*
X119729409Y-107400500D01*
X119729410Y-107400500D01*
X119729411Y-107400499D01*
X119729428Y-107400499D01*
X120001523Y-107377339D01*
X120186578Y-107361589D01*
X120638799Y-107284048D01*
X121082815Y-107168435D01*
X121515427Y-107015584D01*
X121933518Y-106826595D01*
X122334075Y-106602830D01*
X122714212Y-106345902D01*
X123071191Y-106057662D01*
X123402440Y-105740186D01*
X123705571Y-105395762D01*
X123978401Y-105026871D01*
X124218964Y-104636172D01*
X124425527Y-104226479D01*
X124596601Y-103800744D01*
X124730955Y-103362035D01*
X124827619Y-102913512D01*
X124885897Y-102458407D01*
X124887516Y-102420316D01*
X124905370Y-102000006D01*
X124905370Y-101999993D01*
X124885898Y-101541605D01*
X124885897Y-101541599D01*
X124885897Y-101541593D01*
X124827619Y-101086488D01*
X124730955Y-100637965D01*
X124596601Y-100199256D01*
X124425527Y-99773521D01*
X124425527Y-99773520D01*
X124218973Y-99363845D01*
X124218962Y-99363825D01*
X124192369Y-99320635D01*
X123978401Y-98973129D01*
X123705571Y-98604238D01*
X123402440Y-98259814D01*
X123071191Y-97942338D01*
X122714212Y-97654098D01*
X122334075Y-97397170D01*
X122311723Y-97384683D01*
X121933526Y-97173409D01*
X121933505Y-97173398D01*
X121515433Y-96984418D01*
X121082810Y-96831563D01*
X120638797Y-96715951D01*
X120186588Y-96638412D01*
X120186562Y-96638409D01*
X119729428Y-96599500D01*
X119729410Y-96599500D01*
X119270590Y-96599500D01*
X119270571Y-96599500D01*
X118813437Y-96638409D01*
X118813411Y-96638412D01*
X118361202Y-96715951D01*
X117917189Y-96831563D01*
X117484566Y-96984418D01*
X117066494Y-97173398D01*
X117066473Y-97173409D01*
X116665933Y-97397165D01*
X116665914Y-97397177D01*
X116285793Y-97654094D01*
X115928806Y-97942340D01*
X115597559Y-98259814D01*
X115294435Y-98604230D01*
X115294429Y-98604237D01*
X115294429Y-98604238D01*
X115272746Y-98633556D01*
X115021598Y-98973130D01*
X114781037Y-99363825D01*
X114781026Y-99363845D01*
X114574472Y-99773520D01*
X114574468Y-99773531D01*
X114403401Y-100199248D01*
X114403399Y-100199253D01*
X114269043Y-100637971D01*
X114172381Y-101086486D01*
X114114101Y-101541605D01*
X114094630Y-101999993D01*
X106605441Y-101999993D01*
X106585690Y-101623129D01*
X106526653Y-101250387D01*
X106428978Y-100885857D01*
X106293734Y-100533535D01*
X106122403Y-100197280D01*
X105916863Y-99880775D01*
X105679365Y-99587489D01*
X105412511Y-99320635D01*
X105119225Y-99083137D01*
X105119223Y-99083135D01*
X104802725Y-98877599D01*
X104466468Y-98706267D01*
X104114147Y-98571023D01*
X103749614Y-98473347D01*
X103749607Y-98473346D01*
X103376872Y-98414310D01*
X103000001Y-98394559D01*
X102999999Y-98394559D01*
X102623127Y-98414310D01*
X102250392Y-98473346D01*
X102250385Y-98473347D01*
X101885852Y-98571023D01*
X101533531Y-98706267D01*
X101197275Y-98877599D01*
X100880776Y-99083135D01*
X100587493Y-99320631D01*
X100587485Y-99320638D01*
X100320638Y-99587485D01*
X100320631Y-99587493D01*
X100083135Y-99880776D01*
X99877599Y-100197275D01*
X99706267Y-100533531D01*
X99571023Y-100885852D01*
X99473347Y-101250385D01*
X99473346Y-101250392D01*
X99414310Y-101623127D01*
X99394559Y-101999999D01*
X91055361Y-101999999D01*
X91035929Y-101579684D01*
X90977797Y-101162955D01*
X90881463Y-100753366D01*
X90747748Y-100354414D01*
X90747743Y-100354402D01*
X90747742Y-100354398D01*
X90577800Y-99969519D01*
X90577799Y-99969518D01*
X90577792Y-99969501D01*
X90411998Y-99671844D01*
X90373050Y-99601918D01*
X90373049Y-99601917D01*
X90373046Y-99601911D01*
X90135257Y-99254782D01*
X90135251Y-99254775D01*
X90135247Y-99254769D01*
X89866461Y-98931084D01*
X89866452Y-98931073D01*
X89568927Y-98633548D01*
X89557700Y-98624225D01*
X89245230Y-98364752D01*
X89245220Y-98364745D01*
X89245218Y-98364743D01*
X88898089Y-98126954D01*
X88898085Y-98126952D01*
X88898081Y-98126949D01*
X88530508Y-97922213D01*
X88530507Y-97922212D01*
X88530499Y-97922208D01*
X88530490Y-97922204D01*
X88530480Y-97922199D01*
X88145601Y-97752257D01*
X88145597Y-97752256D01*
X88145588Y-97752253D01*
X88145586Y-97752252D01*
X87746634Y-97618537D01*
X87746633Y-97618536D01*
X87746631Y-97618536D01*
X87337050Y-97522204D01*
X87337047Y-97522203D01*
X87337045Y-97522203D01*
X87109493Y-97490460D01*
X86920324Y-97464072D01*
X86920322Y-97464071D01*
X86920316Y-97464071D01*
X86500000Y-97444639D01*
X86079684Y-97464071D01*
X86079677Y-97464071D01*
X86079675Y-97464072D01*
X85662955Y-97522203D01*
X85662949Y-97522204D01*
X85253368Y-97618536D01*
X84854402Y-97752256D01*
X84854398Y-97752257D01*
X84469519Y-97922199D01*
X84469491Y-97922213D01*
X84101918Y-98126949D01*
X84101912Y-98126953D01*
X83754779Y-98364745D01*
X83754769Y-98364752D01*
X83431084Y-98633538D01*
X83431064Y-98633556D01*
X83133556Y-98931064D01*
X83133538Y-98931084D01*
X82864752Y-99254769D01*
X82864745Y-99254779D01*
X82626953Y-99601912D01*
X82626949Y-99601918D01*
X82422213Y-99969491D01*
X82422199Y-99969519D01*
X82252257Y-100354398D01*
X82252256Y-100354402D01*
X82118536Y-100753368D01*
X82022204Y-101162949D01*
X82022203Y-101162955D01*
X81969385Y-101541593D01*
X81964071Y-101579684D01*
X81944639Y-102000000D01*
X78500500Y-102000000D01*
X78500500Y-85499999D01*
X99394559Y-85499999D01*
X99394559Y-85500000D01*
X99414310Y-85876872D01*
X99473346Y-86249607D01*
X99473347Y-86249614D01*
X99571023Y-86614147D01*
X99706267Y-86966468D01*
X99877599Y-87302725D01*
X100083135Y-87619223D01*
X100169989Y-87726479D01*
X100320635Y-87912511D01*
X100587489Y-88179365D01*
X100587493Y-88179368D01*
X100880776Y-88416864D01*
X101197274Y-88622400D01*
X101197279Y-88622403D01*
X101533535Y-88793734D01*
X101885857Y-88928978D01*
X102250387Y-89026653D01*
X102623129Y-89085690D01*
X102979155Y-89104348D01*
X102999999Y-89105441D01*
X103000000Y-89105441D01*
X103000001Y-89105441D01*
X103019752Y-89104405D01*
X103376871Y-89085690D01*
X103749613Y-89026653D01*
X104114143Y-88928978D01*
X104466465Y-88793734D01*
X104802721Y-88622403D01*
X105119225Y-88416863D01*
X105412511Y-88179365D01*
X105679365Y-87912511D01*
X105916863Y-87619225D01*
X106122403Y-87302721D01*
X106293734Y-86966465D01*
X106428978Y-86614143D01*
X106526653Y-86249613D01*
X106585690Y-85876871D01*
X106605441Y-85500000D01*
X106605441Y-85499993D01*
X114094630Y-85499993D01*
X114094630Y-85500006D01*
X114114101Y-85958394D01*
X114172381Y-86413513D01*
X114269043Y-86862028D01*
X114403399Y-87300746D01*
X114403401Y-87300751D01*
X114574468Y-87726468D01*
X114574472Y-87726479D01*
X114781026Y-88136154D01*
X114781037Y-88136174D01*
X114901317Y-88331521D01*
X115021599Y-88526871D01*
X115294429Y-88895762D01*
X115294434Y-88895767D01*
X115294435Y-88895769D01*
X115597559Y-89240185D01*
X115597560Y-89240186D01*
X115928809Y-89557662D01*
X116285788Y-89845902D01*
X116665925Y-90102830D01*
X117066482Y-90326595D01*
X117066485Y-90326596D01*
X117066494Y-90326601D01*
X117484566Y-90515581D01*
X117484573Y-90515584D01*
X117917185Y-90668435D01*
X118361201Y-90784048D01*
X118813422Y-90861589D01*
X118954946Y-90873634D01*
X119270571Y-90900499D01*
X119270588Y-90900499D01*
X119270590Y-90900500D01*
X119270591Y-90900500D01*
X119729409Y-90900500D01*
X119729410Y-90900500D01*
X119729411Y-90900499D01*
X119729428Y-90900499D01*
X120001523Y-90877339D01*
X120186578Y-90861589D01*
X120638799Y-90784048D01*
X121082815Y-90668435D01*
X121515427Y-90515584D01*
X121933518Y-90326595D01*
X122334075Y-90102830D01*
X122714212Y-89845902D01*
X123071191Y-89557662D01*
X123402440Y-89240186D01*
X123705571Y-88895762D01*
X123978401Y-88526871D01*
X124218964Y-88136172D01*
X124425527Y-87726479D01*
X124596601Y-87300744D01*
X124730955Y-86862035D01*
X124827619Y-86413512D01*
X124885897Y-85958407D01*
X124905370Y-85500000D01*
X124885897Y-85041593D01*
X124827619Y-84586488D01*
X124730955Y-84137965D01*
X124596601Y-83699256D01*
X124425527Y-83273521D01*
X124425527Y-83273520D01*
X124218973Y-82863845D01*
X124218962Y-82863825D01*
X124192369Y-82820635D01*
X123978401Y-82473129D01*
X123705571Y-82104238D01*
X123402440Y-81759814D01*
X123071191Y-81442338D01*
X122714212Y-81154098D01*
X122334075Y-80897170D01*
X122311723Y-80884683D01*
X121933526Y-80673409D01*
X121933505Y-80673398D01*
X121515433Y-80484418D01*
X121082810Y-80331563D01*
X120638797Y-80215951D01*
X120186588Y-80138412D01*
X120186562Y-80138409D01*
X119729428Y-80099500D01*
X119729410Y-80099500D01*
X119270590Y-80099500D01*
X119270571Y-80099500D01*
X118813437Y-80138409D01*
X118813411Y-80138412D01*
X118361202Y-80215951D01*
X117917189Y-80331563D01*
X117484566Y-80484418D01*
X117066494Y-80673398D01*
X117066473Y-80673409D01*
X116665933Y-80897165D01*
X116665914Y-80897177D01*
X116285793Y-81154094D01*
X115928806Y-81442340D01*
X115597559Y-81759814D01*
X115294435Y-82104230D01*
X115021598Y-82473130D01*
X114781037Y-82863825D01*
X114781026Y-82863845D01*
X114574472Y-83273520D01*
X114574468Y-83273531D01*
X114403401Y-83699248D01*
X114403399Y-83699253D01*
X114269043Y-84137971D01*
X114172381Y-84586486D01*
X114114101Y-85041605D01*
X114094630Y-85499993D01*
X106605441Y-85499993D01*
X106585690Y-85123129D01*
X106526653Y-84750387D01*
X106428978Y-84385857D01*
X106293734Y-84033535D01*
X106122403Y-83697280D01*
X105916863Y-83380775D01*
X105679365Y-83087489D01*
X105412511Y-82820635D01*
X105119225Y-82583137D01*
X105119223Y-82583135D01*
X104802725Y-82377599D01*
X104466468Y-82206267D01*
X104114147Y-82071023D01*
X103749614Y-81973347D01*
X103749607Y-81973346D01*
X103376872Y-81914310D01*
X103000001Y-81894559D01*
X102999999Y-81894559D01*
X102623127Y-81914310D01*
X102250392Y-81973346D01*
X102250385Y-81973347D01*
X101885852Y-82071023D01*
X101533531Y-82206267D01*
X101197275Y-82377599D01*
X100880776Y-82583135D01*
X100587493Y-82820631D01*
X100587485Y-82820638D01*
X100320638Y-83087485D01*
X100320631Y-83087493D01*
X100083135Y-83380776D01*
X99877599Y-83697275D01*
X99706267Y-84033531D01*
X99571023Y-84385852D01*
X99473347Y-84750385D01*
X99473346Y-84750392D01*
X99414310Y-85123127D01*
X99394559Y-85499999D01*
X78500500Y-85499999D01*
X78500500Y-69000000D01*
X81944639Y-69000000D01*
X81964071Y-69420316D01*
X81964071Y-69420322D01*
X81964072Y-69420324D01*
X81990460Y-69609493D01*
X82021584Y-69832611D01*
X82022203Y-69837044D01*
X82022204Y-69837050D01*
X82109461Y-70208048D01*
X82118537Y-70246634D01*
X82157215Y-70362035D01*
X82252256Y-70645597D01*
X82252257Y-70645601D01*
X82422199Y-71030480D01*
X82422204Y-71030490D01*
X82422208Y-71030499D01*
X82422212Y-71030507D01*
X82422213Y-71030508D01*
X82626949Y-71398081D01*
X82626952Y-71398085D01*
X82626954Y-71398089D01*
X82864743Y-71745218D01*
X82864745Y-71745220D01*
X82864752Y-71745230D01*
X82969694Y-71871606D01*
X83133548Y-72068927D01*
X83431073Y-72366452D01*
X83431084Y-72366461D01*
X83754769Y-72635247D01*
X83754775Y-72635251D01*
X83754782Y-72635257D01*
X84101911Y-72873046D01*
X84469501Y-73077792D01*
X84469518Y-73077799D01*
X84469519Y-73077800D01*
X84854398Y-73247742D01*
X84854402Y-73247743D01*
X84854404Y-73247743D01*
X84854414Y-73247748D01*
X85253366Y-73381463D01*
X85662955Y-73477797D01*
X86079684Y-73535929D01*
X86500000Y-73555361D01*
X86920316Y-73535929D01*
X87337045Y-73477797D01*
X87746634Y-73381463D01*
X88145586Y-73247748D01*
X88145597Y-73247742D01*
X88145601Y-73247742D01*
X88382482Y-73143147D01*
X88530499Y-73077792D01*
X88898089Y-72873046D01*
X89245218Y-72635257D01*
X89568927Y-72366452D01*
X89866452Y-72068927D01*
X90135257Y-71745218D01*
X90373046Y-71398089D01*
X90577792Y-71030499D01*
X90679239Y-70800744D01*
X90747742Y-70645601D01*
X90747743Y-70645597D01*
X90747748Y-70645586D01*
X90881463Y-70246634D01*
X90977797Y-69837045D01*
X91035929Y-69420316D01*
X91055361Y-69000000D01*
X91055361Y-68999999D01*
X99394559Y-68999999D01*
X99394559Y-69000000D01*
X99414310Y-69376872D01*
X99473346Y-69749607D01*
X99473347Y-69749614D01*
X99571023Y-70114147D01*
X99706267Y-70466468D01*
X99877599Y-70802725D01*
X100083135Y-71119223D01*
X100169989Y-71226479D01*
X100320635Y-71412511D01*
X100587489Y-71679365D01*
X100587493Y-71679368D01*
X100880776Y-71916864D01*
X101197274Y-72122400D01*
X101197279Y-72122403D01*
X101533535Y-72293734D01*
X101885857Y-72428978D01*
X102250387Y-72526653D01*
X102623129Y-72585690D01*
X102979155Y-72604348D01*
X102999999Y-72605441D01*
X103000000Y-72605441D01*
X103000001Y-72605441D01*
X103019752Y-72604405D01*
X103376871Y-72585690D01*
X103749613Y-72526653D01*
X104114143Y-72428978D01*
X104466465Y-72293734D01*
X104802721Y-72122403D01*
X105119225Y-71916863D01*
X105412511Y-71679365D01*
X105679365Y-71412511D01*
X105916863Y-71119225D01*
X106122403Y-70802721D01*
X106293734Y-70466465D01*
X106428978Y-70114143D01*
X106526653Y-69749613D01*
X106585690Y-69376871D01*
X106605441Y-69000000D01*
X106605441Y-68999993D01*
X114094630Y-68999993D01*
X114094630Y-69000006D01*
X114114101Y-69458394D01*
X114172381Y-69913513D01*
X114269043Y-70362028D01*
X114403399Y-70800746D01*
X114403401Y-70800751D01*
X114574468Y-71226468D01*
X114574472Y-71226479D01*
X114781026Y-71636154D01*
X114781037Y-71636174D01*
X114848186Y-71745230D01*
X115021599Y-72026871D01*
X115294429Y-72395762D01*
X115294434Y-72395767D01*
X115294435Y-72395769D01*
X115505202Y-72635247D01*
X115597560Y-72740186D01*
X115928809Y-73057662D01*
X116285788Y-73345902D01*
X116665925Y-73602830D01*
X117066482Y-73826595D01*
X117066485Y-73826596D01*
X117066494Y-73826601D01*
X117484566Y-74015581D01*
X117484573Y-74015584D01*
X117917185Y-74168435D01*
X118361201Y-74284048D01*
X118813422Y-74361589D01*
X118954946Y-74373634D01*
X119270571Y-74400499D01*
X119270588Y-74400499D01*
X119270590Y-74400500D01*
X119270591Y-74400500D01*
X119729409Y-74400500D01*
X119729410Y-74400500D01*
X119729411Y-74400499D01*
X119729428Y-74400499D01*
X120001523Y-74377339D01*
X120186578Y-74361589D01*
X120638799Y-74284048D01*
X121082815Y-74168435D01*
X121515427Y-74015584D01*
X121933518Y-73826595D01*
X122334075Y-73602830D01*
X122714212Y-73345902D01*
X123071191Y-73057662D01*
X123402440Y-72740186D01*
X123705571Y-72395762D01*
X123978401Y-72026871D01*
X124218964Y-71636172D01*
X124425527Y-71226479D01*
X124596601Y-70800744D01*
X124730955Y-70362035D01*
X124827619Y-69913512D01*
X124885897Y-69458407D01*
X124887516Y-69420316D01*
X124905370Y-69000006D01*
X124905370Y-68999993D01*
X124885898Y-68541605D01*
X124885897Y-68541599D01*
X124885897Y-68541593D01*
X124827619Y-68086488D01*
X124730955Y-67637965D01*
X124596601Y-67199256D01*
X124425527Y-66773521D01*
X124425527Y-66773520D01*
X124218973Y-66363845D01*
X124218962Y-66363825D01*
X124192369Y-66320635D01*
X123978401Y-65973129D01*
X123705571Y-65604238D01*
X123402440Y-65259814D01*
X123071191Y-64942338D01*
X122714212Y-64654098D01*
X122334075Y-64397170D01*
X122311723Y-64384683D01*
X121933526Y-64173409D01*
X121933505Y-64173398D01*
X121515433Y-63984418D01*
X121082810Y-63831563D01*
X120638797Y-63715951D01*
X120186588Y-63638412D01*
X120186562Y-63638409D01*
X119729428Y-63599500D01*
X119729410Y-63599500D01*
X119270590Y-63599500D01*
X119270571Y-63599500D01*
X118813437Y-63638409D01*
X118813411Y-63638412D01*
X118361202Y-63715951D01*
X117917189Y-63831563D01*
X117484566Y-63984418D01*
X117066494Y-64173398D01*
X117066473Y-64173409D01*
X116665933Y-64397165D01*
X116665914Y-64397177D01*
X116285793Y-64654094D01*
X115928806Y-64942340D01*
X115597559Y-65259814D01*
X115294435Y-65604230D01*
X115294429Y-65604237D01*
X115294429Y-65604238D01*
X115272746Y-65633556D01*
X115021598Y-65973130D01*
X114781037Y-66363825D01*
X114781026Y-66363845D01*
X114574472Y-66773520D01*
X114574468Y-66773531D01*
X114403401Y-67199248D01*
X114403399Y-67199253D01*
X114269043Y-67637971D01*
X114172381Y-68086486D01*
X114114101Y-68541605D01*
X114094630Y-68999993D01*
X106605441Y-68999993D01*
X106585690Y-68623129D01*
X106526653Y-68250387D01*
X106428978Y-67885857D01*
X106293734Y-67533535D01*
X106122403Y-67197280D01*
X105916863Y-66880775D01*
X105679365Y-66587489D01*
X105412511Y-66320635D01*
X105119225Y-66083137D01*
X105119223Y-66083135D01*
X104802725Y-65877599D01*
X104466468Y-65706267D01*
X104114147Y-65571023D01*
X103749614Y-65473347D01*
X103749607Y-65473346D01*
X103376872Y-65414310D01*
X103000001Y-65394559D01*
X102999999Y-65394559D01*
X102623127Y-65414310D01*
X102250392Y-65473346D01*
X102250385Y-65473347D01*
X101885852Y-65571023D01*
X101533531Y-65706267D01*
X101197275Y-65877599D01*
X100880776Y-66083135D01*
X100587493Y-66320631D01*
X100587485Y-66320638D01*
X100320638Y-66587485D01*
X100320631Y-66587493D01*
X100083135Y-66880776D01*
X99877599Y-67197275D01*
X99706267Y-67533531D01*
X99571023Y-67885852D01*
X99473347Y-68250385D01*
X99473346Y-68250392D01*
X99414310Y-68623127D01*
X99394559Y-68999999D01*
X91055361Y-68999999D01*
X91035929Y-68579684D01*
X90977797Y-68162955D01*
X90881463Y-67753366D01*
X90747748Y-67354414D01*
X90747743Y-67354402D01*
X90747742Y-67354398D01*
X90577800Y-66969519D01*
X90577799Y-66969518D01*
X90577792Y-66969501D01*
X90411998Y-66671844D01*
X90373050Y-66601918D01*
X90373049Y-66601917D01*
X90373046Y-66601911D01*
X90135257Y-66254782D01*
X90135251Y-66254775D01*
X90135247Y-66254769D01*
X89866461Y-65931084D01*
X89866452Y-65931073D01*
X89568927Y-65633548D01*
X89557700Y-65624225D01*
X89245230Y-65364752D01*
X89245220Y-65364745D01*
X89245218Y-65364743D01*
X88898089Y-65126954D01*
X88898085Y-65126952D01*
X88898081Y-65126949D01*
X88530508Y-64922213D01*
X88530507Y-64922212D01*
X88530499Y-64922208D01*
X88530490Y-64922204D01*
X88530480Y-64922199D01*
X88145601Y-64752257D01*
X88145597Y-64752256D01*
X88145588Y-64752253D01*
X88145586Y-64752252D01*
X87746634Y-64618537D01*
X87746633Y-64618536D01*
X87746631Y-64618536D01*
X87337050Y-64522204D01*
X87337047Y-64522203D01*
X87337045Y-64522203D01*
X87109493Y-64490460D01*
X86920324Y-64464072D01*
X86920322Y-64464071D01*
X86920316Y-64464071D01*
X86500000Y-64444639D01*
X86079684Y-64464071D01*
X86079677Y-64464071D01*
X86079675Y-64464072D01*
X85662955Y-64522203D01*
X85662949Y-64522204D01*
X85253368Y-64618536D01*
X84854402Y-64752256D01*
X84854398Y-64752257D01*
X84469519Y-64922199D01*
X84469491Y-64922213D01*
X84101918Y-65126949D01*
X84101912Y-65126953D01*
X83754779Y-65364745D01*
X83754769Y-65364752D01*
X83431084Y-65633538D01*
X83431064Y-65633556D01*
X83133556Y-65931064D01*
X83133538Y-65931084D01*
X82864752Y-66254769D01*
X82864745Y-66254779D01*
X82626953Y-66601912D01*
X82626949Y-66601918D01*
X82422213Y-66969491D01*
X82422199Y-66969519D01*
X82252257Y-67354398D01*
X82252256Y-67354402D01*
X82118536Y-67753368D01*
X82022204Y-68162949D01*
X82022203Y-68162955D01*
X81969385Y-68541593D01*
X81964071Y-68579684D01*
X81944639Y-69000000D01*
X78500500Y-69000000D01*
X78500500Y-49124500D01*
X78520185Y-49057461D01*
X78572989Y-49011706D01*
X78624500Y-49000500D01*
X127375500Y-49000500D01*
X127442539Y-49020185D01*
G37*
G04 #@! TD.AperFunction*
M02*
