%TF.GenerationSoftware,KiCad,Pcbnew,8.0.3*%
%TF.CreationDate,2024-06-29T21:42:31+02:00*%
%TF.ProjectId,DMH_Adapter_Mult_PANEL,444d485f-4164-4617-9074-65725f4d756c,1*%
%TF.SameCoordinates,Original*%
%TF.FileFunction,Drillmap*%
%TF.FilePolarity,Positive*%
%FSLAX45Y45*%
G04 Gerber Fmt 4.5, Leading zero omitted, Abs format (unit mm)*
G04 Created by KiCad (PCBNEW 8.0.3) date 2024-06-29 21:42:31*
%MOMM*%
%LPD*%
G01*
G04 APERTURE LIST*
%ADD10C,0.050000*%
%ADD11C,0.200000*%
%ADD12C,0.100000*%
%ADD13C,0.240000*%
%ADD14C,0.320000*%
%ADD15C,0.620000*%
G04 APERTURE END LIST*
D10*
X7800000Y-4850000D02*
X12800000Y-4850000D01*
X12800000Y-24850000D01*
X7800000Y-24850000D01*
X7800000Y-4850000D01*
X12440000Y-20100000D02*
G75*
G02*
X11460000Y-20100000I-490000J0D01*
G01*
X11460000Y-20100000D02*
G75*
G02*
X12440000Y-20100000I490000J0D01*
G01*
X9055000Y-18450000D02*
G75*
G02*
X8245000Y-18450000I-405000J0D01*
G01*
X8245000Y-18450000D02*
G75*
G02*
X9055000Y-18450000I405000J0D01*
G01*
X10610000Y-6900000D02*
G75*
G02*
X9990000Y-6900000I-310000J0D01*
G01*
X9990000Y-6900000D02*
G75*
G02*
X10610000Y-6900000I310000J0D01*
G01*
X8905000Y-23200000D02*
G75*
G02*
X8095000Y-23200000I-405000J0D01*
G01*
X8095000Y-23200000D02*
G75*
G02*
X8905000Y-23200000I405000J0D01*
G01*
X10105000Y-23200000D02*
G75*
G02*
X9295000Y-23200000I-405000J0D01*
G01*
X9295000Y-23200000D02*
G75*
G02*
X10105000Y-23200000I405000J0D01*
G01*
X10610000Y-11850000D02*
G75*
G02*
X9990000Y-11850000I-310000J0D01*
G01*
X9990000Y-11850000D02*
G75*
G02*
X10610000Y-11850000I310000J0D01*
G01*
X10610000Y-15150000D02*
G75*
G02*
X9990000Y-15150000I-310000J0D01*
G01*
X9990000Y-15150000D02*
G75*
G02*
X10610000Y-15150000I310000J0D01*
G01*
X10610000Y-18450000D02*
G75*
G02*
X9990000Y-18450000I-310000J0D01*
G01*
X9990000Y-18450000D02*
G75*
G02*
X10610000Y-18450000I310000J0D01*
G01*
X9055000Y-13500000D02*
G75*
G02*
X8245000Y-13500000I-405000J0D01*
G01*
X8245000Y-13500000D02*
G75*
G02*
X9055000Y-13500000I405000J0D01*
G01*
X12440000Y-13500000D02*
G75*
G02*
X11460000Y-13500000I-490000J0D01*
G01*
X11460000Y-13500000D02*
G75*
G02*
X12440000Y-13500000I490000J0D01*
G01*
X12505000Y-23200000D02*
G75*
G02*
X11695000Y-23200000I-405000J0D01*
G01*
X11695000Y-23200000D02*
G75*
G02*
X12505000Y-23200000I405000J0D01*
G01*
X12440000Y-6900000D02*
G75*
G02*
X11460000Y-6900000I-490000J0D01*
G01*
X11460000Y-6900000D02*
G75*
G02*
X12440000Y-6900000I490000J0D01*
G01*
X12440000Y-8550000D02*
G75*
G02*
X11460000Y-8550000I-490000J0D01*
G01*
X11460000Y-8550000D02*
G75*
G02*
X12440000Y-8550000I490000J0D01*
G01*
X12440000Y-10200000D02*
G75*
G02*
X11460000Y-10200000I-490000J0D01*
G01*
X11460000Y-10200000D02*
G75*
G02*
X12440000Y-10200000I490000J0D01*
G01*
X12440000Y-18450000D02*
G75*
G02*
X11460000Y-18450000I-490000J0D01*
G01*
X11460000Y-18450000D02*
G75*
G02*
X12440000Y-18450000I490000J0D01*
G01*
X10610000Y-13500000D02*
G75*
G02*
X9990000Y-13500000I-310000J0D01*
G01*
X9990000Y-13500000D02*
G75*
G02*
X10610000Y-13500000I310000J0D01*
G01*
X11305000Y-23200000D02*
G75*
G02*
X10495000Y-23200000I-405000J0D01*
G01*
X10495000Y-23200000D02*
G75*
G02*
X11305000Y-23200000I405000J0D01*
G01*
X12440000Y-16800000D02*
G75*
G02*
X11460000Y-16800000I-490000J0D01*
G01*
X11460000Y-16800000D02*
G75*
G02*
X12440000Y-16800000I490000J0D01*
G01*
X9055000Y-10200000D02*
G75*
G02*
X8245000Y-10200000I-405000J0D01*
G01*
X8245000Y-10200000D02*
G75*
G02*
X9055000Y-10200000I405000J0D01*
G01*
X9055000Y-20100000D02*
G75*
G02*
X8245000Y-20100000I-405000J0D01*
G01*
X8245000Y-20100000D02*
G75*
G02*
X9055000Y-20100000I405000J0D01*
G01*
X12440000Y-21750000D02*
G75*
G02*
X11460000Y-21750000I-490000J0D01*
G01*
X11460000Y-21750000D02*
G75*
G02*
X12440000Y-21750000I490000J0D01*
G01*
X9055000Y-6900000D02*
G75*
G02*
X8245000Y-6900000I-405000J0D01*
G01*
X8245000Y-6900000D02*
G75*
G02*
X9055000Y-6900000I405000J0D01*
G01*
X10610000Y-21750000D02*
G75*
G02*
X9990000Y-21750000I-310000J0D01*
G01*
X9990000Y-21750000D02*
G75*
G02*
X10610000Y-21750000I310000J0D01*
G01*
X10610000Y-20100000D02*
G75*
G02*
X9990000Y-20100000I-310000J0D01*
G01*
X9990000Y-20100000D02*
G75*
G02*
X10610000Y-20100000I310000J0D01*
G01*
X12440000Y-11850000D02*
G75*
G02*
X11460000Y-11850000I-490000J0D01*
G01*
X11460000Y-11850000D02*
G75*
G02*
X12440000Y-11850000I490000J0D01*
G01*
X12440000Y-15150000D02*
G75*
G02*
X11460000Y-15150000I-490000J0D01*
G01*
X11460000Y-15150000D02*
G75*
G02*
X12440000Y-15150000I490000J0D01*
G01*
X10610000Y-16800000D02*
G75*
G02*
X9990000Y-16800000I-310000J0D01*
G01*
X9990000Y-16800000D02*
G75*
G02*
X10610000Y-16800000I310000J0D01*
G01*
X9055000Y-16800000D02*
G75*
G02*
X8245000Y-16800000I-405000J0D01*
G01*
X8245000Y-16800000D02*
G75*
G02*
X9055000Y-16800000I405000J0D01*
G01*
X9055000Y-21750000D02*
G75*
G02*
X8245000Y-21750000I-405000J0D01*
G01*
X8245000Y-21750000D02*
G75*
G02*
X9055000Y-21750000I405000J0D01*
G01*
X10610000Y-8550000D02*
G75*
G02*
X9990000Y-8550000I-310000J0D01*
G01*
X9990000Y-8550000D02*
G75*
G02*
X10610000Y-8550000I310000J0D01*
G01*
X10610000Y-10200000D02*
G75*
G02*
X9990000Y-10200000I-310000J0D01*
G01*
X9990000Y-10200000D02*
G75*
G02*
X10610000Y-10200000I310000J0D01*
G01*
D11*
D12*
X9715000Y-6885000D02*
X9745000Y-6915000D01*
X9745000Y-6885000D02*
X9715000Y-6915000D01*
X9715000Y-8535000D02*
X9745000Y-8565000D01*
X9745000Y-8535000D02*
X9715000Y-8565000D01*
X9715000Y-10185000D02*
X9745000Y-10215000D01*
X9745000Y-10185000D02*
X9715000Y-10215000D01*
X9715000Y-11835000D02*
X9745000Y-11865000D01*
X9745000Y-11835000D02*
X9715000Y-11865000D01*
X9715000Y-13485000D02*
X9745000Y-13515000D01*
X9745000Y-13485000D02*
X9715000Y-13515000D01*
X9715000Y-15135000D02*
X9745000Y-15165000D01*
X9745000Y-15135000D02*
X9715000Y-15165000D01*
X9715000Y-16785000D02*
X9745000Y-16815000D01*
X9745000Y-16785000D02*
X9715000Y-16815000D01*
X9715000Y-18435000D02*
X9745000Y-18465000D01*
X9745000Y-18435000D02*
X9715000Y-18465000D01*
X9715000Y-20085000D02*
X9745000Y-20115000D01*
X9745000Y-20085000D02*
X9715000Y-20115000D01*
X9715000Y-21735000D02*
X9745000Y-21765000D01*
X9745000Y-21735000D02*
X9715000Y-21765000D01*
X9881000Y-6482000D02*
X9911000Y-6512000D01*
X9911000Y-6482000D02*
X9881000Y-6512000D01*
X9881000Y-8132000D02*
X9911000Y-8162000D01*
X9911000Y-8132000D02*
X9881000Y-8162000D01*
X9881000Y-9782000D02*
X9911000Y-9812000D01*
X9911000Y-9782000D02*
X9881000Y-9812000D01*
X9881000Y-11432000D02*
X9911000Y-11462000D01*
X9911000Y-11432000D02*
X9881000Y-11462000D01*
X9881000Y-13082000D02*
X9911000Y-13112000D01*
X9911000Y-13082000D02*
X9881000Y-13112000D01*
X9881000Y-14732000D02*
X9911000Y-14762000D01*
X9911000Y-14732000D02*
X9881000Y-14762000D01*
X9881000Y-16382000D02*
X9911000Y-16412000D01*
X9911000Y-16382000D02*
X9881000Y-16412000D01*
X9881000Y-18032000D02*
X9911000Y-18062000D01*
X9911000Y-18032000D02*
X9881000Y-18062000D01*
X9881000Y-19682000D02*
X9911000Y-19712000D01*
X9911000Y-19682000D02*
X9881000Y-19712000D01*
X9881000Y-21332000D02*
X9911000Y-21362000D01*
X9911000Y-21332000D02*
X9881000Y-21362000D01*
X9882000Y-7289000D02*
X9912000Y-7319000D01*
X9912000Y-7289000D02*
X9882000Y-7319000D01*
X9882000Y-8939000D02*
X9912000Y-8969000D01*
X9912000Y-8939000D02*
X9882000Y-8969000D01*
X9882000Y-10589000D02*
X9912000Y-10619000D01*
X9912000Y-10589000D02*
X9882000Y-10619000D01*
X9882000Y-12239000D02*
X9912000Y-12269000D01*
X9912000Y-12239000D02*
X9882000Y-12269000D01*
X9882000Y-13889000D02*
X9912000Y-13919000D01*
X9912000Y-13889000D02*
X9882000Y-13919000D01*
X9882000Y-15539000D02*
X9912000Y-15569000D01*
X9912000Y-15539000D02*
X9882000Y-15569000D01*
X9882000Y-17189000D02*
X9912000Y-17219000D01*
X9912000Y-17189000D02*
X9882000Y-17219000D01*
X9882000Y-18839000D02*
X9912000Y-18869000D01*
X9912000Y-18839000D02*
X9882000Y-18869000D01*
X9882000Y-20489000D02*
X9912000Y-20519000D01*
X9912000Y-20489000D02*
X9882000Y-20519000D01*
X9882000Y-22139000D02*
X9912000Y-22169000D01*
X9912000Y-22139000D02*
X9882000Y-22169000D01*
X10285000Y-6315000D02*
X10315000Y-6345000D01*
X10315000Y-6315000D02*
X10285000Y-6345000D01*
X10285000Y-7455000D02*
X10315000Y-7485000D01*
X10315000Y-7455000D02*
X10285000Y-7485000D01*
X10285000Y-7965000D02*
X10315000Y-7995000D01*
X10315000Y-7965000D02*
X10285000Y-7995000D01*
X10285000Y-9105000D02*
X10315000Y-9135000D01*
X10315000Y-9105000D02*
X10285000Y-9135000D01*
X10285000Y-9615000D02*
X10315000Y-9645000D01*
X10315000Y-9615000D02*
X10285000Y-9645000D01*
X10285000Y-10755000D02*
X10315000Y-10785000D01*
X10315000Y-10755000D02*
X10285000Y-10785000D01*
X10285000Y-11265000D02*
X10315000Y-11295000D01*
X10315000Y-11265000D02*
X10285000Y-11295000D01*
X10285000Y-12405000D02*
X10315000Y-12435000D01*
X10315000Y-12405000D02*
X10285000Y-12435000D01*
X10285000Y-12915000D02*
X10315000Y-12945000D01*
X10315000Y-12915000D02*
X10285000Y-12945000D01*
X10285000Y-14055000D02*
X10315000Y-14085000D01*
X10315000Y-14055000D02*
X10285000Y-14085000D01*
X10285000Y-14565000D02*
X10315000Y-14595000D01*
X10315000Y-14565000D02*
X10285000Y-14595000D01*
X10285000Y-15705000D02*
X10315000Y-15735000D01*
X10315000Y-15705000D02*
X10285000Y-15735000D01*
X10285000Y-16215000D02*
X10315000Y-16245000D01*
X10315000Y-16215000D02*
X10285000Y-16245000D01*
X10285000Y-17355000D02*
X10315000Y-17385000D01*
X10315000Y-17355000D02*
X10285000Y-17385000D01*
X10285000Y-17865000D02*
X10315000Y-17895000D01*
X10315000Y-17865000D02*
X10285000Y-17895000D01*
X10285000Y-19005000D02*
X10315000Y-19035000D01*
X10315000Y-19005000D02*
X10285000Y-19035000D01*
X10285000Y-19515000D02*
X10315000Y-19545000D01*
X10315000Y-19515000D02*
X10285000Y-19545000D01*
X10285000Y-20655000D02*
X10315000Y-20685000D01*
X10315000Y-20655000D02*
X10285000Y-20685000D01*
X10285000Y-21165000D02*
X10315000Y-21195000D01*
X10315000Y-21165000D02*
X10285000Y-21195000D01*
X10285000Y-22305000D02*
X10315000Y-22335000D01*
X10315000Y-22305000D02*
X10285000Y-22335000D01*
X10688000Y-7289000D02*
X10718000Y-7319000D01*
X10718000Y-7289000D02*
X10688000Y-7319000D01*
X10688000Y-8939000D02*
X10718000Y-8969000D01*
X10718000Y-8939000D02*
X10688000Y-8969000D01*
X10688000Y-10589000D02*
X10718000Y-10619000D01*
X10718000Y-10589000D02*
X10688000Y-10619000D01*
X10688000Y-12239000D02*
X10718000Y-12269000D01*
X10718000Y-12239000D02*
X10688000Y-12269000D01*
X10688000Y-13889000D02*
X10718000Y-13919000D01*
X10718000Y-13889000D02*
X10688000Y-13919000D01*
X10688000Y-15539000D02*
X10718000Y-15569000D01*
X10718000Y-15539000D02*
X10688000Y-15569000D01*
X10688000Y-17189000D02*
X10718000Y-17219000D01*
X10718000Y-17189000D02*
X10688000Y-17219000D01*
X10688000Y-18839000D02*
X10718000Y-18869000D01*
X10718000Y-18839000D02*
X10688000Y-18869000D01*
X10688000Y-20489000D02*
X10718000Y-20519000D01*
X10718000Y-20489000D02*
X10688000Y-20519000D01*
X10688000Y-22139000D02*
X10718000Y-22169000D01*
X10718000Y-22139000D02*
X10688000Y-22169000D01*
X10689000Y-6482000D02*
X10719000Y-6512000D01*
X10719000Y-6482000D02*
X10689000Y-6512000D01*
X10689000Y-8132000D02*
X10719000Y-8162000D01*
X10719000Y-8132000D02*
X10689000Y-8162000D01*
X10689000Y-9782000D02*
X10719000Y-9812000D01*
X10719000Y-9782000D02*
X10689000Y-9812000D01*
X10689000Y-11432000D02*
X10719000Y-11462000D01*
X10719000Y-11432000D02*
X10689000Y-11462000D01*
X10689000Y-13082000D02*
X10719000Y-13112000D01*
X10719000Y-13082000D02*
X10689000Y-13112000D01*
X10689000Y-14732000D02*
X10719000Y-14762000D01*
X10719000Y-14732000D02*
X10689000Y-14762000D01*
X10689000Y-16382000D02*
X10719000Y-16412000D01*
X10719000Y-16382000D02*
X10689000Y-16412000D01*
X10689000Y-18032000D02*
X10719000Y-18062000D01*
X10719000Y-18032000D02*
X10689000Y-18062000D01*
X10689000Y-19682000D02*
X10719000Y-19712000D01*
X10719000Y-19682000D02*
X10689000Y-19712000D01*
X10689000Y-21332000D02*
X10719000Y-21362000D01*
X10719000Y-21332000D02*
X10689000Y-21362000D01*
X10855000Y-6885000D02*
X10885000Y-6915000D01*
X10885000Y-6885000D02*
X10855000Y-6915000D01*
X10855000Y-8535000D02*
X10885000Y-8565000D01*
X10885000Y-8535000D02*
X10855000Y-8565000D01*
X10855000Y-10185000D02*
X10885000Y-10215000D01*
X10885000Y-10185000D02*
X10855000Y-10215000D01*
X10855000Y-11835000D02*
X10885000Y-11865000D01*
X10885000Y-11835000D02*
X10855000Y-11865000D01*
X10855000Y-13485000D02*
X10885000Y-13515000D01*
X10885000Y-13485000D02*
X10855000Y-13515000D01*
X10855000Y-15135000D02*
X10885000Y-15165000D01*
X10885000Y-15135000D02*
X10855000Y-15165000D01*
X10855000Y-16785000D02*
X10885000Y-16815000D01*
X10885000Y-16785000D02*
X10855000Y-16815000D01*
X10855000Y-18435000D02*
X10885000Y-18465000D01*
X10885000Y-18435000D02*
X10855000Y-18465000D01*
X10855000Y-20085000D02*
X10885000Y-20115000D01*
X10885000Y-20085000D02*
X10855000Y-20115000D01*
X10855000Y-21735000D02*
X10885000Y-21765000D01*
X10885000Y-21735000D02*
X10855000Y-21765000D01*
X11365000Y-6885000D02*
X11395000Y-6915000D01*
X11395000Y-6885000D02*
X11365000Y-6915000D01*
X11365000Y-8535000D02*
X11395000Y-8565000D01*
X11395000Y-8535000D02*
X11365000Y-8565000D01*
X11365000Y-10185000D02*
X11395000Y-10215000D01*
X11395000Y-10185000D02*
X11365000Y-10215000D01*
X11365000Y-11835000D02*
X11395000Y-11865000D01*
X11395000Y-11835000D02*
X11365000Y-11865000D01*
X11365000Y-13485000D02*
X11395000Y-13515000D01*
X11395000Y-13485000D02*
X11365000Y-13515000D01*
X11365000Y-15135000D02*
X11395000Y-15165000D01*
X11395000Y-15135000D02*
X11365000Y-15165000D01*
X11365000Y-16785000D02*
X11395000Y-16815000D01*
X11395000Y-16785000D02*
X11365000Y-16815000D01*
X11365000Y-18435000D02*
X11395000Y-18465000D01*
X11395000Y-18435000D02*
X11365000Y-18465000D01*
X11365000Y-20085000D02*
X11395000Y-20115000D01*
X11395000Y-20085000D02*
X11365000Y-20115000D01*
X11365000Y-21735000D02*
X11395000Y-21765000D01*
X11395000Y-21735000D02*
X11365000Y-21765000D01*
X11531000Y-6482000D02*
X11561000Y-6512000D01*
X11561000Y-6482000D02*
X11531000Y-6512000D01*
X11531000Y-8132000D02*
X11561000Y-8162000D01*
X11561000Y-8132000D02*
X11531000Y-8162000D01*
X11531000Y-9782000D02*
X11561000Y-9812000D01*
X11561000Y-9782000D02*
X11531000Y-9812000D01*
X11531000Y-11432000D02*
X11561000Y-11462000D01*
X11561000Y-11432000D02*
X11531000Y-11462000D01*
X11531000Y-13082000D02*
X11561000Y-13112000D01*
X11561000Y-13082000D02*
X11531000Y-13112000D01*
X11531000Y-14732000D02*
X11561000Y-14762000D01*
X11561000Y-14732000D02*
X11531000Y-14762000D01*
X11531000Y-16382000D02*
X11561000Y-16412000D01*
X11561000Y-16382000D02*
X11531000Y-16412000D01*
X11531000Y-18032000D02*
X11561000Y-18062000D01*
X11561000Y-18032000D02*
X11531000Y-18062000D01*
X11531000Y-19682000D02*
X11561000Y-19712000D01*
X11561000Y-19682000D02*
X11531000Y-19712000D01*
X11531000Y-21332000D02*
X11561000Y-21362000D01*
X11561000Y-21332000D02*
X11531000Y-21362000D01*
X11532000Y-7289000D02*
X11562000Y-7319000D01*
X11562000Y-7289000D02*
X11532000Y-7319000D01*
X11532000Y-8939000D02*
X11562000Y-8969000D01*
X11562000Y-8939000D02*
X11532000Y-8969000D01*
X11532000Y-10589000D02*
X11562000Y-10619000D01*
X11562000Y-10589000D02*
X11532000Y-10619000D01*
X11532000Y-12239000D02*
X11562000Y-12269000D01*
X11562000Y-12239000D02*
X11532000Y-12269000D01*
X11532000Y-13889000D02*
X11562000Y-13919000D01*
X11562000Y-13889000D02*
X11532000Y-13919000D01*
X11532000Y-15539000D02*
X11562000Y-15569000D01*
X11562000Y-15539000D02*
X11532000Y-15569000D01*
X11532000Y-17189000D02*
X11562000Y-17219000D01*
X11562000Y-17189000D02*
X11532000Y-17219000D01*
X11532000Y-18839000D02*
X11562000Y-18869000D01*
X11562000Y-18839000D02*
X11532000Y-18869000D01*
X11532000Y-20489000D02*
X11562000Y-20519000D01*
X11562000Y-20489000D02*
X11532000Y-20519000D01*
X11532000Y-22139000D02*
X11562000Y-22169000D01*
X11562000Y-22139000D02*
X11532000Y-22169000D01*
X11935000Y-6315000D02*
X11965000Y-6345000D01*
X11965000Y-6315000D02*
X11935000Y-6345000D01*
X11935000Y-7455000D02*
X11965000Y-7485000D01*
X11965000Y-7455000D02*
X11935000Y-7485000D01*
X11935000Y-7965000D02*
X11965000Y-7995000D01*
X11965000Y-7965000D02*
X11935000Y-7995000D01*
X11935000Y-9105000D02*
X11965000Y-9135000D01*
X11965000Y-9105000D02*
X11935000Y-9135000D01*
X11935000Y-9615000D02*
X11965000Y-9645000D01*
X11965000Y-9615000D02*
X11935000Y-9645000D01*
X11935000Y-10755000D02*
X11965000Y-10785000D01*
X11965000Y-10755000D02*
X11935000Y-10785000D01*
X11935000Y-11265000D02*
X11965000Y-11295000D01*
X11965000Y-11265000D02*
X11935000Y-11295000D01*
X11935000Y-12405000D02*
X11965000Y-12435000D01*
X11965000Y-12405000D02*
X11935000Y-12435000D01*
X11935000Y-12915000D02*
X11965000Y-12945000D01*
X11965000Y-12915000D02*
X11935000Y-12945000D01*
X11935000Y-14055000D02*
X11965000Y-14085000D01*
X11965000Y-14055000D02*
X11935000Y-14085000D01*
X11935000Y-14565000D02*
X11965000Y-14595000D01*
X11965000Y-14565000D02*
X11935000Y-14595000D01*
X11935000Y-15705000D02*
X11965000Y-15735000D01*
X11965000Y-15705000D02*
X11935000Y-15735000D01*
X11935000Y-16215000D02*
X11965000Y-16245000D01*
X11965000Y-16215000D02*
X11935000Y-16245000D01*
X11935000Y-17355000D02*
X11965000Y-17385000D01*
X11965000Y-17355000D02*
X11935000Y-17385000D01*
X11935000Y-17865000D02*
X11965000Y-17895000D01*
X11965000Y-17865000D02*
X11935000Y-17895000D01*
X11935000Y-19005000D02*
X11965000Y-19035000D01*
X11965000Y-19005000D02*
X11935000Y-19035000D01*
X11935000Y-19515000D02*
X11965000Y-19545000D01*
X11965000Y-19515000D02*
X11935000Y-19545000D01*
X11935000Y-20655000D02*
X11965000Y-20685000D01*
X11965000Y-20655000D02*
X11935000Y-20685000D01*
X11935000Y-21165000D02*
X11965000Y-21195000D01*
X11965000Y-21165000D02*
X11935000Y-21195000D01*
X11935000Y-22305000D02*
X11965000Y-22335000D01*
X11965000Y-22305000D02*
X11935000Y-22335000D01*
X12338000Y-7289000D02*
X12368000Y-7319000D01*
X12368000Y-7289000D02*
X12338000Y-7319000D01*
X12338000Y-8939000D02*
X12368000Y-8969000D01*
X12368000Y-8939000D02*
X12338000Y-8969000D01*
X12338000Y-10589000D02*
X12368000Y-10619000D01*
X12368000Y-10589000D02*
X12338000Y-10619000D01*
X12338000Y-12239000D02*
X12368000Y-12269000D01*
X12368000Y-12239000D02*
X12338000Y-12269000D01*
X12338000Y-13889000D02*
X12368000Y-13919000D01*
X12368000Y-13889000D02*
X12338000Y-13919000D01*
X12338000Y-15539000D02*
X12368000Y-15569000D01*
X12368000Y-15539000D02*
X12338000Y-15569000D01*
X12338000Y-17189000D02*
X12368000Y-17219000D01*
X12368000Y-17189000D02*
X12338000Y-17219000D01*
X12338000Y-18839000D02*
X12368000Y-18869000D01*
X12368000Y-18839000D02*
X12338000Y-18869000D01*
X12338000Y-20489000D02*
X12368000Y-20519000D01*
X12368000Y-20489000D02*
X12338000Y-20519000D01*
X12338000Y-22139000D02*
X12368000Y-22169000D01*
X12368000Y-22139000D02*
X12338000Y-22169000D01*
X12339000Y-6482000D02*
X12369000Y-6512000D01*
X12369000Y-6482000D02*
X12339000Y-6512000D01*
X12339000Y-8132000D02*
X12369000Y-8162000D01*
X12369000Y-8132000D02*
X12339000Y-8162000D01*
X12339000Y-9782000D02*
X12369000Y-9812000D01*
X12369000Y-9782000D02*
X12339000Y-9812000D01*
X12339000Y-11432000D02*
X12369000Y-11462000D01*
X12369000Y-11432000D02*
X12339000Y-11462000D01*
X12339000Y-13082000D02*
X12369000Y-13112000D01*
X12369000Y-13082000D02*
X12339000Y-13112000D01*
X12339000Y-14732000D02*
X12369000Y-14762000D01*
X12369000Y-14732000D02*
X12339000Y-14762000D01*
X12339000Y-16382000D02*
X12369000Y-16412000D01*
X12369000Y-16382000D02*
X12339000Y-16412000D01*
X12339000Y-18032000D02*
X12369000Y-18062000D01*
X12369000Y-18032000D02*
X12339000Y-18062000D01*
X12339000Y-19682000D02*
X12369000Y-19712000D01*
X12369000Y-19682000D02*
X12339000Y-19712000D01*
X12339000Y-21332000D02*
X12369000Y-21362000D01*
X12369000Y-21332000D02*
X12339000Y-21362000D01*
X12505000Y-6885000D02*
X12535000Y-6915000D01*
X12535000Y-6885000D02*
X12505000Y-6915000D01*
X12505000Y-8535000D02*
X12535000Y-8565000D01*
X12535000Y-8535000D02*
X12505000Y-8565000D01*
X12505000Y-10185000D02*
X12535000Y-10215000D01*
X12535000Y-10185000D02*
X12505000Y-10215000D01*
X12505000Y-11835000D02*
X12535000Y-11865000D01*
X12535000Y-11835000D02*
X12505000Y-11865000D01*
X12505000Y-13485000D02*
X12535000Y-13515000D01*
X12535000Y-13485000D02*
X12505000Y-13515000D01*
X12505000Y-15135000D02*
X12535000Y-15165000D01*
X12535000Y-15135000D02*
X12505000Y-15165000D01*
X12505000Y-16785000D02*
X12535000Y-16815000D01*
X12535000Y-16785000D02*
X12505000Y-16815000D01*
X12505000Y-18435000D02*
X12535000Y-18465000D01*
X12535000Y-18435000D02*
X12505000Y-18465000D01*
X12505000Y-20085000D02*
X12535000Y-20115000D01*
X12535000Y-20085000D02*
X12505000Y-20115000D01*
X12505000Y-21735000D02*
X12535000Y-21765000D01*
X12535000Y-21735000D02*
X12505000Y-21765000D01*
D13*
X8770000Y-7910000D02*
G75*
G02*
X8530000Y-7910000I-120000J0D01*
G01*
X8530000Y-7910000D02*
G75*
G02*
X8770000Y-7910000I120000J0D01*
G01*
X8770000Y-11210000D02*
G75*
G02*
X8530000Y-11210000I-120000J0D01*
G01*
X8530000Y-11210000D02*
G75*
G02*
X8770000Y-11210000I120000J0D01*
G01*
X8770000Y-14510000D02*
G75*
G02*
X8530000Y-14510000I-120000J0D01*
G01*
X8530000Y-14510000D02*
G75*
G02*
X8770000Y-14510000I120000J0D01*
G01*
D14*
X8150000Y-5040000D02*
X8150000Y-5360000D01*
X7990000Y-5200000D02*
X8310000Y-5200000D01*
X8150000Y-24340000D02*
X8150000Y-24660000D01*
X7990000Y-24500000D02*
X8310000Y-24500000D01*
X12450000Y-5040000D02*
X12450000Y-5360000D01*
X12290000Y-5200000D02*
X12610000Y-5200000D01*
X12450000Y-24340000D02*
X12450000Y-24660000D01*
X12290000Y-24500000D02*
X12610000Y-24500000D01*
D15*
X8869205Y-8769205D02*
X8869205Y-8330795D01*
X8430795Y-8330795D01*
X8430795Y-8769205D01*
X8869205Y-8769205D01*
X8869205Y-12069205D02*
X8869205Y-11630795D01*
X8430795Y-11630795D01*
X8430795Y-12069205D01*
X8869205Y-12069205D01*
X8869205Y-15369205D02*
X8869205Y-14930795D01*
X8430795Y-14930795D01*
X8430795Y-15369205D01*
X8869205Y-15369205D01*
D11*
X8058277Y-25163984D02*
X8058277Y-24963984D01*
X8058277Y-24963984D02*
X8105896Y-24963984D01*
X8105896Y-24963984D02*
X8134467Y-24973508D01*
X8134467Y-24973508D02*
X8153515Y-24992555D01*
X8153515Y-24992555D02*
X8163039Y-25011603D01*
X8163039Y-25011603D02*
X8172562Y-25049698D01*
X8172562Y-25049698D02*
X8172562Y-25078269D01*
X8172562Y-25078269D02*
X8163039Y-25116365D01*
X8163039Y-25116365D02*
X8153515Y-25135412D01*
X8153515Y-25135412D02*
X8134467Y-25154460D01*
X8134467Y-25154460D02*
X8105896Y-25163984D01*
X8105896Y-25163984D02*
X8058277Y-25163984D01*
X8258277Y-25163984D02*
X8258277Y-25030650D01*
X8258277Y-25068746D02*
X8267801Y-25049698D01*
X8267801Y-25049698D02*
X8277324Y-25040174D01*
X8277324Y-25040174D02*
X8296372Y-25030650D01*
X8296372Y-25030650D02*
X8315420Y-25030650D01*
X8382086Y-25163984D02*
X8382086Y-25030650D01*
X8382086Y-24963984D02*
X8372562Y-24973508D01*
X8372562Y-24973508D02*
X8382086Y-24983031D01*
X8382086Y-24983031D02*
X8391610Y-24973508D01*
X8391610Y-24973508D02*
X8382086Y-24963984D01*
X8382086Y-24963984D02*
X8382086Y-24983031D01*
X8505896Y-25163984D02*
X8486848Y-25154460D01*
X8486848Y-25154460D02*
X8477324Y-25135412D01*
X8477324Y-25135412D02*
X8477324Y-24963984D01*
X8610658Y-25163984D02*
X8591610Y-25154460D01*
X8591610Y-25154460D02*
X8582086Y-25135412D01*
X8582086Y-25135412D02*
X8582086Y-24963984D01*
X8839229Y-25163984D02*
X8839229Y-24963984D01*
X8839229Y-24963984D02*
X8905896Y-25106841D01*
X8905896Y-25106841D02*
X8972563Y-24963984D01*
X8972563Y-24963984D02*
X8972563Y-25163984D01*
X9153515Y-25163984D02*
X9153515Y-25059222D01*
X9153515Y-25059222D02*
X9143991Y-25040174D01*
X9143991Y-25040174D02*
X9124944Y-25030650D01*
X9124944Y-25030650D02*
X9086848Y-25030650D01*
X9086848Y-25030650D02*
X9067801Y-25040174D01*
X9153515Y-25154460D02*
X9134467Y-25163984D01*
X9134467Y-25163984D02*
X9086848Y-25163984D01*
X9086848Y-25163984D02*
X9067801Y-25154460D01*
X9067801Y-25154460D02*
X9058277Y-25135412D01*
X9058277Y-25135412D02*
X9058277Y-25116365D01*
X9058277Y-25116365D02*
X9067801Y-25097317D01*
X9067801Y-25097317D02*
X9086848Y-25087793D01*
X9086848Y-25087793D02*
X9134467Y-25087793D01*
X9134467Y-25087793D02*
X9153515Y-25078269D01*
X9248753Y-25030650D02*
X9248753Y-25230650D01*
X9248753Y-25040174D02*
X9267801Y-25030650D01*
X9267801Y-25030650D02*
X9305896Y-25030650D01*
X9305896Y-25030650D02*
X9324944Y-25040174D01*
X9324944Y-25040174D02*
X9334467Y-25049698D01*
X9334467Y-25049698D02*
X9343991Y-25068746D01*
X9343991Y-25068746D02*
X9343991Y-25125888D01*
X9343991Y-25125888D02*
X9334467Y-25144936D01*
X9334467Y-25144936D02*
X9324944Y-25154460D01*
X9324944Y-25154460D02*
X9305896Y-25163984D01*
X9305896Y-25163984D02*
X9267801Y-25163984D01*
X9267801Y-25163984D02*
X9248753Y-25154460D01*
X9429705Y-25144936D02*
X9439229Y-25154460D01*
X9439229Y-25154460D02*
X9429705Y-25163984D01*
X9429705Y-25163984D02*
X9420182Y-25154460D01*
X9420182Y-25154460D02*
X9429705Y-25144936D01*
X9429705Y-25144936D02*
X9429705Y-25163984D01*
X9429705Y-25040174D02*
X9439229Y-25049698D01*
X9439229Y-25049698D02*
X9429705Y-25059222D01*
X9429705Y-25059222D02*
X9420182Y-25049698D01*
X9420182Y-25049698D02*
X9429705Y-25040174D01*
X9429705Y-25040174D02*
X9429705Y-25059222D01*
D12*
X7767500Y-25477500D02*
X7797500Y-25507500D01*
X7797500Y-25477500D02*
X7767500Y-25507500D01*
D11*
X8096372Y-25383984D02*
X8115420Y-25383984D01*
X8115420Y-25383984D02*
X8134467Y-25393508D01*
X8134467Y-25393508D02*
X8143991Y-25403031D01*
X8143991Y-25403031D02*
X8153515Y-25422079D01*
X8153515Y-25422079D02*
X8163039Y-25460174D01*
X8163039Y-25460174D02*
X8163039Y-25507793D01*
X8163039Y-25507793D02*
X8153515Y-25545888D01*
X8153515Y-25545888D02*
X8143991Y-25564936D01*
X8143991Y-25564936D02*
X8134467Y-25574460D01*
X8134467Y-25574460D02*
X8115420Y-25583984D01*
X8115420Y-25583984D02*
X8096372Y-25583984D01*
X8096372Y-25583984D02*
X8077324Y-25574460D01*
X8077324Y-25574460D02*
X8067801Y-25564936D01*
X8067801Y-25564936D02*
X8058277Y-25545888D01*
X8058277Y-25545888D02*
X8048753Y-25507793D01*
X8048753Y-25507793D02*
X8048753Y-25460174D01*
X8048753Y-25460174D02*
X8058277Y-25422079D01*
X8058277Y-25422079D02*
X8067801Y-25403031D01*
X8067801Y-25403031D02*
X8077324Y-25393508D01*
X8077324Y-25393508D02*
X8096372Y-25383984D01*
X8248753Y-25564936D02*
X8258277Y-25574460D01*
X8258277Y-25574460D02*
X8248753Y-25583984D01*
X8248753Y-25583984D02*
X8239229Y-25574460D01*
X8239229Y-25574460D02*
X8248753Y-25564936D01*
X8248753Y-25564936D02*
X8248753Y-25583984D01*
X8324943Y-25383984D02*
X8448753Y-25383984D01*
X8448753Y-25383984D02*
X8382086Y-25460174D01*
X8382086Y-25460174D02*
X8410658Y-25460174D01*
X8410658Y-25460174D02*
X8429705Y-25469698D01*
X8429705Y-25469698D02*
X8439229Y-25479222D01*
X8439229Y-25479222D02*
X8448753Y-25498269D01*
X8448753Y-25498269D02*
X8448753Y-25545888D01*
X8448753Y-25545888D02*
X8439229Y-25564936D01*
X8439229Y-25564936D02*
X8429705Y-25574460D01*
X8429705Y-25574460D02*
X8410658Y-25583984D01*
X8410658Y-25583984D02*
X8353515Y-25583984D01*
X8353515Y-25583984D02*
X8334467Y-25574460D01*
X8334467Y-25574460D02*
X8324943Y-25564936D01*
X8572563Y-25383984D02*
X8591610Y-25383984D01*
X8591610Y-25383984D02*
X8610658Y-25393508D01*
X8610658Y-25393508D02*
X8620182Y-25403031D01*
X8620182Y-25403031D02*
X8629705Y-25422079D01*
X8629705Y-25422079D02*
X8639229Y-25460174D01*
X8639229Y-25460174D02*
X8639229Y-25507793D01*
X8639229Y-25507793D02*
X8629705Y-25545888D01*
X8629705Y-25545888D02*
X8620182Y-25564936D01*
X8620182Y-25564936D02*
X8610658Y-25574460D01*
X8610658Y-25574460D02*
X8591610Y-25583984D01*
X8591610Y-25583984D02*
X8572563Y-25583984D01*
X8572563Y-25583984D02*
X8553515Y-25574460D01*
X8553515Y-25574460D02*
X8543991Y-25564936D01*
X8543991Y-25564936D02*
X8534467Y-25545888D01*
X8534467Y-25545888D02*
X8524944Y-25507793D01*
X8524944Y-25507793D02*
X8524944Y-25460174D01*
X8524944Y-25460174D02*
X8534467Y-25422079D01*
X8534467Y-25422079D02*
X8543991Y-25403031D01*
X8543991Y-25403031D02*
X8553515Y-25393508D01*
X8553515Y-25393508D02*
X8572563Y-25383984D01*
X8763039Y-25383984D02*
X8782086Y-25383984D01*
X8782086Y-25383984D02*
X8801134Y-25393508D01*
X8801134Y-25393508D02*
X8810658Y-25403031D01*
X8810658Y-25403031D02*
X8820182Y-25422079D01*
X8820182Y-25422079D02*
X8829705Y-25460174D01*
X8829705Y-25460174D02*
X8829705Y-25507793D01*
X8829705Y-25507793D02*
X8820182Y-25545888D01*
X8820182Y-25545888D02*
X8810658Y-25564936D01*
X8810658Y-25564936D02*
X8801134Y-25574460D01*
X8801134Y-25574460D02*
X8782086Y-25583984D01*
X8782086Y-25583984D02*
X8763039Y-25583984D01*
X8763039Y-25583984D02*
X8743991Y-25574460D01*
X8743991Y-25574460D02*
X8734467Y-25564936D01*
X8734467Y-25564936D02*
X8724944Y-25545888D01*
X8724944Y-25545888D02*
X8715420Y-25507793D01*
X8715420Y-25507793D02*
X8715420Y-25460174D01*
X8715420Y-25460174D02*
X8724944Y-25422079D01*
X8724944Y-25422079D02*
X8734467Y-25403031D01*
X8734467Y-25403031D02*
X8743991Y-25393508D01*
X8743991Y-25393508D02*
X8763039Y-25383984D01*
X8915420Y-25583984D02*
X8915420Y-25450650D01*
X8915420Y-25469698D02*
X8924944Y-25460174D01*
X8924944Y-25460174D02*
X8943991Y-25450650D01*
X8943991Y-25450650D02*
X8972563Y-25450650D01*
X8972563Y-25450650D02*
X8991610Y-25460174D01*
X8991610Y-25460174D02*
X9001134Y-25479222D01*
X9001134Y-25479222D02*
X9001134Y-25583984D01*
X9001134Y-25479222D02*
X9010658Y-25460174D01*
X9010658Y-25460174D02*
X9029705Y-25450650D01*
X9029705Y-25450650D02*
X9058277Y-25450650D01*
X9058277Y-25450650D02*
X9077325Y-25460174D01*
X9077325Y-25460174D02*
X9086848Y-25479222D01*
X9086848Y-25479222D02*
X9086848Y-25583984D01*
X9182086Y-25583984D02*
X9182086Y-25450650D01*
X9182086Y-25469698D02*
X9191610Y-25460174D01*
X9191610Y-25460174D02*
X9210658Y-25450650D01*
X9210658Y-25450650D02*
X9239229Y-25450650D01*
X9239229Y-25450650D02*
X9258277Y-25460174D01*
X9258277Y-25460174D02*
X9267801Y-25479222D01*
X9267801Y-25479222D02*
X9267801Y-25583984D01*
X9267801Y-25479222D02*
X9277325Y-25460174D01*
X9277325Y-25460174D02*
X9296372Y-25450650D01*
X9296372Y-25450650D02*
X9324944Y-25450650D01*
X9324944Y-25450650D02*
X9343991Y-25460174D01*
X9343991Y-25460174D02*
X9353515Y-25479222D01*
X9353515Y-25479222D02*
X9353515Y-25583984D01*
X9743991Y-25374460D02*
X9572563Y-25631603D01*
X10001134Y-25383984D02*
X10020182Y-25383984D01*
X10020182Y-25383984D02*
X10039229Y-25393508D01*
X10039229Y-25393508D02*
X10048753Y-25403031D01*
X10048753Y-25403031D02*
X10058277Y-25422079D01*
X10058277Y-25422079D02*
X10067801Y-25460174D01*
X10067801Y-25460174D02*
X10067801Y-25507793D01*
X10067801Y-25507793D02*
X10058277Y-25545888D01*
X10058277Y-25545888D02*
X10048753Y-25564936D01*
X10048753Y-25564936D02*
X10039229Y-25574460D01*
X10039229Y-25574460D02*
X10020182Y-25583984D01*
X10020182Y-25583984D02*
X10001134Y-25583984D01*
X10001134Y-25583984D02*
X9982087Y-25574460D01*
X9982087Y-25574460D02*
X9972563Y-25564936D01*
X9972563Y-25564936D02*
X9963039Y-25545888D01*
X9963039Y-25545888D02*
X9953515Y-25507793D01*
X9953515Y-25507793D02*
X9953515Y-25460174D01*
X9953515Y-25460174D02*
X9963039Y-25422079D01*
X9963039Y-25422079D02*
X9972563Y-25403031D01*
X9972563Y-25403031D02*
X9982087Y-25393508D01*
X9982087Y-25393508D02*
X10001134Y-25383984D01*
X10153515Y-25564936D02*
X10163039Y-25574460D01*
X10163039Y-25574460D02*
X10153515Y-25583984D01*
X10153515Y-25583984D02*
X10143991Y-25574460D01*
X10143991Y-25574460D02*
X10153515Y-25564936D01*
X10153515Y-25564936D02*
X10153515Y-25583984D01*
X10286848Y-25383984D02*
X10305896Y-25383984D01*
X10305896Y-25383984D02*
X10324944Y-25393508D01*
X10324944Y-25393508D02*
X10334468Y-25403031D01*
X10334468Y-25403031D02*
X10343991Y-25422079D01*
X10343991Y-25422079D02*
X10353515Y-25460174D01*
X10353515Y-25460174D02*
X10353515Y-25507793D01*
X10353515Y-25507793D02*
X10343991Y-25545888D01*
X10343991Y-25545888D02*
X10334468Y-25564936D01*
X10334468Y-25564936D02*
X10324944Y-25574460D01*
X10324944Y-25574460D02*
X10305896Y-25583984D01*
X10305896Y-25583984D02*
X10286848Y-25583984D01*
X10286848Y-25583984D02*
X10267801Y-25574460D01*
X10267801Y-25574460D02*
X10258277Y-25564936D01*
X10258277Y-25564936D02*
X10248753Y-25545888D01*
X10248753Y-25545888D02*
X10239229Y-25507793D01*
X10239229Y-25507793D02*
X10239229Y-25460174D01*
X10239229Y-25460174D02*
X10248753Y-25422079D01*
X10248753Y-25422079D02*
X10258277Y-25403031D01*
X10258277Y-25403031D02*
X10267801Y-25393508D01*
X10267801Y-25393508D02*
X10286848Y-25383984D01*
X10543991Y-25583984D02*
X10429706Y-25583984D01*
X10486848Y-25583984D02*
X10486848Y-25383984D01*
X10486848Y-25383984D02*
X10467801Y-25412555D01*
X10467801Y-25412555D02*
X10448753Y-25431603D01*
X10448753Y-25431603D02*
X10429706Y-25441127D01*
X10734468Y-25583984D02*
X10620182Y-25583984D01*
X10677325Y-25583984D02*
X10677325Y-25383984D01*
X10677325Y-25383984D02*
X10658277Y-25412555D01*
X10658277Y-25412555D02*
X10639229Y-25431603D01*
X10639229Y-25431603D02*
X10620182Y-25441127D01*
X10848753Y-25469698D02*
X10829706Y-25460174D01*
X10829706Y-25460174D02*
X10820182Y-25450650D01*
X10820182Y-25450650D02*
X10810658Y-25431603D01*
X10810658Y-25431603D02*
X10810658Y-25422079D01*
X10810658Y-25422079D02*
X10820182Y-25403031D01*
X10820182Y-25403031D02*
X10829706Y-25393508D01*
X10829706Y-25393508D02*
X10848753Y-25383984D01*
X10848753Y-25383984D02*
X10886849Y-25383984D01*
X10886849Y-25383984D02*
X10905896Y-25393508D01*
X10905896Y-25393508D02*
X10915420Y-25403031D01*
X10915420Y-25403031D02*
X10924944Y-25422079D01*
X10924944Y-25422079D02*
X10924944Y-25431603D01*
X10924944Y-25431603D02*
X10915420Y-25450650D01*
X10915420Y-25450650D02*
X10905896Y-25460174D01*
X10905896Y-25460174D02*
X10886849Y-25469698D01*
X10886849Y-25469698D02*
X10848753Y-25469698D01*
X10848753Y-25469698D02*
X10829706Y-25479222D01*
X10829706Y-25479222D02*
X10820182Y-25488746D01*
X10820182Y-25488746D02*
X10810658Y-25507793D01*
X10810658Y-25507793D02*
X10810658Y-25545888D01*
X10810658Y-25545888D02*
X10820182Y-25564936D01*
X10820182Y-25564936D02*
X10829706Y-25574460D01*
X10829706Y-25574460D02*
X10848753Y-25583984D01*
X10848753Y-25583984D02*
X10886849Y-25583984D01*
X10886849Y-25583984D02*
X10905896Y-25574460D01*
X10905896Y-25574460D02*
X10915420Y-25564936D01*
X10915420Y-25564936D02*
X10924944Y-25545888D01*
X10924944Y-25545888D02*
X10924944Y-25507793D01*
X10924944Y-25507793D02*
X10915420Y-25488746D01*
X10915420Y-25488746D02*
X10905896Y-25479222D01*
X10905896Y-25479222D02*
X10886849Y-25469698D01*
X11001134Y-25383984D02*
X11001134Y-25422079D01*
X11077325Y-25383984D02*
X11077325Y-25422079D01*
X11372563Y-25660174D02*
X11363039Y-25650650D01*
X11363039Y-25650650D02*
X11343991Y-25622079D01*
X11343991Y-25622079D02*
X11334468Y-25603031D01*
X11334468Y-25603031D02*
X11324944Y-25574460D01*
X11324944Y-25574460D02*
X11315420Y-25526841D01*
X11315420Y-25526841D02*
X11315420Y-25488746D01*
X11315420Y-25488746D02*
X11324944Y-25441127D01*
X11324944Y-25441127D02*
X11334468Y-25412555D01*
X11334468Y-25412555D02*
X11343991Y-25393508D01*
X11343991Y-25393508D02*
X11363039Y-25364936D01*
X11363039Y-25364936D02*
X11372563Y-25355412D01*
X11553515Y-25583984D02*
X11439229Y-25583984D01*
X11496372Y-25583984D02*
X11496372Y-25383984D01*
X11496372Y-25383984D02*
X11477325Y-25412555D01*
X11477325Y-25412555D02*
X11458277Y-25431603D01*
X11458277Y-25431603D02*
X11439229Y-25441127D01*
X11724944Y-25383984D02*
X11686848Y-25383984D01*
X11686848Y-25383984D02*
X11667801Y-25393508D01*
X11667801Y-25393508D02*
X11658277Y-25403031D01*
X11658277Y-25403031D02*
X11639229Y-25431603D01*
X11639229Y-25431603D02*
X11629706Y-25469698D01*
X11629706Y-25469698D02*
X11629706Y-25545888D01*
X11629706Y-25545888D02*
X11639229Y-25564936D01*
X11639229Y-25564936D02*
X11648753Y-25574460D01*
X11648753Y-25574460D02*
X11667801Y-25583984D01*
X11667801Y-25583984D02*
X11705896Y-25583984D01*
X11705896Y-25583984D02*
X11724944Y-25574460D01*
X11724944Y-25574460D02*
X11734468Y-25564936D01*
X11734468Y-25564936D02*
X11743991Y-25545888D01*
X11743991Y-25545888D02*
X11743991Y-25498269D01*
X11743991Y-25498269D02*
X11734468Y-25479222D01*
X11734468Y-25479222D02*
X11724944Y-25469698D01*
X11724944Y-25469698D02*
X11705896Y-25460174D01*
X11705896Y-25460174D02*
X11667801Y-25460174D01*
X11667801Y-25460174D02*
X11648753Y-25469698D01*
X11648753Y-25469698D02*
X11639229Y-25479222D01*
X11639229Y-25479222D02*
X11629706Y-25498269D01*
X11867801Y-25383984D02*
X11886849Y-25383984D01*
X11886849Y-25383984D02*
X11905896Y-25393508D01*
X11905896Y-25393508D02*
X11915420Y-25403031D01*
X11915420Y-25403031D02*
X11924944Y-25422079D01*
X11924944Y-25422079D02*
X11934468Y-25460174D01*
X11934468Y-25460174D02*
X11934468Y-25507793D01*
X11934468Y-25507793D02*
X11924944Y-25545888D01*
X11924944Y-25545888D02*
X11915420Y-25564936D01*
X11915420Y-25564936D02*
X11905896Y-25574460D01*
X11905896Y-25574460D02*
X11886849Y-25583984D01*
X11886849Y-25583984D02*
X11867801Y-25583984D01*
X11867801Y-25583984D02*
X11848753Y-25574460D01*
X11848753Y-25574460D02*
X11839229Y-25564936D01*
X11839229Y-25564936D02*
X11829706Y-25545888D01*
X11829706Y-25545888D02*
X11820182Y-25507793D01*
X11820182Y-25507793D02*
X11820182Y-25460174D01*
X11820182Y-25460174D02*
X11829706Y-25422079D01*
X11829706Y-25422079D02*
X11839229Y-25403031D01*
X11839229Y-25403031D02*
X11848753Y-25393508D01*
X11848753Y-25393508D02*
X11867801Y-25383984D01*
X12172563Y-25583984D02*
X12172563Y-25383984D01*
X12258277Y-25583984D02*
X12258277Y-25479222D01*
X12258277Y-25479222D02*
X12248753Y-25460174D01*
X12248753Y-25460174D02*
X12229706Y-25450650D01*
X12229706Y-25450650D02*
X12201134Y-25450650D01*
X12201134Y-25450650D02*
X12182087Y-25460174D01*
X12182087Y-25460174D02*
X12172563Y-25469698D01*
X12382087Y-25583984D02*
X12363039Y-25574460D01*
X12363039Y-25574460D02*
X12353515Y-25564936D01*
X12353515Y-25564936D02*
X12343991Y-25545888D01*
X12343991Y-25545888D02*
X12343991Y-25488746D01*
X12343991Y-25488746D02*
X12353515Y-25469698D01*
X12353515Y-25469698D02*
X12363039Y-25460174D01*
X12363039Y-25460174D02*
X12382087Y-25450650D01*
X12382087Y-25450650D02*
X12410658Y-25450650D01*
X12410658Y-25450650D02*
X12429706Y-25460174D01*
X12429706Y-25460174D02*
X12439230Y-25469698D01*
X12439230Y-25469698D02*
X12448753Y-25488746D01*
X12448753Y-25488746D02*
X12448753Y-25545888D01*
X12448753Y-25545888D02*
X12439230Y-25564936D01*
X12439230Y-25564936D02*
X12429706Y-25574460D01*
X12429706Y-25574460D02*
X12410658Y-25583984D01*
X12410658Y-25583984D02*
X12382087Y-25583984D01*
X12563039Y-25583984D02*
X12543991Y-25574460D01*
X12543991Y-25574460D02*
X12534468Y-25555412D01*
X12534468Y-25555412D02*
X12534468Y-25383984D01*
X12715420Y-25574460D02*
X12696372Y-25583984D01*
X12696372Y-25583984D02*
X12658277Y-25583984D01*
X12658277Y-25583984D02*
X12639230Y-25574460D01*
X12639230Y-25574460D02*
X12629706Y-25555412D01*
X12629706Y-25555412D02*
X12629706Y-25479222D01*
X12629706Y-25479222D02*
X12639230Y-25460174D01*
X12639230Y-25460174D02*
X12658277Y-25450650D01*
X12658277Y-25450650D02*
X12696372Y-25450650D01*
X12696372Y-25450650D02*
X12715420Y-25460174D01*
X12715420Y-25460174D02*
X12724944Y-25479222D01*
X12724944Y-25479222D02*
X12724944Y-25498269D01*
X12724944Y-25498269D02*
X12629706Y-25517317D01*
X12801134Y-25574460D02*
X12820182Y-25583984D01*
X12820182Y-25583984D02*
X12858277Y-25583984D01*
X12858277Y-25583984D02*
X12877325Y-25574460D01*
X12877325Y-25574460D02*
X12886849Y-25555412D01*
X12886849Y-25555412D02*
X12886849Y-25545888D01*
X12886849Y-25545888D02*
X12877325Y-25526841D01*
X12877325Y-25526841D02*
X12858277Y-25517317D01*
X12858277Y-25517317D02*
X12829706Y-25517317D01*
X12829706Y-25517317D02*
X12810658Y-25507793D01*
X12810658Y-25507793D02*
X12801134Y-25488746D01*
X12801134Y-25488746D02*
X12801134Y-25479222D01*
X12801134Y-25479222D02*
X12810658Y-25460174D01*
X12810658Y-25460174D02*
X12829706Y-25450650D01*
X12829706Y-25450650D02*
X12858277Y-25450650D01*
X12858277Y-25450650D02*
X12877325Y-25460174D01*
X12953515Y-25660174D02*
X12963039Y-25650650D01*
X12963039Y-25650650D02*
X12982087Y-25622079D01*
X12982087Y-25622079D02*
X12991611Y-25603031D01*
X12991611Y-25603031D02*
X13001134Y-25574460D01*
X13001134Y-25574460D02*
X13010658Y-25526841D01*
X13010658Y-25526841D02*
X13010658Y-25488746D01*
X13010658Y-25488746D02*
X13001134Y-25441127D01*
X13001134Y-25441127D02*
X12991611Y-25412555D01*
X12991611Y-25412555D02*
X12982087Y-25393508D01*
X12982087Y-25393508D02*
X12963039Y-25364936D01*
X12963039Y-25364936D02*
X12953515Y-25355412D01*
X7797500Y-25756500D02*
G75*
G02*
X7597500Y-25756500I-100000J0D01*
G01*
X7597500Y-25756500D02*
G75*
G02*
X7797500Y-25756500I100000J0D01*
G01*
X8048753Y-25667031D02*
X8058277Y-25657508D01*
X8058277Y-25657508D02*
X8077324Y-25647984D01*
X8077324Y-25647984D02*
X8124943Y-25647984D01*
X8124943Y-25647984D02*
X8143991Y-25657508D01*
X8143991Y-25657508D02*
X8153515Y-25667031D01*
X8153515Y-25667031D02*
X8163039Y-25686079D01*
X8163039Y-25686079D02*
X8163039Y-25705127D01*
X8163039Y-25705127D02*
X8153515Y-25733698D01*
X8153515Y-25733698D02*
X8039229Y-25847984D01*
X8039229Y-25847984D02*
X8163039Y-25847984D01*
X8248753Y-25828936D02*
X8258277Y-25838460D01*
X8258277Y-25838460D02*
X8248753Y-25847984D01*
X8248753Y-25847984D02*
X8239229Y-25838460D01*
X8239229Y-25838460D02*
X8248753Y-25828936D01*
X8248753Y-25828936D02*
X8248753Y-25847984D01*
X8429705Y-25714650D02*
X8429705Y-25847984D01*
X8382086Y-25638460D02*
X8334467Y-25781317D01*
X8334467Y-25781317D02*
X8458277Y-25781317D01*
X8572563Y-25647984D02*
X8591610Y-25647984D01*
X8591610Y-25647984D02*
X8610658Y-25657508D01*
X8610658Y-25657508D02*
X8620182Y-25667031D01*
X8620182Y-25667031D02*
X8629705Y-25686079D01*
X8629705Y-25686079D02*
X8639229Y-25724174D01*
X8639229Y-25724174D02*
X8639229Y-25771793D01*
X8639229Y-25771793D02*
X8629705Y-25809888D01*
X8629705Y-25809888D02*
X8620182Y-25828936D01*
X8620182Y-25828936D02*
X8610658Y-25838460D01*
X8610658Y-25838460D02*
X8591610Y-25847984D01*
X8591610Y-25847984D02*
X8572563Y-25847984D01*
X8572563Y-25847984D02*
X8553515Y-25838460D01*
X8553515Y-25838460D02*
X8543991Y-25828936D01*
X8543991Y-25828936D02*
X8534467Y-25809888D01*
X8534467Y-25809888D02*
X8524944Y-25771793D01*
X8524944Y-25771793D02*
X8524944Y-25724174D01*
X8524944Y-25724174D02*
X8534467Y-25686079D01*
X8534467Y-25686079D02*
X8543991Y-25667031D01*
X8543991Y-25667031D02*
X8553515Y-25657508D01*
X8553515Y-25657508D02*
X8572563Y-25647984D01*
X8763039Y-25647984D02*
X8782086Y-25647984D01*
X8782086Y-25647984D02*
X8801134Y-25657508D01*
X8801134Y-25657508D02*
X8810658Y-25667031D01*
X8810658Y-25667031D02*
X8820182Y-25686079D01*
X8820182Y-25686079D02*
X8829705Y-25724174D01*
X8829705Y-25724174D02*
X8829705Y-25771793D01*
X8829705Y-25771793D02*
X8820182Y-25809888D01*
X8820182Y-25809888D02*
X8810658Y-25828936D01*
X8810658Y-25828936D02*
X8801134Y-25838460D01*
X8801134Y-25838460D02*
X8782086Y-25847984D01*
X8782086Y-25847984D02*
X8763039Y-25847984D01*
X8763039Y-25847984D02*
X8743991Y-25838460D01*
X8743991Y-25838460D02*
X8734467Y-25828936D01*
X8734467Y-25828936D02*
X8724944Y-25809888D01*
X8724944Y-25809888D02*
X8715420Y-25771793D01*
X8715420Y-25771793D02*
X8715420Y-25724174D01*
X8715420Y-25724174D02*
X8724944Y-25686079D01*
X8724944Y-25686079D02*
X8734467Y-25667031D01*
X8734467Y-25667031D02*
X8743991Y-25657508D01*
X8743991Y-25657508D02*
X8763039Y-25647984D01*
X8915420Y-25847984D02*
X8915420Y-25714650D01*
X8915420Y-25733698D02*
X8924944Y-25724174D01*
X8924944Y-25724174D02*
X8943991Y-25714650D01*
X8943991Y-25714650D02*
X8972563Y-25714650D01*
X8972563Y-25714650D02*
X8991610Y-25724174D01*
X8991610Y-25724174D02*
X9001134Y-25743222D01*
X9001134Y-25743222D02*
X9001134Y-25847984D01*
X9001134Y-25743222D02*
X9010658Y-25724174D01*
X9010658Y-25724174D02*
X9029705Y-25714650D01*
X9029705Y-25714650D02*
X9058277Y-25714650D01*
X9058277Y-25714650D02*
X9077325Y-25724174D01*
X9077325Y-25724174D02*
X9086848Y-25743222D01*
X9086848Y-25743222D02*
X9086848Y-25847984D01*
X9182086Y-25847984D02*
X9182086Y-25714650D01*
X9182086Y-25733698D02*
X9191610Y-25724174D01*
X9191610Y-25724174D02*
X9210658Y-25714650D01*
X9210658Y-25714650D02*
X9239229Y-25714650D01*
X9239229Y-25714650D02*
X9258277Y-25724174D01*
X9258277Y-25724174D02*
X9267801Y-25743222D01*
X9267801Y-25743222D02*
X9267801Y-25847984D01*
X9267801Y-25743222D02*
X9277325Y-25724174D01*
X9277325Y-25724174D02*
X9296372Y-25714650D01*
X9296372Y-25714650D02*
X9324944Y-25714650D01*
X9324944Y-25714650D02*
X9343991Y-25724174D01*
X9343991Y-25724174D02*
X9353515Y-25743222D01*
X9353515Y-25743222D02*
X9353515Y-25847984D01*
X9743991Y-25638460D02*
X9572563Y-25895603D01*
X10001134Y-25647984D02*
X10020182Y-25647984D01*
X10020182Y-25647984D02*
X10039229Y-25657508D01*
X10039229Y-25657508D02*
X10048753Y-25667031D01*
X10048753Y-25667031D02*
X10058277Y-25686079D01*
X10058277Y-25686079D02*
X10067801Y-25724174D01*
X10067801Y-25724174D02*
X10067801Y-25771793D01*
X10067801Y-25771793D02*
X10058277Y-25809888D01*
X10058277Y-25809888D02*
X10048753Y-25828936D01*
X10048753Y-25828936D02*
X10039229Y-25838460D01*
X10039229Y-25838460D02*
X10020182Y-25847984D01*
X10020182Y-25847984D02*
X10001134Y-25847984D01*
X10001134Y-25847984D02*
X9982087Y-25838460D01*
X9982087Y-25838460D02*
X9972563Y-25828936D01*
X9972563Y-25828936D02*
X9963039Y-25809888D01*
X9963039Y-25809888D02*
X9953515Y-25771793D01*
X9953515Y-25771793D02*
X9953515Y-25724174D01*
X9953515Y-25724174D02*
X9963039Y-25686079D01*
X9963039Y-25686079D02*
X9972563Y-25667031D01*
X9972563Y-25667031D02*
X9982087Y-25657508D01*
X9982087Y-25657508D02*
X10001134Y-25647984D01*
X10153515Y-25828936D02*
X10163039Y-25838460D01*
X10163039Y-25838460D02*
X10153515Y-25847984D01*
X10153515Y-25847984D02*
X10143991Y-25838460D01*
X10143991Y-25838460D02*
X10153515Y-25828936D01*
X10153515Y-25828936D02*
X10153515Y-25847984D01*
X10286848Y-25647984D02*
X10305896Y-25647984D01*
X10305896Y-25647984D02*
X10324944Y-25657508D01*
X10324944Y-25657508D02*
X10334468Y-25667031D01*
X10334468Y-25667031D02*
X10343991Y-25686079D01*
X10343991Y-25686079D02*
X10353515Y-25724174D01*
X10353515Y-25724174D02*
X10353515Y-25771793D01*
X10353515Y-25771793D02*
X10343991Y-25809888D01*
X10343991Y-25809888D02*
X10334468Y-25828936D01*
X10334468Y-25828936D02*
X10324944Y-25838460D01*
X10324944Y-25838460D02*
X10305896Y-25847984D01*
X10305896Y-25847984D02*
X10286848Y-25847984D01*
X10286848Y-25847984D02*
X10267801Y-25838460D01*
X10267801Y-25838460D02*
X10258277Y-25828936D01*
X10258277Y-25828936D02*
X10248753Y-25809888D01*
X10248753Y-25809888D02*
X10239229Y-25771793D01*
X10239229Y-25771793D02*
X10239229Y-25724174D01*
X10239229Y-25724174D02*
X10248753Y-25686079D01*
X10248753Y-25686079D02*
X10258277Y-25667031D01*
X10258277Y-25667031D02*
X10267801Y-25657508D01*
X10267801Y-25657508D02*
X10286848Y-25647984D01*
X10448753Y-25847984D02*
X10486848Y-25847984D01*
X10486848Y-25847984D02*
X10505896Y-25838460D01*
X10505896Y-25838460D02*
X10515420Y-25828936D01*
X10515420Y-25828936D02*
X10534468Y-25800365D01*
X10534468Y-25800365D02*
X10543991Y-25762269D01*
X10543991Y-25762269D02*
X10543991Y-25686079D01*
X10543991Y-25686079D02*
X10534468Y-25667031D01*
X10534468Y-25667031D02*
X10524944Y-25657508D01*
X10524944Y-25657508D02*
X10505896Y-25647984D01*
X10505896Y-25647984D02*
X10467801Y-25647984D01*
X10467801Y-25647984D02*
X10448753Y-25657508D01*
X10448753Y-25657508D02*
X10439229Y-25667031D01*
X10439229Y-25667031D02*
X10429706Y-25686079D01*
X10429706Y-25686079D02*
X10429706Y-25733698D01*
X10429706Y-25733698D02*
X10439229Y-25752746D01*
X10439229Y-25752746D02*
X10448753Y-25762269D01*
X10448753Y-25762269D02*
X10467801Y-25771793D01*
X10467801Y-25771793D02*
X10505896Y-25771793D01*
X10505896Y-25771793D02*
X10524944Y-25762269D01*
X10524944Y-25762269D02*
X10534468Y-25752746D01*
X10534468Y-25752746D02*
X10543991Y-25733698D01*
X10715420Y-25714650D02*
X10715420Y-25847984D01*
X10667801Y-25638460D02*
X10620182Y-25781317D01*
X10620182Y-25781317D02*
X10743991Y-25781317D01*
X10915420Y-25647984D02*
X10820182Y-25647984D01*
X10820182Y-25647984D02*
X10810658Y-25743222D01*
X10810658Y-25743222D02*
X10820182Y-25733698D01*
X10820182Y-25733698D02*
X10839229Y-25724174D01*
X10839229Y-25724174D02*
X10886849Y-25724174D01*
X10886849Y-25724174D02*
X10905896Y-25733698D01*
X10905896Y-25733698D02*
X10915420Y-25743222D01*
X10915420Y-25743222D02*
X10924944Y-25762269D01*
X10924944Y-25762269D02*
X10924944Y-25809888D01*
X10924944Y-25809888D02*
X10915420Y-25828936D01*
X10915420Y-25828936D02*
X10905896Y-25838460D01*
X10905896Y-25838460D02*
X10886849Y-25847984D01*
X10886849Y-25847984D02*
X10839229Y-25847984D01*
X10839229Y-25847984D02*
X10820182Y-25838460D01*
X10820182Y-25838460D02*
X10810658Y-25828936D01*
X11001134Y-25647984D02*
X11001134Y-25686079D01*
X11077325Y-25647984D02*
X11077325Y-25686079D01*
X11372563Y-25924174D02*
X11363039Y-25914650D01*
X11363039Y-25914650D02*
X11343991Y-25886079D01*
X11343991Y-25886079D02*
X11334468Y-25867031D01*
X11334468Y-25867031D02*
X11324944Y-25838460D01*
X11324944Y-25838460D02*
X11315420Y-25790841D01*
X11315420Y-25790841D02*
X11315420Y-25752746D01*
X11315420Y-25752746D02*
X11324944Y-25705127D01*
X11324944Y-25705127D02*
X11334468Y-25676555D01*
X11334468Y-25676555D02*
X11343991Y-25657508D01*
X11343991Y-25657508D02*
X11363039Y-25628936D01*
X11363039Y-25628936D02*
X11372563Y-25619412D01*
X11429706Y-25647984D02*
X11553515Y-25647984D01*
X11553515Y-25647984D02*
X11486848Y-25724174D01*
X11486848Y-25724174D02*
X11515420Y-25724174D01*
X11515420Y-25724174D02*
X11534468Y-25733698D01*
X11534468Y-25733698D02*
X11543991Y-25743222D01*
X11543991Y-25743222D02*
X11553515Y-25762269D01*
X11553515Y-25762269D02*
X11553515Y-25809888D01*
X11553515Y-25809888D02*
X11543991Y-25828936D01*
X11543991Y-25828936D02*
X11534468Y-25838460D01*
X11534468Y-25838460D02*
X11515420Y-25847984D01*
X11515420Y-25847984D02*
X11458277Y-25847984D01*
X11458277Y-25847984D02*
X11439229Y-25838460D01*
X11439229Y-25838460D02*
X11429706Y-25828936D01*
X11791610Y-25847984D02*
X11791610Y-25647984D01*
X11877325Y-25847984D02*
X11877325Y-25743222D01*
X11877325Y-25743222D02*
X11867801Y-25724174D01*
X11867801Y-25724174D02*
X11848753Y-25714650D01*
X11848753Y-25714650D02*
X11820182Y-25714650D01*
X11820182Y-25714650D02*
X11801134Y-25724174D01*
X11801134Y-25724174D02*
X11791610Y-25733698D01*
X12001134Y-25847984D02*
X11982087Y-25838460D01*
X11982087Y-25838460D02*
X11972563Y-25828936D01*
X11972563Y-25828936D02*
X11963039Y-25809888D01*
X11963039Y-25809888D02*
X11963039Y-25752746D01*
X11963039Y-25752746D02*
X11972563Y-25733698D01*
X11972563Y-25733698D02*
X11982087Y-25724174D01*
X11982087Y-25724174D02*
X12001134Y-25714650D01*
X12001134Y-25714650D02*
X12029706Y-25714650D01*
X12029706Y-25714650D02*
X12048753Y-25724174D01*
X12048753Y-25724174D02*
X12058277Y-25733698D01*
X12058277Y-25733698D02*
X12067801Y-25752746D01*
X12067801Y-25752746D02*
X12067801Y-25809888D01*
X12067801Y-25809888D02*
X12058277Y-25828936D01*
X12058277Y-25828936D02*
X12048753Y-25838460D01*
X12048753Y-25838460D02*
X12029706Y-25847984D01*
X12029706Y-25847984D02*
X12001134Y-25847984D01*
X12182087Y-25847984D02*
X12163039Y-25838460D01*
X12163039Y-25838460D02*
X12153515Y-25819412D01*
X12153515Y-25819412D02*
X12153515Y-25647984D01*
X12334468Y-25838460D02*
X12315420Y-25847984D01*
X12315420Y-25847984D02*
X12277325Y-25847984D01*
X12277325Y-25847984D02*
X12258277Y-25838460D01*
X12258277Y-25838460D02*
X12248753Y-25819412D01*
X12248753Y-25819412D02*
X12248753Y-25743222D01*
X12248753Y-25743222D02*
X12258277Y-25724174D01*
X12258277Y-25724174D02*
X12277325Y-25714650D01*
X12277325Y-25714650D02*
X12315420Y-25714650D01*
X12315420Y-25714650D02*
X12334468Y-25724174D01*
X12334468Y-25724174D02*
X12343991Y-25743222D01*
X12343991Y-25743222D02*
X12343991Y-25762269D01*
X12343991Y-25762269D02*
X12248753Y-25781317D01*
X12420182Y-25838460D02*
X12439230Y-25847984D01*
X12439230Y-25847984D02*
X12477325Y-25847984D01*
X12477325Y-25847984D02*
X12496372Y-25838460D01*
X12496372Y-25838460D02*
X12505896Y-25819412D01*
X12505896Y-25819412D02*
X12505896Y-25809888D01*
X12505896Y-25809888D02*
X12496372Y-25790841D01*
X12496372Y-25790841D02*
X12477325Y-25781317D01*
X12477325Y-25781317D02*
X12448753Y-25781317D01*
X12448753Y-25781317D02*
X12429706Y-25771793D01*
X12429706Y-25771793D02*
X12420182Y-25752746D01*
X12420182Y-25752746D02*
X12420182Y-25743222D01*
X12420182Y-25743222D02*
X12429706Y-25724174D01*
X12429706Y-25724174D02*
X12448753Y-25714650D01*
X12448753Y-25714650D02*
X12477325Y-25714650D01*
X12477325Y-25714650D02*
X12496372Y-25724174D01*
X12572563Y-25924174D02*
X12582087Y-25914650D01*
X12582087Y-25914650D02*
X12601134Y-25886079D01*
X12601134Y-25886079D02*
X12610658Y-25867031D01*
X12610658Y-25867031D02*
X12620182Y-25838460D01*
X12620182Y-25838460D02*
X12629706Y-25790841D01*
X12629706Y-25790841D02*
X12629706Y-25752746D01*
X12629706Y-25752746D02*
X12620182Y-25705127D01*
X12620182Y-25705127D02*
X12610658Y-25676555D01*
X12610658Y-25676555D02*
X12601134Y-25657508D01*
X12601134Y-25657508D02*
X12582087Y-25628936D01*
X12582087Y-25628936D02*
X12572563Y-25619412D01*
X7697500Y-25976500D02*
X7697500Y-26176500D01*
X7597500Y-26076500D02*
X7797500Y-26076500D01*
X8039229Y-25967984D02*
X8163039Y-25967984D01*
X8163039Y-25967984D02*
X8096372Y-26044174D01*
X8096372Y-26044174D02*
X8124943Y-26044174D01*
X8124943Y-26044174D02*
X8143991Y-26053698D01*
X8143991Y-26053698D02*
X8153515Y-26063222D01*
X8153515Y-26063222D02*
X8163039Y-26082269D01*
X8163039Y-26082269D02*
X8163039Y-26129888D01*
X8163039Y-26129888D02*
X8153515Y-26148936D01*
X8153515Y-26148936D02*
X8143991Y-26158460D01*
X8143991Y-26158460D02*
X8124943Y-26167984D01*
X8124943Y-26167984D02*
X8067801Y-26167984D01*
X8067801Y-26167984D02*
X8048753Y-26158460D01*
X8048753Y-26158460D02*
X8039229Y-26148936D01*
X8248753Y-26148936D02*
X8258277Y-26158460D01*
X8258277Y-26158460D02*
X8248753Y-26167984D01*
X8248753Y-26167984D02*
X8239229Y-26158460D01*
X8239229Y-26158460D02*
X8248753Y-26148936D01*
X8248753Y-26148936D02*
X8248753Y-26167984D01*
X8334467Y-25987031D02*
X8343991Y-25977508D01*
X8343991Y-25977508D02*
X8363039Y-25967984D01*
X8363039Y-25967984D02*
X8410658Y-25967984D01*
X8410658Y-25967984D02*
X8429705Y-25977508D01*
X8429705Y-25977508D02*
X8439229Y-25987031D01*
X8439229Y-25987031D02*
X8448753Y-26006079D01*
X8448753Y-26006079D02*
X8448753Y-26025127D01*
X8448753Y-26025127D02*
X8439229Y-26053698D01*
X8439229Y-26053698D02*
X8324943Y-26167984D01*
X8324943Y-26167984D02*
X8448753Y-26167984D01*
X8572563Y-25967984D02*
X8591610Y-25967984D01*
X8591610Y-25967984D02*
X8610658Y-25977508D01*
X8610658Y-25977508D02*
X8620182Y-25987031D01*
X8620182Y-25987031D02*
X8629705Y-26006079D01*
X8629705Y-26006079D02*
X8639229Y-26044174D01*
X8639229Y-26044174D02*
X8639229Y-26091793D01*
X8639229Y-26091793D02*
X8629705Y-26129888D01*
X8629705Y-26129888D02*
X8620182Y-26148936D01*
X8620182Y-26148936D02*
X8610658Y-26158460D01*
X8610658Y-26158460D02*
X8591610Y-26167984D01*
X8591610Y-26167984D02*
X8572563Y-26167984D01*
X8572563Y-26167984D02*
X8553515Y-26158460D01*
X8553515Y-26158460D02*
X8543991Y-26148936D01*
X8543991Y-26148936D02*
X8534467Y-26129888D01*
X8534467Y-26129888D02*
X8524944Y-26091793D01*
X8524944Y-26091793D02*
X8524944Y-26044174D01*
X8524944Y-26044174D02*
X8534467Y-26006079D01*
X8534467Y-26006079D02*
X8543991Y-25987031D01*
X8543991Y-25987031D02*
X8553515Y-25977508D01*
X8553515Y-25977508D02*
X8572563Y-25967984D01*
X8763039Y-25967984D02*
X8782086Y-25967984D01*
X8782086Y-25967984D02*
X8801134Y-25977508D01*
X8801134Y-25977508D02*
X8810658Y-25987031D01*
X8810658Y-25987031D02*
X8820182Y-26006079D01*
X8820182Y-26006079D02*
X8829705Y-26044174D01*
X8829705Y-26044174D02*
X8829705Y-26091793D01*
X8829705Y-26091793D02*
X8820182Y-26129888D01*
X8820182Y-26129888D02*
X8810658Y-26148936D01*
X8810658Y-26148936D02*
X8801134Y-26158460D01*
X8801134Y-26158460D02*
X8782086Y-26167984D01*
X8782086Y-26167984D02*
X8763039Y-26167984D01*
X8763039Y-26167984D02*
X8743991Y-26158460D01*
X8743991Y-26158460D02*
X8734467Y-26148936D01*
X8734467Y-26148936D02*
X8724944Y-26129888D01*
X8724944Y-26129888D02*
X8715420Y-26091793D01*
X8715420Y-26091793D02*
X8715420Y-26044174D01*
X8715420Y-26044174D02*
X8724944Y-26006079D01*
X8724944Y-26006079D02*
X8734467Y-25987031D01*
X8734467Y-25987031D02*
X8743991Y-25977508D01*
X8743991Y-25977508D02*
X8763039Y-25967984D01*
X8915420Y-26167984D02*
X8915420Y-26034650D01*
X8915420Y-26053698D02*
X8924944Y-26044174D01*
X8924944Y-26044174D02*
X8943991Y-26034650D01*
X8943991Y-26034650D02*
X8972563Y-26034650D01*
X8972563Y-26034650D02*
X8991610Y-26044174D01*
X8991610Y-26044174D02*
X9001134Y-26063222D01*
X9001134Y-26063222D02*
X9001134Y-26167984D01*
X9001134Y-26063222D02*
X9010658Y-26044174D01*
X9010658Y-26044174D02*
X9029705Y-26034650D01*
X9029705Y-26034650D02*
X9058277Y-26034650D01*
X9058277Y-26034650D02*
X9077325Y-26044174D01*
X9077325Y-26044174D02*
X9086848Y-26063222D01*
X9086848Y-26063222D02*
X9086848Y-26167984D01*
X9182086Y-26167984D02*
X9182086Y-26034650D01*
X9182086Y-26053698D02*
X9191610Y-26044174D01*
X9191610Y-26044174D02*
X9210658Y-26034650D01*
X9210658Y-26034650D02*
X9239229Y-26034650D01*
X9239229Y-26034650D02*
X9258277Y-26044174D01*
X9258277Y-26044174D02*
X9267801Y-26063222D01*
X9267801Y-26063222D02*
X9267801Y-26167984D01*
X9267801Y-26063222D02*
X9277325Y-26044174D01*
X9277325Y-26044174D02*
X9296372Y-26034650D01*
X9296372Y-26034650D02*
X9324944Y-26034650D01*
X9324944Y-26034650D02*
X9343991Y-26044174D01*
X9343991Y-26044174D02*
X9353515Y-26063222D01*
X9353515Y-26063222D02*
X9353515Y-26167984D01*
X9743991Y-25958460D02*
X9572563Y-26215603D01*
X10001134Y-25967984D02*
X10020182Y-25967984D01*
X10020182Y-25967984D02*
X10039229Y-25977508D01*
X10039229Y-25977508D02*
X10048753Y-25987031D01*
X10048753Y-25987031D02*
X10058277Y-26006079D01*
X10058277Y-26006079D02*
X10067801Y-26044174D01*
X10067801Y-26044174D02*
X10067801Y-26091793D01*
X10067801Y-26091793D02*
X10058277Y-26129888D01*
X10058277Y-26129888D02*
X10048753Y-26148936D01*
X10048753Y-26148936D02*
X10039229Y-26158460D01*
X10039229Y-26158460D02*
X10020182Y-26167984D01*
X10020182Y-26167984D02*
X10001134Y-26167984D01*
X10001134Y-26167984D02*
X9982087Y-26158460D01*
X9982087Y-26158460D02*
X9972563Y-26148936D01*
X9972563Y-26148936D02*
X9963039Y-26129888D01*
X9963039Y-26129888D02*
X9953515Y-26091793D01*
X9953515Y-26091793D02*
X9953515Y-26044174D01*
X9953515Y-26044174D02*
X9963039Y-26006079D01*
X9963039Y-26006079D02*
X9972563Y-25987031D01*
X9972563Y-25987031D02*
X9982087Y-25977508D01*
X9982087Y-25977508D02*
X10001134Y-25967984D01*
X10153515Y-26148936D02*
X10163039Y-26158460D01*
X10163039Y-26158460D02*
X10153515Y-26167984D01*
X10153515Y-26167984D02*
X10143991Y-26158460D01*
X10143991Y-26158460D02*
X10153515Y-26148936D01*
X10153515Y-26148936D02*
X10153515Y-26167984D01*
X10353515Y-26167984D02*
X10239229Y-26167984D01*
X10296372Y-26167984D02*
X10296372Y-25967984D01*
X10296372Y-25967984D02*
X10277325Y-25996555D01*
X10277325Y-25996555D02*
X10258277Y-26015603D01*
X10258277Y-26015603D02*
X10239229Y-26025127D01*
X10429706Y-25987031D02*
X10439229Y-25977508D01*
X10439229Y-25977508D02*
X10458277Y-25967984D01*
X10458277Y-25967984D02*
X10505896Y-25967984D01*
X10505896Y-25967984D02*
X10524944Y-25977508D01*
X10524944Y-25977508D02*
X10534468Y-25987031D01*
X10534468Y-25987031D02*
X10543991Y-26006079D01*
X10543991Y-26006079D02*
X10543991Y-26025127D01*
X10543991Y-26025127D02*
X10534468Y-26053698D01*
X10534468Y-26053698D02*
X10420182Y-26167984D01*
X10420182Y-26167984D02*
X10543991Y-26167984D01*
X10715420Y-25967984D02*
X10677325Y-25967984D01*
X10677325Y-25967984D02*
X10658277Y-25977508D01*
X10658277Y-25977508D02*
X10648753Y-25987031D01*
X10648753Y-25987031D02*
X10629706Y-26015603D01*
X10629706Y-26015603D02*
X10620182Y-26053698D01*
X10620182Y-26053698D02*
X10620182Y-26129888D01*
X10620182Y-26129888D02*
X10629706Y-26148936D01*
X10629706Y-26148936D02*
X10639229Y-26158460D01*
X10639229Y-26158460D02*
X10658277Y-26167984D01*
X10658277Y-26167984D02*
X10696372Y-26167984D01*
X10696372Y-26167984D02*
X10715420Y-26158460D01*
X10715420Y-26158460D02*
X10724944Y-26148936D01*
X10724944Y-26148936D02*
X10734468Y-26129888D01*
X10734468Y-26129888D02*
X10734468Y-26082269D01*
X10734468Y-26082269D02*
X10724944Y-26063222D01*
X10724944Y-26063222D02*
X10715420Y-26053698D01*
X10715420Y-26053698D02*
X10696372Y-26044174D01*
X10696372Y-26044174D02*
X10658277Y-26044174D01*
X10658277Y-26044174D02*
X10639229Y-26053698D01*
X10639229Y-26053698D02*
X10629706Y-26063222D01*
X10629706Y-26063222D02*
X10620182Y-26082269D01*
X10858277Y-25967984D02*
X10877325Y-25967984D01*
X10877325Y-25967984D02*
X10896372Y-25977508D01*
X10896372Y-25977508D02*
X10905896Y-25987031D01*
X10905896Y-25987031D02*
X10915420Y-26006079D01*
X10915420Y-26006079D02*
X10924944Y-26044174D01*
X10924944Y-26044174D02*
X10924944Y-26091793D01*
X10924944Y-26091793D02*
X10915420Y-26129888D01*
X10915420Y-26129888D02*
X10905896Y-26148936D01*
X10905896Y-26148936D02*
X10896372Y-26158460D01*
X10896372Y-26158460D02*
X10877325Y-26167984D01*
X10877325Y-26167984D02*
X10858277Y-26167984D01*
X10858277Y-26167984D02*
X10839229Y-26158460D01*
X10839229Y-26158460D02*
X10829706Y-26148936D01*
X10829706Y-26148936D02*
X10820182Y-26129888D01*
X10820182Y-26129888D02*
X10810658Y-26091793D01*
X10810658Y-26091793D02*
X10810658Y-26044174D01*
X10810658Y-26044174D02*
X10820182Y-26006079D01*
X10820182Y-26006079D02*
X10829706Y-25987031D01*
X10829706Y-25987031D02*
X10839229Y-25977508D01*
X10839229Y-25977508D02*
X10858277Y-25967984D01*
X11001134Y-25967984D02*
X11001134Y-26006079D01*
X11077325Y-25967984D02*
X11077325Y-26006079D01*
X11372563Y-26244174D02*
X11363039Y-26234650D01*
X11363039Y-26234650D02*
X11343991Y-26206079D01*
X11343991Y-26206079D02*
X11334468Y-26187031D01*
X11334468Y-26187031D02*
X11324944Y-26158460D01*
X11324944Y-26158460D02*
X11315420Y-26110841D01*
X11315420Y-26110841D02*
X11315420Y-26072746D01*
X11315420Y-26072746D02*
X11324944Y-26025127D01*
X11324944Y-26025127D02*
X11334468Y-25996555D01*
X11334468Y-25996555D02*
X11343991Y-25977508D01*
X11343991Y-25977508D02*
X11363039Y-25948936D01*
X11363039Y-25948936D02*
X11372563Y-25939412D01*
X11534468Y-26034650D02*
X11534468Y-26167984D01*
X11486848Y-25958460D02*
X11439229Y-26101317D01*
X11439229Y-26101317D02*
X11563039Y-26101317D01*
X11791610Y-26167984D02*
X11791610Y-25967984D01*
X11877325Y-26167984D02*
X11877325Y-26063222D01*
X11877325Y-26063222D02*
X11867801Y-26044174D01*
X11867801Y-26044174D02*
X11848753Y-26034650D01*
X11848753Y-26034650D02*
X11820182Y-26034650D01*
X11820182Y-26034650D02*
X11801134Y-26044174D01*
X11801134Y-26044174D02*
X11791610Y-26053698D01*
X12001134Y-26167984D02*
X11982087Y-26158460D01*
X11982087Y-26158460D02*
X11972563Y-26148936D01*
X11972563Y-26148936D02*
X11963039Y-26129888D01*
X11963039Y-26129888D02*
X11963039Y-26072746D01*
X11963039Y-26072746D02*
X11972563Y-26053698D01*
X11972563Y-26053698D02*
X11982087Y-26044174D01*
X11982087Y-26044174D02*
X12001134Y-26034650D01*
X12001134Y-26034650D02*
X12029706Y-26034650D01*
X12029706Y-26034650D02*
X12048753Y-26044174D01*
X12048753Y-26044174D02*
X12058277Y-26053698D01*
X12058277Y-26053698D02*
X12067801Y-26072746D01*
X12067801Y-26072746D02*
X12067801Y-26129888D01*
X12067801Y-26129888D02*
X12058277Y-26148936D01*
X12058277Y-26148936D02*
X12048753Y-26158460D01*
X12048753Y-26158460D02*
X12029706Y-26167984D01*
X12029706Y-26167984D02*
X12001134Y-26167984D01*
X12182087Y-26167984D02*
X12163039Y-26158460D01*
X12163039Y-26158460D02*
X12153515Y-26139412D01*
X12153515Y-26139412D02*
X12153515Y-25967984D01*
X12334468Y-26158460D02*
X12315420Y-26167984D01*
X12315420Y-26167984D02*
X12277325Y-26167984D01*
X12277325Y-26167984D02*
X12258277Y-26158460D01*
X12258277Y-26158460D02*
X12248753Y-26139412D01*
X12248753Y-26139412D02*
X12248753Y-26063222D01*
X12248753Y-26063222D02*
X12258277Y-26044174D01*
X12258277Y-26044174D02*
X12277325Y-26034650D01*
X12277325Y-26034650D02*
X12315420Y-26034650D01*
X12315420Y-26034650D02*
X12334468Y-26044174D01*
X12334468Y-26044174D02*
X12343991Y-26063222D01*
X12343991Y-26063222D02*
X12343991Y-26082269D01*
X12343991Y-26082269D02*
X12248753Y-26101317D01*
X12420182Y-26158460D02*
X12439230Y-26167984D01*
X12439230Y-26167984D02*
X12477325Y-26167984D01*
X12477325Y-26167984D02*
X12496372Y-26158460D01*
X12496372Y-26158460D02*
X12505896Y-26139412D01*
X12505896Y-26139412D02*
X12505896Y-26129888D01*
X12505896Y-26129888D02*
X12496372Y-26110841D01*
X12496372Y-26110841D02*
X12477325Y-26101317D01*
X12477325Y-26101317D02*
X12448753Y-26101317D01*
X12448753Y-26101317D02*
X12429706Y-26091793D01*
X12429706Y-26091793D02*
X12420182Y-26072746D01*
X12420182Y-26072746D02*
X12420182Y-26063222D01*
X12420182Y-26063222D02*
X12429706Y-26044174D01*
X12429706Y-26044174D02*
X12448753Y-26034650D01*
X12448753Y-26034650D02*
X12477325Y-26034650D01*
X12477325Y-26034650D02*
X12496372Y-26044174D01*
X12572563Y-26244174D02*
X12582087Y-26234650D01*
X12582087Y-26234650D02*
X12601134Y-26206079D01*
X12601134Y-26206079D02*
X12610658Y-26187031D01*
X12610658Y-26187031D02*
X12620182Y-26158460D01*
X12620182Y-26158460D02*
X12629706Y-26110841D01*
X12629706Y-26110841D02*
X12629706Y-26072746D01*
X12629706Y-26072746D02*
X12620182Y-26025127D01*
X12620182Y-26025127D02*
X12610658Y-25996555D01*
X12610658Y-25996555D02*
X12601134Y-25977508D01*
X12601134Y-25977508D02*
X12582087Y-25948936D01*
X12582087Y-25948936D02*
X12572563Y-25939412D01*
X7768211Y-26467211D02*
X7768211Y-26325789D01*
X7626789Y-26325789D01*
X7626789Y-26467211D01*
X7768211Y-26467211D01*
X8143991Y-26287984D02*
X8105896Y-26287984D01*
X8105896Y-26287984D02*
X8086848Y-26297508D01*
X8086848Y-26297508D02*
X8077324Y-26307031D01*
X8077324Y-26307031D02*
X8058277Y-26335603D01*
X8058277Y-26335603D02*
X8048753Y-26373698D01*
X8048753Y-26373698D02*
X8048753Y-26449888D01*
X8048753Y-26449888D02*
X8058277Y-26468936D01*
X8058277Y-26468936D02*
X8067801Y-26478460D01*
X8067801Y-26478460D02*
X8086848Y-26487984D01*
X8086848Y-26487984D02*
X8124943Y-26487984D01*
X8124943Y-26487984D02*
X8143991Y-26478460D01*
X8143991Y-26478460D02*
X8153515Y-26468936D01*
X8153515Y-26468936D02*
X8163039Y-26449888D01*
X8163039Y-26449888D02*
X8163039Y-26402269D01*
X8163039Y-26402269D02*
X8153515Y-26383222D01*
X8153515Y-26383222D02*
X8143991Y-26373698D01*
X8143991Y-26373698D02*
X8124943Y-26364174D01*
X8124943Y-26364174D02*
X8086848Y-26364174D01*
X8086848Y-26364174D02*
X8067801Y-26373698D01*
X8067801Y-26373698D02*
X8058277Y-26383222D01*
X8058277Y-26383222D02*
X8048753Y-26402269D01*
X8248753Y-26468936D02*
X8258277Y-26478460D01*
X8258277Y-26478460D02*
X8248753Y-26487984D01*
X8248753Y-26487984D02*
X8239229Y-26478460D01*
X8239229Y-26478460D02*
X8248753Y-26468936D01*
X8248753Y-26468936D02*
X8248753Y-26487984D01*
X8334467Y-26307031D02*
X8343991Y-26297508D01*
X8343991Y-26297508D02*
X8363039Y-26287984D01*
X8363039Y-26287984D02*
X8410658Y-26287984D01*
X8410658Y-26287984D02*
X8429705Y-26297508D01*
X8429705Y-26297508D02*
X8439229Y-26307031D01*
X8439229Y-26307031D02*
X8448753Y-26326079D01*
X8448753Y-26326079D02*
X8448753Y-26345127D01*
X8448753Y-26345127D02*
X8439229Y-26373698D01*
X8439229Y-26373698D02*
X8324943Y-26487984D01*
X8324943Y-26487984D02*
X8448753Y-26487984D01*
X8572563Y-26287984D02*
X8591610Y-26287984D01*
X8591610Y-26287984D02*
X8610658Y-26297508D01*
X8610658Y-26297508D02*
X8620182Y-26307031D01*
X8620182Y-26307031D02*
X8629705Y-26326079D01*
X8629705Y-26326079D02*
X8639229Y-26364174D01*
X8639229Y-26364174D02*
X8639229Y-26411793D01*
X8639229Y-26411793D02*
X8629705Y-26449888D01*
X8629705Y-26449888D02*
X8620182Y-26468936D01*
X8620182Y-26468936D02*
X8610658Y-26478460D01*
X8610658Y-26478460D02*
X8591610Y-26487984D01*
X8591610Y-26487984D02*
X8572563Y-26487984D01*
X8572563Y-26487984D02*
X8553515Y-26478460D01*
X8553515Y-26478460D02*
X8543991Y-26468936D01*
X8543991Y-26468936D02*
X8534467Y-26449888D01*
X8534467Y-26449888D02*
X8524944Y-26411793D01*
X8524944Y-26411793D02*
X8524944Y-26364174D01*
X8524944Y-26364174D02*
X8534467Y-26326079D01*
X8534467Y-26326079D02*
X8543991Y-26307031D01*
X8543991Y-26307031D02*
X8553515Y-26297508D01*
X8553515Y-26297508D02*
X8572563Y-26287984D01*
X8763039Y-26287984D02*
X8782086Y-26287984D01*
X8782086Y-26287984D02*
X8801134Y-26297508D01*
X8801134Y-26297508D02*
X8810658Y-26307031D01*
X8810658Y-26307031D02*
X8820182Y-26326079D01*
X8820182Y-26326079D02*
X8829705Y-26364174D01*
X8829705Y-26364174D02*
X8829705Y-26411793D01*
X8829705Y-26411793D02*
X8820182Y-26449888D01*
X8820182Y-26449888D02*
X8810658Y-26468936D01*
X8810658Y-26468936D02*
X8801134Y-26478460D01*
X8801134Y-26478460D02*
X8782086Y-26487984D01*
X8782086Y-26487984D02*
X8763039Y-26487984D01*
X8763039Y-26487984D02*
X8743991Y-26478460D01*
X8743991Y-26478460D02*
X8734467Y-26468936D01*
X8734467Y-26468936D02*
X8724944Y-26449888D01*
X8724944Y-26449888D02*
X8715420Y-26411793D01*
X8715420Y-26411793D02*
X8715420Y-26364174D01*
X8715420Y-26364174D02*
X8724944Y-26326079D01*
X8724944Y-26326079D02*
X8734467Y-26307031D01*
X8734467Y-26307031D02*
X8743991Y-26297508D01*
X8743991Y-26297508D02*
X8763039Y-26287984D01*
X8915420Y-26487984D02*
X8915420Y-26354650D01*
X8915420Y-26373698D02*
X8924944Y-26364174D01*
X8924944Y-26364174D02*
X8943991Y-26354650D01*
X8943991Y-26354650D02*
X8972563Y-26354650D01*
X8972563Y-26354650D02*
X8991610Y-26364174D01*
X8991610Y-26364174D02*
X9001134Y-26383222D01*
X9001134Y-26383222D02*
X9001134Y-26487984D01*
X9001134Y-26383222D02*
X9010658Y-26364174D01*
X9010658Y-26364174D02*
X9029705Y-26354650D01*
X9029705Y-26354650D02*
X9058277Y-26354650D01*
X9058277Y-26354650D02*
X9077325Y-26364174D01*
X9077325Y-26364174D02*
X9086848Y-26383222D01*
X9086848Y-26383222D02*
X9086848Y-26487984D01*
X9182086Y-26487984D02*
X9182086Y-26354650D01*
X9182086Y-26373698D02*
X9191610Y-26364174D01*
X9191610Y-26364174D02*
X9210658Y-26354650D01*
X9210658Y-26354650D02*
X9239229Y-26354650D01*
X9239229Y-26354650D02*
X9258277Y-26364174D01*
X9258277Y-26364174D02*
X9267801Y-26383222D01*
X9267801Y-26383222D02*
X9267801Y-26487984D01*
X9267801Y-26383222D02*
X9277325Y-26364174D01*
X9277325Y-26364174D02*
X9296372Y-26354650D01*
X9296372Y-26354650D02*
X9324944Y-26354650D01*
X9324944Y-26354650D02*
X9343991Y-26364174D01*
X9343991Y-26364174D02*
X9353515Y-26383222D01*
X9353515Y-26383222D02*
X9353515Y-26487984D01*
X9743991Y-26278460D02*
X9572563Y-26535603D01*
X10001134Y-26287984D02*
X10020182Y-26287984D01*
X10020182Y-26287984D02*
X10039229Y-26297508D01*
X10039229Y-26297508D02*
X10048753Y-26307031D01*
X10048753Y-26307031D02*
X10058277Y-26326079D01*
X10058277Y-26326079D02*
X10067801Y-26364174D01*
X10067801Y-26364174D02*
X10067801Y-26411793D01*
X10067801Y-26411793D02*
X10058277Y-26449888D01*
X10058277Y-26449888D02*
X10048753Y-26468936D01*
X10048753Y-26468936D02*
X10039229Y-26478460D01*
X10039229Y-26478460D02*
X10020182Y-26487984D01*
X10020182Y-26487984D02*
X10001134Y-26487984D01*
X10001134Y-26487984D02*
X9982087Y-26478460D01*
X9982087Y-26478460D02*
X9972563Y-26468936D01*
X9972563Y-26468936D02*
X9963039Y-26449888D01*
X9963039Y-26449888D02*
X9953515Y-26411793D01*
X9953515Y-26411793D02*
X9953515Y-26364174D01*
X9953515Y-26364174D02*
X9963039Y-26326079D01*
X9963039Y-26326079D02*
X9972563Y-26307031D01*
X9972563Y-26307031D02*
X9982087Y-26297508D01*
X9982087Y-26297508D02*
X10001134Y-26287984D01*
X10153515Y-26468936D02*
X10163039Y-26478460D01*
X10163039Y-26478460D02*
X10153515Y-26487984D01*
X10153515Y-26487984D02*
X10143991Y-26478460D01*
X10143991Y-26478460D02*
X10153515Y-26468936D01*
X10153515Y-26468936D02*
X10153515Y-26487984D01*
X10239229Y-26307031D02*
X10248753Y-26297508D01*
X10248753Y-26297508D02*
X10267801Y-26287984D01*
X10267801Y-26287984D02*
X10315420Y-26287984D01*
X10315420Y-26287984D02*
X10334468Y-26297508D01*
X10334468Y-26297508D02*
X10343991Y-26307031D01*
X10343991Y-26307031D02*
X10353515Y-26326079D01*
X10353515Y-26326079D02*
X10353515Y-26345127D01*
X10353515Y-26345127D02*
X10343991Y-26373698D01*
X10343991Y-26373698D02*
X10229706Y-26487984D01*
X10229706Y-26487984D02*
X10353515Y-26487984D01*
X10524944Y-26354650D02*
X10524944Y-26487984D01*
X10477325Y-26278460D02*
X10429706Y-26421317D01*
X10429706Y-26421317D02*
X10553515Y-26421317D01*
X10715420Y-26354650D02*
X10715420Y-26487984D01*
X10667801Y-26278460D02*
X10620182Y-26421317D01*
X10620182Y-26421317D02*
X10743991Y-26421317D01*
X10924944Y-26487984D02*
X10810658Y-26487984D01*
X10867801Y-26487984D02*
X10867801Y-26287984D01*
X10867801Y-26287984D02*
X10848753Y-26316555D01*
X10848753Y-26316555D02*
X10829706Y-26335603D01*
X10829706Y-26335603D02*
X10810658Y-26345127D01*
X11001134Y-26287984D02*
X11001134Y-26326079D01*
X11077325Y-26287984D02*
X11077325Y-26326079D01*
X11372563Y-26564174D02*
X11363039Y-26554650D01*
X11363039Y-26554650D02*
X11343991Y-26526079D01*
X11343991Y-26526079D02*
X11334468Y-26507031D01*
X11334468Y-26507031D02*
X11324944Y-26478460D01*
X11324944Y-26478460D02*
X11315420Y-26430841D01*
X11315420Y-26430841D02*
X11315420Y-26392746D01*
X11315420Y-26392746D02*
X11324944Y-26345127D01*
X11324944Y-26345127D02*
X11334468Y-26316555D01*
X11334468Y-26316555D02*
X11343991Y-26297508D01*
X11343991Y-26297508D02*
X11363039Y-26268936D01*
X11363039Y-26268936D02*
X11372563Y-26259412D01*
X11429706Y-26287984D02*
X11553515Y-26287984D01*
X11553515Y-26287984D02*
X11486848Y-26364174D01*
X11486848Y-26364174D02*
X11515420Y-26364174D01*
X11515420Y-26364174D02*
X11534468Y-26373698D01*
X11534468Y-26373698D02*
X11543991Y-26383222D01*
X11543991Y-26383222D02*
X11553515Y-26402269D01*
X11553515Y-26402269D02*
X11553515Y-26449888D01*
X11553515Y-26449888D02*
X11543991Y-26468936D01*
X11543991Y-26468936D02*
X11534468Y-26478460D01*
X11534468Y-26478460D02*
X11515420Y-26487984D01*
X11515420Y-26487984D02*
X11458277Y-26487984D01*
X11458277Y-26487984D02*
X11439229Y-26478460D01*
X11439229Y-26478460D02*
X11429706Y-26468936D01*
X11791610Y-26487984D02*
X11791610Y-26287984D01*
X11877325Y-26487984D02*
X11877325Y-26383222D01*
X11877325Y-26383222D02*
X11867801Y-26364174D01*
X11867801Y-26364174D02*
X11848753Y-26354650D01*
X11848753Y-26354650D02*
X11820182Y-26354650D01*
X11820182Y-26354650D02*
X11801134Y-26364174D01*
X11801134Y-26364174D02*
X11791610Y-26373698D01*
X12001134Y-26487984D02*
X11982087Y-26478460D01*
X11982087Y-26478460D02*
X11972563Y-26468936D01*
X11972563Y-26468936D02*
X11963039Y-26449888D01*
X11963039Y-26449888D02*
X11963039Y-26392746D01*
X11963039Y-26392746D02*
X11972563Y-26373698D01*
X11972563Y-26373698D02*
X11982087Y-26364174D01*
X11982087Y-26364174D02*
X12001134Y-26354650D01*
X12001134Y-26354650D02*
X12029706Y-26354650D01*
X12029706Y-26354650D02*
X12048753Y-26364174D01*
X12048753Y-26364174D02*
X12058277Y-26373698D01*
X12058277Y-26373698D02*
X12067801Y-26392746D01*
X12067801Y-26392746D02*
X12067801Y-26449888D01*
X12067801Y-26449888D02*
X12058277Y-26468936D01*
X12058277Y-26468936D02*
X12048753Y-26478460D01*
X12048753Y-26478460D02*
X12029706Y-26487984D01*
X12029706Y-26487984D02*
X12001134Y-26487984D01*
X12182087Y-26487984D02*
X12163039Y-26478460D01*
X12163039Y-26478460D02*
X12153515Y-26459412D01*
X12153515Y-26459412D02*
X12153515Y-26287984D01*
X12334468Y-26478460D02*
X12315420Y-26487984D01*
X12315420Y-26487984D02*
X12277325Y-26487984D01*
X12277325Y-26487984D02*
X12258277Y-26478460D01*
X12258277Y-26478460D02*
X12248753Y-26459412D01*
X12248753Y-26459412D02*
X12248753Y-26383222D01*
X12248753Y-26383222D02*
X12258277Y-26364174D01*
X12258277Y-26364174D02*
X12277325Y-26354650D01*
X12277325Y-26354650D02*
X12315420Y-26354650D01*
X12315420Y-26354650D02*
X12334468Y-26364174D01*
X12334468Y-26364174D02*
X12343991Y-26383222D01*
X12343991Y-26383222D02*
X12343991Y-26402269D01*
X12343991Y-26402269D02*
X12248753Y-26421317D01*
X12420182Y-26478460D02*
X12439230Y-26487984D01*
X12439230Y-26487984D02*
X12477325Y-26487984D01*
X12477325Y-26487984D02*
X12496372Y-26478460D01*
X12496372Y-26478460D02*
X12505896Y-26459412D01*
X12505896Y-26459412D02*
X12505896Y-26449888D01*
X12505896Y-26449888D02*
X12496372Y-26430841D01*
X12496372Y-26430841D02*
X12477325Y-26421317D01*
X12477325Y-26421317D02*
X12448753Y-26421317D01*
X12448753Y-26421317D02*
X12429706Y-26411793D01*
X12429706Y-26411793D02*
X12420182Y-26392746D01*
X12420182Y-26392746D02*
X12420182Y-26383222D01*
X12420182Y-26383222D02*
X12429706Y-26364174D01*
X12429706Y-26364174D02*
X12448753Y-26354650D01*
X12448753Y-26354650D02*
X12477325Y-26354650D01*
X12477325Y-26354650D02*
X12496372Y-26364174D01*
X12572563Y-26564174D02*
X12582087Y-26554650D01*
X12582087Y-26554650D02*
X12601134Y-26526079D01*
X12601134Y-26526079D02*
X12610658Y-26507031D01*
X12610658Y-26507031D02*
X12620182Y-26478460D01*
X12620182Y-26478460D02*
X12629706Y-26430841D01*
X12629706Y-26430841D02*
X12629706Y-26392746D01*
X12629706Y-26392746D02*
X12620182Y-26345127D01*
X12620182Y-26345127D02*
X12610658Y-26316555D01*
X12610658Y-26316555D02*
X12601134Y-26297508D01*
X12601134Y-26297508D02*
X12582087Y-26268936D01*
X12582087Y-26268936D02*
X12572563Y-26259412D01*
M02*
