G04 #@! TF.GenerationSoftware,KiCad,Pcbnew,8.0.3*
G04 #@! TF.CreationDate,2024-06-29T21:42:12+02:00*
G04 #@! TF.ProjectId,DMH_Adapter_Mult_PANEL,444d485f-4164-4617-9074-65725f4d756c,1*
G04 #@! TF.SameCoordinates,Original*
G04 #@! TF.FileFunction,Legend,Bot*
G04 #@! TF.FilePolarity,Positive*
%FSLAX46Y46*%
G04 Gerber Fmt 4.6, Leading zero omitted, Abs format (unit mm)*
G04 Created by KiCad (PCBNEW 8.0.3) date 2024-06-29 21:42:12*
%MOMM*%
%LPD*%
G01*
G04 APERTURE LIST*
%ADD10C,0.300000*%
%ADD11C,2.900000*%
%ADD12C,13.000000*%
%ADD13C,0.500000*%
%ADD14C,12.000000*%
%ADD15C,4.000000*%
G04 APERTURE END LIST*
D10*
X109928571Y-244178328D02*
X109928571Y-245249757D01*
X109928571Y-245249757D02*
X110000000Y-245464042D01*
X110000000Y-245464042D02*
X110142857Y-245606900D01*
X110142857Y-245606900D02*
X110357143Y-245678328D01*
X110357143Y-245678328D02*
X110500000Y-245678328D01*
X108500000Y-245678328D02*
X109214286Y-245678328D01*
X109214286Y-245678328D02*
X109214286Y-244178328D01*
X107142857Y-245535471D02*
X107214285Y-245606900D01*
X107214285Y-245606900D02*
X107428571Y-245678328D01*
X107428571Y-245678328D02*
X107571428Y-245678328D01*
X107571428Y-245678328D02*
X107785714Y-245606900D01*
X107785714Y-245606900D02*
X107928571Y-245464042D01*
X107928571Y-245464042D02*
X108000000Y-245321185D01*
X108000000Y-245321185D02*
X108071428Y-245035471D01*
X108071428Y-245035471D02*
X108071428Y-244821185D01*
X108071428Y-244821185D02*
X108000000Y-244535471D01*
X108000000Y-244535471D02*
X107928571Y-244392614D01*
X107928571Y-244392614D02*
X107785714Y-244249757D01*
X107785714Y-244249757D02*
X107571428Y-244178328D01*
X107571428Y-244178328D02*
X107428571Y-244178328D01*
X107428571Y-244178328D02*
X107214285Y-244249757D01*
X107214285Y-244249757D02*
X107142857Y-244321185D01*
X106071428Y-244178328D02*
X106071428Y-245249757D01*
X106071428Y-245249757D02*
X106142857Y-245464042D01*
X106142857Y-245464042D02*
X106285714Y-245606900D01*
X106285714Y-245606900D02*
X106500000Y-245678328D01*
X106500000Y-245678328D02*
X106642857Y-245678328D01*
X104642857Y-245678328D02*
X105357143Y-245678328D01*
X105357143Y-245678328D02*
X105357143Y-244178328D01*
X103285714Y-245535471D02*
X103357142Y-245606900D01*
X103357142Y-245606900D02*
X103571428Y-245678328D01*
X103571428Y-245678328D02*
X103714285Y-245678328D01*
X103714285Y-245678328D02*
X103928571Y-245606900D01*
X103928571Y-245606900D02*
X104071428Y-245464042D01*
X104071428Y-245464042D02*
X104142857Y-245321185D01*
X104142857Y-245321185D02*
X104214285Y-245035471D01*
X104214285Y-245035471D02*
X104214285Y-244821185D01*
X104214285Y-244821185D02*
X104142857Y-244535471D01*
X104142857Y-244535471D02*
X104071428Y-244392614D01*
X104071428Y-244392614D02*
X103928571Y-244249757D01*
X103928571Y-244249757D02*
X103714285Y-244178328D01*
X103714285Y-244178328D02*
X103571428Y-244178328D01*
X103571428Y-244178328D02*
X103357142Y-244249757D01*
X103357142Y-244249757D02*
X103285714Y-244321185D01*
X102214285Y-244178328D02*
X102214285Y-245249757D01*
X102214285Y-245249757D02*
X102285714Y-245464042D01*
X102285714Y-245464042D02*
X102428571Y-245606900D01*
X102428571Y-245606900D02*
X102642857Y-245678328D01*
X102642857Y-245678328D02*
X102785714Y-245678328D01*
X100785714Y-245678328D02*
X101500000Y-245678328D01*
X101500000Y-245678328D02*
X101500000Y-244178328D01*
X99428571Y-245535471D02*
X99499999Y-245606900D01*
X99499999Y-245606900D02*
X99714285Y-245678328D01*
X99714285Y-245678328D02*
X99857142Y-245678328D01*
X99857142Y-245678328D02*
X100071428Y-245606900D01*
X100071428Y-245606900D02*
X100214285Y-245464042D01*
X100214285Y-245464042D02*
X100285714Y-245321185D01*
X100285714Y-245321185D02*
X100357142Y-245035471D01*
X100357142Y-245035471D02*
X100357142Y-244821185D01*
X100357142Y-244821185D02*
X100285714Y-244535471D01*
X100285714Y-244535471D02*
X100214285Y-244392614D01*
X100214285Y-244392614D02*
X100071428Y-244249757D01*
X100071428Y-244249757D02*
X99857142Y-244178328D01*
X99857142Y-244178328D02*
X99714285Y-244178328D01*
X99714285Y-244178328D02*
X99499999Y-244249757D01*
X99499999Y-244249757D02*
X99428571Y-244321185D01*
X98357142Y-244178328D02*
X98357142Y-245249757D01*
X98357142Y-245249757D02*
X98428571Y-245464042D01*
X98428571Y-245464042D02*
X98571428Y-245606900D01*
X98571428Y-245606900D02*
X98785714Y-245678328D01*
X98785714Y-245678328D02*
X98928571Y-245678328D01*
X96928571Y-245678328D02*
X97642857Y-245678328D01*
X97642857Y-245678328D02*
X97642857Y-244178328D01*
X95571428Y-245535471D02*
X95642856Y-245606900D01*
X95642856Y-245606900D02*
X95857142Y-245678328D01*
X95857142Y-245678328D02*
X95999999Y-245678328D01*
X95999999Y-245678328D02*
X96214285Y-245606900D01*
X96214285Y-245606900D02*
X96357142Y-245464042D01*
X96357142Y-245464042D02*
X96428571Y-245321185D01*
X96428571Y-245321185D02*
X96499999Y-245035471D01*
X96499999Y-245035471D02*
X96499999Y-244821185D01*
X96499999Y-244821185D02*
X96428571Y-244535471D01*
X96428571Y-244535471D02*
X96357142Y-244392614D01*
X96357142Y-244392614D02*
X96214285Y-244249757D01*
X96214285Y-244249757D02*
X95999999Y-244178328D01*
X95999999Y-244178328D02*
X95857142Y-244178328D01*
X95857142Y-244178328D02*
X95642856Y-244249757D01*
X95642856Y-244249757D02*
X95571428Y-244321185D01*
X112642856Y-242178328D02*
X112642856Y-240678328D01*
X112642856Y-240678328D02*
X112142856Y-241749757D01*
X112142856Y-241749757D02*
X111642856Y-240678328D01*
X111642856Y-240678328D02*
X111642856Y-242178328D01*
X110928570Y-242178328D02*
X110928570Y-240678328D01*
X110785713Y-241606900D02*
X110357141Y-242178328D01*
X110357141Y-241178328D02*
X110928570Y-241749757D01*
X108928569Y-242178328D02*
X109785712Y-242178328D01*
X109357141Y-242178328D02*
X109357141Y-240678328D01*
X109357141Y-240678328D02*
X109499998Y-240892614D01*
X109499998Y-240892614D02*
X109642855Y-241035471D01*
X109642855Y-241035471D02*
X109785712Y-241106900D01*
X107142856Y-241606900D02*
X105999999Y-241606900D01*
X103714284Y-240678328D02*
X103714284Y-241749757D01*
X103714284Y-241749757D02*
X103785713Y-241964042D01*
X103785713Y-241964042D02*
X103928570Y-242106900D01*
X103928570Y-242106900D02*
X104142856Y-242178328D01*
X104142856Y-242178328D02*
X104285713Y-242178328D01*
X102357142Y-241178328D02*
X102357142Y-242178328D01*
X102999999Y-241178328D02*
X102999999Y-241964042D01*
X102999999Y-241964042D02*
X102928570Y-242106900D01*
X102928570Y-242106900D02*
X102785713Y-242178328D01*
X102785713Y-242178328D02*
X102571427Y-242178328D01*
X102571427Y-242178328D02*
X102428570Y-242106900D01*
X102428570Y-242106900D02*
X102357142Y-242035471D01*
X101642856Y-241178328D02*
X101642856Y-242178328D01*
X101642856Y-241321185D02*
X101571427Y-241249757D01*
X101571427Y-241249757D02*
X101428570Y-241178328D01*
X101428570Y-241178328D02*
X101214284Y-241178328D01*
X101214284Y-241178328D02*
X101071427Y-241249757D01*
X101071427Y-241249757D02*
X100999999Y-241392614D01*
X100999999Y-241392614D02*
X100999999Y-242178328D01*
X99714284Y-242106900D02*
X99857141Y-242178328D01*
X99857141Y-242178328D02*
X100142856Y-242178328D01*
X100142856Y-242178328D02*
X100285713Y-242106900D01*
X100285713Y-242106900D02*
X100357141Y-241964042D01*
X100357141Y-241964042D02*
X100357141Y-241392614D01*
X100357141Y-241392614D02*
X100285713Y-241249757D01*
X100285713Y-241249757D02*
X100142856Y-241178328D01*
X100142856Y-241178328D02*
X99857141Y-241178328D01*
X99857141Y-241178328D02*
X99714284Y-241249757D01*
X99714284Y-241249757D02*
X99642856Y-241392614D01*
X99642856Y-241392614D02*
X99642856Y-241535471D01*
X99642856Y-241535471D02*
X100357141Y-241678328D01*
X97928570Y-240821185D02*
X97857142Y-240749757D01*
X97857142Y-240749757D02*
X97714285Y-240678328D01*
X97714285Y-240678328D02*
X97357142Y-240678328D01*
X97357142Y-240678328D02*
X97214285Y-240749757D01*
X97214285Y-240749757D02*
X97142856Y-240821185D01*
X97142856Y-240821185D02*
X97071427Y-240964042D01*
X97071427Y-240964042D02*
X97071427Y-241106900D01*
X97071427Y-241106900D02*
X97142856Y-241321185D01*
X97142856Y-241321185D02*
X97999999Y-242178328D01*
X97999999Y-242178328D02*
X97071427Y-242178328D01*
X96142856Y-240678328D02*
X95999999Y-240678328D01*
X95999999Y-240678328D02*
X95857142Y-240749757D01*
X95857142Y-240749757D02*
X95785714Y-240821185D01*
X95785714Y-240821185D02*
X95714285Y-240964042D01*
X95714285Y-240964042D02*
X95642856Y-241249757D01*
X95642856Y-241249757D02*
X95642856Y-241606900D01*
X95642856Y-241606900D02*
X95714285Y-241892614D01*
X95714285Y-241892614D02*
X95785714Y-242035471D01*
X95785714Y-242035471D02*
X95857142Y-242106900D01*
X95857142Y-242106900D02*
X95999999Y-242178328D01*
X95999999Y-242178328D02*
X96142856Y-242178328D01*
X96142856Y-242178328D02*
X96285714Y-242106900D01*
X96285714Y-242106900D02*
X96357142Y-242035471D01*
X96357142Y-242035471D02*
X96428571Y-241892614D01*
X96428571Y-241892614D02*
X96499999Y-241606900D01*
X96499999Y-241606900D02*
X96499999Y-241249757D01*
X96499999Y-241249757D02*
X96428571Y-240964042D01*
X96428571Y-240964042D02*
X96357142Y-240821185D01*
X96357142Y-240821185D02*
X96285714Y-240749757D01*
X96285714Y-240749757D02*
X96142856Y-240678328D01*
X95071428Y-240821185D02*
X95000000Y-240749757D01*
X95000000Y-240749757D02*
X94857143Y-240678328D01*
X94857143Y-240678328D02*
X94500000Y-240678328D01*
X94500000Y-240678328D02*
X94357143Y-240749757D01*
X94357143Y-240749757D02*
X94285714Y-240821185D01*
X94285714Y-240821185D02*
X94214285Y-240964042D01*
X94214285Y-240964042D02*
X94214285Y-241106900D01*
X94214285Y-241106900D02*
X94285714Y-241321185D01*
X94285714Y-241321185D02*
X95142857Y-242178328D01*
X95142857Y-242178328D02*
X94214285Y-242178328D01*
X92928572Y-241178328D02*
X92928572Y-242178328D01*
X93285714Y-240606900D02*
X93642857Y-241678328D01*
X93642857Y-241678328D02*
X92714286Y-241678328D01*
%LPC*%
D11*
X86500000Y-112100000D03*
D12*
X86500000Y-118500000D03*
D11*
X86500000Y-79100000D03*
D12*
X86500000Y-85500000D03*
D11*
X86500000Y-145100000D03*
D12*
X86500000Y-151500000D03*
D13*
X113800000Y-201000000D03*
X115460000Y-196970000D03*
X115470000Y-205040000D03*
X119500000Y-195300000D03*
D14*
X119500000Y-201000000D03*
D13*
X119500000Y-206700000D03*
X123530000Y-205040000D03*
X123540000Y-196970000D03*
X125200000Y-201000000D03*
D15*
X81500000Y-245000000D03*
D13*
X97300000Y-69000000D03*
X98960000Y-64970000D03*
X98970000Y-73040000D03*
X103000000Y-63300000D03*
D12*
X103000000Y-69000000D03*
D13*
X103000000Y-74700000D03*
X107030000Y-73040000D03*
X107040000Y-64970000D03*
X108700000Y-69000000D03*
X97300000Y-118500000D03*
X98960000Y-114470000D03*
X98970000Y-122540000D03*
X103000000Y-112800000D03*
D12*
X103000000Y-118500000D03*
D13*
X103000000Y-124200000D03*
X107030000Y-122540000D03*
X107040000Y-114470000D03*
X108700000Y-118500000D03*
D15*
X124500000Y-52000000D03*
D13*
X97300000Y-151500000D03*
X98960000Y-147470000D03*
X98970000Y-155540000D03*
X103000000Y-145800000D03*
D12*
X103000000Y-151500000D03*
D13*
X103000000Y-157200000D03*
X107030000Y-155540000D03*
X107040000Y-147470000D03*
X108700000Y-151500000D03*
X97300000Y-184500000D03*
X98960000Y-180470000D03*
X98970000Y-188540000D03*
X103000000Y-178800000D03*
D12*
X103000000Y-184500000D03*
D13*
X103000000Y-190200000D03*
X107030000Y-188540000D03*
X107040000Y-180470000D03*
X108700000Y-184500000D03*
X113800000Y-135000000D03*
X115460000Y-130970000D03*
X115470000Y-139040000D03*
X119500000Y-129300000D03*
D14*
X119500000Y-135000000D03*
D13*
X119500000Y-140700000D03*
X123530000Y-139040000D03*
X123540000Y-130970000D03*
X125200000Y-135000000D03*
X113800000Y-69000000D03*
X115460000Y-64970000D03*
X115470000Y-73040000D03*
X119500000Y-63300000D03*
D14*
X119500000Y-69000000D03*
D13*
X119500000Y-74700000D03*
X123530000Y-73040000D03*
X123540000Y-64970000D03*
X125200000Y-69000000D03*
X113800000Y-85500000D03*
X115460000Y-81470000D03*
X115470000Y-89540000D03*
X119500000Y-79800000D03*
D14*
X119500000Y-85500000D03*
D13*
X119500000Y-91200000D03*
X123530000Y-89540000D03*
X123540000Y-81470000D03*
X125200000Y-85500000D03*
X113800000Y-102000000D03*
X115460000Y-97970000D03*
X115470000Y-106040000D03*
X119500000Y-96300000D03*
D14*
X119500000Y-102000000D03*
D13*
X119500000Y-107700000D03*
X123530000Y-106040000D03*
X123540000Y-97970000D03*
X125200000Y-102000000D03*
X113800000Y-184500000D03*
X115460000Y-180470000D03*
X115470000Y-188540000D03*
X119500000Y-178800000D03*
D14*
X119500000Y-184500000D03*
D13*
X119500000Y-190200000D03*
X123530000Y-188540000D03*
X123540000Y-180470000D03*
X125200000Y-184500000D03*
X97300000Y-135000000D03*
X98960000Y-130970000D03*
X98970000Y-139040000D03*
X103000000Y-129300000D03*
D12*
X103000000Y-135000000D03*
D13*
X103000000Y-140700000D03*
X107030000Y-139040000D03*
X107040000Y-130970000D03*
X108700000Y-135000000D03*
X113800000Y-168000000D03*
X115460000Y-163970000D03*
X115470000Y-172040000D03*
X119500000Y-162300000D03*
D14*
X119500000Y-168000000D03*
D13*
X119500000Y-173700000D03*
X123530000Y-172040000D03*
X123540000Y-163970000D03*
X125200000Y-168000000D03*
X113800000Y-217500000D03*
X115460000Y-213470000D03*
X115470000Y-221540000D03*
X119500000Y-211800000D03*
D14*
X119500000Y-217500000D03*
D13*
X119500000Y-223200000D03*
X123530000Y-221540000D03*
X123540000Y-213470000D03*
X125200000Y-217500000D03*
X97300000Y-217500000D03*
X98960000Y-213470000D03*
X98970000Y-221540000D03*
X103000000Y-211800000D03*
D12*
X103000000Y-217500000D03*
D13*
X103000000Y-223200000D03*
X107030000Y-221540000D03*
X107040000Y-213470000D03*
X108700000Y-217500000D03*
X97300000Y-201000000D03*
X98960000Y-196970000D03*
X98970000Y-205040000D03*
X103000000Y-195300000D03*
D12*
X103000000Y-201000000D03*
D13*
X103000000Y-206700000D03*
X107030000Y-205040000D03*
X107040000Y-196970000D03*
X108700000Y-201000000D03*
X113800000Y-118500000D03*
X115460000Y-114470000D03*
X115470000Y-122540000D03*
X119500000Y-112800000D03*
D14*
X119500000Y-118500000D03*
D13*
X119500000Y-124200000D03*
X123530000Y-122540000D03*
X123540000Y-114470000D03*
X125200000Y-118500000D03*
X113800000Y-151500000D03*
X115460000Y-147470000D03*
X115470000Y-155540000D03*
X119500000Y-145800000D03*
D14*
X119500000Y-151500000D03*
D13*
X119500000Y-157200000D03*
X123530000Y-155540000D03*
X123540000Y-147470000D03*
X125200000Y-151500000D03*
X97300000Y-168000000D03*
X98960000Y-163970000D03*
X98970000Y-172040000D03*
X103000000Y-162300000D03*
D12*
X103000000Y-168000000D03*
D13*
X103000000Y-173700000D03*
X107030000Y-172040000D03*
X107040000Y-163970000D03*
X108700000Y-168000000D03*
D15*
X81500000Y-52000000D03*
X124500000Y-245000000D03*
D13*
X97300000Y-85500000D03*
X98960000Y-81470000D03*
X98970000Y-89540000D03*
X103000000Y-79800000D03*
D12*
X103000000Y-85500000D03*
D13*
X103000000Y-91200000D03*
X107030000Y-89540000D03*
X107040000Y-81470000D03*
X108700000Y-85500000D03*
X97300000Y-102000000D03*
X98960000Y-97970000D03*
X98970000Y-106040000D03*
X103000000Y-96300000D03*
D12*
X103000000Y-102000000D03*
D13*
X103000000Y-107700000D03*
X107030000Y-106040000D03*
X107040000Y-97970000D03*
X108700000Y-102000000D03*
%LPD*%
M02*
