M48
; DRILL file {KiCad 8.0.3} date 2024-06-29T21:42:30+0200
; FORMAT={-:-/ absolute / metric / decimal}
; #@! TF.CreationDate,2024-06-29T21:42:30+02:00
; #@! TF.GenerationSoftware,Kicad,Pcbnew,8.0.3
; #@! TF.FileFunction,Plated,1,2,PTH
FMAT,2
METRIC
; #@! TA.AperFunction,Plated,PTH,ComponentDrill
T1C0.300
; #@! TA.AperFunction,Plated,PTH,ComponentDrill
T2C2.400
; #@! TA.AperFunction,Plated,PTH,ComponentDrill
T3C3.200
; #@! TA.AperFunction,Plated,PTH,ComponentDrill
T4C6.200
%
G90
G05
T1
X97.3Y-69.0
X97.3Y-85.5
X97.3Y-102.0
X97.3Y-118.5
X97.3Y-135.0
X97.3Y-151.5
X97.3Y-168.0
X97.3Y-184.5
X97.3Y-201.0
X97.3Y-217.5
X98.96Y-64.97
X98.96Y-81.47
X98.96Y-97.97
X98.96Y-114.47
X98.96Y-130.97
X98.96Y-147.47
X98.96Y-163.97
X98.96Y-180.47
X98.96Y-196.97
X98.96Y-213.47
X98.97Y-73.04
X98.97Y-89.54
X98.97Y-106.04
X98.97Y-122.54
X98.97Y-139.04
X98.97Y-155.54
X98.97Y-172.04
X98.97Y-188.54
X98.97Y-205.04
X98.97Y-221.54
X103.0Y-63.3
X103.0Y-74.7
X103.0Y-79.8
X103.0Y-91.2
X103.0Y-96.3
X103.0Y-107.7
X103.0Y-112.8
X103.0Y-124.2
X103.0Y-129.3
X103.0Y-140.7
X103.0Y-145.8
X103.0Y-157.2
X103.0Y-162.3
X103.0Y-173.7
X103.0Y-178.8
X103.0Y-190.2
X103.0Y-195.3
X103.0Y-206.7
X103.0Y-211.8
X103.0Y-223.2
X107.03Y-73.04
X107.03Y-89.54
X107.03Y-106.04
X107.03Y-122.54
X107.03Y-139.04
X107.03Y-155.54
X107.03Y-172.04
X107.03Y-188.54
X107.03Y-205.04
X107.03Y-221.54
X107.04Y-64.97
X107.04Y-81.47
X107.04Y-97.97
X107.04Y-114.47
X107.04Y-130.97
X107.04Y-147.47
X107.04Y-163.97
X107.04Y-180.47
X107.04Y-196.97
X107.04Y-213.47
X108.7Y-69.0
X108.7Y-85.5
X108.7Y-102.0
X108.7Y-118.5
X108.7Y-135.0
X108.7Y-151.5
X108.7Y-168.0
X108.7Y-184.5
X108.7Y-201.0
X108.7Y-217.5
X113.8Y-69.0
X113.8Y-85.5
X113.8Y-102.0
X113.8Y-118.5
X113.8Y-135.0
X113.8Y-151.5
X113.8Y-168.0
X113.8Y-184.5
X113.8Y-201.0
X113.8Y-217.5
X115.46Y-64.97
X115.46Y-81.47
X115.46Y-97.97
X115.46Y-114.47
X115.46Y-130.97
X115.46Y-147.47
X115.46Y-163.97
X115.46Y-180.47
X115.46Y-196.97
X115.46Y-213.47
X115.47Y-73.04
X115.47Y-89.54
X115.47Y-106.04
X115.47Y-122.54
X115.47Y-139.04
X115.47Y-155.54
X115.47Y-172.04
X115.47Y-188.54
X115.47Y-205.04
X115.47Y-221.54
X119.5Y-63.3
X119.5Y-74.7
X119.5Y-79.8
X119.5Y-91.2
X119.5Y-96.3
X119.5Y-107.7
X119.5Y-112.8
X119.5Y-124.2
X119.5Y-129.3
X119.5Y-140.7
X119.5Y-145.8
X119.5Y-157.2
X119.5Y-162.3
X119.5Y-173.7
X119.5Y-178.8
X119.5Y-190.2
X119.5Y-195.3
X119.5Y-206.7
X119.5Y-211.8
X119.5Y-223.2
X123.53Y-73.04
X123.53Y-89.54
X123.53Y-106.04
X123.53Y-122.54
X123.53Y-139.04
X123.53Y-155.54
X123.53Y-172.04
X123.53Y-188.54
X123.53Y-205.04
X123.53Y-221.54
X123.54Y-64.97
X123.54Y-81.47
X123.54Y-97.97
X123.54Y-114.47
X123.54Y-130.97
X123.54Y-147.47
X123.54Y-163.97
X123.54Y-180.47
X123.54Y-196.97
X123.54Y-213.47
X125.2Y-69.0
X125.2Y-85.5
X125.2Y-102.0
X125.2Y-118.5
X125.2Y-135.0
X125.2Y-151.5
X125.2Y-168.0
X125.2Y-184.5
X125.2Y-201.0
X125.2Y-217.5
T2
X86.5Y-79.1
X86.5Y-112.1
X86.5Y-145.1
T3
X81.5Y-52.0
X81.5Y-245.0
X124.5Y-52.0
X124.5Y-245.0
T4
X86.5Y-85.5
X86.5Y-118.5
X86.5Y-151.5
M30
