G04 #@! TF.GenerationSoftware,KiCad,Pcbnew,8.0.3*
G04 #@! TF.CreationDate,2024-06-29T16:07:53+02:00*
G04 #@! TF.ProjectId,DMH_Adapter_Mult_PCB,444d485f-4164-4617-9074-65725f4d756c,1*
G04 #@! TF.SameCoordinates,Original*
G04 #@! TF.FileFunction,Legend,Bot*
G04 #@! TF.FilePolarity,Positive*
%FSLAX46Y46*%
G04 Gerber Fmt 4.6, Leading zero omitted, Abs format (unit mm)*
G04 Created by KiCad (PCBNEW 8.0.3) date 2024-06-29 16:07:53*
%MOMM*%
%LPD*%
G01*
G04 APERTURE LIST*
G04 Aperture macros list*
%AMRoundRect*
0 Rectangle with rounded corners*
0 $1 Rounding radius*
0 $2 $3 $4 $5 $6 $7 $8 $9 X,Y pos of 4 corners*
0 Add a 4 corners polygon primitive as box body*
4,1,4,$2,$3,$4,$5,$6,$7,$8,$9,$2,$3,0*
0 Add four circle primitives for the rounded corners*
1,1,$1+$1,$2,$3*
1,1,$1+$1,$4,$5*
1,1,$1+$1,$6,$7*
1,1,$1+$1,$8,$9*
0 Add four rect primitives between the rounded corners*
20,1,$1+$1,$2,$3,$4,$5,0*
20,1,$1+$1,$4,$5,$6,$7,0*
20,1,$1+$1,$6,$7,$8,$9,0*
20,1,$1+$1,$8,$9,$2,$3,0*%
%AMHorizOval*
0 Thick line with rounded ends*
0 $1 width*
0 $2 $3 position (X,Y) of the first rounded end (center of the circle)*
0 $4 $5 position (X,Y) of the second rounded end (center of the circle)*
0 Add line between two ends*
20,1,$1,$2,$3,$4,$5,0*
0 Add two circle primitives to create the rounded ends*
1,1,$1,$2,$3*
1,1,$1,$4,$5*%
G04 Aperture macros list end*
%ADD10C,0.150000*%
%ADD11C,0.120000*%
%ADD12RoundRect,0.102000X1.500000X-1.500000X1.500000X1.500000X-1.500000X1.500000X-1.500000X-1.500000X0*%
%ADD13C,3.204000*%
%ADD14C,2.304000*%
%ADD15HorizOval,1.712000X-0.533159X0.533159X0.533159X-0.533159X0*%
%ADD16O,3.220000X1.712000*%
%ADD17O,1.712000X3.220000*%
%ADD18R,1.700000X1.700000*%
%ADD19O,1.700000X1.700000*%
%ADD20RoundRect,0.250000X0.600000X0.600000X-0.600000X0.600000X-0.600000X-0.600000X0.600000X-0.600000X0*%
%ADD21C,1.700000*%
G04 APERTURE END LIST*
D10*
X84260715Y-218069104D02*
X83784525Y-218069104D01*
X84355953Y-218354819D02*
X84022620Y-217354819D01*
X84022620Y-217354819D02*
X83689287Y-218354819D01*
X82927382Y-218354819D02*
X82927382Y-217354819D01*
X82927382Y-218307200D02*
X83022620Y-218354819D01*
X83022620Y-218354819D02*
X83213096Y-218354819D01*
X83213096Y-218354819D02*
X83308334Y-218307200D01*
X83308334Y-218307200D02*
X83355953Y-218259580D01*
X83355953Y-218259580D02*
X83403572Y-218164342D01*
X83403572Y-218164342D02*
X83403572Y-217878628D01*
X83403572Y-217878628D02*
X83355953Y-217783390D01*
X83355953Y-217783390D02*
X83308334Y-217735771D01*
X83308334Y-217735771D02*
X83213096Y-217688152D01*
X83213096Y-217688152D02*
X83022620Y-217688152D01*
X83022620Y-217688152D02*
X82927382Y-217735771D01*
X82022620Y-218354819D02*
X82022620Y-217831009D01*
X82022620Y-217831009D02*
X82070239Y-217735771D01*
X82070239Y-217735771D02*
X82165477Y-217688152D01*
X82165477Y-217688152D02*
X82355953Y-217688152D01*
X82355953Y-217688152D02*
X82451191Y-217735771D01*
X82022620Y-218307200D02*
X82117858Y-218354819D01*
X82117858Y-218354819D02*
X82355953Y-218354819D01*
X82355953Y-218354819D02*
X82451191Y-218307200D01*
X82451191Y-218307200D02*
X82498810Y-218211961D01*
X82498810Y-218211961D02*
X82498810Y-218116723D01*
X82498810Y-218116723D02*
X82451191Y-218021485D01*
X82451191Y-218021485D02*
X82355953Y-217973866D01*
X82355953Y-217973866D02*
X82117858Y-217973866D01*
X82117858Y-217973866D02*
X82022620Y-217926247D01*
X81546429Y-217688152D02*
X81546429Y-218688152D01*
X81546429Y-217735771D02*
X81451191Y-217688152D01*
X81451191Y-217688152D02*
X81260715Y-217688152D01*
X81260715Y-217688152D02*
X81165477Y-217735771D01*
X81165477Y-217735771D02*
X81117858Y-217783390D01*
X81117858Y-217783390D02*
X81070239Y-217878628D01*
X81070239Y-217878628D02*
X81070239Y-218164342D01*
X81070239Y-218164342D02*
X81117858Y-218259580D01*
X81117858Y-218259580D02*
X81165477Y-218307200D01*
X81165477Y-218307200D02*
X81260715Y-218354819D01*
X81260715Y-218354819D02*
X81451191Y-218354819D01*
X81451191Y-218354819D02*
X81546429Y-218307200D01*
X80784524Y-217688152D02*
X80403572Y-217688152D01*
X80641667Y-217354819D02*
X80641667Y-218211961D01*
X80641667Y-218211961D02*
X80594048Y-218307200D01*
X80594048Y-218307200D02*
X80498810Y-218354819D01*
X80498810Y-218354819D02*
X80403572Y-218354819D01*
X79689286Y-218307200D02*
X79784524Y-218354819D01*
X79784524Y-218354819D02*
X79975000Y-218354819D01*
X79975000Y-218354819D02*
X80070238Y-218307200D01*
X80070238Y-218307200D02*
X80117857Y-218211961D01*
X80117857Y-218211961D02*
X80117857Y-217831009D01*
X80117857Y-217831009D02*
X80070238Y-217735771D01*
X80070238Y-217735771D02*
X79975000Y-217688152D01*
X79975000Y-217688152D02*
X79784524Y-217688152D01*
X79784524Y-217688152D02*
X79689286Y-217735771D01*
X79689286Y-217735771D02*
X79641667Y-217831009D01*
X79641667Y-217831009D02*
X79641667Y-217926247D01*
X79641667Y-217926247D02*
X80117857Y-218021485D01*
X79213095Y-218354819D02*
X79213095Y-217688152D01*
X79213095Y-217878628D02*
X79165476Y-217783390D01*
X79165476Y-217783390D02*
X79117857Y-217735771D01*
X79117857Y-217735771D02*
X79022619Y-217688152D01*
X79022619Y-217688152D02*
X78927381Y-217688152D01*
X77832142Y-218354819D02*
X77832142Y-217354819D01*
X77832142Y-217354819D02*
X77498809Y-218069104D01*
X77498809Y-218069104D02*
X77165476Y-217354819D01*
X77165476Y-217354819D02*
X77165476Y-218354819D01*
X76260714Y-217688152D02*
X76260714Y-218354819D01*
X76689285Y-217688152D02*
X76689285Y-218211961D01*
X76689285Y-218211961D02*
X76641666Y-218307200D01*
X76641666Y-218307200D02*
X76546428Y-218354819D01*
X76546428Y-218354819D02*
X76403571Y-218354819D01*
X76403571Y-218354819D02*
X76308333Y-218307200D01*
X76308333Y-218307200D02*
X76260714Y-218259580D01*
X75641666Y-218354819D02*
X75736904Y-218307200D01*
X75736904Y-218307200D02*
X75784523Y-218211961D01*
X75784523Y-218211961D02*
X75784523Y-217354819D01*
X75403570Y-217688152D02*
X75022618Y-217688152D01*
X75260713Y-217354819D02*
X75260713Y-218211961D01*
X75260713Y-218211961D02*
X75213094Y-218307200D01*
X75213094Y-218307200D02*
X75117856Y-218354819D01*
X75117856Y-218354819D02*
X75022618Y-218354819D01*
X73927379Y-218354819D02*
X73927379Y-217354819D01*
X73927379Y-217354819D02*
X73594046Y-218069104D01*
X73594046Y-218069104D02*
X73260713Y-217354819D01*
X73260713Y-217354819D02*
X73260713Y-218354819D01*
X72784522Y-218354819D02*
X72784522Y-217354819D01*
X72689284Y-217973866D02*
X72403570Y-218354819D01*
X72403570Y-217688152D02*
X72784522Y-218069104D01*
X71451189Y-218354819D02*
X72022617Y-218354819D01*
X71736903Y-218354819D02*
X71736903Y-217354819D01*
X71736903Y-217354819D02*
X71832141Y-217497676D01*
X71832141Y-217497676D02*
X71927379Y-217592914D01*
X71927379Y-217592914D02*
X72022617Y-217640533D01*
X70260712Y-217973866D02*
X69498808Y-217973866D01*
X67974998Y-217354819D02*
X67974998Y-218069104D01*
X67974998Y-218069104D02*
X68022617Y-218211961D01*
X68022617Y-218211961D02*
X68117855Y-218307200D01*
X68117855Y-218307200D02*
X68260712Y-218354819D01*
X68260712Y-218354819D02*
X68355950Y-218354819D01*
X67070236Y-217688152D02*
X67070236Y-218354819D01*
X67498807Y-217688152D02*
X67498807Y-218211961D01*
X67498807Y-218211961D02*
X67451188Y-218307200D01*
X67451188Y-218307200D02*
X67355950Y-218354819D01*
X67355950Y-218354819D02*
X67213093Y-218354819D01*
X67213093Y-218354819D02*
X67117855Y-218307200D01*
X67117855Y-218307200D02*
X67070236Y-218259580D01*
X66594045Y-217688152D02*
X66594045Y-218354819D01*
X66594045Y-217783390D02*
X66546426Y-217735771D01*
X66546426Y-217735771D02*
X66451188Y-217688152D01*
X66451188Y-217688152D02*
X66308331Y-217688152D01*
X66308331Y-217688152D02*
X66213093Y-217735771D01*
X66213093Y-217735771D02*
X66165474Y-217831009D01*
X66165474Y-217831009D02*
X66165474Y-218354819D01*
X65308331Y-218307200D02*
X65403569Y-218354819D01*
X65403569Y-218354819D02*
X65594045Y-218354819D01*
X65594045Y-218354819D02*
X65689283Y-218307200D01*
X65689283Y-218307200D02*
X65736902Y-218211961D01*
X65736902Y-218211961D02*
X65736902Y-217831009D01*
X65736902Y-217831009D02*
X65689283Y-217735771D01*
X65689283Y-217735771D02*
X65594045Y-217688152D01*
X65594045Y-217688152D02*
X65403569Y-217688152D01*
X65403569Y-217688152D02*
X65308331Y-217735771D01*
X65308331Y-217735771D02*
X65260712Y-217831009D01*
X65260712Y-217831009D02*
X65260712Y-217926247D01*
X65260712Y-217926247D02*
X65736902Y-218021485D01*
X64117854Y-217450057D02*
X64070235Y-217402438D01*
X64070235Y-217402438D02*
X63974997Y-217354819D01*
X63974997Y-217354819D02*
X63736902Y-217354819D01*
X63736902Y-217354819D02*
X63641664Y-217402438D01*
X63641664Y-217402438D02*
X63594045Y-217450057D01*
X63594045Y-217450057D02*
X63546426Y-217545295D01*
X63546426Y-217545295D02*
X63546426Y-217640533D01*
X63546426Y-217640533D02*
X63594045Y-217783390D01*
X63594045Y-217783390D02*
X64165473Y-218354819D01*
X64165473Y-218354819D02*
X63546426Y-218354819D01*
X62927378Y-217354819D02*
X62832140Y-217354819D01*
X62832140Y-217354819D02*
X62736902Y-217402438D01*
X62736902Y-217402438D02*
X62689283Y-217450057D01*
X62689283Y-217450057D02*
X62641664Y-217545295D01*
X62641664Y-217545295D02*
X62594045Y-217735771D01*
X62594045Y-217735771D02*
X62594045Y-217973866D01*
X62594045Y-217973866D02*
X62641664Y-218164342D01*
X62641664Y-218164342D02*
X62689283Y-218259580D01*
X62689283Y-218259580D02*
X62736902Y-218307200D01*
X62736902Y-218307200D02*
X62832140Y-218354819D01*
X62832140Y-218354819D02*
X62927378Y-218354819D01*
X62927378Y-218354819D02*
X63022616Y-218307200D01*
X63022616Y-218307200D02*
X63070235Y-218259580D01*
X63070235Y-218259580D02*
X63117854Y-218164342D01*
X63117854Y-218164342D02*
X63165473Y-217973866D01*
X63165473Y-217973866D02*
X63165473Y-217735771D01*
X63165473Y-217735771D02*
X63117854Y-217545295D01*
X63117854Y-217545295D02*
X63070235Y-217450057D01*
X63070235Y-217450057D02*
X63022616Y-217402438D01*
X63022616Y-217402438D02*
X62927378Y-217354819D01*
X62213092Y-217450057D02*
X62165473Y-217402438D01*
X62165473Y-217402438D02*
X62070235Y-217354819D01*
X62070235Y-217354819D02*
X61832140Y-217354819D01*
X61832140Y-217354819D02*
X61736902Y-217402438D01*
X61736902Y-217402438D02*
X61689283Y-217450057D01*
X61689283Y-217450057D02*
X61641664Y-217545295D01*
X61641664Y-217545295D02*
X61641664Y-217640533D01*
X61641664Y-217640533D02*
X61689283Y-217783390D01*
X61689283Y-217783390D02*
X62260711Y-218354819D01*
X62260711Y-218354819D02*
X61641664Y-218354819D01*
X60784521Y-217688152D02*
X60784521Y-218354819D01*
X61022616Y-217307200D02*
X61260711Y-218021485D01*
X61260711Y-218021485D02*
X60641664Y-218021485D01*
X61761904Y-83124819D02*
X61190476Y-83124819D01*
X61476190Y-84124819D02*
X61476190Y-83124819D01*
X60857142Y-84124819D02*
X60857142Y-83124819D01*
X60857142Y-83124819D02*
X60476190Y-83124819D01*
X60476190Y-83124819D02*
X60380952Y-83172438D01*
X60380952Y-83172438D02*
X60333333Y-83220057D01*
X60333333Y-83220057D02*
X60285714Y-83315295D01*
X60285714Y-83315295D02*
X60285714Y-83458152D01*
X60285714Y-83458152D02*
X60333333Y-83553390D01*
X60333333Y-83553390D02*
X60380952Y-83601009D01*
X60380952Y-83601009D02*
X60476190Y-83648628D01*
X60476190Y-83648628D02*
X60857142Y-83648628D01*
X59904761Y-83220057D02*
X59857142Y-83172438D01*
X59857142Y-83172438D02*
X59761904Y-83124819D01*
X59761904Y-83124819D02*
X59523809Y-83124819D01*
X59523809Y-83124819D02*
X59428571Y-83172438D01*
X59428571Y-83172438D02*
X59380952Y-83220057D01*
X59380952Y-83220057D02*
X59333333Y-83315295D01*
X59333333Y-83315295D02*
X59333333Y-83410533D01*
X59333333Y-83410533D02*
X59380952Y-83553390D01*
X59380952Y-83553390D02*
X59952380Y-84124819D01*
X59952380Y-84124819D02*
X59333333Y-84124819D01*
X62309523Y-187104819D02*
X62309523Y-187819104D01*
X62309523Y-187819104D02*
X62357142Y-187961961D01*
X62357142Y-187961961D02*
X62452380Y-188057200D01*
X62452380Y-188057200D02*
X62595237Y-188104819D01*
X62595237Y-188104819D02*
X62690475Y-188104819D01*
X61357142Y-187104819D02*
X61833332Y-187104819D01*
X61833332Y-187104819D02*
X61880951Y-187581009D01*
X61880951Y-187581009D02*
X61833332Y-187533390D01*
X61833332Y-187533390D02*
X61738094Y-187485771D01*
X61738094Y-187485771D02*
X61499999Y-187485771D01*
X61499999Y-187485771D02*
X61404761Y-187533390D01*
X61404761Y-187533390D02*
X61357142Y-187581009D01*
X61357142Y-187581009D02*
X61309523Y-187676247D01*
X61309523Y-187676247D02*
X61309523Y-187914342D01*
X61309523Y-187914342D02*
X61357142Y-188009580D01*
X61357142Y-188009580D02*
X61404761Y-188057200D01*
X61404761Y-188057200D02*
X61499999Y-188104819D01*
X61499999Y-188104819D02*
X61738094Y-188104819D01*
X61738094Y-188104819D02*
X61833332Y-188057200D01*
X61833332Y-188057200D02*
X61880951Y-188009580D01*
X60690475Y-187104819D02*
X60595237Y-187104819D01*
X60595237Y-187104819D02*
X60499999Y-187152438D01*
X60499999Y-187152438D02*
X60452380Y-187200057D01*
X60452380Y-187200057D02*
X60404761Y-187295295D01*
X60404761Y-187295295D02*
X60357142Y-187485771D01*
X60357142Y-187485771D02*
X60357142Y-187723866D01*
X60357142Y-187723866D02*
X60404761Y-187914342D01*
X60404761Y-187914342D02*
X60452380Y-188009580D01*
X60452380Y-188009580D02*
X60499999Y-188057200D01*
X60499999Y-188057200D02*
X60595237Y-188104819D01*
X60595237Y-188104819D02*
X60690475Y-188104819D01*
X60690475Y-188104819D02*
X60785713Y-188057200D01*
X60785713Y-188057200D02*
X60833332Y-188009580D01*
X60833332Y-188009580D02*
X60880951Y-187914342D01*
X60880951Y-187914342D02*
X60928570Y-187723866D01*
X60928570Y-187723866D02*
X60928570Y-187485771D01*
X60928570Y-187485771D02*
X60880951Y-187295295D01*
X60880951Y-187295295D02*
X60833332Y-187200057D01*
X60833332Y-187200057D02*
X60785713Y-187152438D01*
X60785713Y-187152438D02*
X60690475Y-187104819D01*
X61838332Y-65052200D02*
X61695475Y-65099819D01*
X61695475Y-65099819D02*
X61457380Y-65099819D01*
X61457380Y-65099819D02*
X61362142Y-65052200D01*
X61362142Y-65052200D02*
X61314523Y-65004580D01*
X61314523Y-65004580D02*
X61266904Y-64909342D01*
X61266904Y-64909342D02*
X61266904Y-64814104D01*
X61266904Y-64814104D02*
X61314523Y-64718866D01*
X61314523Y-64718866D02*
X61362142Y-64671247D01*
X61362142Y-64671247D02*
X61457380Y-64623628D01*
X61457380Y-64623628D02*
X61647856Y-64576009D01*
X61647856Y-64576009D02*
X61743094Y-64528390D01*
X61743094Y-64528390D02*
X61790713Y-64480771D01*
X61790713Y-64480771D02*
X61838332Y-64385533D01*
X61838332Y-64385533D02*
X61838332Y-64290295D01*
X61838332Y-64290295D02*
X61790713Y-64195057D01*
X61790713Y-64195057D02*
X61743094Y-64147438D01*
X61743094Y-64147438D02*
X61647856Y-64099819D01*
X61647856Y-64099819D02*
X61409761Y-64099819D01*
X61409761Y-64099819D02*
X61266904Y-64147438D01*
X60933570Y-64099819D02*
X60695475Y-65099819D01*
X60695475Y-65099819D02*
X60504999Y-64385533D01*
X60504999Y-64385533D02*
X60314523Y-65099819D01*
X60314523Y-65099819D02*
X60076428Y-64099819D01*
X59171666Y-65099819D02*
X59743094Y-65099819D01*
X59457380Y-65099819D02*
X59457380Y-64099819D01*
X59457380Y-64099819D02*
X59552618Y-64242676D01*
X59552618Y-64242676D02*
X59647856Y-64337914D01*
X59647856Y-64337914D02*
X59743094Y-64385533D01*
X61761904Y-50124819D02*
X61190476Y-50124819D01*
X61476190Y-51124819D02*
X61476190Y-50124819D01*
X60857142Y-51124819D02*
X60857142Y-50124819D01*
X60857142Y-50124819D02*
X60476190Y-50124819D01*
X60476190Y-50124819D02*
X60380952Y-50172438D01*
X60380952Y-50172438D02*
X60333333Y-50220057D01*
X60333333Y-50220057D02*
X60285714Y-50315295D01*
X60285714Y-50315295D02*
X60285714Y-50458152D01*
X60285714Y-50458152D02*
X60333333Y-50553390D01*
X60333333Y-50553390D02*
X60380952Y-50601009D01*
X60380952Y-50601009D02*
X60476190Y-50648628D01*
X60476190Y-50648628D02*
X60857142Y-50648628D01*
X59333333Y-51124819D02*
X59904761Y-51124819D01*
X59619047Y-51124819D02*
X59619047Y-50124819D01*
X59619047Y-50124819D02*
X59714285Y-50267676D01*
X59714285Y-50267676D02*
X59809523Y-50362914D01*
X59809523Y-50362914D02*
X59904761Y-50410533D01*
X61761904Y-165624819D02*
X61190476Y-165624819D01*
X61476190Y-166624819D02*
X61476190Y-165624819D01*
X60857142Y-166624819D02*
X60857142Y-165624819D01*
X60857142Y-165624819D02*
X60476190Y-165624819D01*
X60476190Y-165624819D02*
X60380952Y-165672438D01*
X60380952Y-165672438D02*
X60333333Y-165720057D01*
X60333333Y-165720057D02*
X60285714Y-165815295D01*
X60285714Y-165815295D02*
X60285714Y-165958152D01*
X60285714Y-165958152D02*
X60333333Y-166053390D01*
X60333333Y-166053390D02*
X60380952Y-166101009D01*
X60380952Y-166101009D02*
X60476190Y-166148628D01*
X60476190Y-166148628D02*
X60857142Y-166148628D01*
X59380952Y-165624819D02*
X59857142Y-165624819D01*
X59857142Y-165624819D02*
X59904761Y-166101009D01*
X59904761Y-166101009D02*
X59857142Y-166053390D01*
X59857142Y-166053390D02*
X59761904Y-166005771D01*
X59761904Y-166005771D02*
X59523809Y-166005771D01*
X59523809Y-166005771D02*
X59428571Y-166053390D01*
X59428571Y-166053390D02*
X59380952Y-166101009D01*
X59380952Y-166101009D02*
X59333333Y-166196247D01*
X59333333Y-166196247D02*
X59333333Y-166434342D01*
X59333333Y-166434342D02*
X59380952Y-166529580D01*
X59380952Y-166529580D02*
X59428571Y-166577200D01*
X59428571Y-166577200D02*
X59523809Y-166624819D01*
X59523809Y-166624819D02*
X59761904Y-166624819D01*
X59761904Y-166624819D02*
X59857142Y-166577200D01*
X59857142Y-166577200D02*
X59904761Y-166529580D01*
X61761904Y-149124819D02*
X61190476Y-149124819D01*
X61476190Y-150124819D02*
X61476190Y-149124819D01*
X60857142Y-150124819D02*
X60857142Y-149124819D01*
X60857142Y-149124819D02*
X60476190Y-149124819D01*
X60476190Y-149124819D02*
X60380952Y-149172438D01*
X60380952Y-149172438D02*
X60333333Y-149220057D01*
X60333333Y-149220057D02*
X60285714Y-149315295D01*
X60285714Y-149315295D02*
X60285714Y-149458152D01*
X60285714Y-149458152D02*
X60333333Y-149553390D01*
X60333333Y-149553390D02*
X60380952Y-149601009D01*
X60380952Y-149601009D02*
X60476190Y-149648628D01*
X60476190Y-149648628D02*
X60857142Y-149648628D01*
X59428571Y-149458152D02*
X59428571Y-150124819D01*
X59666666Y-149077200D02*
X59904761Y-149791485D01*
X59904761Y-149791485D02*
X59285714Y-149791485D01*
X57785714Y-179454819D02*
X57785714Y-180169104D01*
X57785714Y-180169104D02*
X57833333Y-180311961D01*
X57833333Y-180311961D02*
X57928571Y-180407200D01*
X57928571Y-180407200D02*
X58071428Y-180454819D01*
X58071428Y-180454819D02*
X58166666Y-180454819D01*
X56785714Y-180454819D02*
X57357142Y-180454819D01*
X57071428Y-180454819D02*
X57071428Y-179454819D01*
X57071428Y-179454819D02*
X57166666Y-179597676D01*
X57166666Y-179597676D02*
X57261904Y-179692914D01*
X57261904Y-179692914D02*
X57357142Y-179740533D01*
X56166666Y-179454819D02*
X56071428Y-179454819D01*
X56071428Y-179454819D02*
X55976190Y-179502438D01*
X55976190Y-179502438D02*
X55928571Y-179550057D01*
X55928571Y-179550057D02*
X55880952Y-179645295D01*
X55880952Y-179645295D02*
X55833333Y-179835771D01*
X55833333Y-179835771D02*
X55833333Y-180073866D01*
X55833333Y-180073866D02*
X55880952Y-180264342D01*
X55880952Y-180264342D02*
X55928571Y-180359580D01*
X55928571Y-180359580D02*
X55976190Y-180407200D01*
X55976190Y-180407200D02*
X56071428Y-180454819D01*
X56071428Y-180454819D02*
X56166666Y-180454819D01*
X56166666Y-180454819D02*
X56261904Y-180407200D01*
X56261904Y-180407200D02*
X56309523Y-180359580D01*
X56309523Y-180359580D02*
X56357142Y-180264342D01*
X56357142Y-180264342D02*
X56404761Y-180073866D01*
X56404761Y-180073866D02*
X56404761Y-179835771D01*
X56404761Y-179835771D02*
X56357142Y-179645295D01*
X56357142Y-179645295D02*
X56309523Y-179550057D01*
X56309523Y-179550057D02*
X56261904Y-179502438D01*
X56261904Y-179502438D02*
X56166666Y-179454819D01*
X55214285Y-179454819D02*
X55119047Y-179454819D01*
X55119047Y-179454819D02*
X55023809Y-179502438D01*
X55023809Y-179502438D02*
X54976190Y-179550057D01*
X54976190Y-179550057D02*
X54928571Y-179645295D01*
X54928571Y-179645295D02*
X54880952Y-179835771D01*
X54880952Y-179835771D02*
X54880952Y-180073866D01*
X54880952Y-180073866D02*
X54928571Y-180264342D01*
X54928571Y-180264342D02*
X54976190Y-180359580D01*
X54976190Y-180359580D02*
X55023809Y-180407200D01*
X55023809Y-180407200D02*
X55119047Y-180454819D01*
X55119047Y-180454819D02*
X55214285Y-180454819D01*
X55214285Y-180454819D02*
X55309523Y-180407200D01*
X55309523Y-180407200D02*
X55357142Y-180359580D01*
X55357142Y-180359580D02*
X55404761Y-180264342D01*
X55404761Y-180264342D02*
X55452380Y-180073866D01*
X55452380Y-180073866D02*
X55452380Y-179835771D01*
X55452380Y-179835771D02*
X55404761Y-179645295D01*
X55404761Y-179645295D02*
X55357142Y-179550057D01*
X55357142Y-179550057D02*
X55309523Y-179502438D01*
X55309523Y-179502438D02*
X55214285Y-179454819D01*
X61838332Y-131052200D02*
X61695475Y-131099819D01*
X61695475Y-131099819D02*
X61457380Y-131099819D01*
X61457380Y-131099819D02*
X61362142Y-131052200D01*
X61362142Y-131052200D02*
X61314523Y-131004580D01*
X61314523Y-131004580D02*
X61266904Y-130909342D01*
X61266904Y-130909342D02*
X61266904Y-130814104D01*
X61266904Y-130814104D02*
X61314523Y-130718866D01*
X61314523Y-130718866D02*
X61362142Y-130671247D01*
X61362142Y-130671247D02*
X61457380Y-130623628D01*
X61457380Y-130623628D02*
X61647856Y-130576009D01*
X61647856Y-130576009D02*
X61743094Y-130528390D01*
X61743094Y-130528390D02*
X61790713Y-130480771D01*
X61790713Y-130480771D02*
X61838332Y-130385533D01*
X61838332Y-130385533D02*
X61838332Y-130290295D01*
X61838332Y-130290295D02*
X61790713Y-130195057D01*
X61790713Y-130195057D02*
X61743094Y-130147438D01*
X61743094Y-130147438D02*
X61647856Y-130099819D01*
X61647856Y-130099819D02*
X61409761Y-130099819D01*
X61409761Y-130099819D02*
X61266904Y-130147438D01*
X60933570Y-130099819D02*
X60695475Y-131099819D01*
X60695475Y-131099819D02*
X60504999Y-130385533D01*
X60504999Y-130385533D02*
X60314523Y-131099819D01*
X60314523Y-131099819D02*
X60076428Y-130099819D01*
X59790713Y-130099819D02*
X59171666Y-130099819D01*
X59171666Y-130099819D02*
X59504999Y-130480771D01*
X59504999Y-130480771D02*
X59362142Y-130480771D01*
X59362142Y-130480771D02*
X59266904Y-130528390D01*
X59266904Y-130528390D02*
X59219285Y-130576009D01*
X59219285Y-130576009D02*
X59171666Y-130671247D01*
X59171666Y-130671247D02*
X59171666Y-130909342D01*
X59171666Y-130909342D02*
X59219285Y-131004580D01*
X59219285Y-131004580D02*
X59266904Y-131052200D01*
X59266904Y-131052200D02*
X59362142Y-131099819D01*
X59362142Y-131099819D02*
X59647856Y-131099819D01*
X59647856Y-131099819D02*
X59743094Y-131052200D01*
X59743094Y-131052200D02*
X59790713Y-131004580D01*
X61761904Y-116124819D02*
X61190476Y-116124819D01*
X61476190Y-117124819D02*
X61476190Y-116124819D01*
X60857142Y-117124819D02*
X60857142Y-116124819D01*
X60857142Y-116124819D02*
X60476190Y-116124819D01*
X60476190Y-116124819D02*
X60380952Y-116172438D01*
X60380952Y-116172438D02*
X60333333Y-116220057D01*
X60333333Y-116220057D02*
X60285714Y-116315295D01*
X60285714Y-116315295D02*
X60285714Y-116458152D01*
X60285714Y-116458152D02*
X60333333Y-116553390D01*
X60333333Y-116553390D02*
X60380952Y-116601009D01*
X60380952Y-116601009D02*
X60476190Y-116648628D01*
X60476190Y-116648628D02*
X60857142Y-116648628D01*
X59952380Y-116124819D02*
X59333333Y-116124819D01*
X59333333Y-116124819D02*
X59666666Y-116505771D01*
X59666666Y-116505771D02*
X59523809Y-116505771D01*
X59523809Y-116505771D02*
X59428571Y-116553390D01*
X59428571Y-116553390D02*
X59380952Y-116601009D01*
X59380952Y-116601009D02*
X59333333Y-116696247D01*
X59333333Y-116696247D02*
X59333333Y-116934342D01*
X59333333Y-116934342D02*
X59380952Y-117029580D01*
X59380952Y-117029580D02*
X59428571Y-117077200D01*
X59428571Y-117077200D02*
X59523809Y-117124819D01*
X59523809Y-117124819D02*
X59809523Y-117124819D01*
X59809523Y-117124819D02*
X59904761Y-117077200D01*
X59904761Y-117077200D02*
X59952380Y-117029580D01*
X61838332Y-98052200D02*
X61695475Y-98099819D01*
X61695475Y-98099819D02*
X61457380Y-98099819D01*
X61457380Y-98099819D02*
X61362142Y-98052200D01*
X61362142Y-98052200D02*
X61314523Y-98004580D01*
X61314523Y-98004580D02*
X61266904Y-97909342D01*
X61266904Y-97909342D02*
X61266904Y-97814104D01*
X61266904Y-97814104D02*
X61314523Y-97718866D01*
X61314523Y-97718866D02*
X61362142Y-97671247D01*
X61362142Y-97671247D02*
X61457380Y-97623628D01*
X61457380Y-97623628D02*
X61647856Y-97576009D01*
X61647856Y-97576009D02*
X61743094Y-97528390D01*
X61743094Y-97528390D02*
X61790713Y-97480771D01*
X61790713Y-97480771D02*
X61838332Y-97385533D01*
X61838332Y-97385533D02*
X61838332Y-97290295D01*
X61838332Y-97290295D02*
X61790713Y-97195057D01*
X61790713Y-97195057D02*
X61743094Y-97147438D01*
X61743094Y-97147438D02*
X61647856Y-97099819D01*
X61647856Y-97099819D02*
X61409761Y-97099819D01*
X61409761Y-97099819D02*
X61266904Y-97147438D01*
X60933570Y-97099819D02*
X60695475Y-98099819D01*
X60695475Y-98099819D02*
X60504999Y-97385533D01*
X60504999Y-97385533D02*
X60314523Y-98099819D01*
X60314523Y-98099819D02*
X60076428Y-97099819D01*
X59743094Y-97195057D02*
X59695475Y-97147438D01*
X59695475Y-97147438D02*
X59600237Y-97099819D01*
X59600237Y-97099819D02*
X59362142Y-97099819D01*
X59362142Y-97099819D02*
X59266904Y-97147438D01*
X59266904Y-97147438D02*
X59219285Y-97195057D01*
X59219285Y-97195057D02*
X59171666Y-97290295D01*
X59171666Y-97290295D02*
X59171666Y-97385533D01*
X59171666Y-97385533D02*
X59219285Y-97528390D01*
X59219285Y-97528390D02*
X59790713Y-98099819D01*
X59790713Y-98099819D02*
X59171666Y-98099819D01*
X75500000Y-53000000D02*
G75*
G02*
X69500000Y-53000000I-3000000J0D01*
G01*
X69500000Y-53000000D02*
G75*
G02*
X75500000Y-53000000I3000000J0D01*
G01*
X75500000Y-86000000D02*
G75*
G02*
X69500000Y-86000000I-3000000J0D01*
G01*
X69500000Y-86000000D02*
G75*
G02*
X75500000Y-86000000I3000000J0D01*
G01*
X75500000Y-168500000D02*
G75*
G02*
X69500000Y-168500000I-3000000J0D01*
G01*
X69500000Y-168500000D02*
G75*
G02*
X75500000Y-168500000I3000000J0D01*
G01*
X75500000Y-119000000D02*
G75*
G02*
X69500000Y-119000000I-3000000J0D01*
G01*
X69500000Y-119000000D02*
G75*
G02*
X75500000Y-119000000I3000000J0D01*
G01*
X75500000Y-201500000D02*
G75*
G02*
X69500000Y-201500000I-3000000J0D01*
G01*
X69500000Y-201500000D02*
G75*
G02*
X75500000Y-201500000I3000000J0D01*
G01*
X75500000Y-102500000D02*
G75*
G02*
X69500000Y-102500000I-3000000J0D01*
G01*
X69500000Y-102500000D02*
G75*
G02*
X75500000Y-102500000I3000000J0D01*
G01*
X75500000Y-185000000D02*
G75*
G02*
X69500000Y-185000000I-3000000J0D01*
G01*
X69500000Y-185000000D02*
G75*
G02*
X75500000Y-185000000I3000000J0D01*
G01*
X75500000Y-152000000D02*
G75*
G02*
X69500000Y-152000000I-3000000J0D01*
G01*
X69500000Y-152000000D02*
G75*
G02*
X75500000Y-152000000I3000000J0D01*
G01*
X75500000Y-135500000D02*
G75*
G02*
X69500000Y-135500000I-3000000J0D01*
G01*
X69500000Y-135500000D02*
G75*
G02*
X75500000Y-135500000I3000000J0D01*
G01*
X75500000Y-69500000D02*
G75*
G02*
X69500000Y-69500000I-3000000J0D01*
G01*
X69500000Y-69500000D02*
G75*
G02*
X75500000Y-69500000I3000000J0D01*
G01*
X84800000Y-53000000D02*
X84800000Y-55350000D01*
X84800000Y-53000000D02*
X84800000Y-50650000D01*
X93200000Y-53000000D02*
X93200000Y-55350000D01*
X93200000Y-53000000D02*
X93200000Y-50650000D01*
X89000000Y-57800000D02*
G75*
G02*
X84811121Y-55343778I0J4800000D01*
G01*
X93188879Y-55343778D02*
G75*
G02*
X89000000Y-57800000I-4188879J2343778D01*
G01*
X84811121Y-50656222D02*
G75*
G02*
X89000000Y-48200000I4188881J-2343781D01*
G01*
X89000000Y-48200000D02*
G75*
G02*
X93188879Y-50656222I-2J-4800003D01*
G01*
X84800000Y-86000000D02*
X84800000Y-88350000D01*
X84800000Y-86000000D02*
X84800000Y-83650000D01*
X93200000Y-86000000D02*
X93200000Y-88350000D01*
X93200000Y-86000000D02*
X93200000Y-83650000D01*
X89000000Y-90800000D02*
G75*
G02*
X84811121Y-88343778I0J4800000D01*
G01*
X93188879Y-88343778D02*
G75*
G02*
X89000000Y-90800000I-4188879J2343778D01*
G01*
X84811121Y-83656222D02*
G75*
G02*
X89000000Y-81200000I4188881J-2343781D01*
G01*
X89000000Y-81200000D02*
G75*
G02*
X93188879Y-83656222I-2J-4800003D01*
G01*
X84800000Y-201500000D02*
X84800000Y-203850000D01*
X84800000Y-201500000D02*
X84800000Y-199150000D01*
X93200000Y-201500000D02*
X93200000Y-203850000D01*
X93200000Y-201500000D02*
X93200000Y-199150000D01*
X89000000Y-206300000D02*
G75*
G02*
X84811121Y-203843778I0J4800000D01*
G01*
X93188879Y-203843778D02*
G75*
G02*
X89000000Y-206300000I-4188879J2343778D01*
G01*
X84811121Y-199156222D02*
G75*
G02*
X89000000Y-196700000I4188881J-2343781D01*
G01*
X89000000Y-196700000D02*
G75*
G02*
X93188879Y-199156222I-2J-4800003D01*
G01*
X84800000Y-102500000D02*
X84800000Y-104850000D01*
X84800000Y-102500000D02*
X84800000Y-100150000D01*
X93200000Y-102500000D02*
X93200000Y-104850000D01*
X93200000Y-102500000D02*
X93200000Y-100150000D01*
X89000000Y-107300000D02*
G75*
G02*
X84811121Y-104843778I0J4800000D01*
G01*
X93188879Y-104843778D02*
G75*
G02*
X89000000Y-107300000I-4188879J2343778D01*
G01*
X84811121Y-100156222D02*
G75*
G02*
X89000000Y-97700000I4188881J-2343781D01*
G01*
X89000000Y-97700000D02*
G75*
G02*
X93188879Y-100156222I-2J-4800003D01*
G01*
X84800000Y-135500000D02*
X84800000Y-137850000D01*
X84800000Y-135500000D02*
X84800000Y-133150000D01*
X93200000Y-135500000D02*
X93200000Y-137850000D01*
X93200000Y-135500000D02*
X93200000Y-133150000D01*
X89000000Y-140300000D02*
G75*
G02*
X84811121Y-137843778I0J4800000D01*
G01*
X93188879Y-137843778D02*
G75*
G02*
X89000000Y-140300000I-4188879J2343778D01*
G01*
X84811121Y-133156222D02*
G75*
G02*
X89000000Y-130700000I4188881J-2343781D01*
G01*
X89000000Y-130700000D02*
G75*
G02*
X93188879Y-133156222I-2J-4800003D01*
G01*
X84800000Y-152000000D02*
X84800000Y-154350000D01*
X84800000Y-152000000D02*
X84800000Y-149650000D01*
X93200000Y-152000000D02*
X93200000Y-154350000D01*
X93200000Y-152000000D02*
X93200000Y-149650000D01*
X89000000Y-156800000D02*
G75*
G02*
X84811121Y-154343778I0J4800000D01*
G01*
X93188879Y-154343778D02*
G75*
G02*
X89000000Y-156800000I-4188879J2343778D01*
G01*
X84811121Y-149656222D02*
G75*
G02*
X89000000Y-147200000I4188881J-2343781D01*
G01*
X89000000Y-147200000D02*
G75*
G02*
X93188879Y-149656222I-2J-4800003D01*
G01*
X84800000Y-119000000D02*
X84800000Y-121350000D01*
X84800000Y-119000000D02*
X84800000Y-116650000D01*
X93200000Y-119000000D02*
X93200000Y-121350000D01*
X93200000Y-119000000D02*
X93200000Y-116650000D01*
X89000000Y-123800000D02*
G75*
G02*
X84811121Y-121343778I0J4800000D01*
G01*
X93188879Y-121343778D02*
G75*
G02*
X89000000Y-123800000I-4188879J2343778D01*
G01*
X84811121Y-116656222D02*
G75*
G02*
X89000000Y-114200000I4188881J-2343781D01*
G01*
X89000000Y-114200000D02*
G75*
G02*
X93188879Y-116656222I-2J-4800003D01*
G01*
X84800000Y-168500000D02*
X84800000Y-170850000D01*
X84800000Y-168500000D02*
X84800000Y-166150000D01*
X93200000Y-168500000D02*
X93200000Y-170850000D01*
X93200000Y-168500000D02*
X93200000Y-166150000D01*
X89000000Y-173300000D02*
G75*
G02*
X84811121Y-170843778I0J4800000D01*
G01*
X93188879Y-170843778D02*
G75*
G02*
X89000000Y-173300000I-4188879J2343778D01*
G01*
X84811121Y-166156222D02*
G75*
G02*
X89000000Y-163700000I4188881J-2343781D01*
G01*
X89000000Y-163700000D02*
G75*
G02*
X93188879Y-166156222I-2J-4800003D01*
G01*
X84800000Y-185000000D02*
X84800000Y-187350000D01*
X84800000Y-185000000D02*
X84800000Y-182650000D01*
X93200000Y-185000000D02*
X93200000Y-187350000D01*
X93200000Y-185000000D02*
X93200000Y-182650000D01*
X89000000Y-189800000D02*
G75*
G02*
X84811121Y-187343778I0J4800000D01*
G01*
X93188879Y-187343778D02*
G75*
G02*
X89000000Y-189800000I-4188879J2343778D01*
G01*
X84811121Y-182656222D02*
G75*
G02*
X89000000Y-180200000I4188881J-2343781D01*
G01*
X89000000Y-180200000D02*
G75*
G02*
X93188879Y-182656222I-2J-4800003D01*
G01*
X84800000Y-69500000D02*
X84800000Y-71850000D01*
X84800000Y-69500000D02*
X84800000Y-67150000D01*
X93200000Y-69500000D02*
X93200000Y-71850000D01*
X93200000Y-69500000D02*
X93200000Y-67150000D01*
X89000000Y-74300000D02*
G75*
G02*
X84811121Y-71843778I0J4800000D01*
G01*
X93188879Y-71843778D02*
G75*
G02*
X89000000Y-74300000I-4188879J2343778D01*
G01*
X84811121Y-67156222D02*
G75*
G02*
X89000000Y-64700000I4188881J-2343781D01*
G01*
X89000000Y-64700000D02*
G75*
G02*
X93188879Y-67156222I-2J-4800003D01*
G01*
D11*
X59170000Y-87270000D02*
X61830000Y-87270000D01*
X59170000Y-87330000D02*
X59170000Y-87270000D01*
X59170000Y-87330000D02*
X61830000Y-87330000D01*
X60500000Y-84670000D02*
X61830000Y-84670000D01*
X61830000Y-84670000D02*
X61830000Y-86000000D01*
X61830000Y-87330000D02*
X61830000Y-87270000D01*
X60170000Y-191250000D02*
X62830000Y-191250000D01*
X60170000Y-209090000D02*
X60170000Y-191250000D01*
X60170000Y-209090000D02*
X62830000Y-209090000D01*
X61500000Y-188650000D02*
X62830000Y-188650000D01*
X62830000Y-188650000D02*
X62830000Y-189980000D01*
X62830000Y-209090000D02*
X62830000Y-191250000D01*
X57905000Y-65645000D02*
X60505000Y-65645000D01*
X57905000Y-73385000D02*
X57905000Y-65645000D01*
X57905000Y-73385000D02*
X63105000Y-73385000D01*
X60505000Y-65645000D02*
X60505000Y-68245000D01*
X60505000Y-68245000D02*
X63105000Y-68245000D01*
X61775000Y-65645000D02*
X63105000Y-65645000D01*
X63105000Y-65645000D02*
X63105000Y-66975000D01*
X63105000Y-73385000D02*
X63105000Y-68245000D01*
X59170000Y-54270000D02*
X61830000Y-54270000D01*
X59170000Y-54330000D02*
X59170000Y-54270000D01*
X59170000Y-54330000D02*
X61830000Y-54330000D01*
X60500000Y-51670000D02*
X61830000Y-51670000D01*
X61830000Y-51670000D02*
X61830000Y-53000000D01*
X61830000Y-54330000D02*
X61830000Y-54270000D01*
X59170000Y-169770000D02*
X61830000Y-169770000D01*
X59170000Y-169830000D02*
X59170000Y-169770000D01*
X59170000Y-169830000D02*
X61830000Y-169830000D01*
X60500000Y-167170000D02*
X61830000Y-167170000D01*
X61830000Y-167170000D02*
X61830000Y-168500000D01*
X61830000Y-169830000D02*
X61830000Y-169770000D01*
X59170000Y-153270000D02*
X61830000Y-153270000D01*
X59170000Y-153330000D02*
X59170000Y-153270000D01*
X59170000Y-153330000D02*
X61830000Y-153330000D01*
X60500000Y-150670000D02*
X61830000Y-150670000D01*
X61830000Y-150670000D02*
X61830000Y-152000000D01*
X61830000Y-153330000D02*
X61830000Y-153270000D01*
X48922500Y-180900000D02*
X58042500Y-180900000D01*
X48922500Y-209100000D02*
X48922500Y-180900000D01*
X50232500Y-182200000D02*
X56732500Y-182200000D01*
X50232500Y-207800000D02*
X50232500Y-182200000D01*
X56732500Y-182200000D02*
X56732500Y-192950000D01*
X56732500Y-192950000D02*
X58042500Y-192950000D01*
X56732500Y-197050000D02*
X56732500Y-197050000D01*
X56732500Y-197050000D02*
X56732500Y-207800000D01*
X56732500Y-207800000D02*
X50232500Y-207800000D01*
X58042500Y-180900000D02*
X58042500Y-209100000D01*
X58042500Y-197050000D02*
X56732500Y-197050000D01*
X58042500Y-209100000D02*
X48922500Y-209100000D01*
X58432500Y-186110000D02*
X59432500Y-186610000D01*
X59432500Y-185610000D02*
X58432500Y-186110000D01*
X59432500Y-186610000D02*
X59432500Y-185610000D01*
X57905000Y-131645000D02*
X60505000Y-131645000D01*
X57905000Y-139385000D02*
X57905000Y-131645000D01*
X57905000Y-139385000D02*
X63105000Y-139385000D01*
X60505000Y-131645000D02*
X60505000Y-134245000D01*
X60505000Y-134245000D02*
X63105000Y-134245000D01*
X61775000Y-131645000D02*
X63105000Y-131645000D01*
X63105000Y-131645000D02*
X63105000Y-132975000D01*
X63105000Y-139385000D02*
X63105000Y-134245000D01*
X59170000Y-120270000D02*
X61830000Y-120270000D01*
X59170000Y-120330000D02*
X59170000Y-120270000D01*
X59170000Y-120330000D02*
X61830000Y-120330000D01*
X60500000Y-117670000D02*
X61830000Y-117670000D01*
X61830000Y-117670000D02*
X61830000Y-119000000D01*
X61830000Y-120330000D02*
X61830000Y-120270000D01*
X57905000Y-98645000D02*
X60505000Y-98645000D01*
X57905000Y-106385000D02*
X57905000Y-98645000D01*
X57905000Y-106385000D02*
X63105000Y-106385000D01*
X60505000Y-98645000D02*
X60505000Y-101245000D01*
X60505000Y-101245000D02*
X63105000Y-101245000D01*
X61775000Y-98645000D02*
X63105000Y-98645000D01*
X63105000Y-98645000D02*
X63105000Y-99975000D01*
X63105000Y-106385000D02*
X63105000Y-101245000D01*
%LPC*%
D12*
X77170000Y-48330000D03*
D13*
X73060000Y-59380000D03*
D14*
X78880000Y-55400000D03*
D12*
X77170000Y-81330000D03*
D13*
X73060000Y-92380000D03*
D14*
X78880000Y-88400000D03*
D12*
X77170000Y-163830000D03*
D13*
X73060000Y-174880000D03*
D14*
X78880000Y-170900000D03*
D12*
X77170000Y-114330000D03*
D13*
X73060000Y-125380000D03*
D14*
X78880000Y-121400000D03*
D12*
X77170000Y-196830000D03*
D13*
X73060000Y-207880000D03*
D14*
X78880000Y-203900000D03*
D12*
X77170000Y-97830000D03*
D13*
X73060000Y-108880000D03*
D14*
X78880000Y-104900000D03*
D12*
X77170000Y-180330000D03*
D13*
X73060000Y-191380000D03*
D14*
X78880000Y-187400000D03*
D12*
X77170000Y-147330000D03*
D13*
X73060000Y-158380000D03*
D14*
X78880000Y-154400000D03*
D12*
X77170000Y-130830000D03*
D13*
X73060000Y-141880000D03*
D14*
X78880000Y-137900000D03*
D12*
X77170000Y-64830000D03*
D13*
X73060000Y-75880000D03*
D14*
X78880000Y-71900000D03*
D15*
X84403810Y-57596190D03*
D16*
X88500000Y-46500000D03*
D17*
X82500000Y-50500000D03*
D15*
X84403810Y-90596190D03*
D16*
X88500000Y-79500000D03*
D17*
X82500000Y-83500000D03*
D15*
X84403810Y-206096190D03*
D16*
X88500000Y-195000000D03*
D17*
X82500000Y-199000000D03*
D15*
X84403810Y-107096190D03*
D16*
X88500000Y-96000000D03*
D17*
X82500000Y-100000000D03*
D15*
X84403810Y-140096190D03*
D16*
X88500000Y-129000000D03*
D17*
X82500000Y-133000000D03*
D15*
X84403810Y-156596190D03*
D16*
X88500000Y-145500000D03*
D17*
X82500000Y-149500000D03*
D15*
X84403810Y-123596190D03*
D16*
X88500000Y-112500000D03*
D17*
X82500000Y-116500000D03*
D15*
X84403810Y-173096190D03*
D16*
X88500000Y-162000000D03*
D17*
X82500000Y-166000000D03*
D15*
X84403810Y-189596190D03*
D16*
X88500000Y-178500000D03*
D17*
X82500000Y-182500000D03*
D15*
X84403810Y-74096190D03*
D16*
X88500000Y-63000000D03*
D17*
X82500000Y-67000000D03*
D18*
X60500000Y-86000000D03*
X61500000Y-189980000D03*
D19*
X61500000Y-192520000D03*
X61500000Y-195060000D03*
X61500000Y-197600000D03*
X61500000Y-200140000D03*
X61500000Y-202680000D03*
X61500000Y-205220000D03*
X61500000Y-207760000D03*
D18*
X61775000Y-66975000D03*
D19*
X61775000Y-69515000D03*
X61775000Y-72055000D03*
X59235000Y-66975000D03*
X59235000Y-69515000D03*
X59235000Y-72055000D03*
D18*
X60500000Y-53000000D03*
X60500000Y-168500000D03*
X60500000Y-152000000D03*
D20*
X54752500Y-186110000D03*
D21*
X52212500Y-186110000D03*
X54752500Y-188650000D03*
X52212500Y-188650000D03*
X54752500Y-191190000D03*
X52212500Y-191190000D03*
X54752500Y-193730000D03*
X52212500Y-193730000D03*
X54752500Y-196270000D03*
X52212500Y-196270000D03*
X54752500Y-198810000D03*
X52212500Y-198810000D03*
X54752500Y-201350000D03*
X52212500Y-201350000D03*
X54752500Y-203890000D03*
X52212500Y-203890000D03*
D18*
X61775000Y-132975000D03*
D19*
X61775000Y-135515000D03*
X61775000Y-138055000D03*
X59235000Y-132975000D03*
X59235000Y-135515000D03*
X59235000Y-138055000D03*
D18*
X60500000Y-119000000D03*
X61775000Y-99975000D03*
D19*
X61775000Y-102515000D03*
X61775000Y-105055000D03*
X59235000Y-99975000D03*
X59235000Y-102515000D03*
X59235000Y-105055000D03*
%LPD*%
M02*
