%TF.GenerationSoftware,KiCad,Pcbnew,8.0.3*%
%TF.CreationDate,2024-06-29T16:08:03+02:00*%
%TF.ProjectId,DMH_Adapter_Mult_PCB,444d485f-4164-4617-9074-65725f4d756c,1*%
%TF.SameCoordinates,Original*%
%TF.FileFunction,Drillmap*%
%TF.FilePolarity,Positive*%
%FSLAX45Y45*%
G04 Gerber Fmt 4.5, Leading zero omitted, Abs format (unit mm)*
G04 Created by KiCad (PCBNEW 8.0.3) date 2024-06-29 16:08:03*
%MOMM*%
%LPD*%
G01*
G04 APERTURE LIST*
%ADD10C,0.050000*%
%ADD11C,0.200000*%
%ADD12C,0.100000*%
%ADD13C,0.140000*%
G04 APERTURE END LIST*
D10*
X5690000Y-13880000D02*
X5690000Y-13220000D01*
X5150000Y-7380000D02*
G75*
G02*
X5050000Y-7280000I0J100000D01*
G01*
X5250000Y-21300000D02*
G75*
G02*
X5350000Y-21200000I100000J0D01*
G01*
X5170000Y-15300000D02*
X5170000Y-15100000D01*
X5570000Y-15300000D02*
G75*
G02*
X5470000Y-15400000I-100000J0D01*
G01*
X5570000Y-8500000D02*
X5570000Y-8700000D01*
X5170000Y-11999289D02*
X5170000Y-11799289D01*
X5570000Y-5400000D02*
G75*
G02*
X5470000Y-5500000I-100000J0D01*
G01*
X5270000Y-15400000D02*
G75*
G02*
X5170000Y-15300000I0J100000D01*
G01*
X5570000Y-5200000D02*
X5570000Y-5400000D01*
X5470000Y-17050000D02*
X5270000Y-17050000D01*
X5150000Y-10680000D02*
X5590000Y-10680000D01*
X5170000Y-16950000D02*
X5170000Y-16750000D01*
X5170000Y-16750000D02*
G75*
G02*
X5270000Y-16650000I100000J0D01*
G01*
X5570000Y-15100000D02*
X5570000Y-15300000D01*
X5150000Y-10680000D02*
G75*
G02*
X5050000Y-10580000I0J100000D01*
G01*
X5270000Y-5100000D02*
X5470000Y-5100000D01*
X5170000Y-5400000D02*
X5170000Y-5200000D01*
X5470000Y-12099289D02*
X5270000Y-12099289D01*
X5270000Y-5500000D02*
G75*
G02*
X5170000Y-5400000I0J100000D01*
G01*
X9250000Y-21300000D02*
X9250000Y-21500000D01*
X5250000Y-21300000D02*
X5250000Y-21500000D01*
X5590000Y-13120000D02*
G75*
G02*
X5690000Y-13220000I0J-100000D01*
G01*
X5150000Y-13980000D02*
X5590000Y-13980000D01*
X9150000Y-21200000D02*
X5350000Y-21200000D01*
X9150000Y-21200000D02*
G75*
G02*
X9250000Y-21300000I0J-100000D01*
G01*
X9250000Y-21500000D02*
G75*
G02*
X9150000Y-21600000I-100000J0D01*
G01*
X5570000Y-16950000D02*
G75*
G02*
X5470000Y-17050000I-100000J0D01*
G01*
X4850000Y-4500000D02*
X9650000Y-4500000D01*
X9650000Y-22000000D01*
X4850000Y-22000000D01*
X4850000Y-4500000D01*
X5470000Y-11699289D02*
G75*
G02*
X5570001Y-11799289I0J-100001D01*
G01*
X5170000Y-11799289D02*
G75*
G02*
X5270000Y-11699290I100000J-1D01*
G01*
X5570000Y-11799289D02*
X5570000Y-11999289D01*
X5270000Y-11699289D02*
X5470000Y-11699289D01*
X5590000Y-9820000D02*
X5150000Y-9820000D01*
X5050000Y-13220000D02*
X5050000Y-13880000D01*
X5590000Y-6520000D02*
G75*
G02*
X5690000Y-6620000I0J-100000D01*
G01*
X5270000Y-16650000D02*
X5470000Y-16650000D01*
X5690000Y-7280000D02*
G75*
G02*
X5590000Y-7380000I-100000J0D01*
G01*
X5350000Y-21600000D02*
G75*
G02*
X5250000Y-21500000I0J100000D01*
G01*
X5150000Y-13980000D02*
G75*
G02*
X5050000Y-13880000I0J100000D01*
G01*
X5050000Y-6620000D02*
X5050000Y-7280000D01*
X5570000Y-11999289D02*
G75*
G02*
X5470000Y-12099290I-100000J-1D01*
G01*
X5470000Y-15400000D02*
X5270000Y-15400000D01*
X5170000Y-15100000D02*
G75*
G02*
X5270000Y-15000000I100000J0D01*
G01*
X5590000Y-9820000D02*
G75*
G02*
X5690000Y-9920000I0J-100000D01*
G01*
X5270000Y-17050000D02*
G75*
G02*
X5170000Y-16950000I0J100000D01*
G01*
X5470000Y-16650000D02*
G75*
G02*
X5570000Y-16750000I0J-100000D01*
G01*
X5050000Y-9920000D02*
X5050000Y-10580000D01*
X5350000Y-21600000D02*
X9150000Y-21600000D01*
X5050000Y-6620000D02*
G75*
G02*
X5150000Y-6520000I100000J0D01*
G01*
X5690000Y-10580000D02*
G75*
G02*
X5590000Y-10680000I-100000J0D01*
G01*
X5470000Y-8400000D02*
G75*
G02*
X5570000Y-8500000I0J-100000D01*
G01*
X5170000Y-5200000D02*
G75*
G02*
X5270000Y-5100000I100000J0D01*
G01*
X5270000Y-15000000D02*
X5470000Y-15000000D01*
X5170000Y-8700000D02*
X5170000Y-8500000D01*
X5270000Y-12099289D02*
G75*
G02*
X5170001Y-11999289I0J99999D01*
G01*
X5570000Y-16750000D02*
X5570000Y-16950000D01*
X5270000Y-8800000D02*
G75*
G02*
X5170000Y-8700000I0J100000D01*
G01*
X5150000Y-7380000D02*
X5590000Y-7380000D01*
X5470000Y-8800000D02*
X5270000Y-8800000D01*
X5270000Y-8400000D02*
X5470000Y-8400000D01*
X5590000Y-13120000D02*
X5150000Y-13120000D01*
X5690000Y-13880000D02*
G75*
G02*
X5590000Y-13980000I-100000J0D01*
G01*
X5470000Y-15000000D02*
G75*
G02*
X5570000Y-15100000I0J-100000D01*
G01*
X5470000Y-5500000D02*
X5270000Y-5500000D01*
X5470000Y-5100000D02*
G75*
G02*
X5570000Y-5200000I0J-100000D01*
G01*
X5170000Y-8500000D02*
G75*
G02*
X5270000Y-8400000I100000J0D01*
G01*
X5690000Y-10580000D02*
X5690000Y-9920000D01*
X5570000Y-8700000D02*
G75*
G02*
X5470000Y-8800000I-100000J0D01*
G01*
X5050000Y-13220000D02*
G75*
G02*
X5150000Y-13120000I100000J0D01*
G01*
X5590000Y-6520000D02*
X5150000Y-6520000D01*
X5050000Y-9920000D02*
G75*
G02*
X5150000Y-9820000I100000J0D01*
G01*
X5690000Y-7280000D02*
X5690000Y-6620000D01*
D11*
D12*
X5171250Y-18561000D02*
X5271250Y-18661000D01*
X5271250Y-18561000D02*
X5171250Y-18661000D01*
X5171250Y-18815000D02*
X5271250Y-18915000D01*
X5271250Y-18815000D02*
X5171250Y-18915000D01*
X5171250Y-19069000D02*
X5271250Y-19169000D01*
X5271250Y-19069000D02*
X5171250Y-19169000D01*
X5171250Y-19323000D02*
X5271250Y-19423000D01*
X5271250Y-19323000D02*
X5171250Y-19423000D01*
X5171250Y-19577000D02*
X5271250Y-19677000D01*
X5271250Y-19577000D02*
X5171250Y-19677000D01*
X5171250Y-19831000D02*
X5271250Y-19931000D01*
X5271250Y-19831000D02*
X5171250Y-19931000D01*
X5171250Y-20085000D02*
X5271250Y-20185000D01*
X5271250Y-20085000D02*
X5171250Y-20185000D01*
X5171250Y-20339000D02*
X5271250Y-20439000D01*
X5271250Y-20339000D02*
X5171250Y-20439000D01*
X5425250Y-18561000D02*
X5525250Y-18661000D01*
X5525250Y-18561000D02*
X5425250Y-18661000D01*
X5425250Y-18815000D02*
X5525250Y-18915000D01*
X5525250Y-18815000D02*
X5425250Y-18915000D01*
X5425250Y-19069000D02*
X5525250Y-19169000D01*
X5525250Y-19069000D02*
X5425250Y-19169000D01*
X5425250Y-19323000D02*
X5525250Y-19423000D01*
X5525250Y-19323000D02*
X5425250Y-19423000D01*
X5425250Y-19577000D02*
X5525250Y-19677000D01*
X5525250Y-19577000D02*
X5425250Y-19677000D01*
X5425250Y-19831000D02*
X5525250Y-19931000D01*
X5525250Y-19831000D02*
X5425250Y-19931000D01*
X5425250Y-20085000D02*
X5525250Y-20185000D01*
X5525250Y-20085000D02*
X5425250Y-20185000D01*
X5425250Y-20339000D02*
X5525250Y-20439000D01*
X5525250Y-20339000D02*
X5425250Y-20439000D01*
X5873500Y-6647500D02*
X5973500Y-6747500D01*
X5973500Y-6647500D02*
X5873500Y-6747500D01*
X5873500Y-6901500D02*
X5973500Y-7001500D01*
X5973500Y-6901500D02*
X5873500Y-7001500D01*
X5873500Y-7155500D02*
X5973500Y-7255500D01*
X5973500Y-7155500D02*
X5873500Y-7255500D01*
X5873500Y-9947500D02*
X5973500Y-10047500D01*
X5973500Y-9947500D02*
X5873500Y-10047500D01*
X5873500Y-10201500D02*
X5973500Y-10301500D01*
X5973500Y-10201500D02*
X5873500Y-10301500D01*
X5873500Y-10455500D02*
X5973500Y-10555500D01*
X5973500Y-10455500D02*
X5873500Y-10555500D01*
X5873500Y-13247500D02*
X5973500Y-13347500D01*
X5973500Y-13247500D02*
X5873500Y-13347500D01*
X5873500Y-13501500D02*
X5973500Y-13601500D01*
X5973500Y-13501500D02*
X5873500Y-13601500D01*
X5873500Y-13755500D02*
X5973500Y-13855500D01*
X5973500Y-13755500D02*
X5873500Y-13855500D01*
X6000000Y-5250000D02*
X6100000Y-5350000D01*
X6100000Y-5250000D02*
X6000000Y-5350000D01*
X6000000Y-8550000D02*
X6100000Y-8650000D01*
X6100000Y-8550000D02*
X6000000Y-8650000D01*
X6000000Y-11850000D02*
X6100000Y-11950000D01*
X6100000Y-11850000D02*
X6000000Y-11950000D01*
X6000000Y-15150000D02*
X6100000Y-15250000D01*
X6100000Y-15150000D02*
X6000000Y-15250000D01*
X6000000Y-16800000D02*
X6100000Y-16900000D01*
X6100000Y-16800000D02*
X6000000Y-16900000D01*
X6100000Y-18948000D02*
X6200000Y-19048000D01*
X6200000Y-18948000D02*
X6100000Y-19048000D01*
X6100000Y-19202000D02*
X6200000Y-19302000D01*
X6200000Y-19202000D02*
X6100000Y-19302000D01*
X6100000Y-19456000D02*
X6200000Y-19556000D01*
X6200000Y-19456000D02*
X6100000Y-19556000D01*
X6100000Y-19710000D02*
X6200000Y-19810000D01*
X6200000Y-19710000D02*
X6100000Y-19810000D01*
X6100000Y-19964000D02*
X6200000Y-20064000D01*
X6200000Y-19964000D02*
X6100000Y-20064000D01*
X6100000Y-20218000D02*
X6200000Y-20318000D01*
X6200000Y-20218000D02*
X6100000Y-20318000D01*
X6100000Y-20472000D02*
X6200000Y-20572000D01*
X6200000Y-20472000D02*
X6100000Y-20572000D01*
X6100000Y-20726000D02*
X6200000Y-20826000D01*
X6200000Y-20726000D02*
X6100000Y-20826000D01*
X6127500Y-6647500D02*
X6227500Y-6747500D01*
X6227500Y-6647500D02*
X6127500Y-6747500D01*
X6127500Y-6901500D02*
X6227500Y-7001500D01*
X6227500Y-6901500D02*
X6127500Y-7001500D01*
X6127500Y-7155500D02*
X6227500Y-7255500D01*
X6227500Y-7155500D02*
X6127500Y-7255500D01*
X6127500Y-9947500D02*
X6227500Y-10047500D01*
X6227500Y-9947500D02*
X6127500Y-10047500D01*
X6127500Y-10201500D02*
X6227500Y-10301500D01*
X6227500Y-10201500D02*
X6127500Y-10301500D01*
X6127500Y-10455500D02*
X6227500Y-10555500D01*
X6227500Y-10455500D02*
X6127500Y-10555500D01*
X6127500Y-13247500D02*
X6227500Y-13347500D01*
X6227500Y-13247500D02*
X6127500Y-13347500D01*
X6127500Y-13501500D02*
X6227500Y-13601500D01*
X6227500Y-13501500D02*
X6127500Y-13601500D01*
X6127500Y-13755500D02*
X6227500Y-13855500D01*
X6227500Y-13755500D02*
X6127500Y-13855500D01*
X8200000Y-5000000D02*
X8300000Y-5100000D01*
X8300000Y-5000000D02*
X8200000Y-5100000D01*
X8300000Y-5125000D02*
X8300000Y-4975000D01*
X8200000Y-4975000D02*
G75*
G02*
X8300000Y-4975000I50000J0D01*
G01*
X8200000Y-4975000D02*
X8200000Y-5125000D01*
X8200000Y-5125000D02*
G75*
G03*
X8300000Y-5125000I50000J0D01*
G01*
X8200000Y-6650000D02*
X8300000Y-6750000D01*
X8300000Y-6650000D02*
X8200000Y-6750000D01*
X8300000Y-6775000D02*
X8300000Y-6625000D01*
X8200000Y-6625000D02*
G75*
G02*
X8300000Y-6625000I50000J0D01*
G01*
X8200000Y-6625000D02*
X8200000Y-6775000D01*
X8200000Y-6775000D02*
G75*
G03*
X8300000Y-6775000I50000J0D01*
G01*
X8200000Y-8300000D02*
X8300000Y-8400000D01*
X8300000Y-8300000D02*
X8200000Y-8400000D01*
X8300000Y-8425000D02*
X8300000Y-8275000D01*
X8200000Y-8275000D02*
G75*
G02*
X8300000Y-8275000I50000J0D01*
G01*
X8200000Y-8275000D02*
X8200000Y-8425000D01*
X8200000Y-8425000D02*
G75*
G03*
X8300000Y-8425000I50000J0D01*
G01*
X8200000Y-9950000D02*
X8300000Y-10050000D01*
X8300000Y-9950000D02*
X8200000Y-10050000D01*
X8300000Y-10075000D02*
X8300000Y-9925000D01*
X8200000Y-9925000D02*
G75*
G02*
X8300000Y-9925000I50000J0D01*
G01*
X8200000Y-9925000D02*
X8200000Y-10075000D01*
X8200000Y-10075000D02*
G75*
G03*
X8300000Y-10075000I50000J0D01*
G01*
X8200000Y-11600000D02*
X8300000Y-11700000D01*
X8300000Y-11600000D02*
X8200000Y-11700000D01*
X8300000Y-11725000D02*
X8300000Y-11575000D01*
X8200000Y-11575000D02*
G75*
G02*
X8300000Y-11575000I50000J0D01*
G01*
X8200000Y-11575000D02*
X8200000Y-11725000D01*
X8200000Y-11725000D02*
G75*
G03*
X8300000Y-11725000I50000J0D01*
G01*
X8200000Y-13250000D02*
X8300000Y-13350000D01*
X8300000Y-13250000D02*
X8200000Y-13350000D01*
X8300000Y-13375000D02*
X8300000Y-13225000D01*
X8200000Y-13225000D02*
G75*
G02*
X8300000Y-13225000I50000J0D01*
G01*
X8200000Y-13225000D02*
X8200000Y-13375000D01*
X8200000Y-13375000D02*
G75*
G03*
X8300000Y-13375000I50000J0D01*
G01*
X8200000Y-14900000D02*
X8300000Y-15000000D01*
X8300000Y-14900000D02*
X8200000Y-15000000D01*
X8300000Y-15025000D02*
X8300000Y-14875000D01*
X8200000Y-14875000D02*
G75*
G02*
X8300000Y-14875000I50000J0D01*
G01*
X8200000Y-14875000D02*
X8200000Y-15025000D01*
X8200000Y-15025000D02*
G75*
G03*
X8300000Y-15025000I50000J0D01*
G01*
X8200000Y-16550000D02*
X8300000Y-16650000D01*
X8300000Y-16550000D02*
X8200000Y-16650000D01*
X8300000Y-16675000D02*
X8300000Y-16525000D01*
X8200000Y-16525000D02*
G75*
G02*
X8300000Y-16525000I50000J0D01*
G01*
X8200000Y-16525000D02*
X8200000Y-16675000D01*
X8200000Y-16675000D02*
G75*
G03*
X8300000Y-16675000I50000J0D01*
G01*
X8200000Y-18200000D02*
X8300000Y-18300000D01*
X8300000Y-18200000D02*
X8200000Y-18300000D01*
X8300000Y-18325000D02*
X8300000Y-18175000D01*
X8200000Y-18175000D02*
G75*
G02*
X8300000Y-18175000I50000J0D01*
G01*
X8200000Y-18175000D02*
X8200000Y-18325000D01*
X8200000Y-18325000D02*
G75*
G03*
X8300000Y-18325000I50000J0D01*
G01*
X8200000Y-19850000D02*
X8300000Y-19950000D01*
X8300000Y-19850000D02*
X8200000Y-19950000D01*
X8300000Y-19975000D02*
X8300000Y-19825000D01*
X8200000Y-19825000D02*
G75*
G02*
X8300000Y-19825000I50000J0D01*
G01*
X8200000Y-19825000D02*
X8200000Y-19975000D01*
X8200000Y-19975000D02*
G75*
G03*
X8300000Y-19975000I50000J0D01*
G01*
X8390381Y-5709619D02*
X8490381Y-5809619D01*
X8490381Y-5709619D02*
X8390381Y-5809619D01*
X8351993Y-5741941D02*
X8458059Y-5848007D01*
X8528769Y-5777297D02*
G75*
G02*
X8458059Y-5848007I-35355J-35355D01*
G01*
X8528769Y-5777297D02*
X8422703Y-5671231D01*
X8422703Y-5671231D02*
G75*
G03*
X8351993Y-5741941I-35355J-35355D01*
G01*
X8390381Y-7359619D02*
X8490381Y-7459619D01*
X8490381Y-7359619D02*
X8390381Y-7459619D01*
X8351993Y-7391941D02*
X8458059Y-7498007D01*
X8528769Y-7427297D02*
G75*
G02*
X8458059Y-7498007I-35355J-35355D01*
G01*
X8528769Y-7427297D02*
X8422703Y-7321231D01*
X8422703Y-7321231D02*
G75*
G03*
X8351993Y-7391941I-35355J-35355D01*
G01*
X8390381Y-9009619D02*
X8490381Y-9109619D01*
X8490381Y-9009619D02*
X8390381Y-9109619D01*
X8351993Y-9041941D02*
X8458059Y-9148007D01*
X8528769Y-9077297D02*
G75*
G02*
X8458059Y-9148007I-35355J-35355D01*
G01*
X8528769Y-9077297D02*
X8422703Y-8971231D01*
X8422703Y-8971231D02*
G75*
G03*
X8351993Y-9041941I-35355J-35355D01*
G01*
X8390381Y-10659619D02*
X8490381Y-10759619D01*
X8490381Y-10659619D02*
X8390381Y-10759619D01*
X8351993Y-10691941D02*
X8458059Y-10798007D01*
X8528769Y-10727297D02*
G75*
G02*
X8458059Y-10798007I-35355J-35355D01*
G01*
X8528769Y-10727297D02*
X8422703Y-10621231D01*
X8422703Y-10621231D02*
G75*
G03*
X8351993Y-10691941I-35355J-35355D01*
G01*
X8390381Y-12309619D02*
X8490381Y-12409619D01*
X8490381Y-12309619D02*
X8390381Y-12409619D01*
X8351993Y-12341941D02*
X8458059Y-12448007D01*
X8528769Y-12377297D02*
G75*
G02*
X8458059Y-12448007I-35355J-35355D01*
G01*
X8528769Y-12377297D02*
X8422703Y-12271231D01*
X8422703Y-12271231D02*
G75*
G03*
X8351993Y-12341941I-35355J-35355D01*
G01*
X8390381Y-13959619D02*
X8490381Y-14059619D01*
X8490381Y-13959619D02*
X8390381Y-14059619D01*
X8351993Y-13991941D02*
X8458059Y-14098007D01*
X8528769Y-14027297D02*
G75*
G02*
X8458059Y-14098007I-35355J-35355D01*
G01*
X8528769Y-14027297D02*
X8422703Y-13921231D01*
X8422703Y-13921231D02*
G75*
G03*
X8351993Y-13991941I-35355J-35355D01*
G01*
X8390381Y-15609619D02*
X8490381Y-15709619D01*
X8490381Y-15609619D02*
X8390381Y-15709619D01*
X8351993Y-15641941D02*
X8458059Y-15748007D01*
X8528769Y-15677297D02*
G75*
G02*
X8458059Y-15748007I-35355J-35355D01*
G01*
X8528769Y-15677297D02*
X8422703Y-15571231D01*
X8422703Y-15571231D02*
G75*
G03*
X8351993Y-15641941I-35355J-35355D01*
G01*
X8390381Y-17259619D02*
X8490381Y-17359619D01*
X8490381Y-17259619D02*
X8390381Y-17359619D01*
X8351993Y-17291941D02*
X8458059Y-17398007D01*
X8528769Y-17327297D02*
G75*
G02*
X8458059Y-17398007I-35355J-35355D01*
G01*
X8528769Y-17327297D02*
X8422703Y-17221231D01*
X8422703Y-17221231D02*
G75*
G03*
X8351993Y-17291941I-35355J-35355D01*
G01*
X8390381Y-18909619D02*
X8490381Y-19009619D01*
X8490381Y-18909619D02*
X8390381Y-19009619D01*
X8351993Y-18941941D02*
X8458059Y-19048007D01*
X8528769Y-18977297D02*
G75*
G02*
X8458059Y-19048007I-35355J-35355D01*
G01*
X8528769Y-18977297D02*
X8422703Y-18871231D01*
X8422703Y-18871231D02*
G75*
G03*
X8351993Y-18941941I-35355J-35355D01*
G01*
X8390381Y-20559619D02*
X8490381Y-20659619D01*
X8490381Y-20559619D02*
X8390381Y-20659619D01*
X8351993Y-20591941D02*
X8458059Y-20698007D01*
X8528769Y-20627297D02*
G75*
G02*
X8458059Y-20698007I-35355J-35355D01*
G01*
X8528769Y-20627297D02*
X8422703Y-20521231D01*
X8422703Y-20521231D02*
G75*
G03*
X8351993Y-20591941I-35355J-35355D01*
G01*
X8800000Y-4600000D02*
X8900000Y-4700000D01*
X8900000Y-4600000D02*
X8800000Y-4700000D01*
X8775000Y-4700000D02*
X8925000Y-4700000D01*
X8925000Y-4600000D02*
G75*
G02*
X8925000Y-4700000I0J-50000D01*
G01*
X8925000Y-4600000D02*
X8775000Y-4600000D01*
X8775000Y-4600000D02*
G75*
G03*
X8775000Y-4700000I0J-50000D01*
G01*
X8800000Y-6250000D02*
X8900000Y-6350000D01*
X8900000Y-6250000D02*
X8800000Y-6350000D01*
X8775000Y-6350000D02*
X8925000Y-6350000D01*
X8925000Y-6250000D02*
G75*
G02*
X8925000Y-6350000I0J-50000D01*
G01*
X8925000Y-6250000D02*
X8775000Y-6250000D01*
X8775000Y-6250000D02*
G75*
G03*
X8775000Y-6350000I0J-50000D01*
G01*
X8800000Y-7900000D02*
X8900000Y-8000000D01*
X8900000Y-7900000D02*
X8800000Y-8000000D01*
X8775000Y-8000000D02*
X8925000Y-8000000D01*
X8925000Y-7900000D02*
G75*
G02*
X8925000Y-8000000I0J-50000D01*
G01*
X8925000Y-7900000D02*
X8775000Y-7900000D01*
X8775000Y-7900000D02*
G75*
G03*
X8775000Y-8000000I0J-50000D01*
G01*
X8800000Y-9550000D02*
X8900000Y-9650000D01*
X8900000Y-9550000D02*
X8800000Y-9650000D01*
X8775000Y-9650000D02*
X8925000Y-9650000D01*
X8925000Y-9550000D02*
G75*
G02*
X8925000Y-9650000I0J-50000D01*
G01*
X8925000Y-9550000D02*
X8775000Y-9550000D01*
X8775000Y-9550000D02*
G75*
G03*
X8775000Y-9650000I0J-50000D01*
G01*
X8800000Y-11200000D02*
X8900000Y-11300000D01*
X8900000Y-11200000D02*
X8800000Y-11300000D01*
X8775000Y-11300000D02*
X8925000Y-11300000D01*
X8925000Y-11200000D02*
G75*
G02*
X8925000Y-11300000I0J-50000D01*
G01*
X8925000Y-11200000D02*
X8775000Y-11200000D01*
X8775000Y-11200000D02*
G75*
G03*
X8775000Y-11300000I0J-50000D01*
G01*
X8800000Y-12850000D02*
X8900000Y-12950000D01*
X8900000Y-12850000D02*
X8800000Y-12950000D01*
X8775000Y-12950000D02*
X8925000Y-12950000D01*
X8925000Y-12850000D02*
G75*
G02*
X8925000Y-12950000I0J-50000D01*
G01*
X8925000Y-12850000D02*
X8775000Y-12850000D01*
X8775000Y-12850000D02*
G75*
G03*
X8775000Y-12950000I0J-50000D01*
G01*
X8800000Y-14500000D02*
X8900000Y-14600000D01*
X8900000Y-14500000D02*
X8800000Y-14600000D01*
X8775000Y-14600000D02*
X8925000Y-14600000D01*
X8925000Y-14500000D02*
G75*
G02*
X8925000Y-14600000I0J-50000D01*
G01*
X8925000Y-14500000D02*
X8775000Y-14500000D01*
X8775000Y-14500000D02*
G75*
G03*
X8775000Y-14600000I0J-50000D01*
G01*
X8800000Y-16150000D02*
X8900000Y-16250000D01*
X8900000Y-16150000D02*
X8800000Y-16250000D01*
X8775000Y-16250000D02*
X8925000Y-16250000D01*
X8925000Y-16150000D02*
G75*
G02*
X8925000Y-16250000I0J-50000D01*
G01*
X8925000Y-16150000D02*
X8775000Y-16150000D01*
X8775000Y-16150000D02*
G75*
G03*
X8775000Y-16250000I0J-50000D01*
G01*
X8800000Y-17800000D02*
X8900000Y-17900000D01*
X8900000Y-17800000D02*
X8800000Y-17900000D01*
X8775000Y-17900000D02*
X8925000Y-17900000D01*
X8925000Y-17800000D02*
G75*
G02*
X8925000Y-17900000I0J-50000D01*
G01*
X8925000Y-17800000D02*
X8775000Y-17800000D01*
X8775000Y-17800000D02*
G75*
G03*
X8775000Y-17900000I0J-50000D01*
G01*
X8800000Y-19450000D02*
X8900000Y-19550000D01*
X8900000Y-19450000D02*
X8800000Y-19550000D01*
X8775000Y-19550000D02*
X8925000Y-19550000D01*
X8925000Y-19450000D02*
G75*
G02*
X8925000Y-19550000I0J-50000D01*
G01*
X8925000Y-19450000D02*
X8775000Y-19450000D01*
X8775000Y-19450000D02*
G75*
G03*
X8775000Y-19550000I0J-50000D01*
G01*
D13*
X7958000Y-5540000D02*
G75*
G02*
X7818000Y-5540000I-70000J0D01*
G01*
X7818000Y-5540000D02*
G75*
G02*
X7958000Y-5540000I70000J0D01*
G01*
X7958000Y-7190000D02*
G75*
G02*
X7818000Y-7190000I-70000J0D01*
G01*
X7818000Y-7190000D02*
G75*
G02*
X7958000Y-7190000I70000J0D01*
G01*
X7958000Y-8840000D02*
G75*
G02*
X7818000Y-8840000I-70000J0D01*
G01*
X7818000Y-8840000D02*
G75*
G02*
X7958000Y-8840000I70000J0D01*
G01*
X7958000Y-10490000D02*
G75*
G02*
X7818000Y-10490000I-70000J0D01*
G01*
X7818000Y-10490000D02*
G75*
G02*
X7958000Y-10490000I70000J0D01*
G01*
X7958000Y-12140000D02*
G75*
G02*
X7818000Y-12140000I-70000J0D01*
G01*
X7818000Y-12140000D02*
G75*
G02*
X7958000Y-12140000I70000J0D01*
G01*
X7958000Y-13790000D02*
G75*
G02*
X7818000Y-13790000I-70000J0D01*
G01*
X7818000Y-13790000D02*
G75*
G02*
X7958000Y-13790000I70000J0D01*
G01*
X7958000Y-15440000D02*
G75*
G02*
X7818000Y-15440000I-70000J0D01*
G01*
X7818000Y-15440000D02*
G75*
G02*
X7958000Y-15440000I70000J0D01*
G01*
X7958000Y-17090000D02*
G75*
G02*
X7818000Y-17090000I-70000J0D01*
G01*
X7818000Y-17090000D02*
G75*
G02*
X7958000Y-17090000I70000J0D01*
G01*
X7958000Y-18740000D02*
G75*
G02*
X7818000Y-18740000I-70000J0D01*
G01*
X7818000Y-18740000D02*
G75*
G02*
X7958000Y-18740000I70000J0D01*
G01*
X7958000Y-20390000D02*
G75*
G02*
X7818000Y-20390000I-70000J0D01*
G01*
X7818000Y-20390000D02*
G75*
G02*
X7958000Y-20390000I70000J0D01*
G01*
D11*
X7306000Y-5838000D02*
X7306000Y-6038000D01*
X7206000Y-5938000D02*
X7406000Y-5938000D01*
X7306000Y-7488000D02*
X7306000Y-7688000D01*
X7206000Y-7588000D02*
X7406000Y-7588000D01*
X7306000Y-9138000D02*
X7306000Y-9338000D01*
X7206000Y-9238000D02*
X7406000Y-9238000D01*
X7306000Y-10788000D02*
X7306000Y-10988000D01*
X7206000Y-10888000D02*
X7406000Y-10888000D01*
X7306000Y-12438000D02*
X7306000Y-12638000D01*
X7206000Y-12538000D02*
X7406000Y-12538000D01*
X7306000Y-14088000D02*
X7306000Y-14288000D01*
X7206000Y-14188000D02*
X7406000Y-14188000D01*
X7306000Y-15738000D02*
X7306000Y-15938000D01*
X7206000Y-15838000D02*
X7406000Y-15838000D01*
X7306000Y-17388000D02*
X7306000Y-17588000D01*
X7206000Y-17488000D02*
X7406000Y-17488000D01*
X7306000Y-19038000D02*
X7306000Y-19238000D01*
X7206000Y-19138000D02*
X7406000Y-19138000D01*
X7306000Y-20688000D02*
X7306000Y-20888000D01*
X7206000Y-20788000D02*
X7406000Y-20788000D01*
X7717000Y-4733000D02*
X7717000Y-4933000D01*
X7617000Y-4833000D02*
X7817000Y-4833000D01*
X7717000Y-6383000D02*
X7717000Y-6583000D01*
X7617000Y-6483000D02*
X7817000Y-6483000D01*
X7717000Y-8033000D02*
X7717000Y-8233000D01*
X7617000Y-8133000D02*
X7817000Y-8133000D01*
X7717000Y-9683000D02*
X7717000Y-9883000D01*
X7617000Y-9783000D02*
X7817000Y-9783000D01*
X7717000Y-11333000D02*
X7717000Y-11533000D01*
X7617000Y-11433000D02*
X7817000Y-11433000D01*
X7717000Y-12983000D02*
X7717000Y-13183000D01*
X7617000Y-13083000D02*
X7817000Y-13083000D01*
X7717000Y-14633000D02*
X7717000Y-14833000D01*
X7617000Y-14733000D02*
X7817000Y-14733000D01*
X7717000Y-16283000D02*
X7717000Y-16483000D01*
X7617000Y-16383000D02*
X7817000Y-16383000D01*
X7717000Y-17933000D02*
X7717000Y-18133000D01*
X7617000Y-18033000D02*
X7817000Y-18033000D01*
X7717000Y-19583000D02*
X7717000Y-19783000D01*
X7617000Y-19683000D02*
X7817000Y-19683000D01*
X5108277Y-22313984D02*
X5108277Y-22113984D01*
X5108277Y-22113984D02*
X5155896Y-22113984D01*
X5155896Y-22113984D02*
X5184467Y-22123508D01*
X5184467Y-22123508D02*
X5203515Y-22142555D01*
X5203515Y-22142555D02*
X5213039Y-22161603D01*
X5213039Y-22161603D02*
X5222563Y-22199698D01*
X5222563Y-22199698D02*
X5222563Y-22228270D01*
X5222563Y-22228270D02*
X5213039Y-22266365D01*
X5213039Y-22266365D02*
X5203515Y-22285412D01*
X5203515Y-22285412D02*
X5184467Y-22304460D01*
X5184467Y-22304460D02*
X5155896Y-22313984D01*
X5155896Y-22313984D02*
X5108277Y-22313984D01*
X5308277Y-22313984D02*
X5308277Y-22180650D01*
X5308277Y-22218746D02*
X5317801Y-22199698D01*
X5317801Y-22199698D02*
X5327324Y-22190174D01*
X5327324Y-22190174D02*
X5346372Y-22180650D01*
X5346372Y-22180650D02*
X5365420Y-22180650D01*
X5432086Y-22313984D02*
X5432086Y-22180650D01*
X5432086Y-22113984D02*
X5422563Y-22123508D01*
X5422563Y-22123508D02*
X5432086Y-22133031D01*
X5432086Y-22133031D02*
X5441610Y-22123508D01*
X5441610Y-22123508D02*
X5432086Y-22113984D01*
X5432086Y-22113984D02*
X5432086Y-22133031D01*
X5555896Y-22313984D02*
X5536848Y-22304460D01*
X5536848Y-22304460D02*
X5527324Y-22285412D01*
X5527324Y-22285412D02*
X5527324Y-22113984D01*
X5660658Y-22313984D02*
X5641610Y-22304460D01*
X5641610Y-22304460D02*
X5632086Y-22285412D01*
X5632086Y-22285412D02*
X5632086Y-22113984D01*
X5889229Y-22313984D02*
X5889229Y-22113984D01*
X5889229Y-22113984D02*
X5955896Y-22256841D01*
X5955896Y-22256841D02*
X6022562Y-22113984D01*
X6022562Y-22113984D02*
X6022562Y-22313984D01*
X6203515Y-22313984D02*
X6203515Y-22209222D01*
X6203515Y-22209222D02*
X6193991Y-22190174D01*
X6193991Y-22190174D02*
X6174943Y-22180650D01*
X6174943Y-22180650D02*
X6136848Y-22180650D01*
X6136848Y-22180650D02*
X6117801Y-22190174D01*
X6203515Y-22304460D02*
X6184467Y-22313984D01*
X6184467Y-22313984D02*
X6136848Y-22313984D01*
X6136848Y-22313984D02*
X6117801Y-22304460D01*
X6117801Y-22304460D02*
X6108277Y-22285412D01*
X6108277Y-22285412D02*
X6108277Y-22266365D01*
X6108277Y-22266365D02*
X6117801Y-22247317D01*
X6117801Y-22247317D02*
X6136848Y-22237793D01*
X6136848Y-22237793D02*
X6184467Y-22237793D01*
X6184467Y-22237793D02*
X6203515Y-22228270D01*
X6298753Y-22180650D02*
X6298753Y-22380650D01*
X6298753Y-22190174D02*
X6317801Y-22180650D01*
X6317801Y-22180650D02*
X6355896Y-22180650D01*
X6355896Y-22180650D02*
X6374943Y-22190174D01*
X6374943Y-22190174D02*
X6384467Y-22199698D01*
X6384467Y-22199698D02*
X6393991Y-22218746D01*
X6393991Y-22218746D02*
X6393991Y-22275889D01*
X6393991Y-22275889D02*
X6384467Y-22294936D01*
X6384467Y-22294936D02*
X6374943Y-22304460D01*
X6374943Y-22304460D02*
X6355896Y-22313984D01*
X6355896Y-22313984D02*
X6317801Y-22313984D01*
X6317801Y-22313984D02*
X6298753Y-22304460D01*
X6479705Y-22294936D02*
X6489229Y-22304460D01*
X6489229Y-22304460D02*
X6479705Y-22313984D01*
X6479705Y-22313984D02*
X6470182Y-22304460D01*
X6470182Y-22304460D02*
X6479705Y-22294936D01*
X6479705Y-22294936D02*
X6479705Y-22313984D01*
X6479705Y-22190174D02*
X6489229Y-22199698D01*
X6489229Y-22199698D02*
X6479705Y-22209222D01*
X6479705Y-22209222D02*
X6470182Y-22199698D01*
X6470182Y-22199698D02*
X6479705Y-22190174D01*
X6479705Y-22190174D02*
X6479705Y-22209222D01*
D12*
X4747500Y-22592500D02*
X4847500Y-22692500D01*
X4847500Y-22592500D02*
X4747500Y-22692500D01*
D11*
X5213039Y-22733984D02*
X5098753Y-22733984D01*
X5155896Y-22733984D02*
X5155896Y-22533984D01*
X5155896Y-22533984D02*
X5136848Y-22562555D01*
X5136848Y-22562555D02*
X5117801Y-22581603D01*
X5117801Y-22581603D02*
X5098753Y-22591127D01*
X5298753Y-22714936D02*
X5308277Y-22724460D01*
X5308277Y-22724460D02*
X5298753Y-22733984D01*
X5298753Y-22733984D02*
X5289229Y-22724460D01*
X5289229Y-22724460D02*
X5298753Y-22714936D01*
X5298753Y-22714936D02*
X5298753Y-22733984D01*
X5432086Y-22533984D02*
X5451134Y-22533984D01*
X5451134Y-22533984D02*
X5470182Y-22543508D01*
X5470182Y-22543508D02*
X5479705Y-22553031D01*
X5479705Y-22553031D02*
X5489229Y-22572079D01*
X5489229Y-22572079D02*
X5498753Y-22610174D01*
X5498753Y-22610174D02*
X5498753Y-22657793D01*
X5498753Y-22657793D02*
X5489229Y-22695888D01*
X5489229Y-22695888D02*
X5479705Y-22714936D01*
X5479705Y-22714936D02*
X5470182Y-22724460D01*
X5470182Y-22724460D02*
X5451134Y-22733984D01*
X5451134Y-22733984D02*
X5432086Y-22733984D01*
X5432086Y-22733984D02*
X5413039Y-22724460D01*
X5413039Y-22724460D02*
X5403515Y-22714936D01*
X5403515Y-22714936D02*
X5393991Y-22695888D01*
X5393991Y-22695888D02*
X5384467Y-22657793D01*
X5384467Y-22657793D02*
X5384467Y-22610174D01*
X5384467Y-22610174D02*
X5393991Y-22572079D01*
X5393991Y-22572079D02*
X5403515Y-22553031D01*
X5403515Y-22553031D02*
X5413039Y-22543508D01*
X5413039Y-22543508D02*
X5432086Y-22533984D01*
X5622562Y-22533984D02*
X5641610Y-22533984D01*
X5641610Y-22533984D02*
X5660658Y-22543508D01*
X5660658Y-22543508D02*
X5670182Y-22553031D01*
X5670182Y-22553031D02*
X5679705Y-22572079D01*
X5679705Y-22572079D02*
X5689229Y-22610174D01*
X5689229Y-22610174D02*
X5689229Y-22657793D01*
X5689229Y-22657793D02*
X5679705Y-22695888D01*
X5679705Y-22695888D02*
X5670182Y-22714936D01*
X5670182Y-22714936D02*
X5660658Y-22724460D01*
X5660658Y-22724460D02*
X5641610Y-22733984D01*
X5641610Y-22733984D02*
X5622562Y-22733984D01*
X5622562Y-22733984D02*
X5603515Y-22724460D01*
X5603515Y-22724460D02*
X5593991Y-22714936D01*
X5593991Y-22714936D02*
X5584467Y-22695888D01*
X5584467Y-22695888D02*
X5574944Y-22657793D01*
X5574944Y-22657793D02*
X5574944Y-22610174D01*
X5574944Y-22610174D02*
X5584467Y-22572079D01*
X5584467Y-22572079D02*
X5593991Y-22553031D01*
X5593991Y-22553031D02*
X5603515Y-22543508D01*
X5603515Y-22543508D02*
X5622562Y-22533984D01*
X5813039Y-22533984D02*
X5832086Y-22533984D01*
X5832086Y-22533984D02*
X5851134Y-22543508D01*
X5851134Y-22543508D02*
X5860658Y-22553031D01*
X5860658Y-22553031D02*
X5870182Y-22572079D01*
X5870182Y-22572079D02*
X5879705Y-22610174D01*
X5879705Y-22610174D02*
X5879705Y-22657793D01*
X5879705Y-22657793D02*
X5870182Y-22695888D01*
X5870182Y-22695888D02*
X5860658Y-22714936D01*
X5860658Y-22714936D02*
X5851134Y-22724460D01*
X5851134Y-22724460D02*
X5832086Y-22733984D01*
X5832086Y-22733984D02*
X5813039Y-22733984D01*
X5813039Y-22733984D02*
X5793991Y-22724460D01*
X5793991Y-22724460D02*
X5784467Y-22714936D01*
X5784467Y-22714936D02*
X5774943Y-22695888D01*
X5774943Y-22695888D02*
X5765420Y-22657793D01*
X5765420Y-22657793D02*
X5765420Y-22610174D01*
X5765420Y-22610174D02*
X5774943Y-22572079D01*
X5774943Y-22572079D02*
X5784467Y-22553031D01*
X5784467Y-22553031D02*
X5793991Y-22543508D01*
X5793991Y-22543508D02*
X5813039Y-22533984D01*
X5965420Y-22733984D02*
X5965420Y-22600650D01*
X5965420Y-22619698D02*
X5974943Y-22610174D01*
X5974943Y-22610174D02*
X5993991Y-22600650D01*
X5993991Y-22600650D02*
X6022563Y-22600650D01*
X6022563Y-22600650D02*
X6041610Y-22610174D01*
X6041610Y-22610174D02*
X6051134Y-22629222D01*
X6051134Y-22629222D02*
X6051134Y-22733984D01*
X6051134Y-22629222D02*
X6060658Y-22610174D01*
X6060658Y-22610174D02*
X6079705Y-22600650D01*
X6079705Y-22600650D02*
X6108277Y-22600650D01*
X6108277Y-22600650D02*
X6127324Y-22610174D01*
X6127324Y-22610174D02*
X6136848Y-22629222D01*
X6136848Y-22629222D02*
X6136848Y-22733984D01*
X6232086Y-22733984D02*
X6232086Y-22600650D01*
X6232086Y-22619698D02*
X6241610Y-22610174D01*
X6241610Y-22610174D02*
X6260658Y-22600650D01*
X6260658Y-22600650D02*
X6289229Y-22600650D01*
X6289229Y-22600650D02*
X6308277Y-22610174D01*
X6308277Y-22610174D02*
X6317801Y-22629222D01*
X6317801Y-22629222D02*
X6317801Y-22733984D01*
X6317801Y-22629222D02*
X6327324Y-22610174D01*
X6327324Y-22610174D02*
X6346372Y-22600650D01*
X6346372Y-22600650D02*
X6374943Y-22600650D01*
X6374943Y-22600650D02*
X6393991Y-22610174D01*
X6393991Y-22610174D02*
X6403515Y-22629222D01*
X6403515Y-22629222D02*
X6403515Y-22733984D01*
X6793991Y-22524460D02*
X6622563Y-22781603D01*
X7051134Y-22533984D02*
X7070182Y-22533984D01*
X7070182Y-22533984D02*
X7089229Y-22543508D01*
X7089229Y-22543508D02*
X7098753Y-22553031D01*
X7098753Y-22553031D02*
X7108277Y-22572079D01*
X7108277Y-22572079D02*
X7117801Y-22610174D01*
X7117801Y-22610174D02*
X7117801Y-22657793D01*
X7117801Y-22657793D02*
X7108277Y-22695888D01*
X7108277Y-22695888D02*
X7098753Y-22714936D01*
X7098753Y-22714936D02*
X7089229Y-22724460D01*
X7089229Y-22724460D02*
X7070182Y-22733984D01*
X7070182Y-22733984D02*
X7051134Y-22733984D01*
X7051134Y-22733984D02*
X7032086Y-22724460D01*
X7032086Y-22724460D02*
X7022563Y-22714936D01*
X7022563Y-22714936D02*
X7013039Y-22695888D01*
X7013039Y-22695888D02*
X7003515Y-22657793D01*
X7003515Y-22657793D02*
X7003515Y-22610174D01*
X7003515Y-22610174D02*
X7013039Y-22572079D01*
X7013039Y-22572079D02*
X7022563Y-22553031D01*
X7022563Y-22553031D02*
X7032086Y-22543508D01*
X7032086Y-22543508D02*
X7051134Y-22533984D01*
X7203515Y-22714936D02*
X7213039Y-22724460D01*
X7213039Y-22724460D02*
X7203515Y-22733984D01*
X7203515Y-22733984D02*
X7193991Y-22724460D01*
X7193991Y-22724460D02*
X7203515Y-22714936D01*
X7203515Y-22714936D02*
X7203515Y-22733984D01*
X7336848Y-22533984D02*
X7355896Y-22533984D01*
X7355896Y-22533984D02*
X7374944Y-22543508D01*
X7374944Y-22543508D02*
X7384467Y-22553031D01*
X7384467Y-22553031D02*
X7393991Y-22572079D01*
X7393991Y-22572079D02*
X7403515Y-22610174D01*
X7403515Y-22610174D02*
X7403515Y-22657793D01*
X7403515Y-22657793D02*
X7393991Y-22695888D01*
X7393991Y-22695888D02*
X7384467Y-22714936D01*
X7384467Y-22714936D02*
X7374944Y-22724460D01*
X7374944Y-22724460D02*
X7355896Y-22733984D01*
X7355896Y-22733984D02*
X7336848Y-22733984D01*
X7336848Y-22733984D02*
X7317801Y-22724460D01*
X7317801Y-22724460D02*
X7308277Y-22714936D01*
X7308277Y-22714936D02*
X7298753Y-22695888D01*
X7298753Y-22695888D02*
X7289229Y-22657793D01*
X7289229Y-22657793D02*
X7289229Y-22610174D01*
X7289229Y-22610174D02*
X7298753Y-22572079D01*
X7298753Y-22572079D02*
X7308277Y-22553031D01*
X7308277Y-22553031D02*
X7317801Y-22543508D01*
X7317801Y-22543508D02*
X7336848Y-22533984D01*
X7470182Y-22533984D02*
X7593991Y-22533984D01*
X7593991Y-22533984D02*
X7527325Y-22610174D01*
X7527325Y-22610174D02*
X7555896Y-22610174D01*
X7555896Y-22610174D02*
X7574944Y-22619698D01*
X7574944Y-22619698D02*
X7584467Y-22629222D01*
X7584467Y-22629222D02*
X7593991Y-22648269D01*
X7593991Y-22648269D02*
X7593991Y-22695888D01*
X7593991Y-22695888D02*
X7584467Y-22714936D01*
X7584467Y-22714936D02*
X7574944Y-22724460D01*
X7574944Y-22724460D02*
X7555896Y-22733984D01*
X7555896Y-22733984D02*
X7498753Y-22733984D01*
X7498753Y-22733984D02*
X7479706Y-22724460D01*
X7479706Y-22724460D02*
X7470182Y-22714936D01*
X7689229Y-22733984D02*
X7727325Y-22733984D01*
X7727325Y-22733984D02*
X7746372Y-22724460D01*
X7746372Y-22724460D02*
X7755896Y-22714936D01*
X7755896Y-22714936D02*
X7774944Y-22686365D01*
X7774944Y-22686365D02*
X7784467Y-22648269D01*
X7784467Y-22648269D02*
X7784467Y-22572079D01*
X7784467Y-22572079D02*
X7774944Y-22553031D01*
X7774944Y-22553031D02*
X7765420Y-22543508D01*
X7765420Y-22543508D02*
X7746372Y-22533984D01*
X7746372Y-22533984D02*
X7708277Y-22533984D01*
X7708277Y-22533984D02*
X7689229Y-22543508D01*
X7689229Y-22543508D02*
X7679706Y-22553031D01*
X7679706Y-22553031D02*
X7670182Y-22572079D01*
X7670182Y-22572079D02*
X7670182Y-22619698D01*
X7670182Y-22619698D02*
X7679706Y-22638746D01*
X7679706Y-22638746D02*
X7689229Y-22648269D01*
X7689229Y-22648269D02*
X7708277Y-22657793D01*
X7708277Y-22657793D02*
X7746372Y-22657793D01*
X7746372Y-22657793D02*
X7765420Y-22648269D01*
X7765420Y-22648269D02*
X7774944Y-22638746D01*
X7774944Y-22638746D02*
X7784467Y-22619698D01*
X7955896Y-22600650D02*
X7955896Y-22733984D01*
X7908277Y-22524460D02*
X7860658Y-22667317D01*
X7860658Y-22667317D02*
X7984467Y-22667317D01*
X8051134Y-22533984D02*
X8051134Y-22572079D01*
X8127325Y-22533984D02*
X8127325Y-22572079D01*
X8422563Y-22810174D02*
X8413039Y-22800650D01*
X8413039Y-22800650D02*
X8393991Y-22772079D01*
X8393991Y-22772079D02*
X8384468Y-22753031D01*
X8384468Y-22753031D02*
X8374944Y-22724460D01*
X8374944Y-22724460D02*
X8365420Y-22676841D01*
X8365420Y-22676841D02*
X8365420Y-22638746D01*
X8365420Y-22638746D02*
X8374944Y-22591127D01*
X8374944Y-22591127D02*
X8384468Y-22562555D01*
X8384468Y-22562555D02*
X8393991Y-22543508D01*
X8393991Y-22543508D02*
X8413039Y-22514936D01*
X8413039Y-22514936D02*
X8422563Y-22505412D01*
X8584468Y-22600650D02*
X8584468Y-22733984D01*
X8536849Y-22524460D02*
X8489230Y-22667317D01*
X8489230Y-22667317D02*
X8613039Y-22667317D01*
X8670182Y-22533984D02*
X8803515Y-22533984D01*
X8803515Y-22533984D02*
X8717801Y-22733984D01*
X9032087Y-22733984D02*
X9032087Y-22533984D01*
X9117801Y-22733984D02*
X9117801Y-22629222D01*
X9117801Y-22629222D02*
X9108277Y-22610174D01*
X9108277Y-22610174D02*
X9089230Y-22600650D01*
X9089230Y-22600650D02*
X9060658Y-22600650D01*
X9060658Y-22600650D02*
X9041611Y-22610174D01*
X9041611Y-22610174D02*
X9032087Y-22619698D01*
X9241611Y-22733984D02*
X9222563Y-22724460D01*
X9222563Y-22724460D02*
X9213039Y-22714936D01*
X9213039Y-22714936D02*
X9203515Y-22695888D01*
X9203515Y-22695888D02*
X9203515Y-22638746D01*
X9203515Y-22638746D02*
X9213039Y-22619698D01*
X9213039Y-22619698D02*
X9222563Y-22610174D01*
X9222563Y-22610174D02*
X9241611Y-22600650D01*
X9241611Y-22600650D02*
X9270182Y-22600650D01*
X9270182Y-22600650D02*
X9289230Y-22610174D01*
X9289230Y-22610174D02*
X9298753Y-22619698D01*
X9298753Y-22619698D02*
X9308277Y-22638746D01*
X9308277Y-22638746D02*
X9308277Y-22695888D01*
X9308277Y-22695888D02*
X9298753Y-22714936D01*
X9298753Y-22714936D02*
X9289230Y-22724460D01*
X9289230Y-22724460D02*
X9270182Y-22733984D01*
X9270182Y-22733984D02*
X9241611Y-22733984D01*
X9422563Y-22733984D02*
X9403515Y-22724460D01*
X9403515Y-22724460D02*
X9393992Y-22705412D01*
X9393992Y-22705412D02*
X9393992Y-22533984D01*
X9574944Y-22724460D02*
X9555896Y-22733984D01*
X9555896Y-22733984D02*
X9517801Y-22733984D01*
X9517801Y-22733984D02*
X9498753Y-22724460D01*
X9498753Y-22724460D02*
X9489230Y-22705412D01*
X9489230Y-22705412D02*
X9489230Y-22629222D01*
X9489230Y-22629222D02*
X9498753Y-22610174D01*
X9498753Y-22610174D02*
X9517801Y-22600650D01*
X9517801Y-22600650D02*
X9555896Y-22600650D01*
X9555896Y-22600650D02*
X9574944Y-22610174D01*
X9574944Y-22610174D02*
X9584468Y-22629222D01*
X9584468Y-22629222D02*
X9584468Y-22648269D01*
X9584468Y-22648269D02*
X9489230Y-22667317D01*
X9660658Y-22724460D02*
X9679706Y-22733984D01*
X9679706Y-22733984D02*
X9717801Y-22733984D01*
X9717801Y-22733984D02*
X9736849Y-22724460D01*
X9736849Y-22724460D02*
X9746373Y-22705412D01*
X9746373Y-22705412D02*
X9746373Y-22695888D01*
X9746373Y-22695888D02*
X9736849Y-22676841D01*
X9736849Y-22676841D02*
X9717801Y-22667317D01*
X9717801Y-22667317D02*
X9689230Y-22667317D01*
X9689230Y-22667317D02*
X9670182Y-22657793D01*
X9670182Y-22657793D02*
X9660658Y-22638746D01*
X9660658Y-22638746D02*
X9660658Y-22629222D01*
X9660658Y-22629222D02*
X9670182Y-22610174D01*
X9670182Y-22610174D02*
X9689230Y-22600650D01*
X9689230Y-22600650D02*
X9717801Y-22600650D01*
X9717801Y-22600650D02*
X9736849Y-22610174D01*
X9984468Y-22657793D02*
X10136849Y-22657793D01*
X10060658Y-22733984D02*
X10060658Y-22581603D01*
X10365420Y-22533984D02*
X10489230Y-22533984D01*
X10489230Y-22533984D02*
X10422563Y-22610174D01*
X10422563Y-22610174D02*
X10451135Y-22610174D01*
X10451135Y-22610174D02*
X10470182Y-22619698D01*
X10470182Y-22619698D02*
X10479706Y-22629222D01*
X10479706Y-22629222D02*
X10489230Y-22648269D01*
X10489230Y-22648269D02*
X10489230Y-22695888D01*
X10489230Y-22695888D02*
X10479706Y-22714936D01*
X10479706Y-22714936D02*
X10470182Y-22724460D01*
X10470182Y-22724460D02*
X10451135Y-22733984D01*
X10451135Y-22733984D02*
X10393992Y-22733984D01*
X10393992Y-22733984D02*
X10374944Y-22724460D01*
X10374944Y-22724460D02*
X10365420Y-22714936D01*
X10613039Y-22533984D02*
X10632087Y-22533984D01*
X10632087Y-22533984D02*
X10651135Y-22543508D01*
X10651135Y-22543508D02*
X10660658Y-22553031D01*
X10660658Y-22553031D02*
X10670182Y-22572079D01*
X10670182Y-22572079D02*
X10679706Y-22610174D01*
X10679706Y-22610174D02*
X10679706Y-22657793D01*
X10679706Y-22657793D02*
X10670182Y-22695888D01*
X10670182Y-22695888D02*
X10660658Y-22714936D01*
X10660658Y-22714936D02*
X10651135Y-22724460D01*
X10651135Y-22724460D02*
X10632087Y-22733984D01*
X10632087Y-22733984D02*
X10613039Y-22733984D01*
X10613039Y-22733984D02*
X10593992Y-22724460D01*
X10593992Y-22724460D02*
X10584468Y-22714936D01*
X10584468Y-22714936D02*
X10574944Y-22695888D01*
X10574944Y-22695888D02*
X10565420Y-22657793D01*
X10565420Y-22657793D02*
X10565420Y-22610174D01*
X10565420Y-22610174D02*
X10574944Y-22572079D01*
X10574944Y-22572079D02*
X10584468Y-22553031D01*
X10584468Y-22553031D02*
X10593992Y-22543508D01*
X10593992Y-22543508D02*
X10613039Y-22533984D01*
X10908277Y-22724460D02*
X10927325Y-22733984D01*
X10927325Y-22733984D02*
X10965420Y-22733984D01*
X10965420Y-22733984D02*
X10984468Y-22724460D01*
X10984468Y-22724460D02*
X10993992Y-22705412D01*
X10993992Y-22705412D02*
X10993992Y-22695888D01*
X10993992Y-22695888D02*
X10984468Y-22676841D01*
X10984468Y-22676841D02*
X10965420Y-22667317D01*
X10965420Y-22667317D02*
X10936849Y-22667317D01*
X10936849Y-22667317D02*
X10917801Y-22657793D01*
X10917801Y-22657793D02*
X10908277Y-22638746D01*
X10908277Y-22638746D02*
X10908277Y-22629222D01*
X10908277Y-22629222D02*
X10917801Y-22610174D01*
X10917801Y-22610174D02*
X10936849Y-22600650D01*
X10936849Y-22600650D02*
X10965420Y-22600650D01*
X10965420Y-22600650D02*
X10984468Y-22610174D01*
X11108277Y-22733984D02*
X11089230Y-22724460D01*
X11089230Y-22724460D02*
X11079706Y-22705412D01*
X11079706Y-22705412D02*
X11079706Y-22533984D01*
X11213039Y-22733984D02*
X11193992Y-22724460D01*
X11193992Y-22724460D02*
X11184468Y-22714936D01*
X11184468Y-22714936D02*
X11174944Y-22695888D01*
X11174944Y-22695888D02*
X11174944Y-22638746D01*
X11174944Y-22638746D02*
X11184468Y-22619698D01*
X11184468Y-22619698D02*
X11193992Y-22610174D01*
X11193992Y-22610174D02*
X11213039Y-22600650D01*
X11213039Y-22600650D02*
X11241611Y-22600650D01*
X11241611Y-22600650D02*
X11260658Y-22610174D01*
X11260658Y-22610174D02*
X11270182Y-22619698D01*
X11270182Y-22619698D02*
X11279706Y-22638746D01*
X11279706Y-22638746D02*
X11279706Y-22695888D01*
X11279706Y-22695888D02*
X11270182Y-22714936D01*
X11270182Y-22714936D02*
X11260658Y-22724460D01*
X11260658Y-22724460D02*
X11241611Y-22733984D01*
X11241611Y-22733984D02*
X11213039Y-22733984D01*
X11336849Y-22600650D02*
X11413039Y-22600650D01*
X11365420Y-22533984D02*
X11365420Y-22705412D01*
X11365420Y-22705412D02*
X11374944Y-22724460D01*
X11374944Y-22724460D02*
X11393992Y-22733984D01*
X11393992Y-22733984D02*
X11413039Y-22733984D01*
X11470182Y-22724460D02*
X11489230Y-22733984D01*
X11489230Y-22733984D02*
X11527325Y-22733984D01*
X11527325Y-22733984D02*
X11546373Y-22724460D01*
X11546373Y-22724460D02*
X11555896Y-22705412D01*
X11555896Y-22705412D02*
X11555896Y-22695888D01*
X11555896Y-22695888D02*
X11546373Y-22676841D01*
X11546373Y-22676841D02*
X11527325Y-22667317D01*
X11527325Y-22667317D02*
X11498754Y-22667317D01*
X11498754Y-22667317D02*
X11479706Y-22657793D01*
X11479706Y-22657793D02*
X11470182Y-22638746D01*
X11470182Y-22638746D02*
X11470182Y-22629222D01*
X11470182Y-22629222D02*
X11479706Y-22610174D01*
X11479706Y-22610174D02*
X11498754Y-22600650D01*
X11498754Y-22600650D02*
X11527325Y-22600650D01*
X11527325Y-22600650D02*
X11546373Y-22610174D01*
X11622563Y-22810174D02*
X11632087Y-22800650D01*
X11632087Y-22800650D02*
X11651135Y-22772079D01*
X11651135Y-22772079D02*
X11660658Y-22753031D01*
X11660658Y-22753031D02*
X11670182Y-22724460D01*
X11670182Y-22724460D02*
X11679706Y-22676841D01*
X11679706Y-22676841D02*
X11679706Y-22638746D01*
X11679706Y-22638746D02*
X11670182Y-22591127D01*
X11670182Y-22591127D02*
X11660658Y-22562555D01*
X11660658Y-22562555D02*
X11651135Y-22543508D01*
X11651135Y-22543508D02*
X11632087Y-22514936D01*
X11632087Y-22514936D02*
X11622563Y-22505412D01*
D13*
X4847500Y-22906500D02*
G75*
G02*
X4707500Y-22906500I-70000J0D01*
G01*
X4707500Y-22906500D02*
G75*
G02*
X4847500Y-22906500I70000J0D01*
G01*
D11*
X5213039Y-22997984D02*
X5098753Y-22997984D01*
X5155896Y-22997984D02*
X5155896Y-22797984D01*
X5155896Y-22797984D02*
X5136848Y-22826555D01*
X5136848Y-22826555D02*
X5117801Y-22845603D01*
X5117801Y-22845603D02*
X5098753Y-22855127D01*
X5298753Y-22978936D02*
X5308277Y-22988460D01*
X5308277Y-22988460D02*
X5298753Y-22997984D01*
X5298753Y-22997984D02*
X5289229Y-22988460D01*
X5289229Y-22988460D02*
X5298753Y-22978936D01*
X5298753Y-22978936D02*
X5298753Y-22997984D01*
X5479705Y-22864650D02*
X5479705Y-22997984D01*
X5432086Y-22788460D02*
X5384467Y-22931317D01*
X5384467Y-22931317D02*
X5508277Y-22931317D01*
X5622562Y-22797984D02*
X5641610Y-22797984D01*
X5641610Y-22797984D02*
X5660658Y-22807508D01*
X5660658Y-22807508D02*
X5670182Y-22817031D01*
X5670182Y-22817031D02*
X5679705Y-22836079D01*
X5679705Y-22836079D02*
X5689229Y-22874174D01*
X5689229Y-22874174D02*
X5689229Y-22921793D01*
X5689229Y-22921793D02*
X5679705Y-22959888D01*
X5679705Y-22959888D02*
X5670182Y-22978936D01*
X5670182Y-22978936D02*
X5660658Y-22988460D01*
X5660658Y-22988460D02*
X5641610Y-22997984D01*
X5641610Y-22997984D02*
X5622562Y-22997984D01*
X5622562Y-22997984D02*
X5603515Y-22988460D01*
X5603515Y-22988460D02*
X5593991Y-22978936D01*
X5593991Y-22978936D02*
X5584467Y-22959888D01*
X5584467Y-22959888D02*
X5574944Y-22921793D01*
X5574944Y-22921793D02*
X5574944Y-22874174D01*
X5574944Y-22874174D02*
X5584467Y-22836079D01*
X5584467Y-22836079D02*
X5593991Y-22817031D01*
X5593991Y-22817031D02*
X5603515Y-22807508D01*
X5603515Y-22807508D02*
X5622562Y-22797984D01*
X5813039Y-22797984D02*
X5832086Y-22797984D01*
X5832086Y-22797984D02*
X5851134Y-22807508D01*
X5851134Y-22807508D02*
X5860658Y-22817031D01*
X5860658Y-22817031D02*
X5870182Y-22836079D01*
X5870182Y-22836079D02*
X5879705Y-22874174D01*
X5879705Y-22874174D02*
X5879705Y-22921793D01*
X5879705Y-22921793D02*
X5870182Y-22959888D01*
X5870182Y-22959888D02*
X5860658Y-22978936D01*
X5860658Y-22978936D02*
X5851134Y-22988460D01*
X5851134Y-22988460D02*
X5832086Y-22997984D01*
X5832086Y-22997984D02*
X5813039Y-22997984D01*
X5813039Y-22997984D02*
X5793991Y-22988460D01*
X5793991Y-22988460D02*
X5784467Y-22978936D01*
X5784467Y-22978936D02*
X5774943Y-22959888D01*
X5774943Y-22959888D02*
X5765420Y-22921793D01*
X5765420Y-22921793D02*
X5765420Y-22874174D01*
X5765420Y-22874174D02*
X5774943Y-22836079D01*
X5774943Y-22836079D02*
X5784467Y-22817031D01*
X5784467Y-22817031D02*
X5793991Y-22807508D01*
X5793991Y-22807508D02*
X5813039Y-22797984D01*
X5965420Y-22997984D02*
X5965420Y-22864650D01*
X5965420Y-22883698D02*
X5974943Y-22874174D01*
X5974943Y-22874174D02*
X5993991Y-22864650D01*
X5993991Y-22864650D02*
X6022563Y-22864650D01*
X6022563Y-22864650D02*
X6041610Y-22874174D01*
X6041610Y-22874174D02*
X6051134Y-22893222D01*
X6051134Y-22893222D02*
X6051134Y-22997984D01*
X6051134Y-22893222D02*
X6060658Y-22874174D01*
X6060658Y-22874174D02*
X6079705Y-22864650D01*
X6079705Y-22864650D02*
X6108277Y-22864650D01*
X6108277Y-22864650D02*
X6127324Y-22874174D01*
X6127324Y-22874174D02*
X6136848Y-22893222D01*
X6136848Y-22893222D02*
X6136848Y-22997984D01*
X6232086Y-22997984D02*
X6232086Y-22864650D01*
X6232086Y-22883698D02*
X6241610Y-22874174D01*
X6241610Y-22874174D02*
X6260658Y-22864650D01*
X6260658Y-22864650D02*
X6289229Y-22864650D01*
X6289229Y-22864650D02*
X6308277Y-22874174D01*
X6308277Y-22874174D02*
X6317801Y-22893222D01*
X6317801Y-22893222D02*
X6317801Y-22997984D01*
X6317801Y-22893222D02*
X6327324Y-22874174D01*
X6327324Y-22874174D02*
X6346372Y-22864650D01*
X6346372Y-22864650D02*
X6374943Y-22864650D01*
X6374943Y-22864650D02*
X6393991Y-22874174D01*
X6393991Y-22874174D02*
X6403515Y-22893222D01*
X6403515Y-22893222D02*
X6403515Y-22997984D01*
X6793991Y-22788460D02*
X6622563Y-23045603D01*
X7051134Y-22797984D02*
X7070182Y-22797984D01*
X7070182Y-22797984D02*
X7089229Y-22807508D01*
X7089229Y-22807508D02*
X7098753Y-22817031D01*
X7098753Y-22817031D02*
X7108277Y-22836079D01*
X7108277Y-22836079D02*
X7117801Y-22874174D01*
X7117801Y-22874174D02*
X7117801Y-22921793D01*
X7117801Y-22921793D02*
X7108277Y-22959888D01*
X7108277Y-22959888D02*
X7098753Y-22978936D01*
X7098753Y-22978936D02*
X7089229Y-22988460D01*
X7089229Y-22988460D02*
X7070182Y-22997984D01*
X7070182Y-22997984D02*
X7051134Y-22997984D01*
X7051134Y-22997984D02*
X7032086Y-22988460D01*
X7032086Y-22988460D02*
X7022563Y-22978936D01*
X7022563Y-22978936D02*
X7013039Y-22959888D01*
X7013039Y-22959888D02*
X7003515Y-22921793D01*
X7003515Y-22921793D02*
X7003515Y-22874174D01*
X7003515Y-22874174D02*
X7013039Y-22836079D01*
X7013039Y-22836079D02*
X7022563Y-22817031D01*
X7022563Y-22817031D02*
X7032086Y-22807508D01*
X7032086Y-22807508D02*
X7051134Y-22797984D01*
X7203515Y-22978936D02*
X7213039Y-22988460D01*
X7213039Y-22988460D02*
X7203515Y-22997984D01*
X7203515Y-22997984D02*
X7193991Y-22988460D01*
X7193991Y-22988460D02*
X7203515Y-22978936D01*
X7203515Y-22978936D02*
X7203515Y-22997984D01*
X7336848Y-22797984D02*
X7355896Y-22797984D01*
X7355896Y-22797984D02*
X7374944Y-22807508D01*
X7374944Y-22807508D02*
X7384467Y-22817031D01*
X7384467Y-22817031D02*
X7393991Y-22836079D01*
X7393991Y-22836079D02*
X7403515Y-22874174D01*
X7403515Y-22874174D02*
X7403515Y-22921793D01*
X7403515Y-22921793D02*
X7393991Y-22959888D01*
X7393991Y-22959888D02*
X7384467Y-22978936D01*
X7384467Y-22978936D02*
X7374944Y-22988460D01*
X7374944Y-22988460D02*
X7355896Y-22997984D01*
X7355896Y-22997984D02*
X7336848Y-22997984D01*
X7336848Y-22997984D02*
X7317801Y-22988460D01*
X7317801Y-22988460D02*
X7308277Y-22978936D01*
X7308277Y-22978936D02*
X7298753Y-22959888D01*
X7298753Y-22959888D02*
X7289229Y-22921793D01*
X7289229Y-22921793D02*
X7289229Y-22874174D01*
X7289229Y-22874174D02*
X7298753Y-22836079D01*
X7298753Y-22836079D02*
X7308277Y-22817031D01*
X7308277Y-22817031D02*
X7317801Y-22807508D01*
X7317801Y-22807508D02*
X7336848Y-22797984D01*
X7584467Y-22797984D02*
X7489229Y-22797984D01*
X7489229Y-22797984D02*
X7479706Y-22893222D01*
X7479706Y-22893222D02*
X7489229Y-22883698D01*
X7489229Y-22883698D02*
X7508277Y-22874174D01*
X7508277Y-22874174D02*
X7555896Y-22874174D01*
X7555896Y-22874174D02*
X7574944Y-22883698D01*
X7574944Y-22883698D02*
X7584467Y-22893222D01*
X7584467Y-22893222D02*
X7593991Y-22912269D01*
X7593991Y-22912269D02*
X7593991Y-22959888D01*
X7593991Y-22959888D02*
X7584467Y-22978936D01*
X7584467Y-22978936D02*
X7574944Y-22988460D01*
X7574944Y-22988460D02*
X7555896Y-22997984D01*
X7555896Y-22997984D02*
X7508277Y-22997984D01*
X7508277Y-22997984D02*
X7489229Y-22988460D01*
X7489229Y-22988460D02*
X7479706Y-22978936D01*
X7774944Y-22797984D02*
X7679706Y-22797984D01*
X7679706Y-22797984D02*
X7670182Y-22893222D01*
X7670182Y-22893222D02*
X7679706Y-22883698D01*
X7679706Y-22883698D02*
X7698753Y-22874174D01*
X7698753Y-22874174D02*
X7746372Y-22874174D01*
X7746372Y-22874174D02*
X7765420Y-22883698D01*
X7765420Y-22883698D02*
X7774944Y-22893222D01*
X7774944Y-22893222D02*
X7784467Y-22912269D01*
X7784467Y-22912269D02*
X7784467Y-22959888D01*
X7784467Y-22959888D02*
X7774944Y-22978936D01*
X7774944Y-22978936D02*
X7765420Y-22988460D01*
X7765420Y-22988460D02*
X7746372Y-22997984D01*
X7746372Y-22997984D02*
X7698753Y-22997984D01*
X7698753Y-22997984D02*
X7679706Y-22988460D01*
X7679706Y-22988460D02*
X7670182Y-22978936D01*
X7974944Y-22997984D02*
X7860658Y-22997984D01*
X7917801Y-22997984D02*
X7917801Y-22797984D01*
X7917801Y-22797984D02*
X7898753Y-22826555D01*
X7898753Y-22826555D02*
X7879706Y-22845603D01*
X7879706Y-22845603D02*
X7860658Y-22855127D01*
X8051134Y-22797984D02*
X8051134Y-22836079D01*
X8127325Y-22797984D02*
X8127325Y-22836079D01*
X8422563Y-23074174D02*
X8413039Y-23064650D01*
X8413039Y-23064650D02*
X8393991Y-23036079D01*
X8393991Y-23036079D02*
X8384468Y-23017031D01*
X8384468Y-23017031D02*
X8374944Y-22988460D01*
X8374944Y-22988460D02*
X8365420Y-22940841D01*
X8365420Y-22940841D02*
X8365420Y-22902746D01*
X8365420Y-22902746D02*
X8374944Y-22855127D01*
X8374944Y-22855127D02*
X8384468Y-22826555D01*
X8384468Y-22826555D02*
X8393991Y-22807508D01*
X8393991Y-22807508D02*
X8413039Y-22778936D01*
X8413039Y-22778936D02*
X8422563Y-22769412D01*
X8603515Y-22997984D02*
X8489230Y-22997984D01*
X8546372Y-22997984D02*
X8546372Y-22797984D01*
X8546372Y-22797984D02*
X8527325Y-22826555D01*
X8527325Y-22826555D02*
X8508277Y-22845603D01*
X8508277Y-22845603D02*
X8489230Y-22855127D01*
X8727325Y-22797984D02*
X8746372Y-22797984D01*
X8746372Y-22797984D02*
X8765420Y-22807508D01*
X8765420Y-22807508D02*
X8774944Y-22817031D01*
X8774944Y-22817031D02*
X8784468Y-22836079D01*
X8784468Y-22836079D02*
X8793991Y-22874174D01*
X8793991Y-22874174D02*
X8793991Y-22921793D01*
X8793991Y-22921793D02*
X8784468Y-22959888D01*
X8784468Y-22959888D02*
X8774944Y-22978936D01*
X8774944Y-22978936D02*
X8765420Y-22988460D01*
X8765420Y-22988460D02*
X8746372Y-22997984D01*
X8746372Y-22997984D02*
X8727325Y-22997984D01*
X8727325Y-22997984D02*
X8708277Y-22988460D01*
X8708277Y-22988460D02*
X8698753Y-22978936D01*
X8698753Y-22978936D02*
X8689230Y-22959888D01*
X8689230Y-22959888D02*
X8679706Y-22921793D01*
X8679706Y-22921793D02*
X8679706Y-22874174D01*
X8679706Y-22874174D02*
X8689230Y-22836079D01*
X8689230Y-22836079D02*
X8698753Y-22817031D01*
X8698753Y-22817031D02*
X8708277Y-22807508D01*
X8708277Y-22807508D02*
X8727325Y-22797984D01*
X9032087Y-22997984D02*
X9032087Y-22797984D01*
X9117801Y-22997984D02*
X9117801Y-22893222D01*
X9117801Y-22893222D02*
X9108277Y-22874174D01*
X9108277Y-22874174D02*
X9089230Y-22864650D01*
X9089230Y-22864650D02*
X9060658Y-22864650D01*
X9060658Y-22864650D02*
X9041611Y-22874174D01*
X9041611Y-22874174D02*
X9032087Y-22883698D01*
X9241611Y-22997984D02*
X9222563Y-22988460D01*
X9222563Y-22988460D02*
X9213039Y-22978936D01*
X9213039Y-22978936D02*
X9203515Y-22959888D01*
X9203515Y-22959888D02*
X9203515Y-22902746D01*
X9203515Y-22902746D02*
X9213039Y-22883698D01*
X9213039Y-22883698D02*
X9222563Y-22874174D01*
X9222563Y-22874174D02*
X9241611Y-22864650D01*
X9241611Y-22864650D02*
X9270182Y-22864650D01*
X9270182Y-22864650D02*
X9289230Y-22874174D01*
X9289230Y-22874174D02*
X9298753Y-22883698D01*
X9298753Y-22883698D02*
X9308277Y-22902746D01*
X9308277Y-22902746D02*
X9308277Y-22959888D01*
X9308277Y-22959888D02*
X9298753Y-22978936D01*
X9298753Y-22978936D02*
X9289230Y-22988460D01*
X9289230Y-22988460D02*
X9270182Y-22997984D01*
X9270182Y-22997984D02*
X9241611Y-22997984D01*
X9422563Y-22997984D02*
X9403515Y-22988460D01*
X9403515Y-22988460D02*
X9393992Y-22969412D01*
X9393992Y-22969412D02*
X9393992Y-22797984D01*
X9574944Y-22988460D02*
X9555896Y-22997984D01*
X9555896Y-22997984D02*
X9517801Y-22997984D01*
X9517801Y-22997984D02*
X9498753Y-22988460D01*
X9498753Y-22988460D02*
X9489230Y-22969412D01*
X9489230Y-22969412D02*
X9489230Y-22893222D01*
X9489230Y-22893222D02*
X9498753Y-22874174D01*
X9498753Y-22874174D02*
X9517801Y-22864650D01*
X9517801Y-22864650D02*
X9555896Y-22864650D01*
X9555896Y-22864650D02*
X9574944Y-22874174D01*
X9574944Y-22874174D02*
X9584468Y-22893222D01*
X9584468Y-22893222D02*
X9584468Y-22912269D01*
X9584468Y-22912269D02*
X9489230Y-22931317D01*
X9660658Y-22988460D02*
X9679706Y-22997984D01*
X9679706Y-22997984D02*
X9717801Y-22997984D01*
X9717801Y-22997984D02*
X9736849Y-22988460D01*
X9736849Y-22988460D02*
X9746373Y-22969412D01*
X9746373Y-22969412D02*
X9746373Y-22959888D01*
X9746373Y-22959888D02*
X9736849Y-22940841D01*
X9736849Y-22940841D02*
X9717801Y-22931317D01*
X9717801Y-22931317D02*
X9689230Y-22931317D01*
X9689230Y-22931317D02*
X9670182Y-22921793D01*
X9670182Y-22921793D02*
X9660658Y-22902746D01*
X9660658Y-22902746D02*
X9660658Y-22893222D01*
X9660658Y-22893222D02*
X9670182Y-22874174D01*
X9670182Y-22874174D02*
X9689230Y-22864650D01*
X9689230Y-22864650D02*
X9717801Y-22864650D01*
X9717801Y-22864650D02*
X9736849Y-22874174D01*
X9813039Y-23074174D02*
X9822563Y-23064650D01*
X9822563Y-23064650D02*
X9841611Y-23036079D01*
X9841611Y-23036079D02*
X9851134Y-23017031D01*
X9851134Y-23017031D02*
X9860658Y-22988460D01*
X9860658Y-22988460D02*
X9870182Y-22940841D01*
X9870182Y-22940841D02*
X9870182Y-22902746D01*
X9870182Y-22902746D02*
X9860658Y-22855127D01*
X9860658Y-22855127D02*
X9851134Y-22826555D01*
X9851134Y-22826555D02*
X9841611Y-22807508D01*
X9841611Y-22807508D02*
X9822563Y-22778936D01*
X9822563Y-22778936D02*
X9813039Y-22769412D01*
X4747500Y-23070500D02*
X4747500Y-23270500D01*
X4647500Y-23170500D02*
X4847500Y-23170500D01*
X5098753Y-23081031D02*
X5108277Y-23071508D01*
X5108277Y-23071508D02*
X5127324Y-23061984D01*
X5127324Y-23061984D02*
X5174944Y-23061984D01*
X5174944Y-23061984D02*
X5193991Y-23071508D01*
X5193991Y-23071508D02*
X5203515Y-23081031D01*
X5203515Y-23081031D02*
X5213039Y-23100079D01*
X5213039Y-23100079D02*
X5213039Y-23119127D01*
X5213039Y-23119127D02*
X5203515Y-23147698D01*
X5203515Y-23147698D02*
X5089229Y-23261984D01*
X5089229Y-23261984D02*
X5213039Y-23261984D01*
X5298753Y-23242936D02*
X5308277Y-23252460D01*
X5308277Y-23252460D02*
X5298753Y-23261984D01*
X5298753Y-23261984D02*
X5289229Y-23252460D01*
X5289229Y-23252460D02*
X5298753Y-23242936D01*
X5298753Y-23242936D02*
X5298753Y-23261984D01*
X5432086Y-23061984D02*
X5451134Y-23061984D01*
X5451134Y-23061984D02*
X5470182Y-23071508D01*
X5470182Y-23071508D02*
X5479705Y-23081031D01*
X5479705Y-23081031D02*
X5489229Y-23100079D01*
X5489229Y-23100079D02*
X5498753Y-23138174D01*
X5498753Y-23138174D02*
X5498753Y-23185793D01*
X5498753Y-23185793D02*
X5489229Y-23223888D01*
X5489229Y-23223888D02*
X5479705Y-23242936D01*
X5479705Y-23242936D02*
X5470182Y-23252460D01*
X5470182Y-23252460D02*
X5451134Y-23261984D01*
X5451134Y-23261984D02*
X5432086Y-23261984D01*
X5432086Y-23261984D02*
X5413039Y-23252460D01*
X5413039Y-23252460D02*
X5403515Y-23242936D01*
X5403515Y-23242936D02*
X5393991Y-23223888D01*
X5393991Y-23223888D02*
X5384467Y-23185793D01*
X5384467Y-23185793D02*
X5384467Y-23138174D01*
X5384467Y-23138174D02*
X5393991Y-23100079D01*
X5393991Y-23100079D02*
X5403515Y-23081031D01*
X5403515Y-23081031D02*
X5413039Y-23071508D01*
X5413039Y-23071508D02*
X5432086Y-23061984D01*
X5622562Y-23061984D02*
X5641610Y-23061984D01*
X5641610Y-23061984D02*
X5660658Y-23071508D01*
X5660658Y-23071508D02*
X5670182Y-23081031D01*
X5670182Y-23081031D02*
X5679705Y-23100079D01*
X5679705Y-23100079D02*
X5689229Y-23138174D01*
X5689229Y-23138174D02*
X5689229Y-23185793D01*
X5689229Y-23185793D02*
X5679705Y-23223888D01*
X5679705Y-23223888D02*
X5670182Y-23242936D01*
X5670182Y-23242936D02*
X5660658Y-23252460D01*
X5660658Y-23252460D02*
X5641610Y-23261984D01*
X5641610Y-23261984D02*
X5622562Y-23261984D01*
X5622562Y-23261984D02*
X5603515Y-23252460D01*
X5603515Y-23252460D02*
X5593991Y-23242936D01*
X5593991Y-23242936D02*
X5584467Y-23223888D01*
X5584467Y-23223888D02*
X5574944Y-23185793D01*
X5574944Y-23185793D02*
X5574944Y-23138174D01*
X5574944Y-23138174D02*
X5584467Y-23100079D01*
X5584467Y-23100079D02*
X5593991Y-23081031D01*
X5593991Y-23081031D02*
X5603515Y-23071508D01*
X5603515Y-23071508D02*
X5622562Y-23061984D01*
X5813039Y-23061984D02*
X5832086Y-23061984D01*
X5832086Y-23061984D02*
X5851134Y-23071508D01*
X5851134Y-23071508D02*
X5860658Y-23081031D01*
X5860658Y-23081031D02*
X5870182Y-23100079D01*
X5870182Y-23100079D02*
X5879705Y-23138174D01*
X5879705Y-23138174D02*
X5879705Y-23185793D01*
X5879705Y-23185793D02*
X5870182Y-23223888D01*
X5870182Y-23223888D02*
X5860658Y-23242936D01*
X5860658Y-23242936D02*
X5851134Y-23252460D01*
X5851134Y-23252460D02*
X5832086Y-23261984D01*
X5832086Y-23261984D02*
X5813039Y-23261984D01*
X5813039Y-23261984D02*
X5793991Y-23252460D01*
X5793991Y-23252460D02*
X5784467Y-23242936D01*
X5784467Y-23242936D02*
X5774943Y-23223888D01*
X5774943Y-23223888D02*
X5765420Y-23185793D01*
X5765420Y-23185793D02*
X5765420Y-23138174D01*
X5765420Y-23138174D02*
X5774943Y-23100079D01*
X5774943Y-23100079D02*
X5784467Y-23081031D01*
X5784467Y-23081031D02*
X5793991Y-23071508D01*
X5793991Y-23071508D02*
X5813039Y-23061984D01*
X5965420Y-23261984D02*
X5965420Y-23128650D01*
X5965420Y-23147698D02*
X5974943Y-23138174D01*
X5974943Y-23138174D02*
X5993991Y-23128650D01*
X5993991Y-23128650D02*
X6022563Y-23128650D01*
X6022563Y-23128650D02*
X6041610Y-23138174D01*
X6041610Y-23138174D02*
X6051134Y-23157222D01*
X6051134Y-23157222D02*
X6051134Y-23261984D01*
X6051134Y-23157222D02*
X6060658Y-23138174D01*
X6060658Y-23138174D02*
X6079705Y-23128650D01*
X6079705Y-23128650D02*
X6108277Y-23128650D01*
X6108277Y-23128650D02*
X6127324Y-23138174D01*
X6127324Y-23138174D02*
X6136848Y-23157222D01*
X6136848Y-23157222D02*
X6136848Y-23261984D01*
X6232086Y-23261984D02*
X6232086Y-23128650D01*
X6232086Y-23147698D02*
X6241610Y-23138174D01*
X6241610Y-23138174D02*
X6260658Y-23128650D01*
X6260658Y-23128650D02*
X6289229Y-23128650D01*
X6289229Y-23128650D02*
X6308277Y-23138174D01*
X6308277Y-23138174D02*
X6317801Y-23157222D01*
X6317801Y-23157222D02*
X6317801Y-23261984D01*
X6317801Y-23157222D02*
X6327324Y-23138174D01*
X6327324Y-23138174D02*
X6346372Y-23128650D01*
X6346372Y-23128650D02*
X6374943Y-23128650D01*
X6374943Y-23128650D02*
X6393991Y-23138174D01*
X6393991Y-23138174D02*
X6403515Y-23157222D01*
X6403515Y-23157222D02*
X6403515Y-23261984D01*
X6793991Y-23052460D02*
X6622563Y-23309603D01*
X7051134Y-23061984D02*
X7070182Y-23061984D01*
X7070182Y-23061984D02*
X7089229Y-23071508D01*
X7089229Y-23071508D02*
X7098753Y-23081031D01*
X7098753Y-23081031D02*
X7108277Y-23100079D01*
X7108277Y-23100079D02*
X7117801Y-23138174D01*
X7117801Y-23138174D02*
X7117801Y-23185793D01*
X7117801Y-23185793D02*
X7108277Y-23223888D01*
X7108277Y-23223888D02*
X7098753Y-23242936D01*
X7098753Y-23242936D02*
X7089229Y-23252460D01*
X7089229Y-23252460D02*
X7070182Y-23261984D01*
X7070182Y-23261984D02*
X7051134Y-23261984D01*
X7051134Y-23261984D02*
X7032086Y-23252460D01*
X7032086Y-23252460D02*
X7022563Y-23242936D01*
X7022563Y-23242936D02*
X7013039Y-23223888D01*
X7013039Y-23223888D02*
X7003515Y-23185793D01*
X7003515Y-23185793D02*
X7003515Y-23138174D01*
X7003515Y-23138174D02*
X7013039Y-23100079D01*
X7013039Y-23100079D02*
X7022563Y-23081031D01*
X7022563Y-23081031D02*
X7032086Y-23071508D01*
X7032086Y-23071508D02*
X7051134Y-23061984D01*
X7203515Y-23242936D02*
X7213039Y-23252460D01*
X7213039Y-23252460D02*
X7203515Y-23261984D01*
X7203515Y-23261984D02*
X7193991Y-23252460D01*
X7193991Y-23252460D02*
X7203515Y-23242936D01*
X7203515Y-23242936D02*
X7203515Y-23261984D01*
X7336848Y-23061984D02*
X7355896Y-23061984D01*
X7355896Y-23061984D02*
X7374944Y-23071508D01*
X7374944Y-23071508D02*
X7384467Y-23081031D01*
X7384467Y-23081031D02*
X7393991Y-23100079D01*
X7393991Y-23100079D02*
X7403515Y-23138174D01*
X7403515Y-23138174D02*
X7403515Y-23185793D01*
X7403515Y-23185793D02*
X7393991Y-23223888D01*
X7393991Y-23223888D02*
X7384467Y-23242936D01*
X7384467Y-23242936D02*
X7374944Y-23252460D01*
X7374944Y-23252460D02*
X7355896Y-23261984D01*
X7355896Y-23261984D02*
X7336848Y-23261984D01*
X7336848Y-23261984D02*
X7317801Y-23252460D01*
X7317801Y-23252460D02*
X7308277Y-23242936D01*
X7308277Y-23242936D02*
X7298753Y-23223888D01*
X7298753Y-23223888D02*
X7289229Y-23185793D01*
X7289229Y-23185793D02*
X7289229Y-23138174D01*
X7289229Y-23138174D02*
X7298753Y-23100079D01*
X7298753Y-23100079D02*
X7308277Y-23081031D01*
X7308277Y-23081031D02*
X7317801Y-23071508D01*
X7317801Y-23071508D02*
X7336848Y-23061984D01*
X7470182Y-23061984D02*
X7603515Y-23061984D01*
X7603515Y-23061984D02*
X7517801Y-23261984D01*
X7708277Y-23147698D02*
X7689229Y-23138174D01*
X7689229Y-23138174D02*
X7679706Y-23128650D01*
X7679706Y-23128650D02*
X7670182Y-23109603D01*
X7670182Y-23109603D02*
X7670182Y-23100079D01*
X7670182Y-23100079D02*
X7679706Y-23081031D01*
X7679706Y-23081031D02*
X7689229Y-23071508D01*
X7689229Y-23071508D02*
X7708277Y-23061984D01*
X7708277Y-23061984D02*
X7746372Y-23061984D01*
X7746372Y-23061984D02*
X7765420Y-23071508D01*
X7765420Y-23071508D02*
X7774944Y-23081031D01*
X7774944Y-23081031D02*
X7784467Y-23100079D01*
X7784467Y-23100079D02*
X7784467Y-23109603D01*
X7784467Y-23109603D02*
X7774944Y-23128650D01*
X7774944Y-23128650D02*
X7765420Y-23138174D01*
X7765420Y-23138174D02*
X7746372Y-23147698D01*
X7746372Y-23147698D02*
X7708277Y-23147698D01*
X7708277Y-23147698D02*
X7689229Y-23157222D01*
X7689229Y-23157222D02*
X7679706Y-23166746D01*
X7679706Y-23166746D02*
X7670182Y-23185793D01*
X7670182Y-23185793D02*
X7670182Y-23223888D01*
X7670182Y-23223888D02*
X7679706Y-23242936D01*
X7679706Y-23242936D02*
X7689229Y-23252460D01*
X7689229Y-23252460D02*
X7708277Y-23261984D01*
X7708277Y-23261984D02*
X7746372Y-23261984D01*
X7746372Y-23261984D02*
X7765420Y-23252460D01*
X7765420Y-23252460D02*
X7774944Y-23242936D01*
X7774944Y-23242936D02*
X7784467Y-23223888D01*
X7784467Y-23223888D02*
X7784467Y-23185793D01*
X7784467Y-23185793D02*
X7774944Y-23166746D01*
X7774944Y-23166746D02*
X7765420Y-23157222D01*
X7765420Y-23157222D02*
X7746372Y-23147698D01*
X7851134Y-23061984D02*
X7984467Y-23061984D01*
X7984467Y-23061984D02*
X7898753Y-23261984D01*
X8051134Y-23061984D02*
X8051134Y-23100079D01*
X8127325Y-23061984D02*
X8127325Y-23100079D01*
X8422563Y-23338174D02*
X8413039Y-23328650D01*
X8413039Y-23328650D02*
X8393991Y-23300079D01*
X8393991Y-23300079D02*
X8384468Y-23281031D01*
X8384468Y-23281031D02*
X8374944Y-23252460D01*
X8374944Y-23252460D02*
X8365420Y-23204841D01*
X8365420Y-23204841D02*
X8365420Y-23166746D01*
X8365420Y-23166746D02*
X8374944Y-23119127D01*
X8374944Y-23119127D02*
X8384468Y-23090555D01*
X8384468Y-23090555D02*
X8393991Y-23071508D01*
X8393991Y-23071508D02*
X8413039Y-23042936D01*
X8413039Y-23042936D02*
X8422563Y-23033412D01*
X8489230Y-23081031D02*
X8498753Y-23071508D01*
X8498753Y-23071508D02*
X8517801Y-23061984D01*
X8517801Y-23061984D02*
X8565420Y-23061984D01*
X8565420Y-23061984D02*
X8584468Y-23071508D01*
X8584468Y-23071508D02*
X8593991Y-23081031D01*
X8593991Y-23081031D02*
X8603515Y-23100079D01*
X8603515Y-23100079D02*
X8603515Y-23119127D01*
X8603515Y-23119127D02*
X8593991Y-23147698D01*
X8593991Y-23147698D02*
X8479706Y-23261984D01*
X8479706Y-23261984D02*
X8603515Y-23261984D01*
X8727325Y-23061984D02*
X8746372Y-23061984D01*
X8746372Y-23061984D02*
X8765420Y-23071508D01*
X8765420Y-23071508D02*
X8774944Y-23081031D01*
X8774944Y-23081031D02*
X8784468Y-23100079D01*
X8784468Y-23100079D02*
X8793991Y-23138174D01*
X8793991Y-23138174D02*
X8793991Y-23185793D01*
X8793991Y-23185793D02*
X8784468Y-23223888D01*
X8784468Y-23223888D02*
X8774944Y-23242936D01*
X8774944Y-23242936D02*
X8765420Y-23252460D01*
X8765420Y-23252460D02*
X8746372Y-23261984D01*
X8746372Y-23261984D02*
X8727325Y-23261984D01*
X8727325Y-23261984D02*
X8708277Y-23252460D01*
X8708277Y-23252460D02*
X8698753Y-23242936D01*
X8698753Y-23242936D02*
X8689230Y-23223888D01*
X8689230Y-23223888D02*
X8679706Y-23185793D01*
X8679706Y-23185793D02*
X8679706Y-23138174D01*
X8679706Y-23138174D02*
X8689230Y-23100079D01*
X8689230Y-23100079D02*
X8698753Y-23081031D01*
X8698753Y-23081031D02*
X8708277Y-23071508D01*
X8708277Y-23071508D02*
X8727325Y-23061984D01*
X9032087Y-23261984D02*
X9032087Y-23061984D01*
X9117801Y-23261984D02*
X9117801Y-23157222D01*
X9117801Y-23157222D02*
X9108277Y-23138174D01*
X9108277Y-23138174D02*
X9089230Y-23128650D01*
X9089230Y-23128650D02*
X9060658Y-23128650D01*
X9060658Y-23128650D02*
X9041611Y-23138174D01*
X9041611Y-23138174D02*
X9032087Y-23147698D01*
X9241611Y-23261984D02*
X9222563Y-23252460D01*
X9222563Y-23252460D02*
X9213039Y-23242936D01*
X9213039Y-23242936D02*
X9203515Y-23223888D01*
X9203515Y-23223888D02*
X9203515Y-23166746D01*
X9203515Y-23166746D02*
X9213039Y-23147698D01*
X9213039Y-23147698D02*
X9222563Y-23138174D01*
X9222563Y-23138174D02*
X9241611Y-23128650D01*
X9241611Y-23128650D02*
X9270182Y-23128650D01*
X9270182Y-23128650D02*
X9289230Y-23138174D01*
X9289230Y-23138174D02*
X9298753Y-23147698D01*
X9298753Y-23147698D02*
X9308277Y-23166746D01*
X9308277Y-23166746D02*
X9308277Y-23223888D01*
X9308277Y-23223888D02*
X9298753Y-23242936D01*
X9298753Y-23242936D02*
X9289230Y-23252460D01*
X9289230Y-23252460D02*
X9270182Y-23261984D01*
X9270182Y-23261984D02*
X9241611Y-23261984D01*
X9422563Y-23261984D02*
X9403515Y-23252460D01*
X9403515Y-23252460D02*
X9393992Y-23233412D01*
X9393992Y-23233412D02*
X9393992Y-23061984D01*
X9574944Y-23252460D02*
X9555896Y-23261984D01*
X9555896Y-23261984D02*
X9517801Y-23261984D01*
X9517801Y-23261984D02*
X9498753Y-23252460D01*
X9498753Y-23252460D02*
X9489230Y-23233412D01*
X9489230Y-23233412D02*
X9489230Y-23157222D01*
X9489230Y-23157222D02*
X9498753Y-23138174D01*
X9498753Y-23138174D02*
X9517801Y-23128650D01*
X9517801Y-23128650D02*
X9555896Y-23128650D01*
X9555896Y-23128650D02*
X9574944Y-23138174D01*
X9574944Y-23138174D02*
X9584468Y-23157222D01*
X9584468Y-23157222D02*
X9584468Y-23176269D01*
X9584468Y-23176269D02*
X9489230Y-23195317D01*
X9660658Y-23252460D02*
X9679706Y-23261984D01*
X9679706Y-23261984D02*
X9717801Y-23261984D01*
X9717801Y-23261984D02*
X9736849Y-23252460D01*
X9736849Y-23252460D02*
X9746373Y-23233412D01*
X9746373Y-23233412D02*
X9746373Y-23223888D01*
X9746373Y-23223888D02*
X9736849Y-23204841D01*
X9736849Y-23204841D02*
X9717801Y-23195317D01*
X9717801Y-23195317D02*
X9689230Y-23195317D01*
X9689230Y-23195317D02*
X9670182Y-23185793D01*
X9670182Y-23185793D02*
X9660658Y-23166746D01*
X9660658Y-23166746D02*
X9660658Y-23157222D01*
X9660658Y-23157222D02*
X9670182Y-23138174D01*
X9670182Y-23138174D02*
X9689230Y-23128650D01*
X9689230Y-23128650D02*
X9717801Y-23128650D01*
X9717801Y-23128650D02*
X9736849Y-23138174D01*
X9813039Y-23338174D02*
X9822563Y-23328650D01*
X9822563Y-23328650D02*
X9841611Y-23300079D01*
X9841611Y-23300079D02*
X9851134Y-23281031D01*
X9851134Y-23281031D02*
X9860658Y-23252460D01*
X9860658Y-23252460D02*
X9870182Y-23204841D01*
X9870182Y-23204841D02*
X9870182Y-23166746D01*
X9870182Y-23166746D02*
X9860658Y-23119127D01*
X9860658Y-23119127D02*
X9851134Y-23090555D01*
X9851134Y-23090555D02*
X9841611Y-23071508D01*
X9841611Y-23071508D02*
X9822563Y-23042936D01*
X9822563Y-23042936D02*
X9813039Y-23033412D01*
M02*
