G04 #@! TF.GenerationSoftware,KiCad,Pcbnew,8.0.3*
G04 #@! TF.CreationDate,2024-06-29T16:07:53+02:00*
G04 #@! TF.ProjectId,DMH_Adapter_Mult_PCB,444d485f-4164-4617-9074-65725f4d756c,1*
G04 #@! TF.SameCoordinates,Original*
G04 #@! TF.FileFunction,Copper,L2,Bot*
G04 #@! TF.FilePolarity,Positive*
%FSLAX46Y46*%
G04 Gerber Fmt 4.6, Leading zero omitted, Abs format (unit mm)*
G04 Created by KiCad (PCBNEW 8.0.3) date 2024-06-29 16:07:53*
%MOMM*%
%LPD*%
G01*
G04 APERTURE LIST*
G04 Aperture macros list*
%AMRoundRect*
0 Rectangle with rounded corners*
0 $1 Rounding radius*
0 $2 $3 $4 $5 $6 $7 $8 $9 X,Y pos of 4 corners*
0 Add a 4 corners polygon primitive as box body*
4,1,4,$2,$3,$4,$5,$6,$7,$8,$9,$2,$3,0*
0 Add four circle primitives for the rounded corners*
1,1,$1+$1,$2,$3*
1,1,$1+$1,$4,$5*
1,1,$1+$1,$6,$7*
1,1,$1+$1,$8,$9*
0 Add four rect primitives between the rounded corners*
20,1,$1+$1,$2,$3,$4,$5,0*
20,1,$1+$1,$4,$5,$6,$7,0*
20,1,$1+$1,$6,$7,$8,$9,0*
20,1,$1+$1,$8,$9,$2,$3,0*%
%AMHorizOval*
0 Thick line with rounded ends*
0 $1 width*
0 $2 $3 position (X,Y) of the first rounded end (center of the circle)*
0 $4 $5 position (X,Y) of the second rounded end (center of the circle)*
0 Add line between two ends*
20,1,$1,$2,$3,$4,$5,0*
0 Add two circle primitives to create the rounded ends*
1,1,$1,$2,$3*
1,1,$1,$4,$5*%
G04 Aperture macros list end*
G04 #@! TA.AperFunction,ComponentPad*
%ADD10R,3.000000X3.000000*%
G04 #@! TD*
G04 #@! TA.AperFunction,ComponentPad*
%ADD11C,3.000000*%
G04 #@! TD*
G04 #@! TA.AperFunction,ComponentPad*
%ADD12C,2.100000*%
G04 #@! TD*
G04 #@! TA.AperFunction,ComponentPad*
%ADD13HorizOval,1.508000X-0.533159X0.533159X0.533159X-0.533159X0*%
G04 #@! TD*
G04 #@! TA.AperFunction,ComponentPad*
%ADD14O,3.016000X1.508000*%
G04 #@! TD*
G04 #@! TA.AperFunction,ComponentPad*
%ADD15O,1.508000X3.016000*%
G04 #@! TD*
G04 #@! TA.AperFunction,ComponentPad*
%ADD16R,1.700000X1.700000*%
G04 #@! TD*
G04 #@! TA.AperFunction,ComponentPad*
%ADD17O,1.700000X1.700000*%
G04 #@! TD*
G04 #@! TA.AperFunction,ComponentPad*
%ADD18RoundRect,0.250000X0.600000X0.600000X-0.600000X0.600000X-0.600000X-0.600000X0.600000X-0.600000X0*%
G04 #@! TD*
G04 #@! TA.AperFunction,ComponentPad*
%ADD19C,1.700000*%
G04 #@! TD*
G04 #@! TA.AperFunction,Conductor*
%ADD20C,0.300000*%
G04 #@! TD*
G04 #@! TA.AperFunction,Conductor*
%ADD21C,1.000000*%
G04 #@! TD*
G04 APERTURE END LIST*
D10*
X77170000Y-48330000D03*
D11*
X73060000Y-59380000D03*
D12*
X78880000Y-55400000D03*
D10*
X77170000Y-81330000D03*
D11*
X73060000Y-92380000D03*
D12*
X78880000Y-88400000D03*
D10*
X77170000Y-163830000D03*
D11*
X73060000Y-174880000D03*
D12*
X78880000Y-170900000D03*
D10*
X77170000Y-114330000D03*
D11*
X73060000Y-125380000D03*
D12*
X78880000Y-121400000D03*
D10*
X77170000Y-196830000D03*
D11*
X73060000Y-207880000D03*
D12*
X78880000Y-203900000D03*
D10*
X77170000Y-97830000D03*
D11*
X73060000Y-108880000D03*
D12*
X78880000Y-104900000D03*
D10*
X77170000Y-180330000D03*
D11*
X73060000Y-191380000D03*
D12*
X78880000Y-187400000D03*
D10*
X77170000Y-147330000D03*
D11*
X73060000Y-158380000D03*
D12*
X78880000Y-154400000D03*
D10*
X77170000Y-130830000D03*
D11*
X73060000Y-141880000D03*
D12*
X78880000Y-137900000D03*
D10*
X77170000Y-64830000D03*
D11*
X73060000Y-75880000D03*
D12*
X78880000Y-71900000D03*
D13*
X84403810Y-57596190D03*
D14*
X88500000Y-46500000D03*
D15*
X82500000Y-50500000D03*
D13*
X84403810Y-90596190D03*
D14*
X88500000Y-79500000D03*
D15*
X82500000Y-83500000D03*
D13*
X84403810Y-206096190D03*
D14*
X88500000Y-195000000D03*
D15*
X82500000Y-199000000D03*
D13*
X84403810Y-107096190D03*
D14*
X88500000Y-96000000D03*
D15*
X82500000Y-100000000D03*
D13*
X84403810Y-140096190D03*
D14*
X88500000Y-129000000D03*
D15*
X82500000Y-133000000D03*
D13*
X84403810Y-156596190D03*
D14*
X88500000Y-145500000D03*
D15*
X82500000Y-149500000D03*
D13*
X84403810Y-123596190D03*
D14*
X88500000Y-112500000D03*
D15*
X82500000Y-116500000D03*
D13*
X84403810Y-173096190D03*
D14*
X88500000Y-162000000D03*
D15*
X82500000Y-166000000D03*
D13*
X84403810Y-189596190D03*
D14*
X88500000Y-178500000D03*
D15*
X82500000Y-182500000D03*
D13*
X84403810Y-74096190D03*
D14*
X88500000Y-63000000D03*
D15*
X82500000Y-67000000D03*
D16*
X60500000Y-86000000D03*
X61500000Y-189980000D03*
D17*
X61500000Y-192520000D03*
X61500000Y-195060000D03*
X61500000Y-197600000D03*
X61500000Y-200140000D03*
X61500000Y-202680000D03*
X61500000Y-205220000D03*
X61500000Y-207760000D03*
D16*
X61775000Y-66975000D03*
D17*
X61775000Y-69515000D03*
X61775000Y-72055000D03*
X59235000Y-66975000D03*
X59235000Y-69515000D03*
X59235000Y-72055000D03*
D16*
X60500000Y-53000000D03*
X60500000Y-168500000D03*
X60500000Y-152000000D03*
D18*
X54752500Y-186110000D03*
D19*
X52212500Y-186110000D03*
X54752500Y-188650000D03*
X52212500Y-188650000D03*
X54752500Y-191190000D03*
X52212500Y-191190000D03*
X54752500Y-193730000D03*
X52212500Y-193730000D03*
X54752500Y-196270000D03*
X52212500Y-196270000D03*
X54752500Y-198810000D03*
X52212500Y-198810000D03*
X54752500Y-201350000D03*
X52212500Y-201350000D03*
X54752500Y-203890000D03*
X52212500Y-203890000D03*
D16*
X61775000Y-132975000D03*
D17*
X61775000Y-135515000D03*
X61775000Y-138055000D03*
X59235000Y-132975000D03*
X59235000Y-135515000D03*
X59235000Y-138055000D03*
D16*
X60500000Y-119000000D03*
X61775000Y-99975000D03*
D17*
X61775000Y-102515000D03*
X61775000Y-105055000D03*
X59235000Y-99975000D03*
X59235000Y-102515000D03*
X59235000Y-105055000D03*
D20*
X62925000Y-102515000D02*
X61775000Y-102515000D01*
X73060000Y-92380000D02*
X62925000Y-102515000D01*
X73060000Y-59380000D02*
X62925000Y-69515000D01*
X62925000Y-69515000D02*
X61775000Y-69515000D01*
X73060000Y-125380000D02*
X62925000Y-135515000D01*
X62925000Y-135515000D02*
X61775000Y-135515000D01*
D21*
X77170000Y-180330000D02*
X84403810Y-173096190D01*
X77170000Y-196830000D02*
X77170000Y-198970000D01*
X77170000Y-81330000D02*
X77170000Y-83470000D01*
X77170000Y-66770000D02*
X84403810Y-74003810D01*
X77170000Y-132862380D02*
X84403810Y-140096190D01*
X52212500Y-191190000D02*
X54752500Y-191190000D01*
X77170000Y-64830000D02*
X84403810Y-57596190D01*
X77170000Y-97830000D02*
X77170000Y-99862380D01*
X77170000Y-163830000D02*
X77170000Y-165862380D01*
X77170000Y-198970000D02*
X84296190Y-206096190D01*
X77170000Y-165862380D02*
X84403810Y-173096190D01*
X52212500Y-188650000D02*
X52212500Y-191190000D01*
X54752500Y-191190000D02*
X54752500Y-188650000D01*
X77170000Y-196830000D02*
X84403810Y-189596190D01*
X77170000Y-97830000D02*
X84403810Y-90596190D01*
X77170000Y-147330000D02*
X84403810Y-140096190D01*
X77170000Y-116362380D02*
X84403810Y-123596190D01*
X77170000Y-130830000D02*
X84403810Y-123596190D01*
X77170000Y-149362380D02*
X84403810Y-156596190D01*
X52212500Y-188650000D02*
X54752500Y-188650000D01*
X77170000Y-50362380D02*
X84403810Y-57596190D01*
X84403810Y-74003810D02*
X84403810Y-74096190D01*
X77170000Y-48330000D02*
X77170000Y-50362380D01*
X84296190Y-90596190D02*
X84403810Y-90596190D01*
X77170000Y-114330000D02*
X84403810Y-107096190D01*
X77170000Y-81330000D02*
X84403810Y-74096190D01*
X54752500Y-193730000D02*
X54752500Y-191190000D01*
X52212500Y-191190000D02*
X52212500Y-193730000D01*
X77170000Y-180330000D02*
X77170000Y-182362380D01*
X77170000Y-182362380D02*
X84403810Y-189596190D01*
X77170000Y-99862380D02*
X84403810Y-107096190D01*
X77170000Y-64830000D02*
X77170000Y-66770000D01*
X77170000Y-83470000D02*
X84296190Y-90596190D01*
X52212500Y-193730000D02*
X54752500Y-193730000D01*
X77170000Y-130830000D02*
X77170000Y-132862380D01*
X77170000Y-114330000D02*
X77170000Y-116362380D01*
X77170000Y-147330000D02*
X77170000Y-149362380D01*
X77170000Y-163830000D02*
X84403810Y-156596190D01*
X84296190Y-206096190D02*
X84403810Y-206096190D01*
G04 #@! TA.AperFunction,Conductor*
G36*
X86745207Y-45520185D02*
G01*
X86790962Y-45572989D01*
X86800906Y-45642147D01*
X86778486Y-45697385D01*
X86673058Y-45842495D01*
X86583408Y-46018441D01*
X86522389Y-46206236D01*
X86491500Y-46401263D01*
X86491500Y-46598736D01*
X86522389Y-46793763D01*
X86583408Y-46981558D01*
X86583409Y-46981561D01*
X86673056Y-47157501D01*
X86673058Y-47157504D01*
X86789115Y-47317246D01*
X86928753Y-47456884D01*
X87061391Y-47553249D01*
X87088499Y-47572944D01*
X87264439Y-47662591D01*
X87356604Y-47692537D01*
X87452236Y-47723610D01*
X87647264Y-47754500D01*
X87647269Y-47754500D01*
X89352736Y-47754500D01*
X89547763Y-47723610D01*
X89735561Y-47662591D01*
X89911501Y-47572944D01*
X90001192Y-47507779D01*
X90071246Y-47456884D01*
X90071248Y-47456881D01*
X90071252Y-47456879D01*
X90210879Y-47317252D01*
X90210881Y-47317248D01*
X90210884Y-47317246D01*
X90261779Y-47247192D01*
X90326944Y-47157501D01*
X90416591Y-46981561D01*
X90477610Y-46793763D01*
X90488878Y-46722620D01*
X90508500Y-46598736D01*
X90508500Y-46401263D01*
X90477610Y-46206236D01*
X90457270Y-46143637D01*
X90416591Y-46018439D01*
X90326944Y-45842499D01*
X90314139Y-45824874D01*
X90221514Y-45697385D01*
X90198034Y-45631579D01*
X90213860Y-45563525D01*
X90263966Y-45514830D01*
X90321832Y-45500500D01*
X95875500Y-45500500D01*
X95942539Y-45520185D01*
X95988294Y-45572989D01*
X95999500Y-45624500D01*
X95999500Y-219375500D01*
X95979815Y-219442539D01*
X95927011Y-219488294D01*
X95875500Y-219499500D01*
X49124500Y-219499500D01*
X49057461Y-219479815D01*
X49011706Y-219427011D01*
X49000500Y-219375500D01*
X49000500Y-212892682D01*
X51999500Y-212892682D01*
X51999500Y-215107317D01*
X52030044Y-215319764D01*
X52030047Y-215319774D01*
X52090517Y-215525715D01*
X52179672Y-215720938D01*
X52179679Y-215720951D01*
X52295720Y-215901514D01*
X52436275Y-216063724D01*
X52560277Y-216171172D01*
X52598487Y-216204281D01*
X52727531Y-216287211D01*
X52779048Y-216320320D01*
X52779061Y-216320327D01*
X52974284Y-216409482D01*
X52974288Y-216409483D01*
X52974290Y-216409484D01*
X53180231Y-216469954D01*
X53180232Y-216469954D01*
X53180235Y-216469955D01*
X53243584Y-216479062D01*
X53392682Y-216500500D01*
X53392683Y-216500500D01*
X91607317Y-216500500D01*
X91607318Y-216500500D01*
X91777851Y-216475980D01*
X91819764Y-216469955D01*
X91819765Y-216469954D01*
X91819769Y-216469954D01*
X92025710Y-216409484D01*
X92025713Y-216409482D01*
X92025715Y-216409482D01*
X92220938Y-216320327D01*
X92220944Y-216320323D01*
X92220950Y-216320321D01*
X92401513Y-216204281D01*
X92563724Y-216063724D01*
X92704281Y-215901513D01*
X92820321Y-215720950D01*
X92820323Y-215720944D01*
X92820327Y-215720938D01*
X92909482Y-215525715D01*
X92909482Y-215525713D01*
X92909484Y-215525710D01*
X92969954Y-215319769D01*
X93000500Y-215107318D01*
X93000500Y-215000000D01*
X93000500Y-214934108D01*
X93000500Y-212934108D01*
X93000500Y-212892682D01*
X92969954Y-212680231D01*
X92909484Y-212474290D01*
X92909483Y-212474288D01*
X92909482Y-212474284D01*
X92820327Y-212279061D01*
X92820320Y-212279048D01*
X92787211Y-212227531D01*
X92704281Y-212098487D01*
X92671172Y-212060277D01*
X92563724Y-211936275D01*
X92401514Y-211795720D01*
X92401513Y-211795719D01*
X92336991Y-211754253D01*
X92220951Y-211679679D01*
X92220938Y-211679672D01*
X92025715Y-211590517D01*
X91819774Y-211530047D01*
X91819764Y-211530044D01*
X91628754Y-211502582D01*
X91607318Y-211499500D01*
X91565892Y-211499500D01*
X53565892Y-211499500D01*
X53500000Y-211499500D01*
X53392682Y-211499500D01*
X53180235Y-211530044D01*
X53180225Y-211530047D01*
X52974284Y-211590517D01*
X52779061Y-211679672D01*
X52779048Y-211679679D01*
X52598485Y-211795720D01*
X52436275Y-211936275D01*
X52295720Y-212098485D01*
X52179679Y-212279048D01*
X52179672Y-212279061D01*
X52090517Y-212474284D01*
X52030047Y-212680225D01*
X52030044Y-212680235D01*
X51999500Y-212892682D01*
X49000500Y-212892682D01*
X49000500Y-196269999D01*
X50856841Y-196269999D01*
X50856841Y-196270000D01*
X50877436Y-196505403D01*
X50877438Y-196505413D01*
X50938594Y-196733655D01*
X50938596Y-196733659D01*
X50938597Y-196733663D01*
X50942500Y-196742032D01*
X51038465Y-196947830D01*
X51038467Y-196947834D01*
X51145015Y-197099999D01*
X51174001Y-197141396D01*
X51174006Y-197141402D01*
X51341097Y-197308493D01*
X51341103Y-197308498D01*
X51526658Y-197438425D01*
X51570283Y-197493002D01*
X51577477Y-197562500D01*
X51545954Y-197624855D01*
X51526658Y-197641575D01*
X51341097Y-197771505D01*
X51174005Y-197938597D01*
X51038465Y-198132169D01*
X51038464Y-198132171D01*
X50938598Y-198346335D01*
X50938594Y-198346344D01*
X50877438Y-198574586D01*
X50877436Y-198574596D01*
X50856841Y-198809999D01*
X50856841Y-198810000D01*
X50877436Y-199045403D01*
X50877438Y-199045413D01*
X50938594Y-199273655D01*
X50938596Y-199273659D01*
X50938597Y-199273663D01*
X50942500Y-199282032D01*
X51038465Y-199487830D01*
X51038467Y-199487834D01*
X51146781Y-199642521D01*
X51174001Y-199681396D01*
X51174006Y-199681402D01*
X51341097Y-199848493D01*
X51341103Y-199848498D01*
X51526658Y-199978425D01*
X51570283Y-200033002D01*
X51577477Y-200102500D01*
X51545954Y-200164855D01*
X51526658Y-200181575D01*
X51341097Y-200311505D01*
X51174005Y-200478597D01*
X51038465Y-200672169D01*
X51038464Y-200672171D01*
X50938598Y-200886335D01*
X50938594Y-200886344D01*
X50877438Y-201114586D01*
X50877436Y-201114596D01*
X50856841Y-201349999D01*
X50856841Y-201350000D01*
X50877436Y-201585403D01*
X50877438Y-201585413D01*
X50938594Y-201813655D01*
X50938596Y-201813659D01*
X50938597Y-201813663D01*
X50942500Y-201822032D01*
X51038465Y-202027830D01*
X51038467Y-202027834D01*
X51146781Y-202182521D01*
X51174001Y-202221396D01*
X51174006Y-202221402D01*
X51341097Y-202388493D01*
X51341103Y-202388498D01*
X51526658Y-202518425D01*
X51570283Y-202573002D01*
X51577477Y-202642500D01*
X51545954Y-202704855D01*
X51526658Y-202721575D01*
X51341097Y-202851505D01*
X51174005Y-203018597D01*
X51038465Y-203212169D01*
X51038464Y-203212171D01*
X50938598Y-203426335D01*
X50938594Y-203426344D01*
X50877438Y-203654586D01*
X50877436Y-203654596D01*
X50856841Y-203889999D01*
X50856841Y-203890000D01*
X50877436Y-204125403D01*
X50877438Y-204125413D01*
X50938594Y-204353655D01*
X50938596Y-204353659D01*
X50938597Y-204353663D01*
X51018504Y-204525023D01*
X51038465Y-204567830D01*
X51038467Y-204567834D01*
X51146781Y-204722521D01*
X51174005Y-204761401D01*
X51341099Y-204928495D01*
X51437884Y-204996265D01*
X51534665Y-205064032D01*
X51534667Y-205064033D01*
X51534670Y-205064035D01*
X51748837Y-205163903D01*
X51977092Y-205225063D01*
X52165418Y-205241539D01*
X52212499Y-205245659D01*
X52212500Y-205245659D01*
X52212501Y-205245659D01*
X52251734Y-205242226D01*
X52447908Y-205225063D01*
X52676163Y-205163903D01*
X52890330Y-205064035D01*
X53083901Y-204928495D01*
X53250995Y-204761401D01*
X53380925Y-204575842D01*
X53435502Y-204532217D01*
X53505000Y-204525023D01*
X53567355Y-204556546D01*
X53584075Y-204575842D01*
X53714000Y-204761395D01*
X53714005Y-204761401D01*
X53881099Y-204928495D01*
X53977884Y-204996265D01*
X54074665Y-205064032D01*
X54074667Y-205064033D01*
X54074670Y-205064035D01*
X54288837Y-205163903D01*
X54517092Y-205225063D01*
X54705418Y-205241539D01*
X54752499Y-205245659D01*
X54752500Y-205245659D01*
X54752501Y-205245659D01*
X54791734Y-205242226D01*
X54987908Y-205225063D01*
X55216163Y-205163903D01*
X55430330Y-205064035D01*
X55623901Y-204928495D01*
X55790995Y-204761401D01*
X55926535Y-204567830D01*
X56026403Y-204353663D01*
X56087563Y-204125408D01*
X56108159Y-203890000D01*
X56087563Y-203654592D01*
X56026403Y-203426337D01*
X55926535Y-203212171D01*
X55920925Y-203204158D01*
X55790994Y-203018597D01*
X55623902Y-202851506D01*
X55623896Y-202851501D01*
X55438342Y-202721575D01*
X55394717Y-202666998D01*
X55387523Y-202597500D01*
X55419046Y-202535145D01*
X55438342Y-202518425D01*
X55460526Y-202502891D01*
X55623901Y-202388495D01*
X55790995Y-202221401D01*
X55926535Y-202027830D01*
X56026403Y-201813663D01*
X56087563Y-201585408D01*
X56108159Y-201350000D01*
X56087563Y-201114592D01*
X56026403Y-200886337D01*
X55926535Y-200672171D01*
X55920925Y-200664158D01*
X55790994Y-200478597D01*
X55623902Y-200311506D01*
X55623896Y-200311501D01*
X55438342Y-200181575D01*
X55405109Y-200139999D01*
X60144341Y-200139999D01*
X60144341Y-200140000D01*
X60164936Y-200375403D01*
X60164938Y-200375413D01*
X60226094Y-200603655D01*
X60226096Y-200603659D01*
X60226097Y-200603663D01*
X60274649Y-200707783D01*
X60325965Y-200817830D01*
X60325967Y-200817834D01*
X60461501Y-201011395D01*
X60461506Y-201011402D01*
X60628597Y-201178493D01*
X60628603Y-201178498D01*
X60814158Y-201308425D01*
X60857783Y-201363002D01*
X60864977Y-201432500D01*
X60833454Y-201494855D01*
X60814158Y-201511575D01*
X60628597Y-201641505D01*
X60461505Y-201808597D01*
X60325965Y-202002169D01*
X60325964Y-202002171D01*
X60226098Y-202216335D01*
X60226094Y-202216344D01*
X60164938Y-202444586D01*
X60164936Y-202444596D01*
X60144341Y-202679999D01*
X60144341Y-202680000D01*
X60164936Y-202915403D01*
X60164938Y-202915413D01*
X60226094Y-203143655D01*
X60226096Y-203143659D01*
X60226097Y-203143663D01*
X60274649Y-203247783D01*
X60325965Y-203357830D01*
X60325967Y-203357834D01*
X60461501Y-203551395D01*
X60461506Y-203551402D01*
X60628597Y-203718493D01*
X60628603Y-203718498D01*
X60814158Y-203848425D01*
X60857783Y-203903002D01*
X60864977Y-203972500D01*
X60833454Y-204034855D01*
X60814158Y-204051575D01*
X60628597Y-204181505D01*
X60461505Y-204348597D01*
X60325965Y-204542169D01*
X60325964Y-204542171D01*
X60226098Y-204756335D01*
X60226094Y-204756344D01*
X60164938Y-204984586D01*
X60164936Y-204984596D01*
X60144341Y-205219999D01*
X60144341Y-205220000D01*
X60164936Y-205455403D01*
X60164938Y-205455413D01*
X60226094Y-205683655D01*
X60226096Y-205683659D01*
X60226097Y-205683663D01*
X60314325Y-205872867D01*
X60325965Y-205897830D01*
X60325967Y-205897834D01*
X60461501Y-206091395D01*
X60461506Y-206091402D01*
X60628597Y-206258493D01*
X60628603Y-206258498D01*
X60814158Y-206388425D01*
X60857783Y-206443002D01*
X60864977Y-206512500D01*
X60833454Y-206574855D01*
X60814158Y-206591575D01*
X60628597Y-206721505D01*
X60461505Y-206888597D01*
X60325965Y-207082169D01*
X60325964Y-207082171D01*
X60226098Y-207296335D01*
X60226094Y-207296344D01*
X60164938Y-207524586D01*
X60164936Y-207524596D01*
X60144341Y-207759999D01*
X60144341Y-207760000D01*
X60164936Y-207995403D01*
X60164938Y-207995413D01*
X60226094Y-208223655D01*
X60226096Y-208223659D01*
X60226097Y-208223663D01*
X60325965Y-208437830D01*
X60325967Y-208437834D01*
X60434281Y-208592521D01*
X60461505Y-208631401D01*
X60628599Y-208798495D01*
X60725384Y-208866265D01*
X60822165Y-208934032D01*
X60822167Y-208934033D01*
X60822170Y-208934035D01*
X61036337Y-209033903D01*
X61264592Y-209095063D01*
X61452918Y-209111539D01*
X61499999Y-209115659D01*
X61500000Y-209115659D01*
X61500001Y-209115659D01*
X61539234Y-209112226D01*
X61735408Y-209095063D01*
X61963663Y-209033903D01*
X62177830Y-208934035D01*
X62371401Y-208798495D01*
X62538495Y-208631401D01*
X62674035Y-208437830D01*
X62773903Y-208223663D01*
X62835063Y-207995408D01*
X62845160Y-207879998D01*
X71054390Y-207879998D01*
X71054390Y-207880001D01*
X71074804Y-208165433D01*
X71135628Y-208445037D01*
X71135630Y-208445043D01*
X71135631Y-208445046D01*
X71235633Y-208713161D01*
X71235635Y-208713166D01*
X71372770Y-208964309D01*
X71372775Y-208964317D01*
X71544254Y-209193387D01*
X71544270Y-209193405D01*
X71746594Y-209395729D01*
X71746612Y-209395745D01*
X71975682Y-209567224D01*
X71975690Y-209567229D01*
X72226833Y-209704364D01*
X72226832Y-209704364D01*
X72226836Y-209704365D01*
X72226839Y-209704367D01*
X72494954Y-209804369D01*
X72494960Y-209804370D01*
X72494962Y-209804371D01*
X72774566Y-209865195D01*
X72774568Y-209865195D01*
X72774572Y-209865196D01*
X73028220Y-209883337D01*
X73059999Y-209885610D01*
X73060000Y-209885610D01*
X73060001Y-209885610D01*
X73088595Y-209883564D01*
X73345428Y-209865196D01*
X73625046Y-209804369D01*
X73893161Y-209704367D01*
X74144315Y-209567226D01*
X74373395Y-209395739D01*
X74575739Y-209193395D01*
X74747226Y-208964315D01*
X74884367Y-208713161D01*
X74984369Y-208445046D01*
X75045196Y-208165428D01*
X75063564Y-207908595D01*
X75065610Y-207880001D01*
X75065610Y-207879998D01*
X75059279Y-207791477D01*
X75045196Y-207594572D01*
X74984369Y-207314954D01*
X74884367Y-207046839D01*
X74822494Y-206933528D01*
X74747229Y-206795690D01*
X74747224Y-206795682D01*
X74575745Y-206566612D01*
X74575729Y-206566594D01*
X74373405Y-206364270D01*
X74373387Y-206364254D01*
X74144317Y-206192775D01*
X74144309Y-206192770D01*
X73893166Y-206055635D01*
X73893167Y-206055635D01*
X73785915Y-206015632D01*
X73625046Y-205955631D01*
X73625043Y-205955630D01*
X73625037Y-205955628D01*
X73345433Y-205894804D01*
X73060001Y-205874390D01*
X73059999Y-205874390D01*
X72774566Y-205894804D01*
X72494962Y-205955628D01*
X72226833Y-206055635D01*
X71975690Y-206192770D01*
X71975682Y-206192775D01*
X71746612Y-206364254D01*
X71746594Y-206364270D01*
X71544270Y-206566594D01*
X71544254Y-206566612D01*
X71372775Y-206795682D01*
X71372770Y-206795690D01*
X71235635Y-207046833D01*
X71135628Y-207314962D01*
X71074804Y-207594566D01*
X71054390Y-207879998D01*
X62845160Y-207879998D01*
X62855659Y-207760000D01*
X62835063Y-207524592D01*
X62784652Y-207336454D01*
X62773905Y-207296344D01*
X62773904Y-207296343D01*
X62773903Y-207296337D01*
X62674035Y-207082171D01*
X62649296Y-207046839D01*
X62538494Y-206888597D01*
X62371402Y-206721506D01*
X62371396Y-206721501D01*
X62185842Y-206591575D01*
X62142217Y-206536998D01*
X62135023Y-206467500D01*
X62166546Y-206405145D01*
X62185842Y-206388425D01*
X62284258Y-206319513D01*
X62371401Y-206258495D01*
X62538495Y-206091401D01*
X62674035Y-205897830D01*
X62773903Y-205683663D01*
X62832670Y-205464339D01*
X82616651Y-205464339D01*
X82616651Y-205661722D01*
X82647529Y-205856678D01*
X82708521Y-206044397D01*
X82708522Y-206044400D01*
X82798133Y-206220270D01*
X82914155Y-206379958D01*
X82914155Y-206379960D01*
X83163543Y-206629348D01*
X83163544Y-206629348D01*
X83696703Y-206096190D01*
X83100547Y-205500034D01*
X83373481Y-205500034D01*
X83373481Y-205631686D01*
X83407555Y-205758852D01*
X83473381Y-205872867D01*
X84403810Y-206803297D01*
X83870651Y-207336454D01*
X84120044Y-207585846D01*
X84279730Y-207701865D01*
X84279736Y-207701869D01*
X84455598Y-207791477D01*
X84455604Y-207791479D01*
X84643320Y-207852470D01*
X84643319Y-207852470D01*
X84838277Y-207883349D01*
X85035660Y-207883349D01*
X85230616Y-207852470D01*
X85230619Y-207852470D01*
X85398451Y-207797938D01*
X84627134Y-207026621D01*
X84741148Y-207092446D01*
X84868314Y-207126520D01*
X84999966Y-207126520D01*
X85127132Y-207092446D01*
X85241148Y-207026620D01*
X85334240Y-206933528D01*
X85400066Y-206819512D01*
X85434140Y-206692346D01*
X85434140Y-206560694D01*
X85400066Y-206433528D01*
X85334240Y-206319513D01*
X85110916Y-206096189D01*
X85110917Y-206096189D01*
X85110917Y-206096190D01*
X86105558Y-207090831D01*
X86160090Y-206922999D01*
X86160090Y-206922996D01*
X86190969Y-206728040D01*
X86190969Y-206530656D01*
X86160090Y-206335699D01*
X86099099Y-206147984D01*
X86099097Y-206147978D01*
X86009489Y-205972116D01*
X86009485Y-205972110D01*
X85893466Y-205812424D01*
X85644075Y-205563031D01*
X85644074Y-205563031D01*
X85110917Y-206096189D01*
X85110916Y-206096189D01*
X84180487Y-205165761D01*
X84066472Y-205099935D01*
X83939306Y-205065861D01*
X83807654Y-205065861D01*
X83680488Y-205099935D01*
X83566473Y-205165761D01*
X83473381Y-205258853D01*
X83407555Y-205372868D01*
X83373481Y-205500034D01*
X83100547Y-205500034D01*
X82702061Y-205101548D01*
X82702060Y-205101548D01*
X82647529Y-205269381D01*
X82616651Y-205464339D01*
X62832670Y-205464339D01*
X62835063Y-205455408D01*
X62855659Y-205220000D01*
X62835063Y-204984592D01*
X62773903Y-204756337D01*
X62674035Y-204542171D01*
X62667066Y-204532217D01*
X62538494Y-204348597D01*
X62371402Y-204181506D01*
X62371396Y-204181501D01*
X62185842Y-204051575D01*
X62142217Y-203996998D01*
X62135023Y-203927500D01*
X62148925Y-203900000D01*
X77324706Y-203900000D01*
X77343853Y-204143297D01*
X77343853Y-204143300D01*
X77343854Y-204143302D01*
X77396367Y-204362032D01*
X77400830Y-204380619D01*
X77494222Y-204606089D01*
X77621737Y-204814173D01*
X77621738Y-204814176D01*
X77675449Y-204877063D01*
X77780241Y-204999759D01*
X77855499Y-205064035D01*
X77965823Y-205158261D01*
X77965826Y-205158262D01*
X78173910Y-205285777D01*
X78399381Y-205379169D01*
X78399378Y-205379169D01*
X78399384Y-205379170D01*
X78399388Y-205379172D01*
X78636698Y-205436146D01*
X78880000Y-205455294D01*
X79123302Y-205436146D01*
X79360612Y-205379172D01*
X79586089Y-205285777D01*
X79794179Y-205158259D01*
X79979759Y-204999759D01*
X80138259Y-204814179D01*
X80265777Y-204606089D01*
X80353444Y-204394440D01*
X83409168Y-204394440D01*
X83409168Y-204394441D01*
X84403810Y-205389083D01*
X84403811Y-205389083D01*
X84936968Y-204855924D01*
X84687579Y-204606535D01*
X84527890Y-204490513D01*
X84352020Y-204400902D01*
X84352017Y-204400901D01*
X84164298Y-204339909D01*
X83969342Y-204309031D01*
X83771960Y-204309031D01*
X83577001Y-204339909D01*
X83409168Y-204394440D01*
X80353444Y-204394440D01*
X80359172Y-204380612D01*
X80416146Y-204143302D01*
X80435294Y-203900000D01*
X80416146Y-203656698D01*
X80359172Y-203419388D01*
X80359169Y-203419380D01*
X80265777Y-203193910D01*
X80138262Y-202985826D01*
X80138261Y-202985823D01*
X80023543Y-202851506D01*
X79979759Y-202800241D01*
X79838975Y-202680000D01*
X79794176Y-202641738D01*
X79794173Y-202641737D01*
X79586089Y-202514222D01*
X79360618Y-202420830D01*
X79360621Y-202420830D01*
X79225950Y-202388498D01*
X79123302Y-202363854D01*
X79123300Y-202363853D01*
X79123297Y-202363853D01*
X78880000Y-202344706D01*
X78636702Y-202363853D01*
X78636698Y-202363854D01*
X78534063Y-202388495D01*
X78399380Y-202420830D01*
X78173910Y-202514222D01*
X77965826Y-202641737D01*
X77965823Y-202641738D01*
X77780241Y-202800241D01*
X77621738Y-202985823D01*
X77621737Y-202985826D01*
X77494222Y-203193910D01*
X77400830Y-203419380D01*
X77343853Y-203656702D01*
X77324706Y-203900000D01*
X62148925Y-203900000D01*
X62166546Y-203865145D01*
X62185842Y-203848425D01*
X62208026Y-203832891D01*
X62371401Y-203718495D01*
X62538495Y-203551401D01*
X62674035Y-203357830D01*
X62773903Y-203143663D01*
X62835063Y-202915408D01*
X62855659Y-202680000D01*
X62854521Y-202666998D01*
X62846298Y-202573002D01*
X62835063Y-202444592D01*
X62773903Y-202216337D01*
X62674035Y-202002171D01*
X62667066Y-201992217D01*
X62538494Y-201808597D01*
X62371402Y-201641506D01*
X62371396Y-201641501D01*
X62185842Y-201511575D01*
X62142217Y-201456998D01*
X62135023Y-201387500D01*
X62166546Y-201325145D01*
X62185842Y-201308425D01*
X62208026Y-201292891D01*
X62371401Y-201178495D01*
X62538495Y-201011401D01*
X62674035Y-200817830D01*
X62773903Y-200603663D01*
X62835063Y-200375408D01*
X62855659Y-200140000D01*
X62854521Y-200126998D01*
X62846298Y-200033002D01*
X62835063Y-199904592D01*
X62773903Y-199676337D01*
X62674035Y-199462171D01*
X62667066Y-199452217D01*
X62538494Y-199268597D01*
X62371402Y-199101506D01*
X62371401Y-199101505D01*
X62185405Y-198971269D01*
X62141781Y-198916692D01*
X62134588Y-198847193D01*
X62166110Y-198784839D01*
X62185405Y-198768119D01*
X62371082Y-198638105D01*
X62538105Y-198471082D01*
X62673601Y-198277576D01*
X62756406Y-198100000D01*
X61565826Y-198100000D01*
X61692993Y-198065925D01*
X61807007Y-198000099D01*
X61900099Y-197907007D01*
X61965925Y-197792993D01*
X62000000Y-197665826D01*
X62000000Y-197534174D01*
X61965925Y-197407007D01*
X61900099Y-197292993D01*
X61807007Y-197199901D01*
X61692993Y-197134075D01*
X61565826Y-197100000D01*
X62000000Y-197100000D01*
X62756406Y-197100000D01*
X62756405Y-197099999D01*
X62673599Y-196922421D01*
X62673597Y-196922417D01*
X62538113Y-196728926D01*
X62538108Y-196728920D01*
X62371082Y-196561894D01*
X62184968Y-196431575D01*
X62141344Y-196376998D01*
X62134151Y-196307499D01*
X62165673Y-196245145D01*
X62184968Y-196228425D01*
X62371082Y-196098105D01*
X62538105Y-195931082D01*
X62673601Y-195737576D01*
X62756406Y-195560000D01*
X62000000Y-195560000D01*
X62000000Y-197100000D01*
X61565826Y-197100000D01*
X61434174Y-197100000D01*
X61307007Y-197134075D01*
X61192993Y-197199901D01*
X61099901Y-197292993D01*
X61034075Y-197407007D01*
X61000000Y-197534174D01*
X61000000Y-197665826D01*
X61034075Y-197792993D01*
X61099901Y-197907007D01*
X61192993Y-198000099D01*
X61307007Y-198065925D01*
X61434174Y-198100000D01*
X60243593Y-198100000D01*
X60326398Y-198277576D01*
X60461894Y-198471082D01*
X60628917Y-198638105D01*
X60814595Y-198768119D01*
X60858219Y-198822696D01*
X60865412Y-198892195D01*
X60833890Y-198954549D01*
X60814595Y-198971269D01*
X60628594Y-199101508D01*
X60461505Y-199268597D01*
X60325965Y-199462169D01*
X60325964Y-199462171D01*
X60226098Y-199676335D01*
X60226094Y-199676344D01*
X60164938Y-199904586D01*
X60164936Y-199904596D01*
X60144341Y-200139999D01*
X55405109Y-200139999D01*
X55394717Y-200126998D01*
X55387523Y-200057500D01*
X55419046Y-199995145D01*
X55438342Y-199978425D01*
X55460526Y-199962891D01*
X55623901Y-199848495D01*
X55790995Y-199681401D01*
X55926535Y-199487830D01*
X56026403Y-199273663D01*
X56087563Y-199045408D01*
X56108159Y-198810000D01*
X56087563Y-198574592D01*
X56026403Y-198346337D01*
X55926535Y-198132171D01*
X55920925Y-198124158D01*
X55790994Y-197938597D01*
X55623902Y-197771506D01*
X55623896Y-197771501D01*
X55438342Y-197641575D01*
X55394717Y-197586998D01*
X55387523Y-197517500D01*
X55419046Y-197455145D01*
X55438342Y-197438425D01*
X55483211Y-197407007D01*
X55623901Y-197308495D01*
X55790995Y-197141401D01*
X55926535Y-196947830D01*
X56026403Y-196733663D01*
X56087563Y-196505408D01*
X56108159Y-196270000D01*
X56087563Y-196034592D01*
X56026403Y-195806337D01*
X55926535Y-195592171D01*
X55920925Y-195584158D01*
X55904009Y-195560000D01*
X60243593Y-195560000D01*
X60326398Y-195737576D01*
X60461894Y-195931082D01*
X60628917Y-196098105D01*
X60815031Y-196228425D01*
X60858656Y-196283003D01*
X60865848Y-196352501D01*
X60834326Y-196414856D01*
X60815031Y-196431575D01*
X60628922Y-196561890D01*
X60628920Y-196561891D01*
X60461891Y-196728920D01*
X60461886Y-196728926D01*
X60326402Y-196922417D01*
X60326400Y-196922421D01*
X60243594Y-197099999D01*
X60243594Y-197100000D01*
X61000000Y-197100000D01*
X61000000Y-195560000D01*
X60243593Y-195560000D01*
X55904009Y-195560000D01*
X55790994Y-195398597D01*
X55623902Y-195231506D01*
X55623895Y-195231501D01*
X55430331Y-195095965D01*
X55430329Y-195095964D01*
X55362905Y-195064524D01*
X55310466Y-195018352D01*
X55303574Y-194994174D01*
X61000000Y-194994174D01*
X61000000Y-195125826D01*
X61034075Y-195252993D01*
X61099901Y-195367007D01*
X61192993Y-195460099D01*
X61307007Y-195525925D01*
X61434174Y-195560000D01*
X61565826Y-195560000D01*
X61692993Y-195525925D01*
X61807007Y-195460099D01*
X61900099Y-195367007D01*
X61949088Y-195282155D01*
X75170000Y-195282155D01*
X75170000Y-196330000D01*
X76301399Y-196330000D01*
X76283811Y-196356322D01*
X76208429Y-196538311D01*
X76170000Y-196731509D01*
X76170000Y-196928491D01*
X76208429Y-197121689D01*
X76283811Y-197303678D01*
X76301399Y-197330000D01*
X75170000Y-197330000D01*
X75170000Y-198377844D01*
X75176401Y-198437372D01*
X75176403Y-198437379D01*
X75226645Y-198572086D01*
X75226649Y-198572093D01*
X75312809Y-198687187D01*
X75312812Y-198687190D01*
X75427906Y-198773350D01*
X75427913Y-198773354D01*
X75562620Y-198823596D01*
X75562627Y-198823598D01*
X75622155Y-198829999D01*
X75622172Y-198830000D01*
X76670000Y-198830000D01*
X76670000Y-197698601D01*
X76696322Y-197716189D01*
X76878311Y-197791571D01*
X77071509Y-197830000D01*
X77268491Y-197830000D01*
X77461689Y-197791571D01*
X77643678Y-197716189D01*
X77670000Y-197698601D01*
X77670000Y-198830000D01*
X78717828Y-198830000D01*
X78717844Y-198829999D01*
X78777372Y-198823598D01*
X78777379Y-198823596D01*
X78912086Y-198773354D01*
X78912093Y-198773350D01*
X79027187Y-198687190D01*
X79027190Y-198687187D01*
X79113350Y-198572093D01*
X79113354Y-198572086D01*
X79163596Y-198437379D01*
X79163598Y-198437372D01*
X79169999Y-198377844D01*
X79170000Y-198377827D01*
X79170000Y-198147263D01*
X81245500Y-198147263D01*
X81245500Y-199852736D01*
X81276389Y-200047763D01*
X81306359Y-200139999D01*
X81337409Y-200235561D01*
X81427056Y-200411501D01*
X81427058Y-200411504D01*
X81543115Y-200571246D01*
X81682753Y-200710884D01*
X81829955Y-200817830D01*
X81842499Y-200826944D01*
X82018439Y-200916591D01*
X82143637Y-200957270D01*
X82206236Y-200977610D01*
X82401264Y-201008500D01*
X82401269Y-201008500D01*
X82598736Y-201008500D01*
X82793763Y-200977610D01*
X82981561Y-200916591D01*
X83157501Y-200826944D01*
X83311612Y-200714977D01*
X83317246Y-200710884D01*
X83317248Y-200710881D01*
X83317252Y-200710879D01*
X83456879Y-200571252D01*
X83456881Y-200571248D01*
X83456884Y-200571246D01*
X83524196Y-200478597D01*
X83572944Y-200411501D01*
X83662591Y-200235561D01*
X83723610Y-200047763D01*
X83734592Y-199978425D01*
X83754500Y-199852736D01*
X83754500Y-198147263D01*
X83723610Y-197952236D01*
X83683893Y-197830000D01*
X83662591Y-197764439D01*
X83572944Y-197588499D01*
X83521361Y-197517500D01*
X83456884Y-197428753D01*
X83317246Y-197289115D01*
X83157504Y-197173058D01*
X83157503Y-197173057D01*
X83157501Y-197173056D01*
X82981561Y-197083409D01*
X82981558Y-197083408D01*
X82793763Y-197022389D01*
X82598736Y-196991500D01*
X82598731Y-196991500D01*
X82401269Y-196991500D01*
X82401264Y-196991500D01*
X82206236Y-197022389D01*
X82018441Y-197083408D01*
X81842495Y-197173058D01*
X81682753Y-197289115D01*
X81543115Y-197428753D01*
X81427058Y-197588495D01*
X81337408Y-197764441D01*
X81276389Y-197952236D01*
X81245500Y-198147263D01*
X79170000Y-198147263D01*
X79170000Y-197330000D01*
X78038601Y-197330000D01*
X78056189Y-197303678D01*
X78131571Y-197121689D01*
X78170000Y-196928491D01*
X78170000Y-196731509D01*
X78131571Y-196538311D01*
X78056189Y-196356322D01*
X78038601Y-196330000D01*
X79170000Y-196330000D01*
X79170000Y-195282172D01*
X79169999Y-195282155D01*
X79163598Y-195222627D01*
X79163596Y-195222620D01*
X79113354Y-195087913D01*
X79113350Y-195087906D01*
X79027190Y-194972812D01*
X79027187Y-194972809D01*
X78931615Y-194901263D01*
X86491500Y-194901263D01*
X86491500Y-195098736D01*
X86522389Y-195293763D01*
X86583408Y-195481558D01*
X86583409Y-195481561D01*
X86673056Y-195657501D01*
X86673058Y-195657504D01*
X86789115Y-195817246D01*
X86928753Y-195956884D01*
X87035717Y-196034596D01*
X87088499Y-196072944D01*
X87264439Y-196162591D01*
X87356604Y-196192537D01*
X87452236Y-196223610D01*
X87647264Y-196254500D01*
X87647269Y-196254500D01*
X89352736Y-196254500D01*
X89547763Y-196223610D01*
X89735561Y-196162591D01*
X89911501Y-196072944D01*
X90001192Y-196007779D01*
X90071246Y-195956884D01*
X90071248Y-195956881D01*
X90071252Y-195956879D01*
X90210879Y-195817252D01*
X90210881Y-195817248D01*
X90210884Y-195817246D01*
X90261779Y-195747192D01*
X90326944Y-195657501D01*
X90416591Y-195481561D01*
X90477610Y-195293763D01*
X90487471Y-195231505D01*
X90508500Y-195098736D01*
X90508500Y-194901263D01*
X90477610Y-194706236D01*
X90457270Y-194643637D01*
X90416591Y-194518439D01*
X90326944Y-194342499D01*
X90319486Y-194332234D01*
X90210884Y-194182753D01*
X90071246Y-194043115D01*
X89911504Y-193927058D01*
X89911503Y-193927057D01*
X89911501Y-193927056D01*
X89735561Y-193837409D01*
X89734296Y-193836998D01*
X89547763Y-193776389D01*
X89352736Y-193745500D01*
X89352731Y-193745500D01*
X87647269Y-193745500D01*
X87647264Y-193745500D01*
X87452236Y-193776389D01*
X87264441Y-193837408D01*
X87088495Y-193927058D01*
X86928753Y-194043115D01*
X86789115Y-194182753D01*
X86673058Y-194342495D01*
X86583408Y-194518441D01*
X86522389Y-194706236D01*
X86491500Y-194901263D01*
X78931615Y-194901263D01*
X78912093Y-194886649D01*
X78912086Y-194886645D01*
X78777379Y-194836403D01*
X78777372Y-194836401D01*
X78717844Y-194830000D01*
X77670000Y-194830000D01*
X77670000Y-195961398D01*
X77643678Y-195943811D01*
X77461689Y-195868429D01*
X77268491Y-195830000D01*
X77071509Y-195830000D01*
X76878311Y-195868429D01*
X76696322Y-195943811D01*
X76670000Y-195961398D01*
X76670000Y-194830000D01*
X75622155Y-194830000D01*
X75562627Y-194836401D01*
X75562620Y-194836403D01*
X75427913Y-194886645D01*
X75427906Y-194886649D01*
X75312812Y-194972809D01*
X75312809Y-194972812D01*
X75226649Y-195087906D01*
X75226645Y-195087913D01*
X75176403Y-195222620D01*
X75176401Y-195222627D01*
X75170000Y-195282155D01*
X61949088Y-195282155D01*
X61965925Y-195252993D01*
X62000000Y-195125826D01*
X62000000Y-194994174D01*
X61965925Y-194867007D01*
X61900099Y-194752993D01*
X61807007Y-194659901D01*
X61692993Y-194594075D01*
X61565826Y-194560000D01*
X62000000Y-194560000D01*
X62756406Y-194560000D01*
X62756405Y-194559999D01*
X62673599Y-194382421D01*
X62673597Y-194382417D01*
X62538113Y-194188926D01*
X62538108Y-194188920D01*
X62371082Y-194021894D01*
X62184968Y-193891575D01*
X62141344Y-193836998D01*
X62134151Y-193767499D01*
X62165673Y-193705145D01*
X62184968Y-193688425D01*
X62371082Y-193558105D01*
X62538105Y-193391082D01*
X62673601Y-193197576D01*
X62756406Y-193020000D01*
X62000000Y-193020000D01*
X62000000Y-194560000D01*
X61565826Y-194560000D01*
X61434174Y-194560000D01*
X61307007Y-194594075D01*
X61192993Y-194659901D01*
X61099901Y-194752993D01*
X61034075Y-194867007D01*
X61000000Y-194994174D01*
X55303574Y-194994174D01*
X55301185Y-194985792D01*
X54752501Y-194437107D01*
X54752500Y-194437107D01*
X54205880Y-194983725D01*
X54204060Y-195000049D01*
X54160003Y-195054278D01*
X54142094Y-195064523D01*
X54074677Y-195095961D01*
X54074669Y-195095965D01*
X53881097Y-195231505D01*
X53714005Y-195398597D01*
X53584075Y-195584158D01*
X53529498Y-195627783D01*
X53460000Y-195634977D01*
X53397645Y-195603454D01*
X53380925Y-195584158D01*
X53250994Y-195398597D01*
X53083902Y-195231506D01*
X53083895Y-195231501D01*
X52890331Y-195095965D01*
X52890329Y-195095964D01*
X52822905Y-195064524D01*
X52770466Y-195018352D01*
X52761185Y-194985792D01*
X52212501Y-194437107D01*
X52212500Y-194437107D01*
X51665880Y-194983725D01*
X51664060Y-195000049D01*
X51620003Y-195054278D01*
X51602094Y-195064523D01*
X51534677Y-195095961D01*
X51534669Y-195095965D01*
X51341097Y-195231505D01*
X51174005Y-195398597D01*
X51038465Y-195592169D01*
X51038464Y-195592171D01*
X50938598Y-195806335D01*
X50938594Y-195806344D01*
X50877438Y-196034586D01*
X50877436Y-196034596D01*
X50856841Y-196269999D01*
X49000500Y-196269999D01*
X49000500Y-193729998D01*
X50857343Y-193729998D01*
X50857343Y-193730001D01*
X50877930Y-193965315D01*
X50877932Y-193965326D01*
X50939066Y-194193483D01*
X50939071Y-194193497D01*
X50971770Y-194263621D01*
X50971771Y-194263621D01*
X51505393Y-193730000D01*
X51439567Y-193664174D01*
X51712500Y-193664174D01*
X51712500Y-193795826D01*
X51746575Y-193922993D01*
X51812401Y-194037007D01*
X51905493Y-194130099D01*
X52019507Y-194195925D01*
X52146674Y-194230000D01*
X52278326Y-194230000D01*
X52405493Y-194195925D01*
X52519507Y-194130099D01*
X52612599Y-194037007D01*
X52678425Y-193922993D01*
X52712500Y-193795826D01*
X52712500Y-193729999D01*
X52919607Y-193729999D01*
X52919607Y-193730000D01*
X53453227Y-194263620D01*
X53460965Y-194262256D01*
X53504031Y-194262256D01*
X53511771Y-194263620D01*
X54045393Y-193730000D01*
X53979567Y-193664174D01*
X54252500Y-193664174D01*
X54252500Y-193795826D01*
X54286575Y-193922993D01*
X54352401Y-194037007D01*
X54445493Y-194130099D01*
X54559507Y-194195925D01*
X54686674Y-194230000D01*
X54818326Y-194230000D01*
X54945493Y-194195925D01*
X55059507Y-194130099D01*
X55152599Y-194037007D01*
X55218425Y-193922993D01*
X55252500Y-193795826D01*
X55252500Y-193729999D01*
X55459607Y-193729999D01*
X55459607Y-193730000D01*
X55993227Y-194263621D01*
X56025929Y-194193494D01*
X56087068Y-193965322D01*
X56087069Y-193965315D01*
X56107657Y-193730001D01*
X56107657Y-193729998D01*
X56087069Y-193494684D01*
X56087067Y-193494673D01*
X56025933Y-193266516D01*
X56025929Y-193266507D01*
X55993228Y-193196378D01*
X55459607Y-193729999D01*
X55252500Y-193729999D01*
X55252500Y-193664174D01*
X55218425Y-193537007D01*
X55152599Y-193422993D01*
X55059507Y-193329901D01*
X54945493Y-193264075D01*
X54818326Y-193230000D01*
X54686674Y-193230000D01*
X54559507Y-193264075D01*
X54445493Y-193329901D01*
X54352401Y-193422993D01*
X54286575Y-193537007D01*
X54252500Y-193664174D01*
X53979567Y-193664174D01*
X53511770Y-193196377D01*
X53504029Y-193197742D01*
X53460966Y-193197742D01*
X53453227Y-193196377D01*
X52919607Y-193729999D01*
X52712500Y-193729999D01*
X52712500Y-193664174D01*
X52678425Y-193537007D01*
X52612599Y-193422993D01*
X52519507Y-193329901D01*
X52405493Y-193264075D01*
X52278326Y-193230000D01*
X52146674Y-193230000D01*
X52019507Y-193264075D01*
X51905493Y-193329901D01*
X51812401Y-193422993D01*
X51746575Y-193537007D01*
X51712500Y-193664174D01*
X51439567Y-193664174D01*
X50971771Y-193196378D01*
X50939067Y-193266513D01*
X50877932Y-193494673D01*
X50877930Y-193494684D01*
X50857343Y-193729998D01*
X49000500Y-193729998D01*
X49000500Y-192430727D01*
X51678877Y-192430727D01*
X51680242Y-192438466D01*
X51680242Y-192481529D01*
X51678877Y-192489270D01*
X52212500Y-193022893D01*
X52212501Y-193022893D01*
X52746120Y-192489271D01*
X52744756Y-192481531D01*
X52744756Y-192438465D01*
X52746120Y-192430727D01*
X54218877Y-192430727D01*
X54220242Y-192438466D01*
X54220242Y-192481529D01*
X54218877Y-192489270D01*
X54752500Y-193022893D01*
X54752501Y-193022893D01*
X54755394Y-193020000D01*
X60243593Y-193020000D01*
X60326398Y-193197576D01*
X60461894Y-193391082D01*
X60628917Y-193558105D01*
X60815031Y-193688425D01*
X60858656Y-193743003D01*
X60865848Y-193812501D01*
X60834326Y-193874856D01*
X60815031Y-193891575D01*
X60628922Y-194021890D01*
X60628920Y-194021891D01*
X60461891Y-194188920D01*
X60461886Y-194188926D01*
X60326402Y-194382417D01*
X60326400Y-194382421D01*
X60243594Y-194559999D01*
X60243594Y-194560000D01*
X61000000Y-194560000D01*
X61000000Y-193020000D01*
X60243593Y-193020000D01*
X54755394Y-193020000D01*
X55286120Y-192489271D01*
X55284756Y-192481531D01*
X55284756Y-192438465D01*
X55286120Y-192430727D01*
X54752501Y-191897107D01*
X54752500Y-191897107D01*
X54218877Y-192430727D01*
X52746120Y-192430727D01*
X52212501Y-191897107D01*
X52212500Y-191897107D01*
X51678877Y-192430727D01*
X49000500Y-192430727D01*
X49000500Y-191189998D01*
X50857343Y-191189998D01*
X50857343Y-191190001D01*
X50877930Y-191425315D01*
X50877932Y-191425326D01*
X50939066Y-191653483D01*
X50939071Y-191653497D01*
X50971770Y-191723621D01*
X50971771Y-191723621D01*
X51505393Y-191190000D01*
X51439567Y-191124174D01*
X51712500Y-191124174D01*
X51712500Y-191255826D01*
X51746575Y-191382993D01*
X51812401Y-191497007D01*
X51905493Y-191590099D01*
X52019507Y-191655925D01*
X52146674Y-191690000D01*
X52278326Y-191690000D01*
X52405493Y-191655925D01*
X52519507Y-191590099D01*
X52612599Y-191497007D01*
X52678425Y-191382993D01*
X52712500Y-191255826D01*
X52712500Y-191189999D01*
X52919607Y-191189999D01*
X52919607Y-191190000D01*
X53453227Y-191723620D01*
X53460965Y-191722256D01*
X53504031Y-191722256D01*
X53511771Y-191723620D01*
X54045393Y-191190000D01*
X53979567Y-191124174D01*
X54252500Y-191124174D01*
X54252500Y-191255826D01*
X54286575Y-191382993D01*
X54352401Y-191497007D01*
X54445493Y-191590099D01*
X54559507Y-191655925D01*
X54686674Y-191690000D01*
X54818326Y-191690000D01*
X54945493Y-191655925D01*
X55059507Y-191590099D01*
X55152599Y-191497007D01*
X55218425Y-191382993D01*
X55252500Y-191255826D01*
X55252500Y-191189999D01*
X55459607Y-191189999D01*
X55459607Y-191190000D01*
X55993227Y-191723621D01*
X56025929Y-191653494D01*
X56087068Y-191425322D01*
X56087069Y-191425315D01*
X56107657Y-191190001D01*
X56107657Y-191189998D01*
X56087069Y-190954684D01*
X56087067Y-190954673D01*
X56025933Y-190726516D01*
X56025929Y-190726507D01*
X55993228Y-190656378D01*
X55459607Y-191189999D01*
X55252500Y-191189999D01*
X55252500Y-191124174D01*
X55218425Y-190997007D01*
X55152599Y-190882993D01*
X55059507Y-190789901D01*
X54945493Y-190724075D01*
X54818326Y-190690000D01*
X54686674Y-190690000D01*
X54559507Y-190724075D01*
X54445493Y-190789901D01*
X54352401Y-190882993D01*
X54286575Y-190997007D01*
X54252500Y-191124174D01*
X53979567Y-191124174D01*
X53511770Y-190656377D01*
X53504029Y-190657742D01*
X53460966Y-190657742D01*
X53453227Y-190656377D01*
X52919607Y-191189999D01*
X52712500Y-191189999D01*
X52712500Y-191124174D01*
X52678425Y-190997007D01*
X52612599Y-190882993D01*
X52519507Y-190789901D01*
X52405493Y-190724075D01*
X52278326Y-190690000D01*
X52146674Y-190690000D01*
X52019507Y-190724075D01*
X51905493Y-190789901D01*
X51812401Y-190882993D01*
X51746575Y-190997007D01*
X51712500Y-191124174D01*
X51439567Y-191124174D01*
X50971771Y-190656378D01*
X50939067Y-190726513D01*
X50877932Y-190954673D01*
X50877930Y-190954684D01*
X50857343Y-191189998D01*
X49000500Y-191189998D01*
X49000500Y-189890727D01*
X51678877Y-189890727D01*
X51680242Y-189898466D01*
X51680242Y-189941529D01*
X51678877Y-189949270D01*
X52212500Y-190482893D01*
X52212501Y-190482893D01*
X52746120Y-189949271D01*
X52744756Y-189941531D01*
X52744756Y-189898465D01*
X52746120Y-189890727D01*
X54218877Y-189890727D01*
X54220242Y-189898466D01*
X54220242Y-189941529D01*
X54218877Y-189949270D01*
X54752500Y-190482893D01*
X54752501Y-190482893D01*
X55286120Y-189949271D01*
X55284756Y-189941531D01*
X55284756Y-189898465D01*
X55286120Y-189890727D01*
X54752501Y-189357107D01*
X54752500Y-189357107D01*
X54218877Y-189890727D01*
X52746120Y-189890727D01*
X52212501Y-189357107D01*
X52212500Y-189357107D01*
X51678877Y-189890727D01*
X49000500Y-189890727D01*
X49000500Y-188649998D01*
X50857343Y-188649998D01*
X50857343Y-188650001D01*
X50877930Y-188885315D01*
X50877932Y-188885326D01*
X50939066Y-189113483D01*
X50939071Y-189113497D01*
X50971770Y-189183621D01*
X50971771Y-189183621D01*
X51505393Y-188650000D01*
X51439567Y-188584174D01*
X51712500Y-188584174D01*
X51712500Y-188715826D01*
X51746575Y-188842993D01*
X51812401Y-188957007D01*
X51905493Y-189050099D01*
X52019507Y-189115925D01*
X52146674Y-189150000D01*
X52278326Y-189150000D01*
X52405493Y-189115925D01*
X52519507Y-189050099D01*
X52612599Y-188957007D01*
X52678425Y-188842993D01*
X52712500Y-188715826D01*
X52712500Y-188649999D01*
X52919607Y-188649999D01*
X52919607Y-188650000D01*
X53453227Y-189183620D01*
X53460965Y-189182256D01*
X53504031Y-189182256D01*
X53511771Y-189183620D01*
X54045393Y-188650000D01*
X53979567Y-188584174D01*
X54252500Y-188584174D01*
X54252500Y-188715826D01*
X54286575Y-188842993D01*
X54352401Y-188957007D01*
X54445493Y-189050099D01*
X54559507Y-189115925D01*
X54686674Y-189150000D01*
X54818326Y-189150000D01*
X54945493Y-189115925D01*
X55059507Y-189050099D01*
X55152599Y-188957007D01*
X55218425Y-188842993D01*
X55252500Y-188715826D01*
X55252500Y-188649999D01*
X55459607Y-188649999D01*
X55459607Y-188650000D01*
X55993227Y-189183621D01*
X56025929Y-189113494D01*
X56034332Y-189082135D01*
X60149500Y-189082135D01*
X60149500Y-190877870D01*
X60149501Y-190877876D01*
X60155908Y-190937483D01*
X60206202Y-191072328D01*
X60206206Y-191072335D01*
X60292452Y-191187544D01*
X60292455Y-191187547D01*
X60407664Y-191273793D01*
X60407671Y-191273797D01*
X60469902Y-191297007D01*
X60539598Y-191323002D01*
X60595531Y-191364873D01*
X60619949Y-191430337D01*
X60605098Y-191498610D01*
X60583947Y-191526865D01*
X60461886Y-191648926D01*
X60326402Y-191842417D01*
X60326400Y-191842421D01*
X60243594Y-192019999D01*
X60243594Y-192020000D01*
X61434174Y-192020000D01*
X61307007Y-192054075D01*
X61192993Y-192119901D01*
X61099901Y-192212993D01*
X61034075Y-192327007D01*
X61000000Y-192454174D01*
X61000000Y-192585826D01*
X61034075Y-192712993D01*
X61099901Y-192827007D01*
X61192993Y-192920099D01*
X61307007Y-192985925D01*
X61434174Y-193020000D01*
X61565826Y-193020000D01*
X61692993Y-192985925D01*
X61807007Y-192920099D01*
X61900099Y-192827007D01*
X61965925Y-192712993D01*
X62000000Y-192585826D01*
X62000000Y-192454174D01*
X61965925Y-192327007D01*
X61900099Y-192212993D01*
X61807007Y-192119901D01*
X61692993Y-192054075D01*
X61565826Y-192020000D01*
X62756406Y-192020000D01*
X62756405Y-192019999D01*
X62673599Y-191842421D01*
X62673597Y-191842417D01*
X62538113Y-191648926D01*
X62538108Y-191648920D01*
X62416053Y-191526865D01*
X62382568Y-191465542D01*
X62387552Y-191395850D01*
X62399419Y-191379998D01*
X71054390Y-191379998D01*
X71054390Y-191380001D01*
X71074804Y-191665433D01*
X71135628Y-191945037D01*
X71135630Y-191945043D01*
X71135631Y-191945046D01*
X71176297Y-192054075D01*
X71235635Y-192213166D01*
X71372770Y-192464309D01*
X71372775Y-192464317D01*
X71544254Y-192693387D01*
X71544270Y-192693405D01*
X71746594Y-192895729D01*
X71746612Y-192895745D01*
X71975682Y-193067224D01*
X71975690Y-193067229D01*
X72226833Y-193204364D01*
X72226832Y-193204364D01*
X72226836Y-193204365D01*
X72226839Y-193204367D01*
X72494954Y-193304369D01*
X72494960Y-193304370D01*
X72494962Y-193304371D01*
X72774566Y-193365195D01*
X72774568Y-193365195D01*
X72774572Y-193365196D01*
X73028220Y-193383337D01*
X73059999Y-193385610D01*
X73060000Y-193385610D01*
X73060001Y-193385610D01*
X73088595Y-193383564D01*
X73345428Y-193365196D01*
X73625046Y-193304369D01*
X73893161Y-193204367D01*
X74144315Y-193067226D01*
X74373395Y-192895739D01*
X74575739Y-192693395D01*
X74747226Y-192464315D01*
X74884367Y-192213161D01*
X74984369Y-191945046D01*
X74984371Y-191945037D01*
X75045195Y-191665433D01*
X75045195Y-191665432D01*
X75045196Y-191665428D01*
X75064476Y-191395850D01*
X75065610Y-191380001D01*
X75065610Y-191379998D01*
X75052870Y-191201869D01*
X75045196Y-191094572D01*
X75014765Y-190954684D01*
X74984371Y-190814962D01*
X74984370Y-190814960D01*
X74984369Y-190814954D01*
X74884367Y-190546839D01*
X74822494Y-190433528D01*
X74747229Y-190295690D01*
X74747224Y-190295682D01*
X74575745Y-190066612D01*
X74575729Y-190066594D01*
X74373405Y-189864270D01*
X74373387Y-189864254D01*
X74144317Y-189692775D01*
X74144309Y-189692770D01*
X73893166Y-189555635D01*
X73893167Y-189555635D01*
X73785915Y-189515632D01*
X73625046Y-189455631D01*
X73625043Y-189455630D01*
X73625037Y-189455628D01*
X73345433Y-189394804D01*
X73060001Y-189374390D01*
X73059999Y-189374390D01*
X72774566Y-189394804D01*
X72494962Y-189455628D01*
X72226833Y-189555635D01*
X71975690Y-189692770D01*
X71975682Y-189692775D01*
X71746612Y-189864254D01*
X71746594Y-189864270D01*
X71544270Y-190066594D01*
X71544254Y-190066612D01*
X71372775Y-190295682D01*
X71372770Y-190295690D01*
X71235635Y-190546833D01*
X71135628Y-190814962D01*
X71074804Y-191094566D01*
X71054390Y-191379998D01*
X62399419Y-191379998D01*
X62429424Y-191339917D01*
X62460400Y-191323002D01*
X62592331Y-191273796D01*
X62707546Y-191187546D01*
X62793796Y-191072331D01*
X62844091Y-190937483D01*
X62850500Y-190877873D01*
X62850499Y-189082128D01*
X62844091Y-189022517D01*
X62835705Y-189000034D01*
X62822392Y-188964339D01*
X82616651Y-188964339D01*
X82616651Y-189161722D01*
X82647529Y-189356678D01*
X82708521Y-189544397D01*
X82708522Y-189544400D01*
X82798133Y-189720270D01*
X82914155Y-189879958D01*
X82914155Y-189879960D01*
X83163543Y-190129348D01*
X83163544Y-190129348D01*
X83696703Y-189596190D01*
X83100547Y-189000034D01*
X83373481Y-189000034D01*
X83373481Y-189131686D01*
X83407555Y-189258852D01*
X83473381Y-189372867D01*
X84403810Y-190303297D01*
X83870651Y-190836454D01*
X84120044Y-191085846D01*
X84279730Y-191201865D01*
X84279736Y-191201869D01*
X84455598Y-191291477D01*
X84455604Y-191291479D01*
X84643320Y-191352470D01*
X84643319Y-191352470D01*
X84838277Y-191383349D01*
X85035660Y-191383349D01*
X85230616Y-191352470D01*
X85230619Y-191352470D01*
X85398451Y-191297938D01*
X84627134Y-190526621D01*
X84741148Y-190592446D01*
X84868314Y-190626520D01*
X84999966Y-190626520D01*
X85127132Y-190592446D01*
X85241148Y-190526620D01*
X85334240Y-190433528D01*
X85400066Y-190319512D01*
X85434140Y-190192346D01*
X85434140Y-190060694D01*
X85400066Y-189933528D01*
X85334240Y-189819513D01*
X85110916Y-189596189D01*
X85110917Y-189596189D01*
X85110917Y-189596190D01*
X86105558Y-190590831D01*
X86160090Y-190422999D01*
X86160090Y-190422996D01*
X86190969Y-190228040D01*
X86190969Y-190030656D01*
X86160090Y-189835699D01*
X86099099Y-189647984D01*
X86099097Y-189647978D01*
X86009489Y-189472116D01*
X86009485Y-189472110D01*
X85893466Y-189312424D01*
X85644075Y-189063031D01*
X85644074Y-189063031D01*
X85110917Y-189596189D01*
X85110916Y-189596189D01*
X84180487Y-188665761D01*
X84066472Y-188599935D01*
X83939306Y-188565861D01*
X83807654Y-188565861D01*
X83680488Y-188599935D01*
X83566473Y-188665761D01*
X83473381Y-188758853D01*
X83407555Y-188872868D01*
X83373481Y-189000034D01*
X83100547Y-189000034D01*
X82702061Y-188601548D01*
X82702060Y-188601548D01*
X82647529Y-188769381D01*
X82616651Y-188964339D01*
X62822392Y-188964339D01*
X62793797Y-188887671D01*
X62793793Y-188887664D01*
X62707547Y-188772455D01*
X62707544Y-188772452D01*
X62592335Y-188686206D01*
X62592328Y-188686202D01*
X62457482Y-188635908D01*
X62457483Y-188635908D01*
X62397883Y-188629501D01*
X62397881Y-188629500D01*
X62397873Y-188629500D01*
X62397864Y-188629500D01*
X60602129Y-188629500D01*
X60602123Y-188629501D01*
X60542516Y-188635908D01*
X60407671Y-188686202D01*
X60407664Y-188686206D01*
X60292455Y-188772452D01*
X60292452Y-188772455D01*
X60206206Y-188887664D01*
X60206202Y-188887671D01*
X60155908Y-189022517D01*
X60151553Y-189063031D01*
X60149501Y-189082123D01*
X60149500Y-189082135D01*
X56034332Y-189082135D01*
X56087068Y-188885322D01*
X56087069Y-188885315D01*
X56107657Y-188650001D01*
X56107657Y-188649998D01*
X56087069Y-188414684D01*
X56087067Y-188414673D01*
X56025933Y-188186516D01*
X56025929Y-188186507D01*
X55993228Y-188116378D01*
X55459607Y-188649999D01*
X55252500Y-188649999D01*
X55252500Y-188584174D01*
X55218425Y-188457007D01*
X55152599Y-188342993D01*
X55059507Y-188249901D01*
X54945493Y-188184075D01*
X54818326Y-188150000D01*
X54686674Y-188150000D01*
X54559507Y-188184075D01*
X54445493Y-188249901D01*
X54352401Y-188342993D01*
X54286575Y-188457007D01*
X54252500Y-188584174D01*
X53979567Y-188584174D01*
X53511770Y-188116377D01*
X53504029Y-188117742D01*
X53460966Y-188117742D01*
X53453227Y-188116377D01*
X52919607Y-188649999D01*
X52712500Y-188649999D01*
X52712500Y-188584174D01*
X52678425Y-188457007D01*
X52612599Y-188342993D01*
X52519507Y-188249901D01*
X52405493Y-188184075D01*
X52278326Y-188150000D01*
X52146674Y-188150000D01*
X52019507Y-188184075D01*
X51905493Y-188249901D01*
X51812401Y-188342993D01*
X51746575Y-188457007D01*
X51712500Y-188584174D01*
X51439567Y-188584174D01*
X50971771Y-188116378D01*
X50939067Y-188186513D01*
X50877932Y-188414673D01*
X50877930Y-188414684D01*
X50857343Y-188649998D01*
X49000500Y-188649998D01*
X49000500Y-186109999D01*
X50856841Y-186109999D01*
X50856841Y-186110000D01*
X50877436Y-186345403D01*
X50877438Y-186345413D01*
X50938594Y-186573655D01*
X50938596Y-186573659D01*
X50938597Y-186573663D01*
X50994669Y-186693910D01*
X51038465Y-186787830D01*
X51038467Y-186787834D01*
X51130577Y-186919380D01*
X51174005Y-186981401D01*
X51341099Y-187148495D01*
X51534670Y-187284035D01*
X51602095Y-187315476D01*
X51654532Y-187361646D01*
X51663812Y-187394205D01*
X52212500Y-187942893D01*
X52212501Y-187942893D01*
X52759118Y-187396273D01*
X52760939Y-187379950D01*
X52804996Y-187325721D01*
X52822902Y-187315477D01*
X52890330Y-187284035D01*
X53083901Y-187148495D01*
X53250995Y-186981401D01*
X53251004Y-186981388D01*
X53252136Y-186980040D01*
X53252793Y-186979602D01*
X53254823Y-186977573D01*
X53255230Y-186977980D01*
X53310305Y-186941334D01*
X53380166Y-186940220D01*
X53439538Y-186977053D01*
X53464835Y-187020733D01*
X53467686Y-187029334D01*
X53559788Y-187178656D01*
X53683844Y-187302712D01*
X53833166Y-187394814D01*
X53999703Y-187449999D01*
X54102491Y-187460500D01*
X54218746Y-187460499D01*
X54285783Y-187480183D01*
X54306425Y-187496818D01*
X54752500Y-187942893D01*
X54752501Y-187942893D01*
X55198574Y-187496818D01*
X55259897Y-187463333D01*
X55286254Y-187460499D01*
X55402508Y-187460499D01*
X55505297Y-187449999D01*
X55656184Y-187400000D01*
X77324706Y-187400000D01*
X77343853Y-187643297D01*
X77400830Y-187880619D01*
X77494222Y-188106089D01*
X77621737Y-188314173D01*
X77621738Y-188314176D01*
X77675449Y-188377063D01*
X77780241Y-188499759D01*
X77897532Y-188599935D01*
X77965823Y-188658261D01*
X77965826Y-188658262D01*
X78173910Y-188785777D01*
X78399381Y-188879169D01*
X78399378Y-188879169D01*
X78399384Y-188879170D01*
X78399388Y-188879172D01*
X78636698Y-188936146D01*
X78880000Y-188955294D01*
X79123302Y-188936146D01*
X79360612Y-188879172D01*
X79586089Y-188785777D01*
X79794179Y-188658259D01*
X79979759Y-188499759D01*
X80138259Y-188314179D01*
X80265777Y-188106089D01*
X80353444Y-187894440D01*
X83409168Y-187894440D01*
X83409168Y-187894441D01*
X84403810Y-188889083D01*
X84403811Y-188889083D01*
X84936968Y-188355924D01*
X84687579Y-188106535D01*
X84527890Y-187990513D01*
X84352020Y-187900902D01*
X84352017Y-187900901D01*
X84164298Y-187839909D01*
X83969342Y-187809031D01*
X83771960Y-187809031D01*
X83577001Y-187839909D01*
X83409168Y-187894440D01*
X80353444Y-187894440D01*
X80359172Y-187880612D01*
X80416146Y-187643302D01*
X80435294Y-187400000D01*
X80416146Y-187156698D01*
X80359172Y-186919388D01*
X80359169Y-186919380D01*
X80265777Y-186693910D01*
X80138262Y-186485826D01*
X80138261Y-186485823D01*
X80018335Y-186345408D01*
X79979759Y-186300241D01*
X79857063Y-186195449D01*
X79794176Y-186141738D01*
X79794173Y-186141737D01*
X79586089Y-186014222D01*
X79360618Y-185920830D01*
X79360621Y-185920830D01*
X79254992Y-185895470D01*
X79123302Y-185863854D01*
X79123300Y-185863853D01*
X79123297Y-185863853D01*
X78880000Y-185844706D01*
X78636702Y-185863853D01*
X78399380Y-185920830D01*
X78173910Y-186014222D01*
X77965826Y-186141737D01*
X77965823Y-186141738D01*
X77780241Y-186300241D01*
X77621738Y-186485823D01*
X77621737Y-186485826D01*
X77494222Y-186693910D01*
X77400830Y-186919380D01*
X77343853Y-187156702D01*
X77324706Y-187400000D01*
X55656184Y-187400000D01*
X55671834Y-187394814D01*
X55821156Y-187302712D01*
X55945212Y-187178656D01*
X56037314Y-187029334D01*
X56092499Y-186862797D01*
X56103000Y-186760009D01*
X56102999Y-185459992D01*
X56092499Y-185357203D01*
X56037314Y-185190666D01*
X55945212Y-185041344D01*
X55821156Y-184917288D01*
X55728388Y-184860069D01*
X55671836Y-184825187D01*
X55671831Y-184825185D01*
X55670362Y-184824698D01*
X55505297Y-184770001D01*
X55505295Y-184770000D01*
X55402510Y-184759500D01*
X54102498Y-184759500D01*
X54102481Y-184759501D01*
X53999703Y-184770000D01*
X53999700Y-184770001D01*
X53833168Y-184825185D01*
X53833163Y-184825187D01*
X53683842Y-184917289D01*
X53559789Y-185041342D01*
X53467687Y-185190663D01*
X53467683Y-185190673D01*
X53464835Y-185199268D01*
X53425060Y-185256711D01*
X53360544Y-185283531D01*
X53291768Y-185271214D01*
X53255017Y-185242233D01*
X53254824Y-185242427D01*
X53253182Y-185240785D01*
X53252142Y-185239965D01*
X53250994Y-185238597D01*
X53083902Y-185071506D01*
X53083895Y-185071501D01*
X52890334Y-184935967D01*
X52890330Y-184935965D01*
X52850277Y-184917288D01*
X52676163Y-184836097D01*
X52676159Y-184836096D01*
X52676155Y-184836094D01*
X52447913Y-184774938D01*
X52447903Y-184774936D01*
X52212501Y-184754341D01*
X52212499Y-184754341D01*
X51977096Y-184774936D01*
X51977086Y-184774938D01*
X51748844Y-184836094D01*
X51748835Y-184836098D01*
X51534671Y-184935964D01*
X51534669Y-184935965D01*
X51341097Y-185071505D01*
X51174005Y-185238597D01*
X51038465Y-185432169D01*
X51038464Y-185432171D01*
X50938598Y-185646335D01*
X50938594Y-185646344D01*
X50877438Y-185874586D01*
X50877436Y-185874596D01*
X50856841Y-186109999D01*
X49000500Y-186109999D01*
X49000500Y-178782155D01*
X75170000Y-178782155D01*
X75170000Y-179830000D01*
X76301399Y-179830000D01*
X76283811Y-179856322D01*
X76208429Y-180038311D01*
X76170000Y-180231509D01*
X76170000Y-180428491D01*
X76208429Y-180621689D01*
X76283811Y-180803678D01*
X76301399Y-180830000D01*
X75170000Y-180830000D01*
X75170000Y-181877844D01*
X75176401Y-181937372D01*
X75176403Y-181937379D01*
X75226645Y-182072086D01*
X75226649Y-182072093D01*
X75312809Y-182187187D01*
X75312812Y-182187190D01*
X75427906Y-182273350D01*
X75427913Y-182273354D01*
X75562620Y-182323596D01*
X75562627Y-182323598D01*
X75622155Y-182329999D01*
X75622172Y-182330000D01*
X76670000Y-182330000D01*
X76670000Y-181198601D01*
X76696322Y-181216189D01*
X76878311Y-181291571D01*
X77071509Y-181330000D01*
X77268491Y-181330000D01*
X77461689Y-181291571D01*
X77643678Y-181216189D01*
X77670000Y-181198601D01*
X77670000Y-182330000D01*
X78717828Y-182330000D01*
X78717844Y-182329999D01*
X78777372Y-182323598D01*
X78777379Y-182323596D01*
X78912086Y-182273354D01*
X78912093Y-182273350D01*
X79027187Y-182187190D01*
X79027190Y-182187187D01*
X79113350Y-182072093D01*
X79113354Y-182072086D01*
X79163596Y-181937379D01*
X79163598Y-181937372D01*
X79169999Y-181877844D01*
X79170000Y-181877827D01*
X79170000Y-181647263D01*
X81245500Y-181647263D01*
X81245500Y-183352736D01*
X81276389Y-183547763D01*
X81337408Y-183735558D01*
X81337409Y-183735561D01*
X81427056Y-183911501D01*
X81427058Y-183911504D01*
X81543115Y-184071246D01*
X81682753Y-184210884D01*
X81832234Y-184319486D01*
X81842499Y-184326944D01*
X82018439Y-184416591D01*
X82143637Y-184457270D01*
X82206236Y-184477610D01*
X82401264Y-184508500D01*
X82401269Y-184508500D01*
X82598736Y-184508500D01*
X82793763Y-184477610D01*
X82981561Y-184416591D01*
X83157501Y-184326944D01*
X83247192Y-184261779D01*
X83317246Y-184210884D01*
X83317248Y-184210881D01*
X83317252Y-184210879D01*
X83456879Y-184071252D01*
X83456881Y-184071248D01*
X83456884Y-184071246D01*
X83507779Y-184001192D01*
X83572944Y-183911501D01*
X83662591Y-183735561D01*
X83723610Y-183547763D01*
X83754500Y-183352736D01*
X83754500Y-181647263D01*
X83723610Y-181452236D01*
X83683893Y-181330000D01*
X83662591Y-181264439D01*
X83572944Y-181088499D01*
X83565486Y-181078234D01*
X83456884Y-180928753D01*
X83317246Y-180789115D01*
X83157504Y-180673058D01*
X83157503Y-180673057D01*
X83157501Y-180673056D01*
X82981561Y-180583409D01*
X82981558Y-180583408D01*
X82793763Y-180522389D01*
X82598736Y-180491500D01*
X82598731Y-180491500D01*
X82401269Y-180491500D01*
X82401264Y-180491500D01*
X82206236Y-180522389D01*
X82018441Y-180583408D01*
X81842495Y-180673058D01*
X81682753Y-180789115D01*
X81543115Y-180928753D01*
X81427058Y-181088495D01*
X81337408Y-181264441D01*
X81276389Y-181452236D01*
X81245500Y-181647263D01*
X79170000Y-181647263D01*
X79170000Y-180830000D01*
X78038601Y-180830000D01*
X78056189Y-180803678D01*
X78131571Y-180621689D01*
X78170000Y-180428491D01*
X78170000Y-180231509D01*
X78131571Y-180038311D01*
X78056189Y-179856322D01*
X78038601Y-179830000D01*
X79170000Y-179830000D01*
X79170000Y-178782172D01*
X79169999Y-178782155D01*
X79163598Y-178722627D01*
X79163596Y-178722620D01*
X79113354Y-178587913D01*
X79113350Y-178587906D01*
X79027190Y-178472812D01*
X79027187Y-178472809D01*
X78931615Y-178401263D01*
X86491500Y-178401263D01*
X86491500Y-178598736D01*
X86522389Y-178793763D01*
X86583408Y-178981558D01*
X86583409Y-178981561D01*
X86673056Y-179157501D01*
X86673058Y-179157504D01*
X86789115Y-179317246D01*
X86928753Y-179456884D01*
X87061391Y-179553249D01*
X87088499Y-179572944D01*
X87264439Y-179662591D01*
X87356604Y-179692537D01*
X87452236Y-179723610D01*
X87647264Y-179754500D01*
X87647269Y-179754500D01*
X89352736Y-179754500D01*
X89547763Y-179723610D01*
X89735561Y-179662591D01*
X89911501Y-179572944D01*
X90001192Y-179507779D01*
X90071246Y-179456884D01*
X90071248Y-179456881D01*
X90071252Y-179456879D01*
X90210879Y-179317252D01*
X90210881Y-179317248D01*
X90210884Y-179317246D01*
X90261779Y-179247192D01*
X90326944Y-179157501D01*
X90416591Y-178981561D01*
X90477610Y-178793763D01*
X90488878Y-178722620D01*
X90508500Y-178598736D01*
X90508500Y-178401263D01*
X90477610Y-178206236D01*
X90457270Y-178143637D01*
X90416591Y-178018439D01*
X90326944Y-177842499D01*
X90319486Y-177832234D01*
X90210884Y-177682753D01*
X90071246Y-177543115D01*
X89911504Y-177427058D01*
X89911503Y-177427057D01*
X89911501Y-177427056D01*
X89735561Y-177337409D01*
X89735558Y-177337408D01*
X89547763Y-177276389D01*
X89352736Y-177245500D01*
X89352731Y-177245500D01*
X87647269Y-177245500D01*
X87647264Y-177245500D01*
X87452236Y-177276389D01*
X87264441Y-177337408D01*
X87088495Y-177427058D01*
X86928753Y-177543115D01*
X86789115Y-177682753D01*
X86673058Y-177842495D01*
X86583408Y-178018441D01*
X86522389Y-178206236D01*
X86491500Y-178401263D01*
X78931615Y-178401263D01*
X78912093Y-178386649D01*
X78912086Y-178386645D01*
X78777379Y-178336403D01*
X78777372Y-178336401D01*
X78717844Y-178330000D01*
X77670000Y-178330000D01*
X77670000Y-179461398D01*
X77643678Y-179443811D01*
X77461689Y-179368429D01*
X77268491Y-179330000D01*
X77071509Y-179330000D01*
X76878311Y-179368429D01*
X76696322Y-179443811D01*
X76670000Y-179461398D01*
X76670000Y-178330000D01*
X75622155Y-178330000D01*
X75562627Y-178336401D01*
X75562620Y-178336403D01*
X75427913Y-178386645D01*
X75427906Y-178386649D01*
X75312812Y-178472809D01*
X75312809Y-178472812D01*
X75226649Y-178587906D01*
X75226645Y-178587913D01*
X75176403Y-178722620D01*
X75176401Y-178722627D01*
X75170000Y-178782155D01*
X49000500Y-178782155D01*
X49000500Y-174879998D01*
X71054390Y-174879998D01*
X71054390Y-174880001D01*
X71074804Y-175165433D01*
X71135628Y-175445037D01*
X71235635Y-175713166D01*
X71372770Y-175964309D01*
X71372775Y-175964317D01*
X71544254Y-176193387D01*
X71544270Y-176193405D01*
X71746594Y-176395729D01*
X71746612Y-176395745D01*
X71975682Y-176567224D01*
X71975690Y-176567229D01*
X72226833Y-176704364D01*
X72226832Y-176704364D01*
X72226836Y-176704365D01*
X72226839Y-176704367D01*
X72494954Y-176804369D01*
X72494960Y-176804370D01*
X72494962Y-176804371D01*
X72774566Y-176865195D01*
X72774568Y-176865195D01*
X72774572Y-176865196D01*
X73028220Y-176883337D01*
X73059999Y-176885610D01*
X73060000Y-176885610D01*
X73060001Y-176885610D01*
X73088595Y-176883564D01*
X73345428Y-176865196D01*
X73625046Y-176804369D01*
X73893161Y-176704367D01*
X74144315Y-176567226D01*
X74373395Y-176395739D01*
X74575739Y-176193395D01*
X74747226Y-175964315D01*
X74884367Y-175713161D01*
X74984369Y-175445046D01*
X75045196Y-175165428D01*
X75063564Y-174908595D01*
X75065610Y-174880001D01*
X75065610Y-174879998D01*
X75052870Y-174701869D01*
X75045196Y-174594572D01*
X74984369Y-174314954D01*
X74884367Y-174046839D01*
X74822494Y-173933528D01*
X74747229Y-173795690D01*
X74747224Y-173795682D01*
X74575745Y-173566612D01*
X74575729Y-173566594D01*
X74373405Y-173364270D01*
X74373387Y-173364254D01*
X74144317Y-173192775D01*
X74144309Y-173192770D01*
X73893166Y-173055635D01*
X73893167Y-173055635D01*
X73785915Y-173015632D01*
X73625046Y-172955631D01*
X73625043Y-172955630D01*
X73625037Y-172955628D01*
X73345433Y-172894804D01*
X73060001Y-172874390D01*
X73059999Y-172874390D01*
X72774566Y-172894804D01*
X72494962Y-172955628D01*
X72226833Y-173055635D01*
X71975690Y-173192770D01*
X71975682Y-173192775D01*
X71746612Y-173364254D01*
X71746594Y-173364270D01*
X71544270Y-173566594D01*
X71544254Y-173566612D01*
X71372775Y-173795682D01*
X71372770Y-173795690D01*
X71235635Y-174046833D01*
X71135628Y-174314962D01*
X71074804Y-174594566D01*
X71054390Y-174879998D01*
X49000500Y-174879998D01*
X49000500Y-172464339D01*
X82616651Y-172464339D01*
X82616651Y-172661722D01*
X82647529Y-172856678D01*
X82708521Y-173044397D01*
X82708522Y-173044400D01*
X82798133Y-173220270D01*
X82914155Y-173379958D01*
X82914155Y-173379960D01*
X83163543Y-173629348D01*
X83163544Y-173629348D01*
X83696703Y-173096190D01*
X83100547Y-172500034D01*
X83373481Y-172500034D01*
X83373481Y-172631686D01*
X83407555Y-172758852D01*
X83473381Y-172872867D01*
X84403810Y-173803297D01*
X83870651Y-174336454D01*
X84120044Y-174585846D01*
X84279730Y-174701865D01*
X84279736Y-174701869D01*
X84455598Y-174791477D01*
X84455604Y-174791479D01*
X84643320Y-174852470D01*
X84643319Y-174852470D01*
X84838277Y-174883349D01*
X85035660Y-174883349D01*
X85230616Y-174852470D01*
X85230619Y-174852470D01*
X85398451Y-174797938D01*
X84627134Y-174026621D01*
X84741148Y-174092446D01*
X84868314Y-174126520D01*
X84999966Y-174126520D01*
X85127132Y-174092446D01*
X85241148Y-174026620D01*
X85334240Y-173933528D01*
X85400066Y-173819512D01*
X85434140Y-173692346D01*
X85434140Y-173560694D01*
X85400066Y-173433528D01*
X85334240Y-173319513D01*
X85110916Y-173096189D01*
X85110917Y-173096189D01*
X85110917Y-173096190D01*
X86105558Y-174090831D01*
X86160090Y-173922999D01*
X86160090Y-173922996D01*
X86190969Y-173728040D01*
X86190969Y-173530656D01*
X86160090Y-173335699D01*
X86099099Y-173147984D01*
X86099097Y-173147978D01*
X86009489Y-172972116D01*
X86009485Y-172972110D01*
X85893466Y-172812424D01*
X85644075Y-172563031D01*
X85644074Y-172563031D01*
X85110917Y-173096189D01*
X85110916Y-173096189D01*
X84180487Y-172165761D01*
X84066472Y-172099935D01*
X83939306Y-172065861D01*
X83807654Y-172065861D01*
X83680488Y-172099935D01*
X83566473Y-172165761D01*
X83473381Y-172258853D01*
X83407555Y-172372868D01*
X83373481Y-172500034D01*
X83100547Y-172500034D01*
X82702061Y-172101548D01*
X82702060Y-172101548D01*
X82647529Y-172269381D01*
X82616651Y-172464339D01*
X49000500Y-172464339D01*
X49000500Y-167392682D01*
X51199500Y-167392682D01*
X51199500Y-169607317D01*
X51230044Y-169819764D01*
X51230047Y-169819774D01*
X51290517Y-170025715D01*
X51379672Y-170220938D01*
X51379679Y-170220951D01*
X51495720Y-170401514D01*
X51636275Y-170563724D01*
X51743573Y-170656698D01*
X51798487Y-170704281D01*
X51927531Y-170787211D01*
X51979048Y-170820320D01*
X51979061Y-170820327D01*
X52174284Y-170909482D01*
X52174288Y-170909483D01*
X52174290Y-170909484D01*
X52380231Y-170969954D01*
X52380232Y-170969954D01*
X52380235Y-170969955D01*
X52443584Y-170979062D01*
X52592682Y-171000500D01*
X52592683Y-171000500D01*
X54807317Y-171000500D01*
X54807318Y-171000500D01*
X54977851Y-170975980D01*
X55019764Y-170969955D01*
X55019765Y-170969954D01*
X55019769Y-170969954D01*
X55225710Y-170909484D01*
X55225713Y-170909482D01*
X55225715Y-170909482D01*
X55246478Y-170900000D01*
X77324706Y-170900000D01*
X77343853Y-171143297D01*
X77400830Y-171380619D01*
X77494222Y-171606089D01*
X77621737Y-171814173D01*
X77621738Y-171814176D01*
X77675449Y-171877063D01*
X77780241Y-171999759D01*
X77857637Y-172065861D01*
X77965823Y-172158261D01*
X77965826Y-172158262D01*
X78173910Y-172285777D01*
X78399381Y-172379169D01*
X78399378Y-172379169D01*
X78399384Y-172379170D01*
X78399388Y-172379172D01*
X78636698Y-172436146D01*
X78880000Y-172455294D01*
X79123302Y-172436146D01*
X79360612Y-172379172D01*
X79586089Y-172285777D01*
X79794179Y-172158259D01*
X79979759Y-171999759D01*
X80138259Y-171814179D01*
X80265777Y-171606089D01*
X80353444Y-171394440D01*
X83409168Y-171394440D01*
X83409168Y-171394441D01*
X84403810Y-172389083D01*
X84403811Y-172389083D01*
X84936968Y-171855924D01*
X84687579Y-171606535D01*
X84527890Y-171490513D01*
X84352020Y-171400902D01*
X84352017Y-171400901D01*
X84164298Y-171339909D01*
X83969342Y-171309031D01*
X83771960Y-171309031D01*
X83577001Y-171339909D01*
X83409168Y-171394440D01*
X80353444Y-171394440D01*
X80359172Y-171380612D01*
X80416146Y-171143302D01*
X80435294Y-170900000D01*
X80416146Y-170656698D01*
X80359172Y-170419388D01*
X80359169Y-170419380D01*
X80265777Y-170193910D01*
X80138262Y-169985826D01*
X80138261Y-169985823D01*
X80102453Y-169943897D01*
X79979759Y-169800241D01*
X79857063Y-169695449D01*
X79794176Y-169641738D01*
X79794173Y-169641737D01*
X79586089Y-169514222D01*
X79360618Y-169420830D01*
X79360621Y-169420830D01*
X79254992Y-169395470D01*
X79123302Y-169363854D01*
X79123300Y-169363853D01*
X79123297Y-169363853D01*
X78880000Y-169344706D01*
X78636702Y-169363853D01*
X78636698Y-169363854D01*
X78494989Y-169397876D01*
X78399380Y-169420830D01*
X78173910Y-169514222D01*
X77965826Y-169641737D01*
X77965823Y-169641738D01*
X77780241Y-169800241D01*
X77621738Y-169985823D01*
X77621737Y-169985826D01*
X77494222Y-170193910D01*
X77400830Y-170419380D01*
X77343853Y-170656702D01*
X77324706Y-170900000D01*
X55246478Y-170900000D01*
X55420938Y-170820327D01*
X55420944Y-170820323D01*
X55420950Y-170820321D01*
X55601513Y-170704281D01*
X55763724Y-170563724D01*
X55904281Y-170401513D01*
X56020321Y-170220950D01*
X56020323Y-170220944D01*
X56020327Y-170220938D01*
X56109482Y-170025715D01*
X56109482Y-170025713D01*
X56109484Y-170025710D01*
X56169954Y-169819769D01*
X56200500Y-169607318D01*
X56200500Y-169500000D01*
X56200500Y-169434108D01*
X56200500Y-167602135D01*
X59149500Y-167602135D01*
X59149500Y-169397870D01*
X59149501Y-169397876D01*
X59155908Y-169457483D01*
X59206202Y-169592328D01*
X59206206Y-169592335D01*
X59292452Y-169707544D01*
X59292455Y-169707547D01*
X59407664Y-169793793D01*
X59407671Y-169793797D01*
X59542517Y-169844091D01*
X59542516Y-169844091D01*
X59549444Y-169844835D01*
X59602127Y-169850500D01*
X61397872Y-169850499D01*
X61457483Y-169844091D01*
X61592331Y-169793796D01*
X61707546Y-169707546D01*
X61793796Y-169592331D01*
X61844091Y-169457483D01*
X61850500Y-169397873D01*
X61850499Y-167602128D01*
X61844091Y-167542517D01*
X61828233Y-167500000D01*
X61793797Y-167407671D01*
X61793793Y-167407664D01*
X61707547Y-167292455D01*
X61707544Y-167292452D01*
X61592335Y-167206206D01*
X61592328Y-167206202D01*
X61457482Y-167155908D01*
X61457483Y-167155908D01*
X61397883Y-167149501D01*
X61397881Y-167149500D01*
X61397873Y-167149500D01*
X61397864Y-167149500D01*
X59602129Y-167149500D01*
X59602123Y-167149501D01*
X59542516Y-167155908D01*
X59407671Y-167206202D01*
X59407664Y-167206206D01*
X59292455Y-167292452D01*
X59292452Y-167292455D01*
X59206206Y-167407664D01*
X59206202Y-167407671D01*
X59155908Y-167542517D01*
X59149501Y-167602116D01*
X59149501Y-167602123D01*
X59149500Y-167602135D01*
X56200500Y-167602135D01*
X56200500Y-167434108D01*
X56200500Y-167392682D01*
X56173689Y-167206206D01*
X56169955Y-167180235D01*
X56169952Y-167180225D01*
X56160931Y-167149500D01*
X56109484Y-166974290D01*
X56109483Y-166974288D01*
X56109482Y-166974284D01*
X56020327Y-166779061D01*
X56020320Y-166779048D01*
X55987211Y-166727531D01*
X55904281Y-166598487D01*
X55871172Y-166560277D01*
X55763724Y-166436275D01*
X55601514Y-166295720D01*
X55601513Y-166295719D01*
X55536991Y-166254253D01*
X55420951Y-166179679D01*
X55420938Y-166179672D01*
X55225715Y-166090517D01*
X55019774Y-166030047D01*
X55019764Y-166030044D01*
X54828754Y-166002582D01*
X54807318Y-165999500D01*
X54765892Y-165999500D01*
X52765892Y-165999500D01*
X52700000Y-165999500D01*
X52592682Y-165999500D01*
X52380235Y-166030044D01*
X52380225Y-166030047D01*
X52174284Y-166090517D01*
X51979061Y-166179672D01*
X51979048Y-166179679D01*
X51798485Y-166295720D01*
X51636275Y-166436275D01*
X51495720Y-166598485D01*
X51379679Y-166779048D01*
X51379672Y-166779061D01*
X51290517Y-166974284D01*
X51230047Y-167180225D01*
X51230044Y-167180235D01*
X51199500Y-167392682D01*
X49000500Y-167392682D01*
X49000500Y-162282155D01*
X75170000Y-162282155D01*
X75170000Y-163330000D01*
X76301399Y-163330000D01*
X76283811Y-163356322D01*
X76208429Y-163538311D01*
X76170000Y-163731509D01*
X76170000Y-163928491D01*
X76208429Y-164121689D01*
X76283811Y-164303678D01*
X76301399Y-164330000D01*
X75170000Y-164330000D01*
X75170000Y-165377844D01*
X75176401Y-165437372D01*
X75176403Y-165437379D01*
X75226645Y-165572086D01*
X75226649Y-165572093D01*
X75312809Y-165687187D01*
X75312812Y-165687190D01*
X75427906Y-165773350D01*
X75427913Y-165773354D01*
X75562620Y-165823596D01*
X75562627Y-165823598D01*
X75622155Y-165829999D01*
X75622172Y-165830000D01*
X76670000Y-165830000D01*
X76670000Y-164698601D01*
X76696322Y-164716189D01*
X76878311Y-164791571D01*
X77071509Y-164830000D01*
X77268491Y-164830000D01*
X77461689Y-164791571D01*
X77643678Y-164716189D01*
X77670000Y-164698601D01*
X77670000Y-165830000D01*
X78717828Y-165830000D01*
X78717844Y-165829999D01*
X78777372Y-165823598D01*
X78777379Y-165823596D01*
X78912086Y-165773354D01*
X78912093Y-165773350D01*
X79027187Y-165687190D01*
X79027190Y-165687187D01*
X79113350Y-165572093D01*
X79113354Y-165572086D01*
X79163596Y-165437379D01*
X79163598Y-165437372D01*
X79169999Y-165377844D01*
X79170000Y-165377827D01*
X79170000Y-165147263D01*
X81245500Y-165147263D01*
X81245500Y-166852736D01*
X81276389Y-167047763D01*
X81322140Y-167188567D01*
X81337409Y-167235561D01*
X81427056Y-167411501D01*
X81427058Y-167411504D01*
X81543115Y-167571246D01*
X81682753Y-167710884D01*
X81832234Y-167819486D01*
X81842499Y-167826944D01*
X82018439Y-167916591D01*
X82143637Y-167957270D01*
X82206236Y-167977610D01*
X82401264Y-168008500D01*
X82401269Y-168008500D01*
X82598736Y-168008500D01*
X82793763Y-167977610D01*
X82981561Y-167916591D01*
X83157501Y-167826944D01*
X83247192Y-167761779D01*
X83317246Y-167710884D01*
X83317248Y-167710881D01*
X83317252Y-167710879D01*
X83456879Y-167571252D01*
X83456881Y-167571248D01*
X83456884Y-167571246D01*
X83556519Y-167434108D01*
X83572944Y-167411501D01*
X83662591Y-167235561D01*
X83723610Y-167047763D01*
X83735248Y-166974284D01*
X83754500Y-166852736D01*
X83754500Y-165147263D01*
X83723610Y-164952236D01*
X83683893Y-164830000D01*
X83662591Y-164764439D01*
X83572944Y-164588499D01*
X83565486Y-164578234D01*
X83456884Y-164428753D01*
X83317246Y-164289115D01*
X83157504Y-164173058D01*
X83157503Y-164173057D01*
X83157501Y-164173056D01*
X82981561Y-164083409D01*
X82981558Y-164083408D01*
X82793763Y-164022389D01*
X82598736Y-163991500D01*
X82598731Y-163991500D01*
X82401269Y-163991500D01*
X82401264Y-163991500D01*
X82206236Y-164022389D01*
X82018441Y-164083408D01*
X81842495Y-164173058D01*
X81682753Y-164289115D01*
X81543115Y-164428753D01*
X81427058Y-164588495D01*
X81337408Y-164764441D01*
X81276389Y-164952236D01*
X81245500Y-165147263D01*
X79170000Y-165147263D01*
X79170000Y-164330000D01*
X78038601Y-164330000D01*
X78056189Y-164303678D01*
X78131571Y-164121689D01*
X78170000Y-163928491D01*
X78170000Y-163731509D01*
X78131571Y-163538311D01*
X78056189Y-163356322D01*
X78038601Y-163330000D01*
X79170000Y-163330000D01*
X79170000Y-162282172D01*
X79169999Y-162282155D01*
X79163598Y-162222627D01*
X79163596Y-162222620D01*
X79113354Y-162087913D01*
X79113350Y-162087906D01*
X79027190Y-161972812D01*
X79027187Y-161972809D01*
X78931615Y-161901263D01*
X86491500Y-161901263D01*
X86491500Y-162098736D01*
X86522389Y-162293763D01*
X86583408Y-162481558D01*
X86583409Y-162481561D01*
X86673056Y-162657501D01*
X86673058Y-162657504D01*
X86789115Y-162817246D01*
X86928753Y-162956884D01*
X87061391Y-163053249D01*
X87088499Y-163072944D01*
X87264439Y-163162591D01*
X87356604Y-163192537D01*
X87452236Y-163223610D01*
X87647264Y-163254500D01*
X87647269Y-163254500D01*
X89352736Y-163254500D01*
X89547763Y-163223610D01*
X89735561Y-163162591D01*
X89911501Y-163072944D01*
X90001192Y-163007779D01*
X90071246Y-162956884D01*
X90071248Y-162956881D01*
X90071252Y-162956879D01*
X90210879Y-162817252D01*
X90210881Y-162817248D01*
X90210884Y-162817246D01*
X90261779Y-162747192D01*
X90326944Y-162657501D01*
X90416591Y-162481561D01*
X90477610Y-162293763D01*
X90488878Y-162222620D01*
X90508500Y-162098736D01*
X90508500Y-161901263D01*
X90477610Y-161706236D01*
X90457270Y-161643637D01*
X90416591Y-161518439D01*
X90326944Y-161342499D01*
X90319486Y-161332234D01*
X90210884Y-161182753D01*
X90071246Y-161043115D01*
X89911504Y-160927058D01*
X89911503Y-160927057D01*
X89911501Y-160927056D01*
X89735561Y-160837409D01*
X89735558Y-160837408D01*
X89547763Y-160776389D01*
X89352736Y-160745500D01*
X89352731Y-160745500D01*
X87647269Y-160745500D01*
X87647264Y-160745500D01*
X87452236Y-160776389D01*
X87264441Y-160837408D01*
X87088495Y-160927058D01*
X86928753Y-161043115D01*
X86789115Y-161182753D01*
X86673058Y-161342495D01*
X86583408Y-161518441D01*
X86522389Y-161706236D01*
X86491500Y-161901263D01*
X78931615Y-161901263D01*
X78912093Y-161886649D01*
X78912086Y-161886645D01*
X78777379Y-161836403D01*
X78777372Y-161836401D01*
X78717844Y-161830000D01*
X77670000Y-161830000D01*
X77670000Y-162961398D01*
X77643678Y-162943811D01*
X77461689Y-162868429D01*
X77268491Y-162830000D01*
X77071509Y-162830000D01*
X76878311Y-162868429D01*
X76696322Y-162943811D01*
X76670000Y-162961398D01*
X76670000Y-161830000D01*
X75622155Y-161830000D01*
X75562627Y-161836401D01*
X75562620Y-161836403D01*
X75427913Y-161886645D01*
X75427906Y-161886649D01*
X75312812Y-161972809D01*
X75312809Y-161972812D01*
X75226649Y-162087906D01*
X75226645Y-162087913D01*
X75176403Y-162222620D01*
X75176401Y-162222627D01*
X75170000Y-162282155D01*
X49000500Y-162282155D01*
X49000500Y-158379998D01*
X71054390Y-158379998D01*
X71054390Y-158380001D01*
X71074804Y-158665433D01*
X71135628Y-158945037D01*
X71235635Y-159213166D01*
X71372770Y-159464309D01*
X71372775Y-159464317D01*
X71544254Y-159693387D01*
X71544270Y-159693405D01*
X71746594Y-159895729D01*
X71746612Y-159895745D01*
X71975682Y-160067224D01*
X71975690Y-160067229D01*
X72226833Y-160204364D01*
X72226832Y-160204364D01*
X72226836Y-160204365D01*
X72226839Y-160204367D01*
X72494954Y-160304369D01*
X72494960Y-160304370D01*
X72494962Y-160304371D01*
X72774566Y-160365195D01*
X72774568Y-160365195D01*
X72774572Y-160365196D01*
X73028220Y-160383337D01*
X73059999Y-160385610D01*
X73060000Y-160385610D01*
X73060001Y-160385610D01*
X73088595Y-160383564D01*
X73345428Y-160365196D01*
X73625046Y-160304369D01*
X73893161Y-160204367D01*
X74144315Y-160067226D01*
X74373395Y-159895739D01*
X74575739Y-159693395D01*
X74747226Y-159464315D01*
X74884367Y-159213161D01*
X74984369Y-158945046D01*
X75045196Y-158665428D01*
X75063564Y-158408595D01*
X75065610Y-158380001D01*
X75065610Y-158379998D01*
X75052870Y-158201869D01*
X75045196Y-158094572D01*
X74984369Y-157814954D01*
X74884367Y-157546839D01*
X74822494Y-157433528D01*
X74747229Y-157295690D01*
X74747224Y-157295682D01*
X74575745Y-157066612D01*
X74575729Y-157066594D01*
X74373405Y-156864270D01*
X74373387Y-156864254D01*
X74144317Y-156692775D01*
X74144309Y-156692770D01*
X73893166Y-156555635D01*
X73893167Y-156555635D01*
X73785915Y-156515632D01*
X73625046Y-156455631D01*
X73625043Y-156455630D01*
X73625037Y-156455628D01*
X73345433Y-156394804D01*
X73060001Y-156374390D01*
X73059999Y-156374390D01*
X72774566Y-156394804D01*
X72494962Y-156455628D01*
X72226833Y-156555635D01*
X71975690Y-156692770D01*
X71975682Y-156692775D01*
X71746612Y-156864254D01*
X71746594Y-156864270D01*
X71544270Y-157066594D01*
X71544254Y-157066612D01*
X71372775Y-157295682D01*
X71372770Y-157295690D01*
X71235635Y-157546833D01*
X71135628Y-157814962D01*
X71074804Y-158094566D01*
X71054390Y-158379998D01*
X49000500Y-158379998D01*
X49000500Y-155964339D01*
X82616651Y-155964339D01*
X82616651Y-156161722D01*
X82647529Y-156356678D01*
X82708521Y-156544397D01*
X82708522Y-156544400D01*
X82798133Y-156720270D01*
X82914155Y-156879958D01*
X82914155Y-156879960D01*
X83163543Y-157129348D01*
X83163544Y-157129348D01*
X83696703Y-156596190D01*
X83100547Y-156000034D01*
X83373481Y-156000034D01*
X83373481Y-156131686D01*
X83407555Y-156258852D01*
X83473381Y-156372867D01*
X84403810Y-157303297D01*
X83870651Y-157836454D01*
X84120044Y-158085846D01*
X84279730Y-158201865D01*
X84279736Y-158201869D01*
X84455598Y-158291477D01*
X84455604Y-158291479D01*
X84643320Y-158352470D01*
X84643319Y-158352470D01*
X84838277Y-158383349D01*
X85035660Y-158383349D01*
X85230616Y-158352470D01*
X85230619Y-158352470D01*
X85398451Y-158297938D01*
X84627134Y-157526621D01*
X84741148Y-157592446D01*
X84868314Y-157626520D01*
X84999966Y-157626520D01*
X85127132Y-157592446D01*
X85241148Y-157526620D01*
X85334240Y-157433528D01*
X85400066Y-157319512D01*
X85434140Y-157192346D01*
X85434140Y-157060694D01*
X85400066Y-156933528D01*
X85334240Y-156819513D01*
X85110916Y-156596189D01*
X85110917Y-156596189D01*
X85110917Y-156596190D01*
X86105558Y-157590831D01*
X86160090Y-157422999D01*
X86160090Y-157422996D01*
X86190969Y-157228040D01*
X86190969Y-157030656D01*
X86160090Y-156835699D01*
X86099099Y-156647984D01*
X86099097Y-156647978D01*
X86009489Y-156472116D01*
X86009485Y-156472110D01*
X85893466Y-156312424D01*
X85644075Y-156063031D01*
X85644074Y-156063031D01*
X85110917Y-156596189D01*
X85110916Y-156596189D01*
X84180487Y-155665761D01*
X84066472Y-155599935D01*
X83939306Y-155565861D01*
X83807654Y-155565861D01*
X83680488Y-155599935D01*
X83566473Y-155665761D01*
X83473381Y-155758853D01*
X83407555Y-155872868D01*
X83373481Y-156000034D01*
X83100547Y-156000034D01*
X82702061Y-155601548D01*
X82702060Y-155601548D01*
X82647529Y-155769381D01*
X82616651Y-155964339D01*
X49000500Y-155964339D01*
X49000500Y-150892682D01*
X51199500Y-150892682D01*
X51199500Y-153107317D01*
X51230044Y-153319764D01*
X51230047Y-153319774D01*
X51290517Y-153525715D01*
X51379672Y-153720938D01*
X51379679Y-153720951D01*
X51495720Y-153901514D01*
X51636275Y-154063724D01*
X51743573Y-154156698D01*
X51798487Y-154204281D01*
X51927531Y-154287211D01*
X51979048Y-154320320D01*
X51979061Y-154320327D01*
X52174284Y-154409482D01*
X52174288Y-154409483D01*
X52174290Y-154409484D01*
X52380231Y-154469954D01*
X52380232Y-154469954D01*
X52380235Y-154469955D01*
X52443584Y-154479062D01*
X52592682Y-154500500D01*
X52592683Y-154500500D01*
X54807317Y-154500500D01*
X54807318Y-154500500D01*
X54977851Y-154475980D01*
X55019764Y-154469955D01*
X55019765Y-154469954D01*
X55019769Y-154469954D01*
X55225710Y-154409484D01*
X55225713Y-154409482D01*
X55225715Y-154409482D01*
X55246478Y-154400000D01*
X77324706Y-154400000D01*
X77343853Y-154643297D01*
X77400830Y-154880619D01*
X77494222Y-155106089D01*
X77621737Y-155314173D01*
X77621738Y-155314176D01*
X77675449Y-155377063D01*
X77780241Y-155499759D01*
X77857637Y-155565861D01*
X77965823Y-155658261D01*
X77965826Y-155658262D01*
X78173910Y-155785777D01*
X78399381Y-155879169D01*
X78399378Y-155879169D01*
X78399384Y-155879170D01*
X78399388Y-155879172D01*
X78636698Y-155936146D01*
X78880000Y-155955294D01*
X79123302Y-155936146D01*
X79360612Y-155879172D01*
X79586089Y-155785777D01*
X79794179Y-155658259D01*
X79979759Y-155499759D01*
X80138259Y-155314179D01*
X80265777Y-155106089D01*
X80353444Y-154894440D01*
X83409168Y-154894440D01*
X83409168Y-154894441D01*
X84403810Y-155889083D01*
X84403811Y-155889083D01*
X84936968Y-155355924D01*
X84687579Y-155106535D01*
X84527890Y-154990513D01*
X84352020Y-154900902D01*
X84352017Y-154900901D01*
X84164298Y-154839909D01*
X83969342Y-154809031D01*
X83771960Y-154809031D01*
X83577001Y-154839909D01*
X83409168Y-154894440D01*
X80353444Y-154894440D01*
X80359172Y-154880612D01*
X80416146Y-154643302D01*
X80435294Y-154400000D01*
X80416146Y-154156698D01*
X80359172Y-153919388D01*
X80359169Y-153919380D01*
X80265777Y-153693910D01*
X80138262Y-153485826D01*
X80138261Y-153485823D01*
X80102453Y-153443897D01*
X79979759Y-153300241D01*
X79857063Y-153195449D01*
X79794176Y-153141738D01*
X79794173Y-153141737D01*
X79586089Y-153014222D01*
X79360618Y-152920830D01*
X79360621Y-152920830D01*
X79254992Y-152895470D01*
X79123302Y-152863854D01*
X79123300Y-152863853D01*
X79123297Y-152863853D01*
X78880000Y-152844706D01*
X78636702Y-152863853D01*
X78636698Y-152863854D01*
X78494989Y-152897876D01*
X78399380Y-152920830D01*
X78173910Y-153014222D01*
X77965826Y-153141737D01*
X77965823Y-153141738D01*
X77780241Y-153300241D01*
X77621738Y-153485823D01*
X77621737Y-153485826D01*
X77494222Y-153693910D01*
X77400830Y-153919380D01*
X77343853Y-154156702D01*
X77324706Y-154400000D01*
X55246478Y-154400000D01*
X55420938Y-154320327D01*
X55420944Y-154320323D01*
X55420950Y-154320321D01*
X55601513Y-154204281D01*
X55763724Y-154063724D01*
X55904281Y-153901513D01*
X56020321Y-153720950D01*
X56020323Y-153720944D01*
X56020327Y-153720938D01*
X56109482Y-153525715D01*
X56109482Y-153525713D01*
X56109484Y-153525710D01*
X56169954Y-153319769D01*
X56200500Y-153107318D01*
X56200500Y-153000000D01*
X56200500Y-152934108D01*
X56200500Y-151102135D01*
X59149500Y-151102135D01*
X59149500Y-152897870D01*
X59149501Y-152897876D01*
X59155908Y-152957483D01*
X59206202Y-153092328D01*
X59206206Y-153092335D01*
X59292452Y-153207544D01*
X59292455Y-153207547D01*
X59407664Y-153293793D01*
X59407671Y-153293797D01*
X59542517Y-153344091D01*
X59542516Y-153344091D01*
X59549444Y-153344835D01*
X59602127Y-153350500D01*
X61397872Y-153350499D01*
X61457483Y-153344091D01*
X61592331Y-153293796D01*
X61707546Y-153207546D01*
X61793796Y-153092331D01*
X61844091Y-152957483D01*
X61850500Y-152897873D01*
X61850499Y-151102128D01*
X61844091Y-151042517D01*
X61828233Y-151000000D01*
X61793797Y-150907671D01*
X61793793Y-150907664D01*
X61707547Y-150792455D01*
X61707544Y-150792452D01*
X61592335Y-150706206D01*
X61592328Y-150706202D01*
X61457482Y-150655908D01*
X61457483Y-150655908D01*
X61397883Y-150649501D01*
X61397881Y-150649500D01*
X61397873Y-150649500D01*
X61397864Y-150649500D01*
X59602129Y-150649500D01*
X59602123Y-150649501D01*
X59542516Y-150655908D01*
X59407671Y-150706202D01*
X59407664Y-150706206D01*
X59292455Y-150792452D01*
X59292452Y-150792455D01*
X59206206Y-150907664D01*
X59206202Y-150907671D01*
X59155908Y-151042517D01*
X59149501Y-151102116D01*
X59149501Y-151102123D01*
X59149500Y-151102135D01*
X56200500Y-151102135D01*
X56200500Y-150934108D01*
X56200500Y-150892682D01*
X56173689Y-150706206D01*
X56169955Y-150680235D01*
X56169952Y-150680225D01*
X56160931Y-150649500D01*
X56109484Y-150474290D01*
X56109483Y-150474288D01*
X56109482Y-150474284D01*
X56020327Y-150279061D01*
X56020320Y-150279048D01*
X55987211Y-150227531D01*
X55904281Y-150098487D01*
X55871172Y-150060277D01*
X55763724Y-149936275D01*
X55601514Y-149795720D01*
X55601513Y-149795719D01*
X55536991Y-149754253D01*
X55420951Y-149679679D01*
X55420938Y-149679672D01*
X55225715Y-149590517D01*
X55019774Y-149530047D01*
X55019764Y-149530044D01*
X54828754Y-149502582D01*
X54807318Y-149499500D01*
X54765892Y-149499500D01*
X52765892Y-149499500D01*
X52700000Y-149499500D01*
X52592682Y-149499500D01*
X52380235Y-149530044D01*
X52380225Y-149530047D01*
X52174284Y-149590517D01*
X51979061Y-149679672D01*
X51979048Y-149679679D01*
X51798485Y-149795720D01*
X51636275Y-149936275D01*
X51495720Y-150098485D01*
X51379679Y-150279048D01*
X51379672Y-150279061D01*
X51290517Y-150474284D01*
X51230047Y-150680225D01*
X51230044Y-150680235D01*
X51199500Y-150892682D01*
X49000500Y-150892682D01*
X49000500Y-145782155D01*
X75170000Y-145782155D01*
X75170000Y-146830000D01*
X76301399Y-146830000D01*
X76283811Y-146856322D01*
X76208429Y-147038311D01*
X76170000Y-147231509D01*
X76170000Y-147428491D01*
X76208429Y-147621689D01*
X76283811Y-147803678D01*
X76301399Y-147830000D01*
X75170000Y-147830000D01*
X75170000Y-148877844D01*
X75176401Y-148937372D01*
X75176403Y-148937379D01*
X75226645Y-149072086D01*
X75226649Y-149072093D01*
X75312809Y-149187187D01*
X75312812Y-149187190D01*
X75427906Y-149273350D01*
X75427913Y-149273354D01*
X75562620Y-149323596D01*
X75562627Y-149323598D01*
X75622155Y-149329999D01*
X75622172Y-149330000D01*
X76670000Y-149330000D01*
X76670000Y-148198601D01*
X76696322Y-148216189D01*
X76878311Y-148291571D01*
X77071509Y-148330000D01*
X77268491Y-148330000D01*
X77461689Y-148291571D01*
X77643678Y-148216189D01*
X77670000Y-148198601D01*
X77670000Y-149330000D01*
X78717828Y-149330000D01*
X78717844Y-149329999D01*
X78777372Y-149323598D01*
X78777379Y-149323596D01*
X78912086Y-149273354D01*
X78912093Y-149273350D01*
X79027187Y-149187190D01*
X79027190Y-149187187D01*
X79113350Y-149072093D01*
X79113354Y-149072086D01*
X79163596Y-148937379D01*
X79163598Y-148937372D01*
X79169999Y-148877844D01*
X79170000Y-148877827D01*
X79170000Y-148647263D01*
X81245500Y-148647263D01*
X81245500Y-150352736D01*
X81276389Y-150547763D01*
X81322140Y-150688567D01*
X81337409Y-150735561D01*
X81427056Y-150911501D01*
X81427058Y-150911504D01*
X81543115Y-151071246D01*
X81682753Y-151210884D01*
X81832234Y-151319486D01*
X81842499Y-151326944D01*
X82018439Y-151416591D01*
X82143637Y-151457270D01*
X82206236Y-151477610D01*
X82401264Y-151508500D01*
X82401269Y-151508500D01*
X82598736Y-151508500D01*
X82793763Y-151477610D01*
X82981561Y-151416591D01*
X83157501Y-151326944D01*
X83247192Y-151261779D01*
X83317246Y-151210884D01*
X83317248Y-151210881D01*
X83317252Y-151210879D01*
X83456879Y-151071252D01*
X83456881Y-151071248D01*
X83456884Y-151071246D01*
X83556519Y-150934108D01*
X83572944Y-150911501D01*
X83662591Y-150735561D01*
X83723610Y-150547763D01*
X83735248Y-150474284D01*
X83754500Y-150352736D01*
X83754500Y-148647263D01*
X83723610Y-148452236D01*
X83683893Y-148330000D01*
X83662591Y-148264439D01*
X83572944Y-148088499D01*
X83565486Y-148078234D01*
X83456884Y-147928753D01*
X83317246Y-147789115D01*
X83157504Y-147673058D01*
X83157503Y-147673057D01*
X83157501Y-147673056D01*
X82981561Y-147583409D01*
X82981558Y-147583408D01*
X82793763Y-147522389D01*
X82598736Y-147491500D01*
X82598731Y-147491500D01*
X82401269Y-147491500D01*
X82401264Y-147491500D01*
X82206236Y-147522389D01*
X82018441Y-147583408D01*
X81842495Y-147673058D01*
X81682753Y-147789115D01*
X81543115Y-147928753D01*
X81427058Y-148088495D01*
X81337408Y-148264441D01*
X81276389Y-148452236D01*
X81245500Y-148647263D01*
X79170000Y-148647263D01*
X79170000Y-147830000D01*
X78038601Y-147830000D01*
X78056189Y-147803678D01*
X78131571Y-147621689D01*
X78170000Y-147428491D01*
X78170000Y-147231509D01*
X78131571Y-147038311D01*
X78056189Y-146856322D01*
X78038601Y-146830000D01*
X79170000Y-146830000D01*
X79170000Y-145782172D01*
X79169999Y-145782155D01*
X79163598Y-145722627D01*
X79163596Y-145722620D01*
X79113354Y-145587913D01*
X79113350Y-145587906D01*
X79027190Y-145472812D01*
X79027187Y-145472809D01*
X78931615Y-145401263D01*
X86491500Y-145401263D01*
X86491500Y-145598736D01*
X86522389Y-145793763D01*
X86583408Y-145981558D01*
X86583409Y-145981561D01*
X86673056Y-146157501D01*
X86673058Y-146157504D01*
X86789115Y-146317246D01*
X86928753Y-146456884D01*
X87061391Y-146553249D01*
X87088499Y-146572944D01*
X87264439Y-146662591D01*
X87356604Y-146692537D01*
X87452236Y-146723610D01*
X87647264Y-146754500D01*
X87647269Y-146754500D01*
X89352736Y-146754500D01*
X89547763Y-146723610D01*
X89735561Y-146662591D01*
X89911501Y-146572944D01*
X90001192Y-146507779D01*
X90071246Y-146456884D01*
X90071248Y-146456881D01*
X90071252Y-146456879D01*
X90210879Y-146317252D01*
X90210881Y-146317248D01*
X90210884Y-146317246D01*
X90261779Y-146247192D01*
X90326944Y-146157501D01*
X90416591Y-145981561D01*
X90477610Y-145793763D01*
X90488878Y-145722620D01*
X90508500Y-145598736D01*
X90508500Y-145401263D01*
X90477610Y-145206236D01*
X90457270Y-145143637D01*
X90416591Y-145018439D01*
X90326944Y-144842499D01*
X90319486Y-144832234D01*
X90210884Y-144682753D01*
X90071246Y-144543115D01*
X89911504Y-144427058D01*
X89911503Y-144427057D01*
X89911501Y-144427056D01*
X89735561Y-144337409D01*
X89735558Y-144337408D01*
X89547763Y-144276389D01*
X89352736Y-144245500D01*
X89352731Y-144245500D01*
X87647269Y-144245500D01*
X87647264Y-144245500D01*
X87452236Y-144276389D01*
X87264441Y-144337408D01*
X87088495Y-144427058D01*
X86928753Y-144543115D01*
X86789115Y-144682753D01*
X86673058Y-144842495D01*
X86583408Y-145018441D01*
X86522389Y-145206236D01*
X86491500Y-145401263D01*
X78931615Y-145401263D01*
X78912093Y-145386649D01*
X78912086Y-145386645D01*
X78777379Y-145336403D01*
X78777372Y-145336401D01*
X78717844Y-145330000D01*
X77670000Y-145330000D01*
X77670000Y-146461398D01*
X77643678Y-146443811D01*
X77461689Y-146368429D01*
X77268491Y-146330000D01*
X77071509Y-146330000D01*
X76878311Y-146368429D01*
X76696322Y-146443811D01*
X76670000Y-146461398D01*
X76670000Y-145330000D01*
X75622155Y-145330000D01*
X75562627Y-145336401D01*
X75562620Y-145336403D01*
X75427913Y-145386645D01*
X75427906Y-145386649D01*
X75312812Y-145472809D01*
X75312809Y-145472812D01*
X75226649Y-145587906D01*
X75226645Y-145587913D01*
X75176403Y-145722620D01*
X75176401Y-145722627D01*
X75170000Y-145782155D01*
X49000500Y-145782155D01*
X49000500Y-141879998D01*
X71054390Y-141879998D01*
X71054390Y-141880001D01*
X71074804Y-142165433D01*
X71135628Y-142445037D01*
X71235635Y-142713166D01*
X71372770Y-142964309D01*
X71372775Y-142964317D01*
X71544254Y-143193387D01*
X71544270Y-143193405D01*
X71746594Y-143395729D01*
X71746612Y-143395745D01*
X71975682Y-143567224D01*
X71975690Y-143567229D01*
X72226833Y-143704364D01*
X72226832Y-143704364D01*
X72226836Y-143704365D01*
X72226839Y-143704367D01*
X72494954Y-143804369D01*
X72494960Y-143804370D01*
X72494962Y-143804371D01*
X72774566Y-143865195D01*
X72774568Y-143865195D01*
X72774572Y-143865196D01*
X73028220Y-143883337D01*
X73059999Y-143885610D01*
X73060000Y-143885610D01*
X73060001Y-143885610D01*
X73088595Y-143883564D01*
X73345428Y-143865196D01*
X73625046Y-143804369D01*
X73893161Y-143704367D01*
X74144315Y-143567226D01*
X74373395Y-143395739D01*
X74575739Y-143193395D01*
X74747226Y-142964315D01*
X74884367Y-142713161D01*
X74984369Y-142445046D01*
X75045196Y-142165428D01*
X75063564Y-141908595D01*
X75065610Y-141880001D01*
X75065610Y-141879998D01*
X75052870Y-141701869D01*
X75045196Y-141594572D01*
X74984369Y-141314954D01*
X74884367Y-141046839D01*
X74822494Y-140933528D01*
X74747229Y-140795690D01*
X74747224Y-140795682D01*
X74575745Y-140566612D01*
X74575729Y-140566594D01*
X74373405Y-140364270D01*
X74373387Y-140364254D01*
X74144317Y-140192775D01*
X74144309Y-140192770D01*
X73893166Y-140055635D01*
X73893167Y-140055635D01*
X73755476Y-140004279D01*
X73625046Y-139955631D01*
X73625043Y-139955630D01*
X73625037Y-139955628D01*
X73345433Y-139894804D01*
X73060001Y-139874390D01*
X73059999Y-139874390D01*
X72774566Y-139894804D01*
X72494962Y-139955628D01*
X72226833Y-140055635D01*
X71975690Y-140192770D01*
X71975682Y-140192775D01*
X71746612Y-140364254D01*
X71746594Y-140364270D01*
X71544270Y-140566594D01*
X71544254Y-140566612D01*
X71372775Y-140795682D01*
X71372770Y-140795690D01*
X71235635Y-141046833D01*
X71135628Y-141314962D01*
X71074804Y-141594566D01*
X71054390Y-141879998D01*
X49000500Y-141879998D01*
X49000500Y-132092682D01*
X49999500Y-132092682D01*
X49999500Y-138907317D01*
X50030044Y-139119764D01*
X50030047Y-139119774D01*
X50090517Y-139325715D01*
X50179672Y-139520938D01*
X50179679Y-139520951D01*
X50295720Y-139701514D01*
X50436275Y-139863724D01*
X50542342Y-139955631D01*
X50598487Y-140004281D01*
X50660914Y-140044400D01*
X50779048Y-140120320D01*
X50779061Y-140120327D01*
X50974284Y-140209482D01*
X50974288Y-140209483D01*
X50974290Y-140209484D01*
X51180231Y-140269954D01*
X51180232Y-140269954D01*
X51180235Y-140269955D01*
X51243584Y-140279062D01*
X51392682Y-140300500D01*
X51392683Y-140300500D01*
X56007317Y-140300500D01*
X56007318Y-140300500D01*
X56177851Y-140275980D01*
X56219764Y-140269955D01*
X56219765Y-140269954D01*
X56219769Y-140269954D01*
X56425710Y-140209484D01*
X56425713Y-140209482D01*
X56425715Y-140209482D01*
X56620938Y-140120327D01*
X56620944Y-140120323D01*
X56620950Y-140120321D01*
X56801513Y-140004281D01*
X56963724Y-139863724D01*
X57104281Y-139701513D01*
X57220321Y-139520950D01*
X57220323Y-139520944D01*
X57220327Y-139520938D01*
X57246175Y-139464339D01*
X82616651Y-139464339D01*
X82616651Y-139661722D01*
X82647529Y-139856678D01*
X82708521Y-140044397D01*
X82708522Y-140044400D01*
X82798133Y-140220270D01*
X82914155Y-140379958D01*
X82914155Y-140379960D01*
X83163543Y-140629348D01*
X83163544Y-140629348D01*
X83696703Y-140096190D01*
X83100547Y-139500034D01*
X83373481Y-139500034D01*
X83373481Y-139631686D01*
X83407555Y-139758852D01*
X83473381Y-139872867D01*
X84403810Y-140803297D01*
X83870651Y-141336454D01*
X84120044Y-141585846D01*
X84279730Y-141701865D01*
X84279736Y-141701869D01*
X84455598Y-141791477D01*
X84455604Y-141791479D01*
X84643320Y-141852470D01*
X84643319Y-141852470D01*
X84838277Y-141883349D01*
X85035660Y-141883349D01*
X85230616Y-141852470D01*
X85230619Y-141852470D01*
X85398451Y-141797938D01*
X84627134Y-141026621D01*
X84741148Y-141092446D01*
X84868314Y-141126520D01*
X84999966Y-141126520D01*
X85127132Y-141092446D01*
X85241148Y-141026620D01*
X85334240Y-140933528D01*
X85400066Y-140819512D01*
X85434140Y-140692346D01*
X85434140Y-140560694D01*
X85400066Y-140433528D01*
X85334240Y-140319513D01*
X85110916Y-140096189D01*
X85110917Y-140096189D01*
X85110917Y-140096190D01*
X86105558Y-141090831D01*
X86160090Y-140922999D01*
X86160090Y-140922996D01*
X86190969Y-140728040D01*
X86190969Y-140530656D01*
X86160090Y-140335699D01*
X86099099Y-140147984D01*
X86099097Y-140147978D01*
X86009489Y-139972116D01*
X86009485Y-139972110D01*
X85893466Y-139812424D01*
X85644075Y-139563031D01*
X85644074Y-139563031D01*
X85110917Y-140096189D01*
X85110916Y-140096189D01*
X84180487Y-139165761D01*
X84066472Y-139099935D01*
X83939306Y-139065861D01*
X83807654Y-139065861D01*
X83680488Y-139099935D01*
X83566473Y-139165761D01*
X83473381Y-139258853D01*
X83407555Y-139372868D01*
X83373481Y-139500034D01*
X83100547Y-139500034D01*
X82702061Y-139101548D01*
X82702060Y-139101548D01*
X82647529Y-139269381D01*
X82616651Y-139464339D01*
X57246175Y-139464339D01*
X57309482Y-139325715D01*
X57309482Y-139325713D01*
X57309484Y-139325710D01*
X57369954Y-139119769D01*
X57400500Y-138907318D01*
X57400500Y-138800000D01*
X57400500Y-138734108D01*
X57400500Y-132974999D01*
X57879341Y-132974999D01*
X57879341Y-132975000D01*
X57899936Y-133210403D01*
X57899938Y-133210413D01*
X57961094Y-133438655D01*
X57961096Y-133438659D01*
X57961097Y-133438663D01*
X58045499Y-133619663D01*
X58060965Y-133652830D01*
X58060967Y-133652834D01*
X58196501Y-133846395D01*
X58196506Y-133846402D01*
X58363597Y-134013493D01*
X58363603Y-134013498D01*
X58549158Y-134143425D01*
X58592783Y-134198002D01*
X58599977Y-134267500D01*
X58568454Y-134329855D01*
X58549158Y-134346575D01*
X58363597Y-134476505D01*
X58196505Y-134643597D01*
X58060965Y-134837169D01*
X58060964Y-134837171D01*
X57961098Y-135051335D01*
X57961094Y-135051344D01*
X57899938Y-135279586D01*
X57899936Y-135279596D01*
X57879341Y-135514999D01*
X57879341Y-135515000D01*
X57899936Y-135750403D01*
X57899938Y-135750413D01*
X57961094Y-135978655D01*
X57961096Y-135978659D01*
X57961097Y-135978663D01*
X57980502Y-136020277D01*
X58060965Y-136192830D01*
X58060967Y-136192834D01*
X58167310Y-136344706D01*
X58196501Y-136386396D01*
X58196506Y-136386402D01*
X58363597Y-136553493D01*
X58363603Y-136553498D01*
X58549158Y-136683425D01*
X58592783Y-136738002D01*
X58599977Y-136807500D01*
X58568454Y-136869855D01*
X58549158Y-136886575D01*
X58363597Y-137016505D01*
X58196505Y-137183597D01*
X58060965Y-137377169D01*
X58060964Y-137377171D01*
X57961098Y-137591335D01*
X57961094Y-137591344D01*
X57899938Y-137819586D01*
X57899936Y-137819596D01*
X57879341Y-138054999D01*
X57879341Y-138055000D01*
X57899936Y-138290403D01*
X57899938Y-138290413D01*
X57961094Y-138518655D01*
X57961096Y-138518659D01*
X57961097Y-138518663D01*
X57965000Y-138527032D01*
X58060965Y-138732830D01*
X58060967Y-138732834D01*
X58107998Y-138800000D01*
X58196505Y-138926401D01*
X58363599Y-139093495D01*
X58456094Y-139158261D01*
X58557165Y-139229032D01*
X58557167Y-139229033D01*
X58557170Y-139229035D01*
X58771337Y-139328903D01*
X58999592Y-139390063D01*
X59187918Y-139406539D01*
X59234999Y-139410659D01*
X59235000Y-139410659D01*
X59235001Y-139410659D01*
X59274234Y-139407226D01*
X59470408Y-139390063D01*
X59698663Y-139328903D01*
X59912830Y-139229035D01*
X60106401Y-139093495D01*
X60273495Y-138926401D01*
X60403425Y-138740842D01*
X60458002Y-138697217D01*
X60527500Y-138690023D01*
X60589855Y-138721546D01*
X60606575Y-138740842D01*
X60736500Y-138926395D01*
X60736505Y-138926401D01*
X60903599Y-139093495D01*
X60996094Y-139158261D01*
X61097165Y-139229032D01*
X61097167Y-139229033D01*
X61097170Y-139229035D01*
X61311337Y-139328903D01*
X61539592Y-139390063D01*
X61727918Y-139406539D01*
X61774999Y-139410659D01*
X61775000Y-139410659D01*
X61775001Y-139410659D01*
X61814234Y-139407226D01*
X62010408Y-139390063D01*
X62238663Y-139328903D01*
X62452830Y-139229035D01*
X62646401Y-139093495D01*
X62813495Y-138926401D01*
X62949035Y-138732830D01*
X63048903Y-138518663D01*
X63110063Y-138290408D01*
X63130659Y-138055000D01*
X63117098Y-137900000D01*
X77324706Y-137900000D01*
X77343853Y-138143297D01*
X77343853Y-138143300D01*
X77343854Y-138143302D01*
X77379170Y-138290403D01*
X77400830Y-138380619D01*
X77494222Y-138606089D01*
X77621737Y-138814173D01*
X77621738Y-138814176D01*
X77675449Y-138877063D01*
X77780241Y-138999759D01*
X77897532Y-139099935D01*
X77965823Y-139158261D01*
X77965826Y-139158262D01*
X78173910Y-139285777D01*
X78399381Y-139379169D01*
X78399378Y-139379169D01*
X78399384Y-139379170D01*
X78399388Y-139379172D01*
X78636698Y-139436146D01*
X78880000Y-139455294D01*
X79123302Y-139436146D01*
X79360612Y-139379172D01*
X79586089Y-139285777D01*
X79794179Y-139158259D01*
X79979759Y-138999759D01*
X80138259Y-138814179D01*
X80265777Y-138606089D01*
X80353444Y-138394440D01*
X83409168Y-138394440D01*
X83409168Y-138394441D01*
X84403810Y-139389083D01*
X84403811Y-139389083D01*
X84936968Y-138855924D01*
X84687579Y-138606535D01*
X84527890Y-138490513D01*
X84352020Y-138400902D01*
X84352017Y-138400901D01*
X84164298Y-138339909D01*
X83969342Y-138309031D01*
X83771960Y-138309031D01*
X83577001Y-138339909D01*
X83409168Y-138394440D01*
X80353444Y-138394440D01*
X80359172Y-138380612D01*
X80416146Y-138143302D01*
X80435294Y-137900000D01*
X80416146Y-137656698D01*
X80359172Y-137419388D01*
X80346359Y-137388454D01*
X80265777Y-137193910D01*
X80138262Y-136985826D01*
X80138261Y-136985823D01*
X80053495Y-136886575D01*
X79979759Y-136800241D01*
X79842985Y-136683425D01*
X79794176Y-136641738D01*
X79794173Y-136641737D01*
X79586089Y-136514222D01*
X79360618Y-136420830D01*
X79360621Y-136420830D01*
X79254992Y-136395470D01*
X79123302Y-136363854D01*
X79123300Y-136363853D01*
X79123297Y-136363853D01*
X78880000Y-136344706D01*
X78636702Y-136363853D01*
X78636698Y-136363854D01*
X78542785Y-136386401D01*
X78399380Y-136420830D01*
X78173910Y-136514222D01*
X77965826Y-136641737D01*
X77965823Y-136641738D01*
X77780241Y-136800241D01*
X77621738Y-136985823D01*
X77621737Y-136985826D01*
X77494222Y-137193910D01*
X77400830Y-137419380D01*
X77343853Y-137656702D01*
X77324706Y-137900000D01*
X63117098Y-137900000D01*
X63110063Y-137819592D01*
X63048903Y-137591337D01*
X62949035Y-137377171D01*
X62943425Y-137369158D01*
X62813494Y-137183597D01*
X62646402Y-137016506D01*
X62646396Y-137016501D01*
X62460842Y-136886575D01*
X62417217Y-136831998D01*
X62410023Y-136762500D01*
X62441546Y-136700145D01*
X62460842Y-136683425D01*
X62520378Y-136641737D01*
X62646401Y-136553495D01*
X62813495Y-136386401D01*
X62936235Y-136211110D01*
X62990811Y-136167486D01*
X63013617Y-136160617D01*
X63066875Y-136150023D01*
X63114744Y-136140501D01*
X63233127Y-136091465D01*
X63339669Y-136020277D01*
X70077789Y-129282155D01*
X75170000Y-129282155D01*
X75170000Y-130330000D01*
X76301399Y-130330000D01*
X76283811Y-130356322D01*
X76208429Y-130538311D01*
X76170000Y-130731509D01*
X76170000Y-130928491D01*
X76208429Y-131121689D01*
X76283811Y-131303678D01*
X76301399Y-131330000D01*
X75170000Y-131330000D01*
X75170000Y-132377844D01*
X75176401Y-132437372D01*
X75176403Y-132437379D01*
X75226645Y-132572086D01*
X75226649Y-132572093D01*
X75312809Y-132687187D01*
X75312812Y-132687190D01*
X75427906Y-132773350D01*
X75427913Y-132773354D01*
X75562620Y-132823596D01*
X75562627Y-132823598D01*
X75622155Y-132829999D01*
X75622172Y-132830000D01*
X76670000Y-132830000D01*
X76670000Y-131698601D01*
X76696322Y-131716189D01*
X76878311Y-131791571D01*
X77071509Y-131830000D01*
X77268491Y-131830000D01*
X77461689Y-131791571D01*
X77643678Y-131716189D01*
X77670000Y-131698601D01*
X77670000Y-132830000D01*
X78717828Y-132830000D01*
X78717844Y-132829999D01*
X78777372Y-132823598D01*
X78777379Y-132823596D01*
X78912086Y-132773354D01*
X78912093Y-132773350D01*
X79027187Y-132687190D01*
X79027190Y-132687187D01*
X79113350Y-132572093D01*
X79113354Y-132572086D01*
X79163596Y-132437379D01*
X79163598Y-132437372D01*
X79169999Y-132377844D01*
X79170000Y-132377827D01*
X79170000Y-132147263D01*
X81245500Y-132147263D01*
X81245500Y-133852736D01*
X81276389Y-134047763D01*
X81325205Y-134198002D01*
X81337409Y-134235561D01*
X81416436Y-134390658D01*
X81427058Y-134411504D01*
X81543115Y-134571246D01*
X81682753Y-134710884D01*
X81832234Y-134819486D01*
X81842499Y-134826944D01*
X82018439Y-134916591D01*
X82143637Y-134957270D01*
X82206236Y-134977610D01*
X82401264Y-135008500D01*
X82401269Y-135008500D01*
X82598736Y-135008500D01*
X82793763Y-134977610D01*
X82981561Y-134916591D01*
X83157501Y-134826944D01*
X83247192Y-134761779D01*
X83317246Y-134710884D01*
X83317248Y-134710881D01*
X83317252Y-134710879D01*
X83456879Y-134571252D01*
X83456881Y-134571248D01*
X83456884Y-134571246D01*
X83537453Y-134460350D01*
X83572944Y-134411501D01*
X83662591Y-134235561D01*
X83723610Y-134047763D01*
X83741869Y-133932482D01*
X83754500Y-133852736D01*
X83754500Y-132147263D01*
X83723610Y-131952236D01*
X83677224Y-131809475D01*
X83662591Y-131764439D01*
X83572944Y-131588499D01*
X83565486Y-131578234D01*
X83456884Y-131428753D01*
X83317246Y-131289115D01*
X83157504Y-131173058D01*
X83157503Y-131173057D01*
X83157501Y-131173056D01*
X82981561Y-131083409D01*
X82981558Y-131083408D01*
X82793763Y-131022389D01*
X82598736Y-130991500D01*
X82598731Y-130991500D01*
X82401269Y-130991500D01*
X82401264Y-130991500D01*
X82206236Y-131022389D01*
X82018441Y-131083408D01*
X81842495Y-131173058D01*
X81682753Y-131289115D01*
X81543115Y-131428753D01*
X81427058Y-131588495D01*
X81337408Y-131764441D01*
X81276389Y-131952236D01*
X81245500Y-132147263D01*
X79170000Y-132147263D01*
X79170000Y-131330000D01*
X78038601Y-131330000D01*
X78056189Y-131303678D01*
X78131571Y-131121689D01*
X78170000Y-130928491D01*
X78170000Y-130731509D01*
X78131571Y-130538311D01*
X78056189Y-130356322D01*
X78038601Y-130330000D01*
X79170000Y-130330000D01*
X79170000Y-129282172D01*
X79169999Y-129282155D01*
X79163598Y-129222627D01*
X79163596Y-129222620D01*
X79113354Y-129087913D01*
X79113350Y-129087906D01*
X79027190Y-128972812D01*
X79027187Y-128972809D01*
X78931615Y-128901263D01*
X86491500Y-128901263D01*
X86491500Y-129098736D01*
X86522389Y-129293763D01*
X86583408Y-129481558D01*
X86583409Y-129481561D01*
X86673056Y-129657501D01*
X86673058Y-129657504D01*
X86789115Y-129817246D01*
X86928753Y-129956884D01*
X87061391Y-130053249D01*
X87088499Y-130072944D01*
X87264439Y-130162591D01*
X87356604Y-130192537D01*
X87452236Y-130223610D01*
X87647264Y-130254500D01*
X87647269Y-130254500D01*
X89352736Y-130254500D01*
X89547763Y-130223610D01*
X89735561Y-130162591D01*
X89911501Y-130072944D01*
X90001192Y-130007779D01*
X90071246Y-129956884D01*
X90071248Y-129956881D01*
X90071252Y-129956879D01*
X90210879Y-129817252D01*
X90210881Y-129817248D01*
X90210884Y-129817246D01*
X90261779Y-129747192D01*
X90326944Y-129657501D01*
X90416591Y-129481561D01*
X90477610Y-129293763D01*
X90488878Y-129222620D01*
X90508500Y-129098736D01*
X90508500Y-128901263D01*
X90477610Y-128706236D01*
X90457270Y-128643637D01*
X90416591Y-128518439D01*
X90326944Y-128342499D01*
X90319486Y-128332234D01*
X90210884Y-128182753D01*
X90071246Y-128043115D01*
X89911504Y-127927058D01*
X89911503Y-127927057D01*
X89911501Y-127927056D01*
X89735561Y-127837409D01*
X89735558Y-127837408D01*
X89547763Y-127776389D01*
X89352736Y-127745500D01*
X89352731Y-127745500D01*
X87647269Y-127745500D01*
X87647264Y-127745500D01*
X87452236Y-127776389D01*
X87264441Y-127837408D01*
X87088495Y-127927058D01*
X86928753Y-128043115D01*
X86789115Y-128182753D01*
X86673058Y-128342495D01*
X86583408Y-128518441D01*
X86522389Y-128706236D01*
X86491500Y-128901263D01*
X78931615Y-128901263D01*
X78912093Y-128886649D01*
X78912086Y-128886645D01*
X78777379Y-128836403D01*
X78777372Y-128836401D01*
X78717844Y-128830000D01*
X77670000Y-128830000D01*
X77670000Y-129961398D01*
X77643678Y-129943811D01*
X77461689Y-129868429D01*
X77268491Y-129830000D01*
X77071509Y-129830000D01*
X76878311Y-129868429D01*
X76696322Y-129943811D01*
X76670000Y-129961398D01*
X76670000Y-128830000D01*
X75622155Y-128830000D01*
X75562627Y-128836401D01*
X75562620Y-128836403D01*
X75427913Y-128886645D01*
X75427906Y-128886649D01*
X75312812Y-128972809D01*
X75312809Y-128972812D01*
X75226649Y-129087906D01*
X75226645Y-129087913D01*
X75176403Y-129222620D01*
X75176401Y-129222627D01*
X75170000Y-129282155D01*
X70077789Y-129282155D01*
X72118589Y-127241355D01*
X72179910Y-127207872D01*
X72249598Y-127212855D01*
X72494954Y-127304369D01*
X72494960Y-127304370D01*
X72494962Y-127304371D01*
X72774566Y-127365195D01*
X72774568Y-127365195D01*
X72774572Y-127365196D01*
X73028220Y-127383337D01*
X73059999Y-127385610D01*
X73060000Y-127385610D01*
X73060001Y-127385610D01*
X73088595Y-127383564D01*
X73345428Y-127365196D01*
X73625046Y-127304369D01*
X73893161Y-127204367D01*
X74144315Y-127067226D01*
X74373395Y-126895739D01*
X74575739Y-126693395D01*
X74747226Y-126464315D01*
X74884367Y-126213161D01*
X74984369Y-125945046D01*
X75045196Y-125665428D01*
X75063564Y-125408595D01*
X75065610Y-125380001D01*
X75065610Y-125379998D01*
X75052870Y-125201869D01*
X75045196Y-125094572D01*
X74984369Y-124814954D01*
X74884367Y-124546839D01*
X74822494Y-124433528D01*
X74747229Y-124295690D01*
X74747224Y-124295682D01*
X74575745Y-124066612D01*
X74575729Y-124066594D01*
X74373405Y-123864270D01*
X74373387Y-123864254D01*
X74144317Y-123692775D01*
X74144309Y-123692770D01*
X73893166Y-123555635D01*
X73893167Y-123555635D01*
X73785915Y-123515632D01*
X73625046Y-123455631D01*
X73625043Y-123455630D01*
X73625037Y-123455628D01*
X73345433Y-123394804D01*
X73060001Y-123374390D01*
X73059999Y-123374390D01*
X72774566Y-123394804D01*
X72494962Y-123455628D01*
X72226833Y-123555635D01*
X71975690Y-123692770D01*
X71975682Y-123692775D01*
X71746612Y-123864254D01*
X71746594Y-123864270D01*
X71544270Y-124066594D01*
X71544254Y-124066612D01*
X71372775Y-124295682D01*
X71372770Y-124295690D01*
X71235635Y-124546833D01*
X71135628Y-124814962D01*
X71074804Y-125094566D01*
X71054390Y-125379998D01*
X71054390Y-125380001D01*
X71074804Y-125665433D01*
X71135629Y-125945037D01*
X71135631Y-125945046D01*
X71188643Y-126087178D01*
X71227142Y-126190397D01*
X71232126Y-126260088D01*
X71198641Y-126321411D01*
X62932655Y-134587397D01*
X62871332Y-134620882D01*
X62801640Y-134615898D01*
X62757293Y-134587397D01*
X62691569Y-134521673D01*
X62658084Y-134460350D01*
X62663068Y-134390658D01*
X62704940Y-134334725D01*
X62735915Y-134317810D01*
X62867331Y-134268796D01*
X62982546Y-134182546D01*
X63068796Y-134067331D01*
X63119091Y-133932483D01*
X63125500Y-133872873D01*
X63125499Y-132077128D01*
X63119091Y-132017517D01*
X63117810Y-132014083D01*
X63068797Y-131882671D01*
X63068793Y-131882664D01*
X62982547Y-131767455D01*
X62982544Y-131767452D01*
X62867335Y-131681206D01*
X62867328Y-131681202D01*
X62732482Y-131630908D01*
X62732483Y-131630908D01*
X62672883Y-131624501D01*
X62672881Y-131624500D01*
X62672873Y-131624500D01*
X62672864Y-131624500D01*
X60877129Y-131624500D01*
X60877123Y-131624501D01*
X60817516Y-131630908D01*
X60682671Y-131681202D01*
X60682664Y-131681206D01*
X60567455Y-131767452D01*
X60567452Y-131767455D01*
X60481206Y-131882664D01*
X60481203Y-131882669D01*
X60432189Y-132014083D01*
X60390317Y-132070016D01*
X60324853Y-132094433D01*
X60256580Y-132079581D01*
X60228326Y-132058430D01*
X60106402Y-131936506D01*
X60106395Y-131936501D01*
X59912834Y-131800967D01*
X59912830Y-131800965D01*
X59912828Y-131800964D01*
X59698663Y-131701097D01*
X59698659Y-131701096D01*
X59698655Y-131701094D01*
X59470413Y-131639938D01*
X59470403Y-131639936D01*
X59235001Y-131619341D01*
X59234999Y-131619341D01*
X58999596Y-131639936D01*
X58999586Y-131639938D01*
X58771344Y-131701094D01*
X58771335Y-131701098D01*
X58557171Y-131800964D01*
X58557169Y-131800965D01*
X58363597Y-131936505D01*
X58196505Y-132103597D01*
X58060965Y-132297169D01*
X58060964Y-132297171D01*
X57961098Y-132511335D01*
X57961094Y-132511344D01*
X57899938Y-132739586D01*
X57899936Y-132739596D01*
X57879341Y-132974999D01*
X57400500Y-132974999D01*
X57400500Y-132134108D01*
X57400500Y-132092682D01*
X57369954Y-131880231D01*
X57309484Y-131674290D01*
X57309483Y-131674288D01*
X57309482Y-131674284D01*
X57220327Y-131479061D01*
X57220320Y-131479048D01*
X57187211Y-131427531D01*
X57104281Y-131298487D01*
X56995596Y-131173058D01*
X56963724Y-131136275D01*
X56801514Y-130995720D01*
X56801513Y-130995719D01*
X56736991Y-130954253D01*
X56620951Y-130879679D01*
X56620938Y-130879672D01*
X56425715Y-130790517D01*
X56219774Y-130730047D01*
X56219764Y-130730044D01*
X56028754Y-130702582D01*
X56007318Y-130699500D01*
X55965892Y-130699500D01*
X51565892Y-130699500D01*
X51500000Y-130699500D01*
X51392682Y-130699500D01*
X51180235Y-130730044D01*
X51180225Y-130730047D01*
X50974284Y-130790517D01*
X50779061Y-130879672D01*
X50779048Y-130879679D01*
X50598485Y-130995720D01*
X50436275Y-131136275D01*
X50295720Y-131298485D01*
X50179679Y-131479048D01*
X50179672Y-131479061D01*
X50090517Y-131674284D01*
X50030047Y-131880225D01*
X50030044Y-131880235D01*
X49999500Y-132092682D01*
X49000500Y-132092682D01*
X49000500Y-122964339D01*
X82616651Y-122964339D01*
X82616651Y-123161722D01*
X82647529Y-123356678D01*
X82708521Y-123544397D01*
X82708522Y-123544400D01*
X82798133Y-123720270D01*
X82914155Y-123879958D01*
X82914155Y-123879960D01*
X83163543Y-124129348D01*
X83163544Y-124129348D01*
X83696703Y-123596190D01*
X83100547Y-123000034D01*
X83373481Y-123000034D01*
X83373481Y-123131686D01*
X83407555Y-123258852D01*
X83473381Y-123372867D01*
X84403810Y-124303297D01*
X83870651Y-124836454D01*
X84120044Y-125085846D01*
X84279730Y-125201865D01*
X84279736Y-125201869D01*
X84455598Y-125291477D01*
X84455604Y-125291479D01*
X84643320Y-125352470D01*
X84643319Y-125352470D01*
X84838277Y-125383349D01*
X85035660Y-125383349D01*
X85230616Y-125352470D01*
X85230619Y-125352470D01*
X85398451Y-125297938D01*
X84627134Y-124526621D01*
X84741148Y-124592446D01*
X84868314Y-124626520D01*
X84999966Y-124626520D01*
X85127132Y-124592446D01*
X85241148Y-124526620D01*
X85334240Y-124433528D01*
X85400066Y-124319512D01*
X85434140Y-124192346D01*
X85434140Y-124060694D01*
X85400066Y-123933528D01*
X85334240Y-123819513D01*
X85110916Y-123596189D01*
X85110917Y-123596189D01*
X85110917Y-123596190D01*
X86105558Y-124590831D01*
X86160090Y-124422999D01*
X86160090Y-124422996D01*
X86190969Y-124228040D01*
X86190969Y-124030656D01*
X86160090Y-123835699D01*
X86099099Y-123647984D01*
X86099097Y-123647978D01*
X86009489Y-123472116D01*
X86009485Y-123472110D01*
X85893466Y-123312424D01*
X85644075Y-123063031D01*
X85644074Y-123063031D01*
X85110917Y-123596189D01*
X85110916Y-123596189D01*
X84180487Y-122665761D01*
X84066472Y-122599935D01*
X83939306Y-122565861D01*
X83807654Y-122565861D01*
X83680488Y-122599935D01*
X83566473Y-122665761D01*
X83473381Y-122758853D01*
X83407555Y-122872868D01*
X83373481Y-123000034D01*
X83100547Y-123000034D01*
X82702061Y-122601548D01*
X82702060Y-122601548D01*
X82647529Y-122769381D01*
X82616651Y-122964339D01*
X49000500Y-122964339D01*
X49000500Y-118068769D01*
X51199499Y-118068769D01*
X51199500Y-118068782D01*
X51199500Y-120066659D01*
X51199506Y-120066752D01*
X51199506Y-120100207D01*
X51230049Y-120312651D01*
X51230053Y-120312667D01*
X51290515Y-120518590D01*
X51290517Y-120518596D01*
X51290519Y-120518600D01*
X51379681Y-120713840D01*
X51495721Y-120894404D01*
X51495728Y-120894412D01*
X51636273Y-121056612D01*
X51798489Y-121197173D01*
X51798491Y-121197174D01*
X51798498Y-121197178D01*
X51979055Y-121313217D01*
X51979060Y-121313219D01*
X52174284Y-121402375D01*
X52174288Y-121402376D01*
X52174290Y-121402377D01*
X52380231Y-121462847D01*
X52380232Y-121462847D01*
X52380235Y-121462848D01*
X52443584Y-121471955D01*
X52592682Y-121493393D01*
X52634108Y-121493393D01*
X54634108Y-121493393D01*
X54648631Y-121493393D01*
X54648655Y-121493400D01*
X54700000Y-121493400D01*
X54807315Y-121493400D01*
X54807318Y-121493400D01*
X55019770Y-121462854D01*
X55225713Y-121402384D01*
X55230933Y-121400000D01*
X77324706Y-121400000D01*
X77343853Y-121643297D01*
X77400830Y-121880619D01*
X77494222Y-122106089D01*
X77621737Y-122314173D01*
X77621738Y-122314176D01*
X77675449Y-122377063D01*
X77780241Y-122499759D01*
X77857637Y-122565861D01*
X77965823Y-122658261D01*
X77965826Y-122658262D01*
X78173910Y-122785777D01*
X78399381Y-122879169D01*
X78399378Y-122879169D01*
X78399384Y-122879170D01*
X78399388Y-122879172D01*
X78636698Y-122936146D01*
X78880000Y-122955294D01*
X79123302Y-122936146D01*
X79360612Y-122879172D01*
X79586089Y-122785777D01*
X79794179Y-122658259D01*
X79979759Y-122499759D01*
X80138259Y-122314179D01*
X80265777Y-122106089D01*
X80353444Y-121894440D01*
X83409168Y-121894440D01*
X83409168Y-121894441D01*
X84403810Y-122889083D01*
X84403811Y-122889083D01*
X84936968Y-122355924D01*
X84936968Y-122355923D01*
X84687579Y-122106535D01*
X84527890Y-121990513D01*
X84352020Y-121900902D01*
X84352017Y-121900901D01*
X84164298Y-121839909D01*
X83969342Y-121809031D01*
X83771960Y-121809031D01*
X83577001Y-121839909D01*
X83409168Y-121894440D01*
X80353444Y-121894440D01*
X80359172Y-121880612D01*
X80416146Y-121643302D01*
X80435294Y-121400000D01*
X80416146Y-121156698D01*
X80359172Y-120919388D01*
X80348825Y-120894408D01*
X80265777Y-120693910D01*
X80138262Y-120485826D01*
X80138261Y-120485823D01*
X80101624Y-120442927D01*
X79979759Y-120300241D01*
X79857063Y-120195449D01*
X79794176Y-120141738D01*
X79794173Y-120141737D01*
X79586089Y-120014222D01*
X79360618Y-119920830D01*
X79360621Y-119920830D01*
X79254992Y-119895470D01*
X79123302Y-119863854D01*
X79123300Y-119863853D01*
X79123297Y-119863853D01*
X78880000Y-119844706D01*
X78636702Y-119863853D01*
X78636698Y-119863854D01*
X78494989Y-119897876D01*
X78399380Y-119920830D01*
X78173910Y-120014222D01*
X77965826Y-120141737D01*
X77965823Y-120141738D01*
X77780241Y-120300241D01*
X77621738Y-120485823D01*
X77621737Y-120485826D01*
X77494222Y-120693910D01*
X77400830Y-120919380D01*
X77343853Y-121156702D01*
X77324706Y-121400000D01*
X55230933Y-121400000D01*
X55420953Y-121313220D01*
X55601517Y-121197178D01*
X55763728Y-121056620D01*
X55904284Y-120894408D01*
X56020325Y-120713844D01*
X56109487Y-120518603D01*
X56169956Y-120312660D01*
X56200501Y-120100208D01*
X56200500Y-119992889D01*
X56200500Y-119926997D01*
X56200500Y-118102135D01*
X59149500Y-118102135D01*
X59149500Y-119897870D01*
X59149501Y-119897876D01*
X59155908Y-119957483D01*
X59206202Y-120092328D01*
X59206206Y-120092335D01*
X59292452Y-120207544D01*
X59292455Y-120207547D01*
X59407664Y-120293793D01*
X59407671Y-120293797D01*
X59542517Y-120344091D01*
X59542516Y-120344091D01*
X59549444Y-120344835D01*
X59602127Y-120350500D01*
X61397872Y-120350499D01*
X61457483Y-120344091D01*
X61592331Y-120293796D01*
X61707546Y-120207546D01*
X61793796Y-120092331D01*
X61844091Y-119957483D01*
X61850500Y-119897873D01*
X61850499Y-118102128D01*
X61844091Y-118042517D01*
X61825560Y-117992834D01*
X61793797Y-117907671D01*
X61793793Y-117907664D01*
X61707547Y-117792455D01*
X61707544Y-117792452D01*
X61592335Y-117706206D01*
X61592328Y-117706202D01*
X61457482Y-117655908D01*
X61457483Y-117655908D01*
X61397883Y-117649501D01*
X61397881Y-117649500D01*
X61397873Y-117649500D01*
X61397864Y-117649500D01*
X59602129Y-117649500D01*
X59602123Y-117649501D01*
X59542516Y-117655908D01*
X59407671Y-117706202D01*
X59407664Y-117706206D01*
X59292455Y-117792452D01*
X59292452Y-117792455D01*
X59206206Y-117907664D01*
X59206202Y-117907671D01*
X59155908Y-118042517D01*
X59149501Y-118102116D01*
X59149501Y-118102123D01*
X59149500Y-118102135D01*
X56200500Y-118102135D01*
X56200500Y-118058785D01*
X56200501Y-118058782D01*
X56200500Y-118044258D01*
X56200506Y-118044238D01*
X56200506Y-117992889D01*
X56200507Y-117992889D01*
X56200506Y-117885572D01*
X56169959Y-117673121D01*
X56109488Y-117467179D01*
X56020324Y-117271940D01*
X56002368Y-117244001D01*
X55904286Y-117091383D01*
X55904283Y-117091379D01*
X55763722Y-116929163D01*
X55646292Y-116827411D01*
X55601514Y-116788611D01*
X55420950Y-116672571D01*
X55420943Y-116672568D01*
X55420932Y-116672561D01*
X55225714Y-116583409D01*
X55225702Y-116583404D01*
X55019771Y-116522939D01*
X55019767Y-116522938D01*
X54842992Y-116497522D01*
X54807318Y-116492393D01*
X54765892Y-116492393D01*
X52634108Y-116492393D01*
X52625996Y-116492393D01*
X52625890Y-116492400D01*
X52592682Y-116492400D01*
X52380233Y-116522944D01*
X52174291Y-116583415D01*
X51979053Y-116672577D01*
X51979051Y-116672577D01*
X51798492Y-116788615D01*
X51798485Y-116788621D01*
X51636281Y-116929170D01*
X51636278Y-116929173D01*
X51495728Y-117091374D01*
X51495722Y-117091382D01*
X51379685Y-117271938D01*
X51379679Y-117271950D01*
X51290518Y-117467181D01*
X51230049Y-117673114D01*
X51199500Y-117885574D01*
X51199500Y-117992891D01*
X51199499Y-118068769D01*
X49000500Y-118068769D01*
X49000500Y-112782155D01*
X75170000Y-112782155D01*
X75170000Y-113830000D01*
X76301399Y-113830000D01*
X76283811Y-113856322D01*
X76208429Y-114038311D01*
X76170000Y-114231509D01*
X76170000Y-114428491D01*
X76208429Y-114621689D01*
X76283811Y-114803678D01*
X76301399Y-114830000D01*
X75170000Y-114830000D01*
X75170000Y-115877844D01*
X75176401Y-115937372D01*
X75176403Y-115937379D01*
X75226645Y-116072086D01*
X75226649Y-116072093D01*
X75312809Y-116187187D01*
X75312812Y-116187190D01*
X75427906Y-116273350D01*
X75427913Y-116273354D01*
X75562620Y-116323596D01*
X75562627Y-116323598D01*
X75622155Y-116329999D01*
X75622172Y-116330000D01*
X76670000Y-116330000D01*
X76670000Y-115198601D01*
X76696322Y-115216189D01*
X76878311Y-115291571D01*
X77071509Y-115330000D01*
X77268491Y-115330000D01*
X77461689Y-115291571D01*
X77643678Y-115216189D01*
X77670000Y-115198601D01*
X77670000Y-116330000D01*
X78717828Y-116330000D01*
X78717844Y-116329999D01*
X78777372Y-116323598D01*
X78777379Y-116323596D01*
X78912086Y-116273354D01*
X78912093Y-116273350D01*
X79027187Y-116187190D01*
X79027190Y-116187187D01*
X79113350Y-116072093D01*
X79113354Y-116072086D01*
X79163596Y-115937379D01*
X79163598Y-115937372D01*
X79169999Y-115877844D01*
X79170000Y-115877827D01*
X79170000Y-115647263D01*
X81245500Y-115647263D01*
X81245500Y-117352736D01*
X81276389Y-117547763D01*
X81317119Y-117673115D01*
X81337409Y-117735561D01*
X81427056Y-117911501D01*
X81427058Y-117911504D01*
X81543115Y-118071246D01*
X81682753Y-118210884D01*
X81832234Y-118319486D01*
X81842499Y-118326944D01*
X82018439Y-118416591D01*
X82143637Y-118457270D01*
X82206236Y-118477610D01*
X82401264Y-118508500D01*
X82401269Y-118508500D01*
X82598736Y-118508500D01*
X82793763Y-118477610D01*
X82981561Y-118416591D01*
X83157501Y-118326944D01*
X83247192Y-118261779D01*
X83317246Y-118210884D01*
X83317248Y-118210881D01*
X83317252Y-118210879D01*
X83456879Y-118071252D01*
X83456881Y-118071248D01*
X83456884Y-118071246D01*
X83513813Y-117992889D01*
X83572944Y-117911501D01*
X83662591Y-117735561D01*
X83723610Y-117547763D01*
X83732220Y-117493400D01*
X83754500Y-117352736D01*
X83754500Y-115647263D01*
X83723610Y-115452236D01*
X83683893Y-115330000D01*
X83662591Y-115264439D01*
X83572944Y-115088499D01*
X83565486Y-115078234D01*
X83456884Y-114928753D01*
X83317246Y-114789115D01*
X83157504Y-114673058D01*
X83157503Y-114673057D01*
X83157501Y-114673056D01*
X82981561Y-114583409D01*
X82981558Y-114583408D01*
X82793763Y-114522389D01*
X82598736Y-114491500D01*
X82598731Y-114491500D01*
X82401269Y-114491500D01*
X82401264Y-114491500D01*
X82206236Y-114522389D01*
X82018441Y-114583408D01*
X81842495Y-114673058D01*
X81682753Y-114789115D01*
X81543115Y-114928753D01*
X81427058Y-115088495D01*
X81337408Y-115264441D01*
X81276389Y-115452236D01*
X81245500Y-115647263D01*
X79170000Y-115647263D01*
X79170000Y-114830000D01*
X78038601Y-114830000D01*
X78056189Y-114803678D01*
X78131571Y-114621689D01*
X78170000Y-114428491D01*
X78170000Y-114231509D01*
X78131571Y-114038311D01*
X78056189Y-113856322D01*
X78038601Y-113830000D01*
X79170000Y-113830000D01*
X79170000Y-112782172D01*
X79169999Y-112782155D01*
X79163598Y-112722627D01*
X79163596Y-112722620D01*
X79113354Y-112587913D01*
X79113350Y-112587906D01*
X79027190Y-112472812D01*
X79027187Y-112472809D01*
X78931615Y-112401263D01*
X86491500Y-112401263D01*
X86491500Y-112598736D01*
X86522389Y-112793763D01*
X86583408Y-112981558D01*
X86583409Y-112981561D01*
X86673056Y-113157501D01*
X86673058Y-113157504D01*
X86789115Y-113317246D01*
X86928753Y-113456884D01*
X87061391Y-113553249D01*
X87088499Y-113572944D01*
X87264439Y-113662591D01*
X87356604Y-113692537D01*
X87452236Y-113723610D01*
X87647264Y-113754500D01*
X87647269Y-113754500D01*
X89352736Y-113754500D01*
X89547763Y-113723610D01*
X89735561Y-113662591D01*
X89911501Y-113572944D01*
X90001192Y-113507779D01*
X90071246Y-113456884D01*
X90071248Y-113456881D01*
X90071252Y-113456879D01*
X90210879Y-113317252D01*
X90210881Y-113317248D01*
X90210884Y-113317246D01*
X90261779Y-113247192D01*
X90326944Y-113157501D01*
X90416591Y-112981561D01*
X90477610Y-112793763D01*
X90488878Y-112722620D01*
X90508500Y-112598736D01*
X90508500Y-112401263D01*
X90477610Y-112206236D01*
X90457270Y-112143637D01*
X90416591Y-112018439D01*
X90326944Y-111842499D01*
X90319486Y-111832234D01*
X90210884Y-111682753D01*
X90071246Y-111543115D01*
X89911504Y-111427058D01*
X89911503Y-111427057D01*
X89911501Y-111427056D01*
X89735561Y-111337409D01*
X89735558Y-111337408D01*
X89547763Y-111276389D01*
X89352736Y-111245500D01*
X89352731Y-111245500D01*
X87647269Y-111245500D01*
X87647264Y-111245500D01*
X87452236Y-111276389D01*
X87264441Y-111337408D01*
X87088495Y-111427058D01*
X86928753Y-111543115D01*
X86789115Y-111682753D01*
X86673058Y-111842495D01*
X86583408Y-112018441D01*
X86522389Y-112206236D01*
X86491500Y-112401263D01*
X78931615Y-112401263D01*
X78912093Y-112386649D01*
X78912086Y-112386645D01*
X78777379Y-112336403D01*
X78777372Y-112336401D01*
X78717844Y-112330000D01*
X77670000Y-112330000D01*
X77670000Y-113461398D01*
X77643678Y-113443811D01*
X77461689Y-113368429D01*
X77268491Y-113330000D01*
X77071509Y-113330000D01*
X76878311Y-113368429D01*
X76696322Y-113443811D01*
X76670000Y-113461398D01*
X76670000Y-112330000D01*
X75622155Y-112330000D01*
X75562627Y-112336401D01*
X75562620Y-112336403D01*
X75427913Y-112386645D01*
X75427906Y-112386649D01*
X75312812Y-112472809D01*
X75312809Y-112472812D01*
X75226649Y-112587906D01*
X75226645Y-112587913D01*
X75176403Y-112722620D01*
X75176401Y-112722627D01*
X75170000Y-112782155D01*
X49000500Y-112782155D01*
X49000500Y-108879998D01*
X71054390Y-108879998D01*
X71054390Y-108880001D01*
X71074804Y-109165433D01*
X71135628Y-109445037D01*
X71235635Y-109713166D01*
X71372770Y-109964309D01*
X71372775Y-109964317D01*
X71544254Y-110193387D01*
X71544270Y-110193405D01*
X71746594Y-110395729D01*
X71746612Y-110395745D01*
X71975682Y-110567224D01*
X71975690Y-110567229D01*
X72226833Y-110704364D01*
X72226832Y-110704364D01*
X72226836Y-110704365D01*
X72226839Y-110704367D01*
X72494954Y-110804369D01*
X72494960Y-110804370D01*
X72494962Y-110804371D01*
X72774566Y-110865195D01*
X72774568Y-110865195D01*
X72774572Y-110865196D01*
X73028220Y-110883337D01*
X73059999Y-110885610D01*
X73060000Y-110885610D01*
X73060001Y-110885610D01*
X73088595Y-110883564D01*
X73345428Y-110865196D01*
X73625046Y-110804369D01*
X73893161Y-110704367D01*
X74144315Y-110567226D01*
X74373395Y-110395739D01*
X74575739Y-110193395D01*
X74747226Y-109964315D01*
X74884367Y-109713161D01*
X74984369Y-109445046D01*
X75045196Y-109165428D01*
X75063564Y-108908595D01*
X75065610Y-108880001D01*
X75065610Y-108879998D01*
X75052870Y-108701869D01*
X75045196Y-108594572D01*
X74984369Y-108314954D01*
X74884367Y-108046839D01*
X74822494Y-107933528D01*
X74747229Y-107795690D01*
X74747224Y-107795682D01*
X74575745Y-107566612D01*
X74575729Y-107566594D01*
X74373405Y-107364270D01*
X74373387Y-107364254D01*
X74144317Y-107192775D01*
X74144309Y-107192770D01*
X73893166Y-107055635D01*
X73893167Y-107055635D01*
X73755476Y-107004279D01*
X73625046Y-106955631D01*
X73625043Y-106955630D01*
X73625037Y-106955628D01*
X73345433Y-106894804D01*
X73060001Y-106874390D01*
X73059999Y-106874390D01*
X72774566Y-106894804D01*
X72494962Y-106955628D01*
X72226833Y-107055635D01*
X71975690Y-107192770D01*
X71975682Y-107192775D01*
X71746612Y-107364254D01*
X71746594Y-107364270D01*
X71544270Y-107566594D01*
X71544254Y-107566612D01*
X71372775Y-107795682D01*
X71372770Y-107795690D01*
X71235635Y-108046833D01*
X71135628Y-108314962D01*
X71074804Y-108594566D01*
X71054390Y-108879998D01*
X49000500Y-108879998D01*
X49000500Y-99092682D01*
X49999500Y-99092682D01*
X49999500Y-105907317D01*
X50030044Y-106119764D01*
X50030047Y-106119774D01*
X50090517Y-106325715D01*
X50179672Y-106520938D01*
X50179679Y-106520951D01*
X50295720Y-106701514D01*
X50436275Y-106863724D01*
X50542342Y-106955631D01*
X50598487Y-107004281D01*
X50660914Y-107044400D01*
X50779048Y-107120320D01*
X50779061Y-107120327D01*
X50974284Y-107209482D01*
X50974288Y-107209483D01*
X50974290Y-107209484D01*
X51180231Y-107269954D01*
X51180232Y-107269954D01*
X51180235Y-107269955D01*
X51243584Y-107279062D01*
X51392682Y-107300500D01*
X51392683Y-107300500D01*
X56007317Y-107300500D01*
X56007318Y-107300500D01*
X56177851Y-107275980D01*
X56219764Y-107269955D01*
X56219765Y-107269954D01*
X56219769Y-107269954D01*
X56425710Y-107209484D01*
X56425713Y-107209482D01*
X56425715Y-107209482D01*
X56620938Y-107120327D01*
X56620944Y-107120323D01*
X56620950Y-107120321D01*
X56801513Y-107004281D01*
X56963724Y-106863724D01*
X57104281Y-106701513D01*
X57220321Y-106520950D01*
X57220323Y-106520944D01*
X57220327Y-106520938D01*
X57246175Y-106464339D01*
X82616651Y-106464339D01*
X82616651Y-106661722D01*
X82647529Y-106856678D01*
X82708521Y-107044397D01*
X82708522Y-107044400D01*
X82798133Y-107220270D01*
X82914155Y-107379958D01*
X82914155Y-107379960D01*
X83163543Y-107629348D01*
X83163544Y-107629348D01*
X83696703Y-107096190D01*
X83100547Y-106500034D01*
X83373481Y-106500034D01*
X83373481Y-106631686D01*
X83407555Y-106758852D01*
X83473381Y-106872867D01*
X84403810Y-107803297D01*
X83870651Y-108336454D01*
X84120044Y-108585846D01*
X84279730Y-108701865D01*
X84279736Y-108701869D01*
X84455598Y-108791477D01*
X84455604Y-108791479D01*
X84643320Y-108852470D01*
X84643319Y-108852470D01*
X84838277Y-108883349D01*
X85035660Y-108883349D01*
X85230616Y-108852470D01*
X85230619Y-108852470D01*
X85398451Y-108797938D01*
X84627134Y-108026621D01*
X84741148Y-108092446D01*
X84868314Y-108126520D01*
X84999966Y-108126520D01*
X85127132Y-108092446D01*
X85241148Y-108026620D01*
X85334240Y-107933528D01*
X85400066Y-107819512D01*
X85434140Y-107692346D01*
X85434140Y-107560694D01*
X85400066Y-107433528D01*
X85334240Y-107319513D01*
X85110916Y-107096189D01*
X85110917Y-107096189D01*
X85110917Y-107096190D01*
X86105558Y-108090831D01*
X86160090Y-107922999D01*
X86160090Y-107922996D01*
X86190969Y-107728040D01*
X86190969Y-107530656D01*
X86160090Y-107335699D01*
X86099099Y-107147984D01*
X86099097Y-107147978D01*
X86009489Y-106972116D01*
X86009485Y-106972110D01*
X85893466Y-106812424D01*
X85644075Y-106563031D01*
X85644074Y-106563031D01*
X85110917Y-107096189D01*
X85110916Y-107096189D01*
X84180487Y-106165761D01*
X84066472Y-106099935D01*
X83939306Y-106065861D01*
X83807654Y-106065861D01*
X83680488Y-106099935D01*
X83566473Y-106165761D01*
X83473381Y-106258853D01*
X83407555Y-106372868D01*
X83373481Y-106500034D01*
X83100547Y-106500034D01*
X82702061Y-106101548D01*
X82702060Y-106101548D01*
X82647529Y-106269381D01*
X82616651Y-106464339D01*
X57246175Y-106464339D01*
X57309482Y-106325715D01*
X57309482Y-106325713D01*
X57309484Y-106325710D01*
X57369954Y-106119769D01*
X57400500Y-105907318D01*
X57400500Y-105800000D01*
X57400500Y-105734108D01*
X57400500Y-99974999D01*
X57879341Y-99974999D01*
X57879341Y-99975000D01*
X57899936Y-100210403D01*
X57899938Y-100210413D01*
X57961094Y-100438655D01*
X57961096Y-100438659D01*
X57961097Y-100438663D01*
X58045499Y-100619663D01*
X58060965Y-100652830D01*
X58060967Y-100652834D01*
X58196501Y-100846395D01*
X58196506Y-100846402D01*
X58363597Y-101013493D01*
X58363603Y-101013498D01*
X58549158Y-101143425D01*
X58592783Y-101198002D01*
X58599977Y-101267500D01*
X58568454Y-101329855D01*
X58549158Y-101346575D01*
X58363597Y-101476505D01*
X58196505Y-101643597D01*
X58060965Y-101837169D01*
X58060964Y-101837171D01*
X57961098Y-102051335D01*
X57961094Y-102051344D01*
X57899938Y-102279586D01*
X57899936Y-102279596D01*
X57879341Y-102514999D01*
X57879341Y-102515000D01*
X57899936Y-102750403D01*
X57899938Y-102750413D01*
X57961094Y-102978655D01*
X57961096Y-102978659D01*
X57961097Y-102978663D01*
X57980502Y-103020277D01*
X58060965Y-103192830D01*
X58060967Y-103192834D01*
X58167310Y-103344706D01*
X58196501Y-103386396D01*
X58196506Y-103386402D01*
X58363597Y-103553493D01*
X58363603Y-103553498D01*
X58549158Y-103683425D01*
X58592783Y-103738002D01*
X58599977Y-103807500D01*
X58568454Y-103869855D01*
X58549158Y-103886575D01*
X58363597Y-104016505D01*
X58196505Y-104183597D01*
X58060965Y-104377169D01*
X58060964Y-104377171D01*
X57961098Y-104591335D01*
X57961094Y-104591344D01*
X57899938Y-104819586D01*
X57899936Y-104819596D01*
X57879341Y-105054999D01*
X57879341Y-105055000D01*
X57899936Y-105290403D01*
X57899938Y-105290413D01*
X57961094Y-105518655D01*
X57961096Y-105518659D01*
X57961097Y-105518663D01*
X57965000Y-105527032D01*
X58060965Y-105732830D01*
X58060967Y-105732834D01*
X58107998Y-105800000D01*
X58196505Y-105926401D01*
X58363599Y-106093495D01*
X58456094Y-106158261D01*
X58557165Y-106229032D01*
X58557167Y-106229033D01*
X58557170Y-106229035D01*
X58771337Y-106328903D01*
X58999592Y-106390063D01*
X59187918Y-106406539D01*
X59234999Y-106410659D01*
X59235000Y-106410659D01*
X59235001Y-106410659D01*
X59274234Y-106407226D01*
X59470408Y-106390063D01*
X59698663Y-106328903D01*
X59912830Y-106229035D01*
X60106401Y-106093495D01*
X60273495Y-105926401D01*
X60403425Y-105740842D01*
X60458002Y-105697217D01*
X60527500Y-105690023D01*
X60589855Y-105721546D01*
X60606575Y-105740842D01*
X60736500Y-105926395D01*
X60736505Y-105926401D01*
X60903599Y-106093495D01*
X60996094Y-106158261D01*
X61097165Y-106229032D01*
X61097167Y-106229033D01*
X61097170Y-106229035D01*
X61311337Y-106328903D01*
X61539592Y-106390063D01*
X61727918Y-106406539D01*
X61774999Y-106410659D01*
X61775000Y-106410659D01*
X61775001Y-106410659D01*
X61814234Y-106407226D01*
X62010408Y-106390063D01*
X62238663Y-106328903D01*
X62452830Y-106229035D01*
X62646401Y-106093495D01*
X62813495Y-105926401D01*
X62949035Y-105732830D01*
X63048903Y-105518663D01*
X63110063Y-105290408D01*
X63130659Y-105055000D01*
X63117098Y-104900000D01*
X77324706Y-104900000D01*
X77343853Y-105143297D01*
X77343853Y-105143300D01*
X77343854Y-105143302D01*
X77379170Y-105290403D01*
X77400830Y-105380619D01*
X77494222Y-105606089D01*
X77621737Y-105814173D01*
X77621738Y-105814176D01*
X77675449Y-105877063D01*
X77780241Y-105999759D01*
X77897532Y-106099935D01*
X77965823Y-106158261D01*
X77965826Y-106158262D01*
X78173910Y-106285777D01*
X78399381Y-106379169D01*
X78399378Y-106379169D01*
X78399384Y-106379170D01*
X78399388Y-106379172D01*
X78636698Y-106436146D01*
X78880000Y-106455294D01*
X79123302Y-106436146D01*
X79360612Y-106379172D01*
X79586089Y-106285777D01*
X79794179Y-106158259D01*
X79979759Y-105999759D01*
X80138259Y-105814179D01*
X80265777Y-105606089D01*
X80353444Y-105394440D01*
X83409168Y-105394440D01*
X83409168Y-105394441D01*
X84403810Y-106389083D01*
X84403811Y-106389083D01*
X84936968Y-105855924D01*
X84936968Y-105855923D01*
X84687579Y-105606535D01*
X84527890Y-105490513D01*
X84352020Y-105400902D01*
X84352017Y-105400901D01*
X84164298Y-105339909D01*
X83969342Y-105309031D01*
X83771960Y-105309031D01*
X83577001Y-105339909D01*
X83409168Y-105394440D01*
X80353444Y-105394440D01*
X80359172Y-105380612D01*
X80416146Y-105143302D01*
X80435294Y-104900000D01*
X80416146Y-104656698D01*
X80359172Y-104419388D01*
X80346359Y-104388454D01*
X80265777Y-104193910D01*
X80138262Y-103985826D01*
X80138261Y-103985823D01*
X80053495Y-103886575D01*
X79979759Y-103800241D01*
X79842985Y-103683425D01*
X79794176Y-103641738D01*
X79794173Y-103641737D01*
X79586089Y-103514222D01*
X79360618Y-103420830D01*
X79360621Y-103420830D01*
X79254992Y-103395470D01*
X79123302Y-103363854D01*
X79123300Y-103363853D01*
X79123297Y-103363853D01*
X78880000Y-103344706D01*
X78636702Y-103363853D01*
X78636698Y-103363854D01*
X78542785Y-103386401D01*
X78399380Y-103420830D01*
X78173910Y-103514222D01*
X77965826Y-103641737D01*
X77965823Y-103641738D01*
X77780241Y-103800241D01*
X77621738Y-103985823D01*
X77621737Y-103985826D01*
X77494222Y-104193910D01*
X77400830Y-104419380D01*
X77343853Y-104656702D01*
X77324706Y-104900000D01*
X63117098Y-104900000D01*
X63110063Y-104819592D01*
X63048903Y-104591337D01*
X62949035Y-104377171D01*
X62943425Y-104369158D01*
X62813494Y-104183597D01*
X62646402Y-104016506D01*
X62646396Y-104016501D01*
X62460842Y-103886575D01*
X62417217Y-103831998D01*
X62410023Y-103762500D01*
X62441546Y-103700145D01*
X62460842Y-103683425D01*
X62520378Y-103641737D01*
X62646401Y-103553495D01*
X62813495Y-103386401D01*
X62936235Y-103211110D01*
X62990811Y-103167486D01*
X63013617Y-103160617D01*
X63066875Y-103150023D01*
X63114744Y-103140501D01*
X63233127Y-103091465D01*
X63339669Y-103020277D01*
X70077789Y-96282155D01*
X75170000Y-96282155D01*
X75170000Y-97330000D01*
X76301399Y-97330000D01*
X76283811Y-97356322D01*
X76208429Y-97538311D01*
X76170000Y-97731509D01*
X76170000Y-97928491D01*
X76208429Y-98121689D01*
X76283811Y-98303678D01*
X76301399Y-98330000D01*
X75170000Y-98330000D01*
X75170000Y-99377844D01*
X75176401Y-99437372D01*
X75176403Y-99437379D01*
X75226645Y-99572086D01*
X75226649Y-99572093D01*
X75312809Y-99687187D01*
X75312812Y-99687190D01*
X75427906Y-99773350D01*
X75427913Y-99773354D01*
X75562620Y-99823596D01*
X75562627Y-99823598D01*
X75622155Y-99829999D01*
X75622172Y-99830000D01*
X76670000Y-99830000D01*
X76670000Y-98698601D01*
X76696322Y-98716189D01*
X76878311Y-98791571D01*
X77071509Y-98830000D01*
X77268491Y-98830000D01*
X77461689Y-98791571D01*
X77643678Y-98716189D01*
X77670000Y-98698601D01*
X77670000Y-99830000D01*
X78717828Y-99830000D01*
X78717844Y-99829999D01*
X78777372Y-99823598D01*
X78777379Y-99823596D01*
X78912086Y-99773354D01*
X78912093Y-99773350D01*
X79027187Y-99687190D01*
X79027190Y-99687187D01*
X79113350Y-99572093D01*
X79113354Y-99572086D01*
X79163596Y-99437379D01*
X79163598Y-99437372D01*
X79169999Y-99377844D01*
X79170000Y-99377827D01*
X79170000Y-99147263D01*
X81245500Y-99147263D01*
X81245500Y-100852736D01*
X81276389Y-101047763D01*
X81325205Y-101198002D01*
X81337409Y-101235561D01*
X81416436Y-101390658D01*
X81427058Y-101411504D01*
X81543115Y-101571246D01*
X81682753Y-101710884D01*
X81832234Y-101819486D01*
X81842499Y-101826944D01*
X82018439Y-101916591D01*
X82143637Y-101957270D01*
X82206236Y-101977610D01*
X82401264Y-102008500D01*
X82401269Y-102008500D01*
X82598736Y-102008500D01*
X82793763Y-101977610D01*
X82981561Y-101916591D01*
X83157501Y-101826944D01*
X83247192Y-101761779D01*
X83317246Y-101710884D01*
X83317248Y-101710881D01*
X83317252Y-101710879D01*
X83456879Y-101571252D01*
X83456881Y-101571248D01*
X83456884Y-101571246D01*
X83537453Y-101460350D01*
X83572944Y-101411501D01*
X83662591Y-101235561D01*
X83723610Y-101047763D01*
X83741869Y-100932482D01*
X83754500Y-100852736D01*
X83754500Y-99147263D01*
X83723610Y-98952236D01*
X83677224Y-98809475D01*
X83662591Y-98764439D01*
X83572944Y-98588499D01*
X83565486Y-98578234D01*
X83456884Y-98428753D01*
X83317246Y-98289115D01*
X83157504Y-98173058D01*
X83157503Y-98173057D01*
X83157501Y-98173056D01*
X82981561Y-98083409D01*
X82981558Y-98083408D01*
X82793763Y-98022389D01*
X82598736Y-97991500D01*
X82598731Y-97991500D01*
X82401269Y-97991500D01*
X82401264Y-97991500D01*
X82206236Y-98022389D01*
X82018441Y-98083408D01*
X81842495Y-98173058D01*
X81682753Y-98289115D01*
X81543115Y-98428753D01*
X81427058Y-98588495D01*
X81337408Y-98764441D01*
X81276389Y-98952236D01*
X81245500Y-99147263D01*
X79170000Y-99147263D01*
X79170000Y-98330000D01*
X78038601Y-98330000D01*
X78056189Y-98303678D01*
X78131571Y-98121689D01*
X78170000Y-97928491D01*
X78170000Y-97731509D01*
X78131571Y-97538311D01*
X78056189Y-97356322D01*
X78038601Y-97330000D01*
X79170000Y-97330000D01*
X79170000Y-96282172D01*
X79169999Y-96282155D01*
X79163598Y-96222627D01*
X79163596Y-96222620D01*
X79113354Y-96087913D01*
X79113350Y-96087906D01*
X79027190Y-95972812D01*
X79027187Y-95972809D01*
X78931615Y-95901263D01*
X86491500Y-95901263D01*
X86491500Y-96098736D01*
X86522389Y-96293763D01*
X86583408Y-96481558D01*
X86583409Y-96481561D01*
X86673056Y-96657501D01*
X86673058Y-96657504D01*
X86789115Y-96817246D01*
X86928753Y-96956884D01*
X87061391Y-97053249D01*
X87088499Y-97072944D01*
X87264439Y-97162591D01*
X87356604Y-97192537D01*
X87452236Y-97223610D01*
X87647264Y-97254500D01*
X87647269Y-97254500D01*
X89352736Y-97254500D01*
X89547763Y-97223610D01*
X89735561Y-97162591D01*
X89911501Y-97072944D01*
X90001192Y-97007779D01*
X90071246Y-96956884D01*
X90071248Y-96956881D01*
X90071252Y-96956879D01*
X90210879Y-96817252D01*
X90210881Y-96817248D01*
X90210884Y-96817246D01*
X90261779Y-96747192D01*
X90326944Y-96657501D01*
X90416591Y-96481561D01*
X90477610Y-96293763D01*
X90488878Y-96222620D01*
X90508500Y-96098736D01*
X90508500Y-95901263D01*
X90477610Y-95706236D01*
X90457270Y-95643637D01*
X90416591Y-95518439D01*
X90326944Y-95342499D01*
X90319486Y-95332234D01*
X90210884Y-95182753D01*
X90071246Y-95043115D01*
X89911504Y-94927058D01*
X89911503Y-94927057D01*
X89911501Y-94927056D01*
X89735561Y-94837409D01*
X89735558Y-94837408D01*
X89547763Y-94776389D01*
X89352736Y-94745500D01*
X89352731Y-94745500D01*
X87647269Y-94745500D01*
X87647264Y-94745500D01*
X87452236Y-94776389D01*
X87264441Y-94837408D01*
X87088495Y-94927058D01*
X86928753Y-95043115D01*
X86789115Y-95182753D01*
X86673058Y-95342495D01*
X86583408Y-95518441D01*
X86522389Y-95706236D01*
X86491500Y-95901263D01*
X78931615Y-95901263D01*
X78912093Y-95886649D01*
X78912086Y-95886645D01*
X78777379Y-95836403D01*
X78777372Y-95836401D01*
X78717844Y-95830000D01*
X77670000Y-95830000D01*
X77670000Y-96961398D01*
X77643678Y-96943811D01*
X77461689Y-96868429D01*
X77268491Y-96830000D01*
X77071509Y-96830000D01*
X76878311Y-96868429D01*
X76696322Y-96943811D01*
X76670000Y-96961398D01*
X76670000Y-95830000D01*
X75622155Y-95830000D01*
X75562627Y-95836401D01*
X75562620Y-95836403D01*
X75427913Y-95886645D01*
X75427906Y-95886649D01*
X75312812Y-95972809D01*
X75312809Y-95972812D01*
X75226649Y-96087906D01*
X75226645Y-96087913D01*
X75176403Y-96222620D01*
X75176401Y-96222627D01*
X75170000Y-96282155D01*
X70077789Y-96282155D01*
X72118589Y-94241355D01*
X72179910Y-94207872D01*
X72249598Y-94212855D01*
X72494954Y-94304369D01*
X72494960Y-94304370D01*
X72494962Y-94304371D01*
X72774566Y-94365195D01*
X72774568Y-94365195D01*
X72774572Y-94365196D01*
X73028220Y-94383337D01*
X73059999Y-94385610D01*
X73060000Y-94385610D01*
X73060001Y-94385610D01*
X73088595Y-94383564D01*
X73345428Y-94365196D01*
X73625046Y-94304369D01*
X73893161Y-94204367D01*
X74144315Y-94067226D01*
X74373395Y-93895739D01*
X74575739Y-93693395D01*
X74747226Y-93464315D01*
X74884367Y-93213161D01*
X74984369Y-92945046D01*
X75045196Y-92665428D01*
X75063564Y-92408595D01*
X75065610Y-92380001D01*
X75065610Y-92379998D01*
X75052870Y-92201869D01*
X75045196Y-92094572D01*
X74984369Y-91814954D01*
X74884367Y-91546839D01*
X74822494Y-91433528D01*
X74747229Y-91295690D01*
X74747224Y-91295682D01*
X74575745Y-91066612D01*
X74575729Y-91066594D01*
X74373405Y-90864270D01*
X74373387Y-90864254D01*
X74144317Y-90692775D01*
X74144309Y-90692770D01*
X73893166Y-90555635D01*
X73893167Y-90555635D01*
X73785915Y-90515632D01*
X73625046Y-90455631D01*
X73625043Y-90455630D01*
X73625037Y-90455628D01*
X73345433Y-90394804D01*
X73060001Y-90374390D01*
X73059999Y-90374390D01*
X72774566Y-90394804D01*
X72494962Y-90455628D01*
X72226833Y-90555635D01*
X71975690Y-90692770D01*
X71975682Y-90692775D01*
X71746612Y-90864254D01*
X71746594Y-90864270D01*
X71544270Y-91066594D01*
X71544254Y-91066612D01*
X71372775Y-91295682D01*
X71372770Y-91295690D01*
X71235635Y-91546833D01*
X71135628Y-91814962D01*
X71074804Y-92094566D01*
X71054390Y-92379998D01*
X71054390Y-92380001D01*
X71074804Y-92665433D01*
X71135629Y-92945037D01*
X71135631Y-92945046D01*
X71188643Y-93087178D01*
X71227142Y-93190397D01*
X71232126Y-93260088D01*
X71198641Y-93321411D01*
X62932655Y-101587397D01*
X62871332Y-101620882D01*
X62801640Y-101615898D01*
X62757293Y-101587397D01*
X62691569Y-101521673D01*
X62658084Y-101460350D01*
X62663068Y-101390658D01*
X62704940Y-101334725D01*
X62735915Y-101317810D01*
X62867331Y-101268796D01*
X62982546Y-101182546D01*
X63068796Y-101067331D01*
X63119091Y-100932483D01*
X63125500Y-100872873D01*
X63125499Y-99077128D01*
X63119091Y-99017517D01*
X63117810Y-99014083D01*
X63068797Y-98882671D01*
X63068793Y-98882664D01*
X62982547Y-98767455D01*
X62982544Y-98767452D01*
X62867335Y-98681206D01*
X62867328Y-98681202D01*
X62732482Y-98630908D01*
X62732483Y-98630908D01*
X62672883Y-98624501D01*
X62672881Y-98624500D01*
X62672873Y-98624500D01*
X62672864Y-98624500D01*
X60877129Y-98624500D01*
X60877123Y-98624501D01*
X60817516Y-98630908D01*
X60682671Y-98681202D01*
X60682664Y-98681206D01*
X60567455Y-98767452D01*
X60567452Y-98767455D01*
X60481206Y-98882664D01*
X60481203Y-98882669D01*
X60432189Y-99014083D01*
X60390317Y-99070016D01*
X60324853Y-99094433D01*
X60256580Y-99079581D01*
X60228326Y-99058430D01*
X60106402Y-98936506D01*
X60106395Y-98936501D01*
X59912834Y-98800967D01*
X59912830Y-98800965D01*
X59912828Y-98800964D01*
X59698663Y-98701097D01*
X59698659Y-98701096D01*
X59698655Y-98701094D01*
X59470413Y-98639938D01*
X59470403Y-98639936D01*
X59235001Y-98619341D01*
X59234999Y-98619341D01*
X58999596Y-98639936D01*
X58999586Y-98639938D01*
X58771344Y-98701094D01*
X58771335Y-98701098D01*
X58557171Y-98800964D01*
X58557169Y-98800965D01*
X58363597Y-98936505D01*
X58196505Y-99103597D01*
X58060965Y-99297169D01*
X58060964Y-99297171D01*
X57961098Y-99511335D01*
X57961094Y-99511344D01*
X57899938Y-99739586D01*
X57899936Y-99739596D01*
X57879341Y-99974999D01*
X57400500Y-99974999D01*
X57400500Y-99134108D01*
X57400500Y-99092682D01*
X57369954Y-98880231D01*
X57309484Y-98674290D01*
X57309483Y-98674288D01*
X57309482Y-98674284D01*
X57220327Y-98479061D01*
X57220320Y-98479048D01*
X57187211Y-98427531D01*
X57104281Y-98298487D01*
X56995596Y-98173058D01*
X56963724Y-98136275D01*
X56801514Y-97995720D01*
X56801513Y-97995719D01*
X56736991Y-97954253D01*
X56620951Y-97879679D01*
X56620938Y-97879672D01*
X56425715Y-97790517D01*
X56219774Y-97730047D01*
X56219764Y-97730044D01*
X56028754Y-97702582D01*
X56007318Y-97699500D01*
X55965892Y-97699500D01*
X51565892Y-97699500D01*
X51500000Y-97699500D01*
X51392682Y-97699500D01*
X51180235Y-97730044D01*
X51180225Y-97730047D01*
X50974284Y-97790517D01*
X50779061Y-97879672D01*
X50779048Y-97879679D01*
X50598485Y-97995720D01*
X50436275Y-98136275D01*
X50295720Y-98298485D01*
X50179679Y-98479048D01*
X50179672Y-98479061D01*
X50090517Y-98674284D01*
X50030047Y-98880225D01*
X50030044Y-98880235D01*
X49999500Y-99092682D01*
X49000500Y-99092682D01*
X49000500Y-89964339D01*
X82616651Y-89964339D01*
X82616651Y-90161722D01*
X82647529Y-90356678D01*
X82708521Y-90544397D01*
X82708522Y-90544400D01*
X82798133Y-90720270D01*
X82914155Y-90879958D01*
X82914155Y-90879960D01*
X83163543Y-91129348D01*
X83163544Y-91129348D01*
X83696703Y-90596190D01*
X83100547Y-90000034D01*
X83373481Y-90000034D01*
X83373481Y-90131686D01*
X83407555Y-90258852D01*
X83473381Y-90372867D01*
X84403810Y-91303297D01*
X83870651Y-91836454D01*
X84120044Y-92085846D01*
X84279730Y-92201865D01*
X84279736Y-92201869D01*
X84455598Y-92291477D01*
X84455604Y-92291479D01*
X84643320Y-92352470D01*
X84643319Y-92352470D01*
X84838277Y-92383349D01*
X85035660Y-92383349D01*
X85230616Y-92352470D01*
X85230619Y-92352470D01*
X85398451Y-92297938D01*
X84627134Y-91526621D01*
X84741148Y-91592446D01*
X84868314Y-91626520D01*
X84999966Y-91626520D01*
X85127132Y-91592446D01*
X85241148Y-91526620D01*
X85334240Y-91433528D01*
X85400066Y-91319512D01*
X85434140Y-91192346D01*
X85434140Y-91060694D01*
X85400066Y-90933528D01*
X85334240Y-90819513D01*
X85110916Y-90596189D01*
X85110917Y-90596189D01*
X85110917Y-90596190D01*
X86105558Y-91590831D01*
X86160090Y-91422999D01*
X86160090Y-91422996D01*
X86190969Y-91228040D01*
X86190969Y-91030656D01*
X86160090Y-90835699D01*
X86099099Y-90647984D01*
X86099097Y-90647978D01*
X86009489Y-90472116D01*
X86009485Y-90472110D01*
X85893466Y-90312424D01*
X85644075Y-90063031D01*
X85644074Y-90063031D01*
X85110917Y-90596189D01*
X85110916Y-90596189D01*
X84180487Y-89665761D01*
X84066472Y-89599935D01*
X83939306Y-89565861D01*
X83807654Y-89565861D01*
X83680488Y-89599935D01*
X83566473Y-89665761D01*
X83473381Y-89758853D01*
X83407555Y-89872868D01*
X83373481Y-90000034D01*
X83100547Y-90000034D01*
X82702061Y-89601548D01*
X82702060Y-89601548D01*
X82647529Y-89769381D01*
X82616651Y-89964339D01*
X49000500Y-89964339D01*
X49000500Y-84892682D01*
X51199500Y-84892682D01*
X51199500Y-87107317D01*
X51230044Y-87319764D01*
X51230047Y-87319774D01*
X51290517Y-87525715D01*
X51379672Y-87720938D01*
X51379679Y-87720951D01*
X51495720Y-87901514D01*
X51636275Y-88063724D01*
X51743573Y-88156698D01*
X51798487Y-88204281D01*
X51927531Y-88287211D01*
X51979048Y-88320320D01*
X51979061Y-88320327D01*
X52174284Y-88409482D01*
X52174288Y-88409483D01*
X52174290Y-88409484D01*
X52380231Y-88469954D01*
X52380232Y-88469954D01*
X52380235Y-88469955D01*
X52443584Y-88479062D01*
X52592682Y-88500500D01*
X52592683Y-88500500D01*
X54807317Y-88500500D01*
X54807318Y-88500500D01*
X54977851Y-88475980D01*
X55019764Y-88469955D01*
X55019765Y-88469954D01*
X55019769Y-88469954D01*
X55225710Y-88409484D01*
X55225713Y-88409482D01*
X55225715Y-88409482D01*
X55246478Y-88400000D01*
X77324706Y-88400000D01*
X77343853Y-88643297D01*
X77400830Y-88880619D01*
X77494222Y-89106089D01*
X77621737Y-89314173D01*
X77621738Y-89314176D01*
X77675449Y-89377063D01*
X77780241Y-89499759D01*
X77857637Y-89565861D01*
X77965823Y-89658261D01*
X77965826Y-89658262D01*
X78173910Y-89785777D01*
X78399381Y-89879169D01*
X78399378Y-89879169D01*
X78399384Y-89879170D01*
X78399388Y-89879172D01*
X78636698Y-89936146D01*
X78880000Y-89955294D01*
X79123302Y-89936146D01*
X79360612Y-89879172D01*
X79586089Y-89785777D01*
X79794179Y-89658259D01*
X79979759Y-89499759D01*
X80138259Y-89314179D01*
X80265777Y-89106089D01*
X80353444Y-88894440D01*
X83409168Y-88894440D01*
X83409168Y-88894441D01*
X84403810Y-89889083D01*
X84403811Y-89889083D01*
X84936968Y-89355924D01*
X84936968Y-89355923D01*
X84687579Y-89106535D01*
X84527890Y-88990513D01*
X84352020Y-88900902D01*
X84352017Y-88900901D01*
X84164298Y-88839909D01*
X83969342Y-88809031D01*
X83771960Y-88809031D01*
X83577001Y-88839909D01*
X83409168Y-88894440D01*
X80353444Y-88894440D01*
X80359172Y-88880612D01*
X80416146Y-88643302D01*
X80435294Y-88400000D01*
X80416146Y-88156698D01*
X80359172Y-87919388D01*
X80359169Y-87919380D01*
X80265777Y-87693910D01*
X80138262Y-87485826D01*
X80138261Y-87485823D01*
X80102453Y-87443897D01*
X79979759Y-87300241D01*
X79857063Y-87195449D01*
X79794176Y-87141738D01*
X79794173Y-87141737D01*
X79586089Y-87014222D01*
X79360618Y-86920830D01*
X79360621Y-86920830D01*
X79254992Y-86895470D01*
X79123302Y-86863854D01*
X79123300Y-86863853D01*
X79123297Y-86863853D01*
X78880000Y-86844706D01*
X78636702Y-86863853D01*
X78636698Y-86863854D01*
X78494989Y-86897876D01*
X78399380Y-86920830D01*
X78173910Y-87014222D01*
X77965826Y-87141737D01*
X77965823Y-87141738D01*
X77780241Y-87300241D01*
X77621738Y-87485823D01*
X77621737Y-87485826D01*
X77494222Y-87693910D01*
X77400830Y-87919380D01*
X77343853Y-88156702D01*
X77324706Y-88400000D01*
X55246478Y-88400000D01*
X55420938Y-88320327D01*
X55420944Y-88320323D01*
X55420950Y-88320321D01*
X55601513Y-88204281D01*
X55763724Y-88063724D01*
X55904281Y-87901513D01*
X56020321Y-87720950D01*
X56020323Y-87720944D01*
X56020327Y-87720938D01*
X56109482Y-87525715D01*
X56109482Y-87525713D01*
X56109484Y-87525710D01*
X56169954Y-87319769D01*
X56200500Y-87107318D01*
X56200500Y-87000000D01*
X56200500Y-86934108D01*
X56200500Y-85102135D01*
X59149500Y-85102135D01*
X59149500Y-86897870D01*
X59149501Y-86897876D01*
X59155908Y-86957483D01*
X59206202Y-87092328D01*
X59206206Y-87092335D01*
X59292452Y-87207544D01*
X59292455Y-87207547D01*
X59407664Y-87293793D01*
X59407671Y-87293797D01*
X59542517Y-87344091D01*
X59542516Y-87344091D01*
X59549444Y-87344835D01*
X59602127Y-87350500D01*
X61397872Y-87350499D01*
X61457483Y-87344091D01*
X61592331Y-87293796D01*
X61707546Y-87207546D01*
X61793796Y-87092331D01*
X61844091Y-86957483D01*
X61850500Y-86897873D01*
X61850499Y-85102128D01*
X61844091Y-85042517D01*
X61828233Y-85000000D01*
X61793797Y-84907671D01*
X61793793Y-84907664D01*
X61707547Y-84792455D01*
X61707544Y-84792452D01*
X61592335Y-84706206D01*
X61592328Y-84706202D01*
X61457482Y-84655908D01*
X61457483Y-84655908D01*
X61397883Y-84649501D01*
X61397881Y-84649500D01*
X61397873Y-84649500D01*
X61397864Y-84649500D01*
X59602129Y-84649500D01*
X59602123Y-84649501D01*
X59542516Y-84655908D01*
X59407671Y-84706202D01*
X59407664Y-84706206D01*
X59292455Y-84792452D01*
X59292452Y-84792455D01*
X59206206Y-84907664D01*
X59206202Y-84907671D01*
X59155908Y-85042517D01*
X59149501Y-85102116D01*
X59149501Y-85102123D01*
X59149500Y-85102135D01*
X56200500Y-85102135D01*
X56200500Y-84934108D01*
X56200500Y-84892682D01*
X56173689Y-84706206D01*
X56169955Y-84680235D01*
X56169952Y-84680225D01*
X56160931Y-84649500D01*
X56109484Y-84474290D01*
X56109483Y-84474288D01*
X56109482Y-84474284D01*
X56020327Y-84279061D01*
X56020320Y-84279048D01*
X55987211Y-84227531D01*
X55904281Y-84098487D01*
X55871172Y-84060277D01*
X55763724Y-83936275D01*
X55601514Y-83795720D01*
X55601513Y-83795719D01*
X55536991Y-83754253D01*
X55420951Y-83679679D01*
X55420938Y-83679672D01*
X55225715Y-83590517D01*
X55019774Y-83530047D01*
X55019764Y-83530044D01*
X54828754Y-83502582D01*
X54807318Y-83499500D01*
X54765892Y-83499500D01*
X52765892Y-83499500D01*
X52700000Y-83499500D01*
X52592682Y-83499500D01*
X52380235Y-83530044D01*
X52380225Y-83530047D01*
X52174284Y-83590517D01*
X51979061Y-83679672D01*
X51979048Y-83679679D01*
X51798485Y-83795720D01*
X51636275Y-83936275D01*
X51495720Y-84098485D01*
X51379679Y-84279048D01*
X51379672Y-84279061D01*
X51290517Y-84474284D01*
X51230047Y-84680225D01*
X51230044Y-84680235D01*
X51199500Y-84892682D01*
X49000500Y-84892682D01*
X49000500Y-79782155D01*
X75170000Y-79782155D01*
X75170000Y-80830000D01*
X76301399Y-80830000D01*
X76283811Y-80856322D01*
X76208429Y-81038311D01*
X76170000Y-81231509D01*
X76170000Y-81428491D01*
X76208429Y-81621689D01*
X76283811Y-81803678D01*
X76301399Y-81830000D01*
X75170000Y-81830000D01*
X75170000Y-82877844D01*
X75176401Y-82937372D01*
X75176403Y-82937379D01*
X75226645Y-83072086D01*
X75226649Y-83072093D01*
X75312809Y-83187187D01*
X75312812Y-83187190D01*
X75427906Y-83273350D01*
X75427913Y-83273354D01*
X75562620Y-83323596D01*
X75562627Y-83323598D01*
X75622155Y-83329999D01*
X75622172Y-83330000D01*
X76670000Y-83330000D01*
X76670000Y-82198601D01*
X76696322Y-82216189D01*
X76878311Y-82291571D01*
X77071509Y-82330000D01*
X77268491Y-82330000D01*
X77461689Y-82291571D01*
X77643678Y-82216189D01*
X77670000Y-82198601D01*
X77670000Y-83330000D01*
X78717828Y-83330000D01*
X78717844Y-83329999D01*
X78777372Y-83323598D01*
X78777379Y-83323596D01*
X78912086Y-83273354D01*
X78912093Y-83273350D01*
X79027187Y-83187190D01*
X79027190Y-83187187D01*
X79113350Y-83072093D01*
X79113354Y-83072086D01*
X79163596Y-82937379D01*
X79163598Y-82937372D01*
X79169999Y-82877844D01*
X79170000Y-82877827D01*
X79170000Y-82647263D01*
X81245500Y-82647263D01*
X81245500Y-84352736D01*
X81276389Y-84547763D01*
X81322140Y-84688567D01*
X81337409Y-84735561D01*
X81427056Y-84911501D01*
X81427058Y-84911504D01*
X81543115Y-85071246D01*
X81682753Y-85210884D01*
X81832234Y-85319486D01*
X81842499Y-85326944D01*
X82018439Y-85416591D01*
X82143637Y-85457270D01*
X82206236Y-85477610D01*
X82401264Y-85508500D01*
X82401269Y-85508500D01*
X82598736Y-85508500D01*
X82793763Y-85477610D01*
X82981561Y-85416591D01*
X83157501Y-85326944D01*
X83247192Y-85261779D01*
X83317246Y-85210884D01*
X83317248Y-85210881D01*
X83317252Y-85210879D01*
X83456879Y-85071252D01*
X83456881Y-85071248D01*
X83456884Y-85071246D01*
X83556519Y-84934108D01*
X83572944Y-84911501D01*
X83662591Y-84735561D01*
X83723610Y-84547763D01*
X83735248Y-84474284D01*
X83754500Y-84352736D01*
X83754500Y-82647263D01*
X83723610Y-82452236D01*
X83683893Y-82330000D01*
X83662591Y-82264439D01*
X83572944Y-82088499D01*
X83565486Y-82078234D01*
X83456884Y-81928753D01*
X83317246Y-81789115D01*
X83157504Y-81673058D01*
X83157503Y-81673057D01*
X83157501Y-81673056D01*
X82981561Y-81583409D01*
X82981558Y-81583408D01*
X82793763Y-81522389D01*
X82598736Y-81491500D01*
X82598731Y-81491500D01*
X82401269Y-81491500D01*
X82401264Y-81491500D01*
X82206236Y-81522389D01*
X82018441Y-81583408D01*
X81842495Y-81673058D01*
X81682753Y-81789115D01*
X81543115Y-81928753D01*
X81427058Y-82088495D01*
X81337408Y-82264441D01*
X81276389Y-82452236D01*
X81245500Y-82647263D01*
X79170000Y-82647263D01*
X79170000Y-81830000D01*
X78038601Y-81830000D01*
X78056189Y-81803678D01*
X78131571Y-81621689D01*
X78170000Y-81428491D01*
X78170000Y-81231509D01*
X78131571Y-81038311D01*
X78056189Y-80856322D01*
X78038601Y-80830000D01*
X79170000Y-80830000D01*
X79170000Y-79782172D01*
X79169999Y-79782155D01*
X79163598Y-79722627D01*
X79163596Y-79722620D01*
X79113354Y-79587913D01*
X79113350Y-79587906D01*
X79027190Y-79472812D01*
X79027187Y-79472809D01*
X78931615Y-79401263D01*
X86491500Y-79401263D01*
X86491500Y-79598736D01*
X86522389Y-79793763D01*
X86583408Y-79981558D01*
X86583409Y-79981561D01*
X86673056Y-80157501D01*
X86673058Y-80157504D01*
X86789115Y-80317246D01*
X86928753Y-80456884D01*
X87061391Y-80553249D01*
X87088499Y-80572944D01*
X87264439Y-80662591D01*
X87356604Y-80692537D01*
X87452236Y-80723610D01*
X87647264Y-80754500D01*
X87647269Y-80754500D01*
X89352736Y-80754500D01*
X89547763Y-80723610D01*
X89735561Y-80662591D01*
X89911501Y-80572944D01*
X90001192Y-80507779D01*
X90071246Y-80456884D01*
X90071248Y-80456881D01*
X90071252Y-80456879D01*
X90210879Y-80317252D01*
X90210881Y-80317248D01*
X90210884Y-80317246D01*
X90261779Y-80247192D01*
X90326944Y-80157501D01*
X90416591Y-79981561D01*
X90477610Y-79793763D01*
X90488878Y-79722620D01*
X90508500Y-79598736D01*
X90508500Y-79401263D01*
X90477610Y-79206236D01*
X90457270Y-79143637D01*
X90416591Y-79018439D01*
X90326944Y-78842499D01*
X90319486Y-78832234D01*
X90210884Y-78682753D01*
X90071246Y-78543115D01*
X89911504Y-78427058D01*
X89911503Y-78427057D01*
X89911501Y-78427056D01*
X89735561Y-78337409D01*
X89735558Y-78337408D01*
X89547763Y-78276389D01*
X89352736Y-78245500D01*
X89352731Y-78245500D01*
X87647269Y-78245500D01*
X87647264Y-78245500D01*
X87452236Y-78276389D01*
X87264441Y-78337408D01*
X87088495Y-78427058D01*
X86928753Y-78543115D01*
X86789115Y-78682753D01*
X86673058Y-78842495D01*
X86583408Y-79018441D01*
X86522389Y-79206236D01*
X86491500Y-79401263D01*
X78931615Y-79401263D01*
X78912093Y-79386649D01*
X78912086Y-79386645D01*
X78777379Y-79336403D01*
X78777372Y-79336401D01*
X78717844Y-79330000D01*
X77670000Y-79330000D01*
X77670000Y-80461398D01*
X77643678Y-80443811D01*
X77461689Y-80368429D01*
X77268491Y-80330000D01*
X77071509Y-80330000D01*
X76878311Y-80368429D01*
X76696322Y-80443811D01*
X76670000Y-80461398D01*
X76670000Y-79330000D01*
X75622155Y-79330000D01*
X75562627Y-79336401D01*
X75562620Y-79336403D01*
X75427913Y-79386645D01*
X75427906Y-79386649D01*
X75312812Y-79472809D01*
X75312809Y-79472812D01*
X75226649Y-79587906D01*
X75226645Y-79587913D01*
X75176403Y-79722620D01*
X75176401Y-79722627D01*
X75170000Y-79782155D01*
X49000500Y-79782155D01*
X49000500Y-75879998D01*
X71054390Y-75879998D01*
X71054390Y-75880001D01*
X71074804Y-76165433D01*
X71135628Y-76445037D01*
X71235635Y-76713166D01*
X71372770Y-76964309D01*
X71372775Y-76964317D01*
X71544254Y-77193387D01*
X71544270Y-77193405D01*
X71746594Y-77395729D01*
X71746612Y-77395745D01*
X71975682Y-77567224D01*
X71975690Y-77567229D01*
X72226833Y-77704364D01*
X72226832Y-77704364D01*
X72226836Y-77704365D01*
X72226839Y-77704367D01*
X72494954Y-77804369D01*
X72494960Y-77804370D01*
X72494962Y-77804371D01*
X72774566Y-77865195D01*
X72774568Y-77865195D01*
X72774572Y-77865196D01*
X73028220Y-77883337D01*
X73059999Y-77885610D01*
X73060000Y-77885610D01*
X73060001Y-77885610D01*
X73088595Y-77883564D01*
X73345428Y-77865196D01*
X73625046Y-77804369D01*
X73893161Y-77704367D01*
X74144315Y-77567226D01*
X74373395Y-77395739D01*
X74575739Y-77193395D01*
X74747226Y-76964315D01*
X74884367Y-76713161D01*
X74984369Y-76445046D01*
X75045196Y-76165428D01*
X75063564Y-75908595D01*
X75065610Y-75880001D01*
X75065610Y-75879998D01*
X75052870Y-75701869D01*
X75045196Y-75594572D01*
X74984369Y-75314954D01*
X74884367Y-75046839D01*
X74822494Y-74933528D01*
X74747229Y-74795690D01*
X74747224Y-74795682D01*
X74575745Y-74566612D01*
X74575729Y-74566594D01*
X74373405Y-74364270D01*
X74373387Y-74364254D01*
X74144317Y-74192775D01*
X74144309Y-74192770D01*
X73893166Y-74055635D01*
X73893167Y-74055635D01*
X73755476Y-74004279D01*
X73625046Y-73955631D01*
X73625043Y-73955630D01*
X73625037Y-73955628D01*
X73345433Y-73894804D01*
X73060001Y-73874390D01*
X73059999Y-73874390D01*
X72774566Y-73894804D01*
X72494962Y-73955628D01*
X72226833Y-74055635D01*
X71975690Y-74192770D01*
X71975682Y-74192775D01*
X71746612Y-74364254D01*
X71746594Y-74364270D01*
X71544270Y-74566594D01*
X71544254Y-74566612D01*
X71372775Y-74795682D01*
X71372770Y-74795690D01*
X71235635Y-75046833D01*
X71135628Y-75314962D01*
X71074804Y-75594566D01*
X71054390Y-75879998D01*
X49000500Y-75879998D01*
X49000500Y-66092682D01*
X49999500Y-66092682D01*
X49999500Y-72907317D01*
X50030044Y-73119764D01*
X50030047Y-73119774D01*
X50090517Y-73325715D01*
X50179672Y-73520938D01*
X50179679Y-73520951D01*
X50295720Y-73701514D01*
X50436275Y-73863724D01*
X50542342Y-73955631D01*
X50598487Y-74004281D01*
X50660914Y-74044400D01*
X50779048Y-74120320D01*
X50779061Y-74120327D01*
X50974284Y-74209482D01*
X50974288Y-74209483D01*
X50974290Y-74209484D01*
X51180231Y-74269954D01*
X51180232Y-74269954D01*
X51180235Y-74269955D01*
X51243584Y-74279062D01*
X51392682Y-74300500D01*
X51392683Y-74300500D01*
X56007317Y-74300500D01*
X56007318Y-74300500D01*
X56177851Y-74275980D01*
X56219764Y-74269955D01*
X56219765Y-74269954D01*
X56219769Y-74269954D01*
X56425710Y-74209484D01*
X56425713Y-74209482D01*
X56425715Y-74209482D01*
X56620938Y-74120327D01*
X56620944Y-74120323D01*
X56620950Y-74120321D01*
X56801513Y-74004281D01*
X56963724Y-73863724D01*
X57104281Y-73701513D01*
X57220321Y-73520950D01*
X57220323Y-73520944D01*
X57220327Y-73520938D01*
X57246175Y-73464339D01*
X82616651Y-73464339D01*
X82616651Y-73661722D01*
X82647529Y-73856678D01*
X82708521Y-74044397D01*
X82708522Y-74044400D01*
X82798133Y-74220270D01*
X82914155Y-74379958D01*
X82914155Y-74379960D01*
X83163543Y-74629348D01*
X83163544Y-74629348D01*
X83696703Y-74096190D01*
X83100547Y-73500034D01*
X83373481Y-73500034D01*
X83373481Y-73631686D01*
X83407555Y-73758852D01*
X83473381Y-73872867D01*
X84403810Y-74803297D01*
X83870651Y-75336454D01*
X84120044Y-75585846D01*
X84279730Y-75701865D01*
X84279736Y-75701869D01*
X84455598Y-75791477D01*
X84455604Y-75791479D01*
X84643320Y-75852470D01*
X84643319Y-75852470D01*
X84838277Y-75883349D01*
X85035660Y-75883349D01*
X85230616Y-75852470D01*
X85230619Y-75852470D01*
X85398451Y-75797938D01*
X84627134Y-75026621D01*
X84741148Y-75092446D01*
X84868314Y-75126520D01*
X84999966Y-75126520D01*
X85127132Y-75092446D01*
X85241148Y-75026620D01*
X85334240Y-74933528D01*
X85400066Y-74819512D01*
X85434140Y-74692346D01*
X85434140Y-74560694D01*
X85400066Y-74433528D01*
X85334240Y-74319513D01*
X85110916Y-74096189D01*
X85110917Y-74096189D01*
X85110917Y-74096190D01*
X86105558Y-75090831D01*
X86160090Y-74922999D01*
X86160090Y-74922996D01*
X86190969Y-74728040D01*
X86190969Y-74530656D01*
X86160090Y-74335699D01*
X86099099Y-74147984D01*
X86099097Y-74147978D01*
X86009489Y-73972116D01*
X86009485Y-73972110D01*
X85893466Y-73812424D01*
X85644075Y-73563031D01*
X85644074Y-73563031D01*
X85110917Y-74096189D01*
X85110916Y-74096189D01*
X84180487Y-73165761D01*
X84066472Y-73099935D01*
X83939306Y-73065861D01*
X83807654Y-73065861D01*
X83680488Y-73099935D01*
X83566473Y-73165761D01*
X83473381Y-73258853D01*
X83407555Y-73372868D01*
X83373481Y-73500034D01*
X83100547Y-73500034D01*
X82702061Y-73101548D01*
X82702060Y-73101548D01*
X82647529Y-73269381D01*
X82616651Y-73464339D01*
X57246175Y-73464339D01*
X57309482Y-73325715D01*
X57309482Y-73325713D01*
X57309484Y-73325710D01*
X57369954Y-73119769D01*
X57400500Y-72907318D01*
X57400500Y-72800000D01*
X57400500Y-72734108D01*
X57400500Y-66974999D01*
X57879341Y-66974999D01*
X57879341Y-66975000D01*
X57899936Y-67210403D01*
X57899938Y-67210413D01*
X57961094Y-67438655D01*
X57961096Y-67438659D01*
X57961097Y-67438663D01*
X58045499Y-67619663D01*
X58060965Y-67652830D01*
X58060967Y-67652834D01*
X58196501Y-67846395D01*
X58196506Y-67846402D01*
X58363597Y-68013493D01*
X58363603Y-68013498D01*
X58549158Y-68143425D01*
X58592783Y-68198002D01*
X58599977Y-68267500D01*
X58568454Y-68329855D01*
X58549158Y-68346575D01*
X58363597Y-68476505D01*
X58196505Y-68643597D01*
X58060965Y-68837169D01*
X58060964Y-68837171D01*
X57961098Y-69051335D01*
X57961094Y-69051344D01*
X57899938Y-69279586D01*
X57899936Y-69279596D01*
X57879341Y-69514999D01*
X57879341Y-69515000D01*
X57899936Y-69750403D01*
X57899938Y-69750413D01*
X57961094Y-69978655D01*
X57961096Y-69978659D01*
X57961097Y-69978663D01*
X57980502Y-70020277D01*
X58060965Y-70192830D01*
X58060967Y-70192834D01*
X58167310Y-70344706D01*
X58196501Y-70386396D01*
X58196506Y-70386402D01*
X58363597Y-70553493D01*
X58363603Y-70553498D01*
X58549158Y-70683425D01*
X58592783Y-70738002D01*
X58599977Y-70807500D01*
X58568454Y-70869855D01*
X58549158Y-70886575D01*
X58363597Y-71016505D01*
X58196505Y-71183597D01*
X58060965Y-71377169D01*
X58060964Y-71377171D01*
X57961098Y-71591335D01*
X57961094Y-71591344D01*
X57899938Y-71819586D01*
X57899936Y-71819596D01*
X57879341Y-72054999D01*
X57879341Y-72055000D01*
X57899936Y-72290403D01*
X57899938Y-72290413D01*
X57961094Y-72518655D01*
X57961096Y-72518659D01*
X57961097Y-72518663D01*
X57965000Y-72527032D01*
X58060965Y-72732830D01*
X58060967Y-72732834D01*
X58107998Y-72800000D01*
X58196505Y-72926401D01*
X58363599Y-73093495D01*
X58456094Y-73158261D01*
X58557165Y-73229032D01*
X58557167Y-73229033D01*
X58557170Y-73229035D01*
X58771337Y-73328903D01*
X58999592Y-73390063D01*
X59187918Y-73406539D01*
X59234999Y-73410659D01*
X59235000Y-73410659D01*
X59235001Y-73410659D01*
X59274234Y-73407226D01*
X59470408Y-73390063D01*
X59698663Y-73328903D01*
X59912830Y-73229035D01*
X60106401Y-73093495D01*
X60273495Y-72926401D01*
X60403425Y-72740842D01*
X60458002Y-72697217D01*
X60527500Y-72690023D01*
X60589855Y-72721546D01*
X60606575Y-72740842D01*
X60736500Y-72926395D01*
X60736505Y-72926401D01*
X60903599Y-73093495D01*
X60996094Y-73158261D01*
X61097165Y-73229032D01*
X61097167Y-73229033D01*
X61097170Y-73229035D01*
X61311337Y-73328903D01*
X61539592Y-73390063D01*
X61727918Y-73406539D01*
X61774999Y-73410659D01*
X61775000Y-73410659D01*
X61775001Y-73410659D01*
X61814234Y-73407226D01*
X62010408Y-73390063D01*
X62238663Y-73328903D01*
X62452830Y-73229035D01*
X62646401Y-73093495D01*
X62813495Y-72926401D01*
X62949035Y-72732830D01*
X63048903Y-72518663D01*
X63110063Y-72290408D01*
X63130659Y-72055000D01*
X63117098Y-71900000D01*
X77324706Y-71900000D01*
X77343853Y-72143297D01*
X77343853Y-72143300D01*
X77343854Y-72143302D01*
X77379170Y-72290403D01*
X77400830Y-72380619D01*
X77494222Y-72606089D01*
X77621737Y-72814173D01*
X77621738Y-72814176D01*
X77675449Y-72877063D01*
X77780241Y-72999759D01*
X77897532Y-73099935D01*
X77965823Y-73158261D01*
X77965826Y-73158262D01*
X78173910Y-73285777D01*
X78399381Y-73379169D01*
X78399378Y-73379169D01*
X78399384Y-73379170D01*
X78399388Y-73379172D01*
X78636698Y-73436146D01*
X78880000Y-73455294D01*
X79123302Y-73436146D01*
X79360612Y-73379172D01*
X79586089Y-73285777D01*
X79794179Y-73158259D01*
X79979759Y-72999759D01*
X80138259Y-72814179D01*
X80265777Y-72606089D01*
X80353444Y-72394440D01*
X83409168Y-72394440D01*
X83409168Y-72394441D01*
X84403810Y-73389083D01*
X84403811Y-73389083D01*
X84936968Y-72855924D01*
X84936968Y-72855923D01*
X84687579Y-72606535D01*
X84527890Y-72490513D01*
X84352020Y-72400902D01*
X84352017Y-72400901D01*
X84164298Y-72339909D01*
X83969342Y-72309031D01*
X83771960Y-72309031D01*
X83577001Y-72339909D01*
X83409168Y-72394440D01*
X80353444Y-72394440D01*
X80359172Y-72380612D01*
X80416146Y-72143302D01*
X80435294Y-71900000D01*
X80416146Y-71656698D01*
X80359172Y-71419388D01*
X80346359Y-71388454D01*
X80265777Y-71193910D01*
X80138262Y-70985826D01*
X80138261Y-70985823D01*
X80053495Y-70886575D01*
X79979759Y-70800241D01*
X79842985Y-70683425D01*
X79794176Y-70641738D01*
X79794173Y-70641737D01*
X79586089Y-70514222D01*
X79360618Y-70420830D01*
X79360621Y-70420830D01*
X79254992Y-70395470D01*
X79123302Y-70363854D01*
X79123300Y-70363853D01*
X79123297Y-70363853D01*
X78880000Y-70344706D01*
X78636702Y-70363853D01*
X78636698Y-70363854D01*
X78542785Y-70386401D01*
X78399380Y-70420830D01*
X78173910Y-70514222D01*
X77965826Y-70641737D01*
X77965823Y-70641738D01*
X77780241Y-70800241D01*
X77621738Y-70985823D01*
X77621737Y-70985826D01*
X77494222Y-71193910D01*
X77400830Y-71419380D01*
X77343853Y-71656702D01*
X77324706Y-71900000D01*
X63117098Y-71900000D01*
X63110063Y-71819592D01*
X63048903Y-71591337D01*
X62949035Y-71377171D01*
X62943425Y-71369158D01*
X62813494Y-71183597D01*
X62646402Y-71016506D01*
X62646396Y-71016501D01*
X62460842Y-70886575D01*
X62417217Y-70831998D01*
X62410023Y-70762500D01*
X62441546Y-70700145D01*
X62460842Y-70683425D01*
X62520378Y-70641737D01*
X62646401Y-70553495D01*
X62813495Y-70386401D01*
X62936235Y-70211110D01*
X62990811Y-70167486D01*
X63013617Y-70160617D01*
X63066875Y-70150023D01*
X63114744Y-70140501D01*
X63233127Y-70091465D01*
X63339669Y-70020277D01*
X70077789Y-63282155D01*
X75170000Y-63282155D01*
X75170000Y-64330000D01*
X76301399Y-64330000D01*
X76283811Y-64356322D01*
X76208429Y-64538311D01*
X76170000Y-64731509D01*
X76170000Y-64928491D01*
X76208429Y-65121689D01*
X76283811Y-65303678D01*
X76301399Y-65330000D01*
X75170000Y-65330000D01*
X75170000Y-66377844D01*
X75176401Y-66437372D01*
X75176403Y-66437379D01*
X75226645Y-66572086D01*
X75226649Y-66572093D01*
X75312809Y-66687187D01*
X75312812Y-66687190D01*
X75427906Y-66773350D01*
X75427913Y-66773354D01*
X75562620Y-66823596D01*
X75562627Y-66823598D01*
X75622155Y-66829999D01*
X75622172Y-66830000D01*
X76670000Y-66830000D01*
X76670000Y-65698601D01*
X76696322Y-65716189D01*
X76878311Y-65791571D01*
X77071509Y-65830000D01*
X77268491Y-65830000D01*
X77461689Y-65791571D01*
X77643678Y-65716189D01*
X77670000Y-65698601D01*
X77670000Y-66830000D01*
X78717828Y-66830000D01*
X78717844Y-66829999D01*
X78777372Y-66823598D01*
X78777379Y-66823596D01*
X78912086Y-66773354D01*
X78912093Y-66773350D01*
X79027187Y-66687190D01*
X79027190Y-66687187D01*
X79113350Y-66572093D01*
X79113354Y-66572086D01*
X79163596Y-66437379D01*
X79163598Y-66437372D01*
X79169999Y-66377844D01*
X79170000Y-66377827D01*
X79170000Y-66147263D01*
X81245500Y-66147263D01*
X81245500Y-67852736D01*
X81276389Y-68047763D01*
X81325205Y-68198002D01*
X81337409Y-68235561D01*
X81416436Y-68390658D01*
X81427058Y-68411504D01*
X81543115Y-68571246D01*
X81682753Y-68710884D01*
X81832234Y-68819486D01*
X81842499Y-68826944D01*
X82018439Y-68916591D01*
X82143637Y-68957270D01*
X82206236Y-68977610D01*
X82401264Y-69008500D01*
X82401269Y-69008500D01*
X82598736Y-69008500D01*
X82793763Y-68977610D01*
X82981561Y-68916591D01*
X83157501Y-68826944D01*
X83247192Y-68761779D01*
X83317246Y-68710884D01*
X83317248Y-68710881D01*
X83317252Y-68710879D01*
X83456879Y-68571252D01*
X83456881Y-68571248D01*
X83456884Y-68571246D01*
X83537453Y-68460350D01*
X83572944Y-68411501D01*
X83662591Y-68235561D01*
X83723610Y-68047763D01*
X83741869Y-67932482D01*
X83754500Y-67852736D01*
X83754500Y-66147263D01*
X83723610Y-65952236D01*
X83677224Y-65809475D01*
X83662591Y-65764439D01*
X83572944Y-65588499D01*
X83565486Y-65578234D01*
X83456884Y-65428753D01*
X83317246Y-65289115D01*
X83157504Y-65173058D01*
X83157503Y-65173057D01*
X83157501Y-65173056D01*
X82981561Y-65083409D01*
X82981558Y-65083408D01*
X82793763Y-65022389D01*
X82598736Y-64991500D01*
X82598731Y-64991500D01*
X82401269Y-64991500D01*
X82401264Y-64991500D01*
X82206236Y-65022389D01*
X82018441Y-65083408D01*
X81842495Y-65173058D01*
X81682753Y-65289115D01*
X81543115Y-65428753D01*
X81427058Y-65588495D01*
X81337408Y-65764441D01*
X81276389Y-65952236D01*
X81245500Y-66147263D01*
X79170000Y-66147263D01*
X79170000Y-65330000D01*
X78038601Y-65330000D01*
X78056189Y-65303678D01*
X78131571Y-65121689D01*
X78170000Y-64928491D01*
X78170000Y-64731509D01*
X78131571Y-64538311D01*
X78056189Y-64356322D01*
X78038601Y-64330000D01*
X79170000Y-64330000D01*
X79170000Y-63282172D01*
X79169999Y-63282155D01*
X79163598Y-63222627D01*
X79163596Y-63222620D01*
X79113354Y-63087913D01*
X79113350Y-63087906D01*
X79027190Y-62972812D01*
X79027187Y-62972809D01*
X78931615Y-62901263D01*
X86491500Y-62901263D01*
X86491500Y-63098736D01*
X86522389Y-63293763D01*
X86583408Y-63481558D01*
X86583409Y-63481561D01*
X86673056Y-63657501D01*
X86673058Y-63657504D01*
X86789115Y-63817246D01*
X86928753Y-63956884D01*
X87061391Y-64053249D01*
X87088499Y-64072944D01*
X87264439Y-64162591D01*
X87356604Y-64192537D01*
X87452236Y-64223610D01*
X87647264Y-64254500D01*
X87647269Y-64254500D01*
X89352736Y-64254500D01*
X89547763Y-64223610D01*
X89735561Y-64162591D01*
X89911501Y-64072944D01*
X90001192Y-64007779D01*
X90071246Y-63956884D01*
X90071248Y-63956881D01*
X90071252Y-63956879D01*
X90210879Y-63817252D01*
X90210881Y-63817248D01*
X90210884Y-63817246D01*
X90261779Y-63747192D01*
X90326944Y-63657501D01*
X90416591Y-63481561D01*
X90477610Y-63293763D01*
X90488878Y-63222620D01*
X90508500Y-63098736D01*
X90508500Y-62901263D01*
X90477610Y-62706236D01*
X90457270Y-62643637D01*
X90416591Y-62518439D01*
X90326944Y-62342499D01*
X90319486Y-62332234D01*
X90210884Y-62182753D01*
X90071246Y-62043115D01*
X89911504Y-61927058D01*
X89911503Y-61927057D01*
X89911501Y-61927056D01*
X89735561Y-61837409D01*
X89735558Y-61837408D01*
X89547763Y-61776389D01*
X89352736Y-61745500D01*
X89352731Y-61745500D01*
X87647269Y-61745500D01*
X87647264Y-61745500D01*
X87452236Y-61776389D01*
X87264441Y-61837408D01*
X87088495Y-61927058D01*
X86928753Y-62043115D01*
X86789115Y-62182753D01*
X86673058Y-62342495D01*
X86583408Y-62518441D01*
X86522389Y-62706236D01*
X86491500Y-62901263D01*
X78931615Y-62901263D01*
X78912093Y-62886649D01*
X78912086Y-62886645D01*
X78777379Y-62836403D01*
X78777372Y-62836401D01*
X78717844Y-62830000D01*
X77670000Y-62830000D01*
X77670000Y-63961398D01*
X77643678Y-63943811D01*
X77461689Y-63868429D01*
X77268491Y-63830000D01*
X77071509Y-63830000D01*
X76878311Y-63868429D01*
X76696322Y-63943811D01*
X76670000Y-63961398D01*
X76670000Y-62830000D01*
X75622155Y-62830000D01*
X75562627Y-62836401D01*
X75562620Y-62836403D01*
X75427913Y-62886645D01*
X75427906Y-62886649D01*
X75312812Y-62972809D01*
X75312809Y-62972812D01*
X75226649Y-63087906D01*
X75226645Y-63087913D01*
X75176403Y-63222620D01*
X75176401Y-63222627D01*
X75170000Y-63282155D01*
X70077789Y-63282155D01*
X72118589Y-61241355D01*
X72179910Y-61207872D01*
X72249598Y-61212855D01*
X72494954Y-61304369D01*
X72494960Y-61304370D01*
X72494962Y-61304371D01*
X72774566Y-61365195D01*
X72774568Y-61365195D01*
X72774572Y-61365196D01*
X73028220Y-61383337D01*
X73059999Y-61385610D01*
X73060000Y-61385610D01*
X73060001Y-61385610D01*
X73088595Y-61383564D01*
X73345428Y-61365196D01*
X73625046Y-61304369D01*
X73893161Y-61204367D01*
X74144315Y-61067226D01*
X74373395Y-60895739D01*
X74575739Y-60693395D01*
X74747226Y-60464315D01*
X74884367Y-60213161D01*
X74984369Y-59945046D01*
X75045196Y-59665428D01*
X75063564Y-59408595D01*
X75065610Y-59380001D01*
X75065610Y-59379998D01*
X75052870Y-59201869D01*
X75045196Y-59094572D01*
X74984369Y-58814954D01*
X74884367Y-58546839D01*
X74822494Y-58433528D01*
X74747229Y-58295690D01*
X74747224Y-58295682D01*
X74575745Y-58066612D01*
X74575729Y-58066594D01*
X74373405Y-57864270D01*
X74373387Y-57864254D01*
X74144317Y-57692775D01*
X74144309Y-57692770D01*
X73893166Y-57555635D01*
X73893167Y-57555635D01*
X73785915Y-57515632D01*
X73625046Y-57455631D01*
X73625043Y-57455630D01*
X73625037Y-57455628D01*
X73345433Y-57394804D01*
X73060001Y-57374390D01*
X73059999Y-57374390D01*
X72774566Y-57394804D01*
X72494962Y-57455628D01*
X72226833Y-57555635D01*
X71975690Y-57692770D01*
X71975682Y-57692775D01*
X71746612Y-57864254D01*
X71746594Y-57864270D01*
X71544270Y-58066594D01*
X71544254Y-58066612D01*
X71372775Y-58295682D01*
X71372770Y-58295690D01*
X71235635Y-58546833D01*
X71135628Y-58814962D01*
X71074804Y-59094566D01*
X71054390Y-59379998D01*
X71054390Y-59380001D01*
X71074804Y-59665433D01*
X71135629Y-59945037D01*
X71135631Y-59945046D01*
X71188643Y-60087178D01*
X71227142Y-60190397D01*
X71232126Y-60260088D01*
X71198641Y-60321411D01*
X62932655Y-68587397D01*
X62871332Y-68620882D01*
X62801640Y-68615898D01*
X62757293Y-68587397D01*
X62691569Y-68521673D01*
X62658084Y-68460350D01*
X62663068Y-68390658D01*
X62704940Y-68334725D01*
X62735915Y-68317810D01*
X62867331Y-68268796D01*
X62982546Y-68182546D01*
X63068796Y-68067331D01*
X63119091Y-67932483D01*
X63125500Y-67872873D01*
X63125499Y-66077128D01*
X63119091Y-66017517D01*
X63117810Y-66014083D01*
X63068797Y-65882671D01*
X63068793Y-65882664D01*
X62982547Y-65767455D01*
X62982544Y-65767452D01*
X62867335Y-65681206D01*
X62867328Y-65681202D01*
X62732482Y-65630908D01*
X62732483Y-65630908D01*
X62672883Y-65624501D01*
X62672881Y-65624500D01*
X62672873Y-65624500D01*
X62672864Y-65624500D01*
X60877129Y-65624500D01*
X60877123Y-65624501D01*
X60817516Y-65630908D01*
X60682671Y-65681202D01*
X60682664Y-65681206D01*
X60567455Y-65767452D01*
X60567452Y-65767455D01*
X60481206Y-65882664D01*
X60481203Y-65882669D01*
X60432189Y-66014083D01*
X60390317Y-66070016D01*
X60324853Y-66094433D01*
X60256580Y-66079581D01*
X60228326Y-66058430D01*
X60106402Y-65936506D01*
X60106395Y-65936501D01*
X59912834Y-65800967D01*
X59912830Y-65800965D01*
X59912828Y-65800964D01*
X59698663Y-65701097D01*
X59698659Y-65701096D01*
X59698655Y-65701094D01*
X59470413Y-65639938D01*
X59470403Y-65639936D01*
X59235001Y-65619341D01*
X59234999Y-65619341D01*
X58999596Y-65639936D01*
X58999586Y-65639938D01*
X58771344Y-65701094D01*
X58771335Y-65701098D01*
X58557171Y-65800964D01*
X58557169Y-65800965D01*
X58363597Y-65936505D01*
X58196505Y-66103597D01*
X58060965Y-66297169D01*
X58060964Y-66297171D01*
X57961098Y-66511335D01*
X57961094Y-66511344D01*
X57899938Y-66739586D01*
X57899936Y-66739596D01*
X57879341Y-66974999D01*
X57400500Y-66974999D01*
X57400500Y-66134108D01*
X57400500Y-66092682D01*
X57369954Y-65880231D01*
X57309484Y-65674290D01*
X57309483Y-65674288D01*
X57309482Y-65674284D01*
X57220327Y-65479061D01*
X57220320Y-65479048D01*
X57187211Y-65427531D01*
X57104281Y-65298487D01*
X56995596Y-65173058D01*
X56963724Y-65136275D01*
X56801514Y-64995720D01*
X56801513Y-64995719D01*
X56736991Y-64954253D01*
X56620951Y-64879679D01*
X56620938Y-64879672D01*
X56425715Y-64790517D01*
X56219774Y-64730047D01*
X56219764Y-64730044D01*
X56028754Y-64702582D01*
X56007318Y-64699500D01*
X55965892Y-64699500D01*
X51565892Y-64699500D01*
X51500000Y-64699500D01*
X51392682Y-64699500D01*
X51180235Y-64730044D01*
X51180225Y-64730047D01*
X50974284Y-64790517D01*
X50779061Y-64879672D01*
X50779048Y-64879679D01*
X50598485Y-64995720D01*
X50436275Y-65136275D01*
X50295720Y-65298485D01*
X50179679Y-65479048D01*
X50179672Y-65479061D01*
X50090517Y-65674284D01*
X50030047Y-65880225D01*
X50030044Y-65880235D01*
X49999500Y-66092682D01*
X49000500Y-66092682D01*
X49000500Y-56964339D01*
X82616651Y-56964339D01*
X82616651Y-57161722D01*
X82647529Y-57356678D01*
X82708521Y-57544397D01*
X82708522Y-57544400D01*
X82798133Y-57720270D01*
X82914155Y-57879958D01*
X82914155Y-57879960D01*
X83163543Y-58129348D01*
X83163544Y-58129348D01*
X83696703Y-57596190D01*
X83100547Y-57000034D01*
X83373481Y-57000034D01*
X83373481Y-57131686D01*
X83407555Y-57258852D01*
X83473381Y-57372867D01*
X84403810Y-58303297D01*
X83870651Y-58836454D01*
X84120044Y-59085846D01*
X84279730Y-59201865D01*
X84279736Y-59201869D01*
X84455598Y-59291477D01*
X84455604Y-59291479D01*
X84643320Y-59352470D01*
X84643319Y-59352470D01*
X84838277Y-59383349D01*
X85035660Y-59383349D01*
X85230616Y-59352470D01*
X85230619Y-59352470D01*
X85398451Y-59297938D01*
X84627134Y-58526621D01*
X84741148Y-58592446D01*
X84868314Y-58626520D01*
X84999966Y-58626520D01*
X85127132Y-58592446D01*
X85241148Y-58526620D01*
X85334240Y-58433528D01*
X85400066Y-58319512D01*
X85434140Y-58192346D01*
X85434140Y-58060694D01*
X85400066Y-57933528D01*
X85334240Y-57819513D01*
X85110916Y-57596189D01*
X85110917Y-57596189D01*
X85110917Y-57596190D01*
X86105558Y-58590831D01*
X86160090Y-58422999D01*
X86160090Y-58422996D01*
X86190969Y-58228040D01*
X86190969Y-58030656D01*
X86160090Y-57835699D01*
X86099099Y-57647984D01*
X86099097Y-57647978D01*
X86009489Y-57472116D01*
X86009485Y-57472110D01*
X85893466Y-57312424D01*
X85644075Y-57063031D01*
X85644074Y-57063031D01*
X85110917Y-57596189D01*
X85110916Y-57596189D01*
X84180487Y-56665761D01*
X84066472Y-56599935D01*
X83939306Y-56565861D01*
X83807654Y-56565861D01*
X83680488Y-56599935D01*
X83566473Y-56665761D01*
X83473381Y-56758853D01*
X83407555Y-56872868D01*
X83373481Y-57000034D01*
X83100547Y-57000034D01*
X82702061Y-56601548D01*
X82702060Y-56601548D01*
X82647529Y-56769381D01*
X82616651Y-56964339D01*
X49000500Y-56964339D01*
X49000500Y-51892682D01*
X51199500Y-51892682D01*
X51199500Y-54107317D01*
X51230044Y-54319764D01*
X51230047Y-54319774D01*
X51290517Y-54525715D01*
X51379672Y-54720938D01*
X51379679Y-54720951D01*
X51495720Y-54901514D01*
X51636275Y-55063724D01*
X51743573Y-55156698D01*
X51798487Y-55204281D01*
X51927531Y-55287211D01*
X51979048Y-55320320D01*
X51979061Y-55320327D01*
X52174284Y-55409482D01*
X52174288Y-55409483D01*
X52174290Y-55409484D01*
X52380231Y-55469954D01*
X52380232Y-55469954D01*
X52380235Y-55469955D01*
X52443584Y-55479062D01*
X52592682Y-55500500D01*
X52592683Y-55500500D01*
X54807317Y-55500500D01*
X54807318Y-55500500D01*
X54977851Y-55475980D01*
X55019764Y-55469955D01*
X55019765Y-55469954D01*
X55019769Y-55469954D01*
X55225710Y-55409484D01*
X55225713Y-55409482D01*
X55225715Y-55409482D01*
X55246478Y-55400000D01*
X77324706Y-55400000D01*
X77343853Y-55643297D01*
X77400830Y-55880619D01*
X77494222Y-56106089D01*
X77621737Y-56314173D01*
X77621738Y-56314176D01*
X77675449Y-56377063D01*
X77780241Y-56499759D01*
X77857637Y-56565861D01*
X77965823Y-56658261D01*
X77965826Y-56658262D01*
X78173910Y-56785777D01*
X78399381Y-56879169D01*
X78399378Y-56879169D01*
X78399384Y-56879170D01*
X78399388Y-56879172D01*
X78636698Y-56936146D01*
X78880000Y-56955294D01*
X79123302Y-56936146D01*
X79360612Y-56879172D01*
X79586089Y-56785777D01*
X79794179Y-56658259D01*
X79979759Y-56499759D01*
X80138259Y-56314179D01*
X80265777Y-56106089D01*
X80353444Y-55894440D01*
X83409168Y-55894440D01*
X83409168Y-55894441D01*
X84403810Y-56889083D01*
X84403811Y-56889083D01*
X84936968Y-56355924D01*
X84936968Y-56355923D01*
X84687579Y-56106535D01*
X84527890Y-55990513D01*
X84352020Y-55900902D01*
X84352017Y-55900901D01*
X84164298Y-55839909D01*
X83969342Y-55809031D01*
X83771960Y-55809031D01*
X83577001Y-55839909D01*
X83409168Y-55894440D01*
X80353444Y-55894440D01*
X80359172Y-55880612D01*
X80416146Y-55643302D01*
X80435294Y-55400000D01*
X80416146Y-55156698D01*
X80359172Y-54919388D01*
X80359169Y-54919380D01*
X80265777Y-54693910D01*
X80138262Y-54485826D01*
X80138261Y-54485823D01*
X80102453Y-54443897D01*
X79979759Y-54300241D01*
X79857063Y-54195449D01*
X79794176Y-54141738D01*
X79794173Y-54141737D01*
X79586089Y-54014222D01*
X79360618Y-53920830D01*
X79360621Y-53920830D01*
X79254992Y-53895470D01*
X79123302Y-53863854D01*
X79123300Y-53863853D01*
X79123297Y-53863853D01*
X78880000Y-53844706D01*
X78636702Y-53863853D01*
X78636698Y-53863854D01*
X78494989Y-53897876D01*
X78399380Y-53920830D01*
X78173910Y-54014222D01*
X77965826Y-54141737D01*
X77965823Y-54141738D01*
X77780241Y-54300241D01*
X77621738Y-54485823D01*
X77621737Y-54485826D01*
X77494222Y-54693910D01*
X77400830Y-54919380D01*
X77343853Y-55156702D01*
X77324706Y-55400000D01*
X55246478Y-55400000D01*
X55420938Y-55320327D01*
X55420944Y-55320323D01*
X55420950Y-55320321D01*
X55601513Y-55204281D01*
X55763724Y-55063724D01*
X55904281Y-54901513D01*
X56020321Y-54720950D01*
X56020323Y-54720944D01*
X56020327Y-54720938D01*
X56109482Y-54525715D01*
X56109482Y-54525713D01*
X56109484Y-54525710D01*
X56169954Y-54319769D01*
X56200500Y-54107318D01*
X56200500Y-54000000D01*
X56200500Y-53934108D01*
X56200500Y-52102135D01*
X59149500Y-52102135D01*
X59149500Y-53897870D01*
X59149501Y-53897876D01*
X59155908Y-53957483D01*
X59206202Y-54092328D01*
X59206206Y-54092335D01*
X59292452Y-54207544D01*
X59292455Y-54207547D01*
X59407664Y-54293793D01*
X59407671Y-54293797D01*
X59542517Y-54344091D01*
X59542516Y-54344091D01*
X59549444Y-54344835D01*
X59602127Y-54350500D01*
X61397872Y-54350499D01*
X61457483Y-54344091D01*
X61592331Y-54293796D01*
X61707546Y-54207546D01*
X61793796Y-54092331D01*
X61844091Y-53957483D01*
X61850500Y-53897873D01*
X61850499Y-52102128D01*
X61844091Y-52042517D01*
X61828233Y-52000000D01*
X61793797Y-51907671D01*
X61793793Y-51907664D01*
X61707547Y-51792455D01*
X61707544Y-51792452D01*
X61592335Y-51706206D01*
X61592328Y-51706202D01*
X61457482Y-51655908D01*
X61457483Y-51655908D01*
X61397883Y-51649501D01*
X61397881Y-51649500D01*
X61397873Y-51649500D01*
X61397864Y-51649500D01*
X59602129Y-51649500D01*
X59602123Y-51649501D01*
X59542516Y-51655908D01*
X59407671Y-51706202D01*
X59407664Y-51706206D01*
X59292455Y-51792452D01*
X59292452Y-51792455D01*
X59206206Y-51907664D01*
X59206202Y-51907671D01*
X59155908Y-52042517D01*
X59149501Y-52102116D01*
X59149501Y-52102123D01*
X59149500Y-52102135D01*
X56200500Y-52102135D01*
X56200500Y-51934108D01*
X56200500Y-51892682D01*
X56173689Y-51706206D01*
X56169955Y-51680235D01*
X56169952Y-51680225D01*
X56160931Y-51649500D01*
X56109484Y-51474290D01*
X56109483Y-51474288D01*
X56109482Y-51474284D01*
X56020327Y-51279061D01*
X56020320Y-51279048D01*
X55987211Y-51227531D01*
X55904281Y-51098487D01*
X55871172Y-51060277D01*
X55763724Y-50936275D01*
X55601514Y-50795720D01*
X55601513Y-50795719D01*
X55536991Y-50754253D01*
X55420951Y-50679679D01*
X55420938Y-50679672D01*
X55225715Y-50590517D01*
X55019774Y-50530047D01*
X55019764Y-50530044D01*
X54828754Y-50502582D01*
X54807318Y-50499500D01*
X54765892Y-50499500D01*
X52765892Y-50499500D01*
X52700000Y-50499500D01*
X52592682Y-50499500D01*
X52380235Y-50530044D01*
X52380225Y-50530047D01*
X52174284Y-50590517D01*
X51979061Y-50679672D01*
X51979048Y-50679679D01*
X51798485Y-50795720D01*
X51636275Y-50936275D01*
X51495720Y-51098485D01*
X51379679Y-51279048D01*
X51379672Y-51279061D01*
X51290517Y-51474284D01*
X51230047Y-51680225D01*
X51230044Y-51680235D01*
X51199500Y-51892682D01*
X49000500Y-51892682D01*
X49000500Y-46782155D01*
X75170000Y-46782155D01*
X75170000Y-47830000D01*
X76301399Y-47830000D01*
X76283811Y-47856322D01*
X76208429Y-48038311D01*
X76170000Y-48231509D01*
X76170000Y-48428491D01*
X76208429Y-48621689D01*
X76283811Y-48803678D01*
X76301399Y-48830000D01*
X75170000Y-48830000D01*
X75170000Y-49877844D01*
X75176401Y-49937372D01*
X75176403Y-49937379D01*
X75226645Y-50072086D01*
X75226649Y-50072093D01*
X75312809Y-50187187D01*
X75312812Y-50187190D01*
X75427906Y-50273350D01*
X75427913Y-50273354D01*
X75562620Y-50323596D01*
X75562627Y-50323598D01*
X75622155Y-50329999D01*
X75622172Y-50330000D01*
X76670000Y-50330000D01*
X76670000Y-49198601D01*
X76696322Y-49216189D01*
X76878311Y-49291571D01*
X77071509Y-49330000D01*
X77268491Y-49330000D01*
X77461689Y-49291571D01*
X77643678Y-49216189D01*
X77670000Y-49198601D01*
X77670000Y-50330000D01*
X78717828Y-50330000D01*
X78717844Y-50329999D01*
X78777372Y-50323598D01*
X78777379Y-50323596D01*
X78912086Y-50273354D01*
X78912093Y-50273350D01*
X79027187Y-50187190D01*
X79027190Y-50187187D01*
X79113350Y-50072093D01*
X79113354Y-50072086D01*
X79163596Y-49937379D01*
X79163598Y-49937372D01*
X79169999Y-49877844D01*
X79170000Y-49877827D01*
X79170000Y-49647263D01*
X81245500Y-49647263D01*
X81245500Y-51352736D01*
X81276389Y-51547763D01*
X81322140Y-51688567D01*
X81337409Y-51735561D01*
X81427056Y-51911501D01*
X81427058Y-51911504D01*
X81543115Y-52071246D01*
X81682753Y-52210884D01*
X81832234Y-52319486D01*
X81842499Y-52326944D01*
X82018439Y-52416591D01*
X82143637Y-52457270D01*
X82206236Y-52477610D01*
X82401264Y-52508500D01*
X82401269Y-52508500D01*
X82598736Y-52508500D01*
X82793763Y-52477610D01*
X82981561Y-52416591D01*
X83157501Y-52326944D01*
X83247192Y-52261779D01*
X83317246Y-52210884D01*
X83317248Y-52210881D01*
X83317252Y-52210879D01*
X83456879Y-52071252D01*
X83456881Y-52071248D01*
X83456884Y-52071246D01*
X83556519Y-51934108D01*
X83572944Y-51911501D01*
X83662591Y-51735561D01*
X83723610Y-51547763D01*
X83735248Y-51474284D01*
X83754500Y-51352736D01*
X83754500Y-49647263D01*
X83723610Y-49452236D01*
X83683893Y-49330000D01*
X83662591Y-49264439D01*
X83572944Y-49088499D01*
X83565486Y-49078234D01*
X83456884Y-48928753D01*
X83317246Y-48789115D01*
X83157504Y-48673058D01*
X83157503Y-48673057D01*
X83157501Y-48673056D01*
X82981561Y-48583409D01*
X82981558Y-48583408D01*
X82793763Y-48522389D01*
X82598736Y-48491500D01*
X82598731Y-48491500D01*
X82401269Y-48491500D01*
X82401264Y-48491500D01*
X82206236Y-48522389D01*
X82018441Y-48583408D01*
X81842495Y-48673058D01*
X81682753Y-48789115D01*
X81543115Y-48928753D01*
X81427058Y-49088495D01*
X81337408Y-49264441D01*
X81276389Y-49452236D01*
X81245500Y-49647263D01*
X79170000Y-49647263D01*
X79170000Y-48830000D01*
X78038601Y-48830000D01*
X78056189Y-48803678D01*
X78131571Y-48621689D01*
X78170000Y-48428491D01*
X78170000Y-48231509D01*
X78131571Y-48038311D01*
X78056189Y-47856322D01*
X78038601Y-47830000D01*
X79170000Y-47830000D01*
X79170000Y-46782172D01*
X79169999Y-46782155D01*
X79163598Y-46722627D01*
X79163596Y-46722620D01*
X79113354Y-46587913D01*
X79113350Y-46587906D01*
X79027190Y-46472812D01*
X79027187Y-46472809D01*
X78912093Y-46386649D01*
X78912086Y-46386645D01*
X78777379Y-46336403D01*
X78777372Y-46336401D01*
X78717844Y-46330000D01*
X77670000Y-46330000D01*
X77670000Y-47461398D01*
X77643678Y-47443811D01*
X77461689Y-47368429D01*
X77268491Y-47330000D01*
X77071509Y-47330000D01*
X76878311Y-47368429D01*
X76696322Y-47443811D01*
X76670000Y-47461398D01*
X76670000Y-46330000D01*
X75622155Y-46330000D01*
X75562627Y-46336401D01*
X75562620Y-46336403D01*
X75427913Y-46386645D01*
X75427906Y-46386649D01*
X75312812Y-46472809D01*
X75312809Y-46472812D01*
X75226649Y-46587906D01*
X75226645Y-46587913D01*
X75176403Y-46722620D01*
X75176401Y-46722627D01*
X75170000Y-46782155D01*
X49000500Y-46782155D01*
X49000500Y-45624500D01*
X49020185Y-45557461D01*
X49072989Y-45511706D01*
X49124500Y-45500500D01*
X86678168Y-45500500D01*
X86745207Y-45520185D01*
G37*
G04 #@! TD.AperFunction*
M02*
