M48
; DRILL file {KiCad 8.0.3} date 2024-06-29T16:08:02+0200
; FORMAT={-:-/ absolute / metric / decimal}
; #@! TF.CreationDate,2024-06-29T16:08:02+02:00
; #@! TF.GenerationSoftware,Kicad,Pcbnew,8.0.3
; #@! TF.FileFunction,Plated,1,2,PTH
FMAT,2
METRIC
; #@! TA.AperFunction,Plated,PTH,ComponentDrill
T1C1.000
; #@! TA.AperFunction,Plated,PTH,ComponentDrill
T2C1.400
; #@! TA.AperFunction,Plated,PTH,ComponentDrill
T3C2.000
%
G90
G05
T1
X52.212Y-186.11
X52.212Y-188.65
X52.212Y-191.19
X52.212Y-193.73
X52.212Y-196.27
X52.212Y-198.81
X52.212Y-201.35
X52.212Y-203.89
X54.752Y-186.11
X54.752Y-188.65
X54.752Y-191.19
X54.752Y-193.73
X54.752Y-196.27
X54.752Y-198.81
X54.752Y-201.35
X54.752Y-203.89
X59.235Y-66.975
X59.235Y-69.515
X59.235Y-72.055
X59.235Y-99.975
X59.235Y-102.515
X59.235Y-105.055
X59.235Y-132.975
X59.235Y-135.515
X59.235Y-138.055
X60.5Y-53.0
X60.5Y-86.0
X60.5Y-119.0
X60.5Y-152.0
X60.5Y-168.5
X61.5Y-189.98
X61.5Y-192.52
X61.5Y-195.06
X61.5Y-197.6
X61.5Y-200.14
X61.5Y-202.68
X61.5Y-205.22
X61.5Y-207.76
X61.775Y-66.975
X61.775Y-69.515
X61.775Y-72.055
X61.775Y-99.975
X61.775Y-102.515
X61.775Y-105.055
X61.775Y-132.975
X61.775Y-135.515
X61.775Y-138.055
T2
X78.88Y-55.4
X78.88Y-71.9
X78.88Y-88.4
X78.88Y-104.9
X78.88Y-121.4
X78.88Y-137.9
X78.88Y-154.4
X78.88Y-170.9
X78.88Y-187.4
X78.88Y-203.9
T3
X73.06Y-59.38
X73.06Y-75.88
X73.06Y-92.38
X73.06Y-108.88
X73.06Y-125.38
X73.06Y-141.88
X73.06Y-158.38
X73.06Y-174.88
X73.06Y-191.38
X73.06Y-207.88
X77.17Y-48.33
X77.17Y-64.83
X77.17Y-81.33
X77.17Y-97.83
X77.17Y-114.33
X77.17Y-130.83
X77.17Y-147.33
X77.17Y-163.83
X77.17Y-180.33
X77.17Y-196.83
T1
X82.5Y-51.25G85X82.5Y-49.75
G05
X82.5Y-67.75G85X82.5Y-66.25
G05
X82.5Y-84.25G85X82.5Y-82.75
G05
X82.5Y-100.75G85X82.5Y-99.25
G05
X82.5Y-117.25G85X82.5Y-115.75
G05
X82.5Y-133.75G85X82.5Y-132.25
G05
X82.5Y-150.25G85X82.5Y-148.75
G05
X82.5Y-166.75G85X82.5Y-165.25
G05
X82.5Y-183.25G85X82.5Y-181.75
G05
X82.5Y-199.75G85X82.5Y-198.25
G05
X83.873Y-57.066G85X84.934Y-58.127
G05
X83.873Y-73.566G85X84.934Y-74.627
G05
X83.873Y-90.066G85X84.934Y-91.127
G05
X83.873Y-106.566G85X84.934Y-107.627
G05
X83.873Y-123.066G85X84.934Y-124.127
G05
X83.873Y-139.566G85X84.934Y-140.627
G05
X83.873Y-156.066G85X84.934Y-157.127
G05
X83.873Y-172.566G85X84.934Y-173.627
G05
X83.873Y-189.066G85X84.934Y-190.127
G05
X83.873Y-205.566G85X84.934Y-206.627
G05
X87.75Y-46.5G85X89.25Y-46.5
G05
X87.75Y-63.0G85X89.25Y-63.0
G05
X87.75Y-79.5G85X89.25Y-79.5
G05
X87.75Y-96.0G85X89.25Y-96.0
G05
X87.75Y-112.5G85X89.25Y-112.5
G05
X87.75Y-129.0G85X89.25Y-129.0
G05
X87.75Y-145.5G85X89.25Y-145.5
G05
X87.75Y-162.0G85X89.25Y-162.0
G05
X87.75Y-178.5G85X89.25Y-178.5
G05
X87.75Y-195.0G85X89.25Y-195.0
G05
M30
