G04 #@! TF.GenerationSoftware,KiCad,Pcbnew,8.0.3*
G04 #@! TF.CreationDate,2024-06-29T16:07:53+02:00*
G04 #@! TF.ProjectId,DMH_Adapter_Mult_PCB,444d485f-4164-4617-9074-65725f4d756c,1*
G04 #@! TF.SameCoordinates,Original*
G04 #@! TF.FileFunction,Soldermask,Top*
G04 #@! TF.FilePolarity,Negative*
%FSLAX46Y46*%
G04 Gerber Fmt 4.6, Leading zero omitted, Abs format (unit mm)*
G04 Created by KiCad (PCBNEW 8.0.3) date 2024-06-29 16:07:53*
%MOMM*%
%LPD*%
G01*
G04 APERTURE LIST*
G04 Aperture macros list*
%AMRoundRect*
0 Rectangle with rounded corners*
0 $1 Rounding radius*
0 $2 $3 $4 $5 $6 $7 $8 $9 X,Y pos of 4 corners*
0 Add a 4 corners polygon primitive as box body*
4,1,4,$2,$3,$4,$5,$6,$7,$8,$9,$2,$3,0*
0 Add four circle primitives for the rounded corners*
1,1,$1+$1,$2,$3*
1,1,$1+$1,$4,$5*
1,1,$1+$1,$6,$7*
1,1,$1+$1,$8,$9*
0 Add four rect primitives between the rounded corners*
20,1,$1+$1,$2,$3,$4,$5,0*
20,1,$1+$1,$4,$5,$6,$7,0*
20,1,$1+$1,$6,$7,$8,$9,0*
20,1,$1+$1,$8,$9,$2,$3,0*%
%AMHorizOval*
0 Thick line with rounded ends*
0 $1 width*
0 $2 $3 position (X,Y) of the first rounded end (center of the circle)*
0 $4 $5 position (X,Y) of the second rounded end (center of the circle)*
0 Add line between two ends*
20,1,$1,$2,$3,$4,$5,0*
0 Add two circle primitives to create the rounded ends*
1,1,$1,$2,$3*
1,1,$1,$4,$5*%
G04 Aperture macros list end*
%ADD10RoundRect,0.102000X1.500000X-1.500000X1.500000X1.500000X-1.500000X1.500000X-1.500000X-1.500000X0*%
%ADD11C,3.204000*%
%ADD12C,2.304000*%
%ADD13HorizOval,1.712000X-0.533159X0.533159X0.533159X-0.533159X0*%
%ADD14O,3.220000X1.712000*%
%ADD15O,1.712000X3.220000*%
%ADD16R,1.700000X1.700000*%
%ADD17O,1.700000X1.700000*%
%ADD18RoundRect,0.250000X0.600000X0.600000X-0.600000X0.600000X-0.600000X-0.600000X0.600000X-0.600000X0*%
%ADD19C,1.700000*%
G04 APERTURE END LIST*
D10*
X77170000Y-48330000D03*
D11*
X73060000Y-59380000D03*
D12*
X78880000Y-55400000D03*
D10*
X77170000Y-81330000D03*
D11*
X73060000Y-92380000D03*
D12*
X78880000Y-88400000D03*
D10*
X77170000Y-163830000D03*
D11*
X73060000Y-174880000D03*
D12*
X78880000Y-170900000D03*
D10*
X77170000Y-114330000D03*
D11*
X73060000Y-125380000D03*
D12*
X78880000Y-121400000D03*
D10*
X77170000Y-196830000D03*
D11*
X73060000Y-207880000D03*
D12*
X78880000Y-203900000D03*
D10*
X77170000Y-97830000D03*
D11*
X73060000Y-108880000D03*
D12*
X78880000Y-104900000D03*
D10*
X77170000Y-180330000D03*
D11*
X73060000Y-191380000D03*
D12*
X78880000Y-187400000D03*
D10*
X77170000Y-147330000D03*
D11*
X73060000Y-158380000D03*
D12*
X78880000Y-154400000D03*
D10*
X77170000Y-130830000D03*
D11*
X73060000Y-141880000D03*
D12*
X78880000Y-137900000D03*
D10*
X77170000Y-64830000D03*
D11*
X73060000Y-75880000D03*
D12*
X78880000Y-71900000D03*
D13*
X84403810Y-57596190D03*
D14*
X88500000Y-46500000D03*
D15*
X82500000Y-50500000D03*
D13*
X84403810Y-90596190D03*
D14*
X88500000Y-79500000D03*
D15*
X82500000Y-83500000D03*
D13*
X84403810Y-206096190D03*
D14*
X88500000Y-195000000D03*
D15*
X82500000Y-199000000D03*
D13*
X84403810Y-107096190D03*
D14*
X88500000Y-96000000D03*
D15*
X82500000Y-100000000D03*
D13*
X84403810Y-140096190D03*
D14*
X88500000Y-129000000D03*
D15*
X82500000Y-133000000D03*
D13*
X84403810Y-156596190D03*
D14*
X88500000Y-145500000D03*
D15*
X82500000Y-149500000D03*
D13*
X84403810Y-123596190D03*
D14*
X88500000Y-112500000D03*
D15*
X82500000Y-116500000D03*
D13*
X84403810Y-173096190D03*
D14*
X88500000Y-162000000D03*
D15*
X82500000Y-166000000D03*
D13*
X84403810Y-189596190D03*
D14*
X88500000Y-178500000D03*
D15*
X82500000Y-182500000D03*
D13*
X84403810Y-74096190D03*
D14*
X88500000Y-63000000D03*
D15*
X82500000Y-67000000D03*
D16*
X60500000Y-86000000D03*
X61500000Y-189980000D03*
D17*
X61500000Y-192520000D03*
X61500000Y-195060000D03*
X61500000Y-197600000D03*
X61500000Y-200140000D03*
X61500000Y-202680000D03*
X61500000Y-205220000D03*
X61500000Y-207760000D03*
D16*
X61775000Y-66975000D03*
D17*
X61775000Y-69515000D03*
X61775000Y-72055000D03*
X59235000Y-66975000D03*
X59235000Y-69515000D03*
X59235000Y-72055000D03*
D16*
X60500000Y-53000000D03*
X60500000Y-168500000D03*
X60500000Y-152000000D03*
D18*
X54752500Y-186110000D03*
D19*
X52212500Y-186110000D03*
X54752500Y-188650000D03*
X52212500Y-188650000D03*
X54752500Y-191190000D03*
X52212500Y-191190000D03*
X54752500Y-193730000D03*
X52212500Y-193730000D03*
X54752500Y-196270000D03*
X52212500Y-196270000D03*
X54752500Y-198810000D03*
X52212500Y-198810000D03*
X54752500Y-201350000D03*
X52212500Y-201350000D03*
X54752500Y-203890000D03*
X52212500Y-203890000D03*
D16*
X61775000Y-132975000D03*
D17*
X61775000Y-135515000D03*
X61775000Y-138055000D03*
X59235000Y-132975000D03*
X59235000Y-135515000D03*
X59235000Y-138055000D03*
D16*
X60500000Y-119000000D03*
X61775000Y-99975000D03*
D17*
X61775000Y-102515000D03*
X61775000Y-105055000D03*
X59235000Y-99975000D03*
X59235000Y-102515000D03*
X59235000Y-105055000D03*
M02*
